<?xml version="1.0" encoding="utf-8" standalone="no"?>
<!DOCTYPE svg PUBLIC "-//W3C//DTD SVG 1.1//EN"
  "http://www.w3.org/Graphics/SVG/1.1/DTD/svg11.dtd">
<svg xmlns:xlink="http://www.w3.org/1999/xlink" width="496.542812pt" height="352.468125pt" viewBox="0 0 496.542812 352.468125" xmlns="http://www.w3.org/2000/svg" version="1.1">
 <metadata>
  <rdf:RDF xmlns:dc="http://purl.org/dc/elements/1.1/" xmlns:cc="http://creativecommons.org/ns#" xmlns:rdf="http://www.w3.org/1999/02/22-rdf-syntax-ns#">
   <cc:Work>
    <dc:type rdf:resource="http://purl.org/dc/dcmitype/StillImage"/>
    <dc:date>2025-11-17T20:15:57.442820</dc:date>
    <dc:format>image/svg+xml</dc:format>
    <dc:creator>
     <cc:Agent>
      <dc:title>Matplotlib v3.9.2, https://matplotlib.org/</dc:title>
     </cc:Agent>
    </dc:creator>
   </cc:Work>
  </rdf:RDF>
 </metadata>
 <defs>
  <style type="text/css">*{stroke-linejoin: round; stroke-linecap: butt}</style>
 </defs>
 <g id="figure_1">
  <g id="patch_1">
   <path d="M 0 352.468125 
L 496.542812 352.468125 
L 496.542812 0 
L 0 0 
z
" style="fill: #ffffff"/>
  </g>
  <g id="axes_1">
   <g id="patch_2">
    <path d="M 40.862813 314.8 
L 489.342812 314.8 
L 489.342812 7.2 
L 40.862813 7.2 
z
" style="fill: #ffffff"/>
   </g>
   <g id="matplotlib.axis_1">
    <g id="xtick_1">
     <g id="line2d_1">
      <path d="M 92.518078 314.8 
L 92.518078 7.2 
" clip-path="url(#ped936f50c5)" style="fill: none; stroke: #cccccc; stroke-width: 0.8; stroke-linecap: round"/>
     </g>
     <g id="text_1">
      <!-- −1 -->
      <g style="fill: #262626" transform="translate(86.817297 328.957812) scale(0.1 -0.1)">
       <defs>
        <path id="ArialMT-2212" d="M 3381 1997 
L 356 1997 
L 356 2522 
L 3381 2522 
L 3381 1997 
z
" transform="scale(0.015625)"/>
        <path id="ArialMT-31" d="M 2384 0 
L 1822 0 
L 1822 3584 
Q 1619 3391 1289 3197 
Q 959 3003 697 2906 
L 697 3450 
Q 1169 3672 1522 3987 
Q 1875 4303 2022 4600 
L 2384 4600 
L 2384 0 
z
" transform="scale(0.015625)"/>
       </defs>
       <use xlink:href="#ArialMT-2212"/>
       <use xlink:href="#ArialMT-31" x="58.398438"/>
      </g>
     </g>
    </g>
    <g id="xtick_2">
     <g id="line2d_2">
      <path d="M 163.655146 314.8 
L 163.655146 7.2 
" clip-path="url(#ped936f50c5)" style="fill: none; stroke: #cccccc; stroke-width: 0.8; stroke-linecap: round"/>
     </g>
     <g id="text_2">
      <!-- 0 -->
      <g style="fill: #262626" transform="translate(160.874677 328.957812) scale(0.1 -0.1)">
       <defs>
        <path id="ArialMT-30" d="M 266 2259 
Q 266 3072 433 3567 
Q 600 4063 929 4331 
Q 1259 4600 1759 4600 
Q 2128 4600 2406 4451 
Q 2684 4303 2865 4023 
Q 3047 3744 3150 3342 
Q 3253 2941 3253 2259 
Q 3253 1453 3087 958 
Q 2922 463 2592 192 
Q 2263 -78 1759 -78 
Q 1097 -78 719 397 
Q 266 969 266 2259 
z
M 844 2259 
Q 844 1131 1108 757 
Q 1372 384 1759 384 
Q 2147 384 2411 759 
Q 2675 1134 2675 2259 
Q 2675 3391 2411 3762 
Q 2147 4134 1753 4134 
Q 1366 4134 1134 3806 
Q 844 3388 844 2259 
z
" transform="scale(0.015625)"/>
       </defs>
       <use xlink:href="#ArialMT-30"/>
      </g>
     </g>
    </g>
    <g id="xtick_3">
     <g id="line2d_3">
      <path d="M 234.792214 314.8 
L 234.792214 7.2 
" clip-path="url(#ped936f50c5)" style="fill: none; stroke: #cccccc; stroke-width: 0.8; stroke-linecap: round"/>
     </g>
     <g id="text_3">
      <!-- 1 -->
      <g style="fill: #262626" transform="translate(232.011745 328.957812) scale(0.1 -0.1)">
       <use xlink:href="#ArialMT-31"/>
      </g>
     </g>
    </g>
    <g id="xtick_4">
     <g id="line2d_4">
      <path d="M 305.929281 314.8 
L 305.929281 7.2 
" clip-path="url(#ped936f50c5)" style="fill: none; stroke: #cccccc; stroke-width: 0.8; stroke-linecap: round"/>
     </g>
     <g id="text_4">
      <!-- 2 -->
      <g style="fill: #262626" transform="translate(303.148813 328.957812) scale(0.1 -0.1)">
       <defs>
        <path id="ArialMT-32" d="M 3222 541 
L 3222 0 
L 194 0 
Q 188 203 259 391 
Q 375 700 629 1000 
Q 884 1300 1366 1694 
Q 2113 2306 2375 2664 
Q 2638 3022 2638 3341 
Q 2638 3675 2398 3904 
Q 2159 4134 1775 4134 
Q 1369 4134 1125 3890 
Q 881 3647 878 3216 
L 300 3275 
Q 359 3922 746 4261 
Q 1134 4600 1788 4600 
Q 2447 4600 2831 4234 
Q 3216 3869 3216 3328 
Q 3216 3053 3103 2787 
Q 2991 2522 2730 2228 
Q 2469 1934 1863 1422 
Q 1356 997 1212 845 
Q 1069 694 975 541 
L 3222 541 
z
" transform="scale(0.015625)"/>
       </defs>
       <use xlink:href="#ArialMT-32"/>
      </g>
     </g>
    </g>
    <g id="xtick_5">
     <g id="line2d_5">
      <path d="M 377.066349 314.8 
L 377.066349 7.2 
" clip-path="url(#ped936f50c5)" style="fill: none; stroke: #cccccc; stroke-width: 0.8; stroke-linecap: round"/>
     </g>
     <g id="text_5">
      <!-- 3 -->
      <g style="fill: #262626" transform="translate(374.285881 328.957812) scale(0.1 -0.1)">
       <defs>
        <path id="ArialMT-33" d="M 269 1209 
L 831 1284 
Q 928 806 1161 595 
Q 1394 384 1728 384 
Q 2125 384 2398 659 
Q 2672 934 2672 1341 
Q 2672 1728 2419 1979 
Q 2166 2231 1775 2231 
Q 1616 2231 1378 2169 
L 1441 2663 
Q 1497 2656 1531 2656 
Q 1891 2656 2178 2843 
Q 2466 3031 2466 3422 
Q 2466 3731 2256 3934 
Q 2047 4138 1716 4138 
Q 1388 4138 1169 3931 
Q 950 3725 888 3313 
L 325 3413 
Q 428 3978 793 4289 
Q 1159 4600 1703 4600 
Q 2078 4600 2393 4439 
Q 2709 4278 2876 4000 
Q 3044 3722 3044 3409 
Q 3044 3113 2884 2869 
Q 2725 2625 2413 2481 
Q 2819 2388 3044 2092 
Q 3269 1797 3269 1353 
Q 3269 753 2831 336 
Q 2394 -81 1725 -81 
Q 1122 -81 723 278 
Q 325 638 269 1209 
z
" transform="scale(0.015625)"/>
       </defs>
       <use xlink:href="#ArialMT-33"/>
      </g>
     </g>
    </g>
    <g id="xtick_6">
     <g id="line2d_6">
      <path d="M 448.203417 314.8 
L 448.203417 7.2 
" clip-path="url(#ped936f50c5)" style="fill: none; stroke: #cccccc; stroke-width: 0.8; stroke-linecap: round"/>
     </g>
     <g id="text_6">
      <!-- 4 -->
      <g style="fill: #262626" transform="translate(445.422948 328.957812) scale(0.1 -0.1)">
       <defs>
        <path id="ArialMT-34" d="M 2069 0 
L 2069 1097 
L 81 1097 
L 81 1613 
L 2172 4581 
L 2631 4581 
L 2631 1613 
L 3250 1613 
L 3250 1097 
L 2631 1097 
L 2631 0 
L 2069 0 
z
M 2069 1613 
L 2069 3678 
L 634 1613 
L 2069 1613 
z
" transform="scale(0.015625)"/>
       </defs>
       <use xlink:href="#ArialMT-34"/>
      </g>
     </g>
    </g>
    <g id="text_7">
     <!-- Residual (z-score) -->
     <g style="fill: #262626" transform="translate(220.482344 342.952969) scale(0.11 -0.11)">
      <defs>
       <path id="ArialMT-52" d="M 503 0 
L 503 4581 
L 2534 4581 
Q 3147 4581 3465 4457 
Q 3784 4334 3975 4021 
Q 4166 3709 4166 3331 
Q 4166 2844 3850 2509 
Q 3534 2175 2875 2084 
Q 3116 1969 3241 1856 
Q 3506 1613 3744 1247 
L 4541 0 
L 3778 0 
L 3172 953 
Q 2906 1366 2734 1584 
Q 2563 1803 2427 1890 
Q 2291 1978 2150 2013 
Q 2047 2034 1813 2034 
L 1109 2034 
L 1109 0 
L 503 0 
z
M 1109 2559 
L 2413 2559 
Q 2828 2559 3062 2645 
Q 3297 2731 3419 2920 
Q 3541 3109 3541 3331 
Q 3541 3656 3305 3865 
Q 3069 4075 2559 4075 
L 1109 4075 
L 1109 2559 
z
" transform="scale(0.015625)"/>
       <path id="ArialMT-65" d="M 2694 1069 
L 3275 997 
Q 3138 488 2766 206 
Q 2394 -75 1816 -75 
Q 1088 -75 661 373 
Q 234 822 234 1631 
Q 234 2469 665 2931 
Q 1097 3394 1784 3394 
Q 2450 3394 2872 2941 
Q 3294 2488 3294 1666 
Q 3294 1616 3291 1516 
L 816 1516 
Q 847 969 1125 678 
Q 1403 388 1819 388 
Q 2128 388 2347 550 
Q 2566 713 2694 1069 
z
M 847 1978 
L 2700 1978 
Q 2663 2397 2488 2606 
Q 2219 2931 1791 2931 
Q 1403 2931 1139 2672 
Q 875 2413 847 1978 
z
" transform="scale(0.015625)"/>
       <path id="ArialMT-73" d="M 197 991 
L 753 1078 
Q 800 744 1014 566 
Q 1228 388 1613 388 
Q 2000 388 2187 545 
Q 2375 703 2375 916 
Q 2375 1106 2209 1216 
Q 2094 1291 1634 1406 
Q 1016 1563 777 1677 
Q 538 1791 414 1992 
Q 291 2194 291 2438 
Q 291 2659 392 2848 
Q 494 3038 669 3163 
Q 800 3259 1026 3326 
Q 1253 3394 1513 3394 
Q 1903 3394 2198 3281 
Q 2494 3169 2634 2976 
Q 2775 2784 2828 2463 
L 2278 2388 
Q 2241 2644 2061 2787 
Q 1881 2931 1553 2931 
Q 1166 2931 1000 2803 
Q 834 2675 834 2503 
Q 834 2394 903 2306 
Q 972 2216 1119 2156 
Q 1203 2125 1616 2013 
Q 2213 1853 2448 1751 
Q 2684 1650 2818 1456 
Q 2953 1263 2953 975 
Q 2953 694 2789 445 
Q 2625 197 2315 61 
Q 2006 -75 1616 -75 
Q 969 -75 630 194 
Q 291 463 197 991 
z
" transform="scale(0.015625)"/>
       <path id="ArialMT-69" d="M 425 3934 
L 425 4581 
L 988 4581 
L 988 3934 
L 425 3934 
z
M 425 0 
L 425 3319 
L 988 3319 
L 988 0 
L 425 0 
z
" transform="scale(0.015625)"/>
       <path id="ArialMT-64" d="M 2575 0 
L 2575 419 
Q 2259 -75 1647 -75 
Q 1250 -75 917 144 
Q 584 363 401 755 
Q 219 1147 219 1656 
Q 219 2153 384 2558 
Q 550 2963 881 3178 
Q 1213 3394 1622 3394 
Q 1922 3394 2156 3267 
Q 2391 3141 2538 2938 
L 2538 4581 
L 3097 4581 
L 3097 0 
L 2575 0 
z
M 797 1656 
Q 797 1019 1065 703 
Q 1334 388 1700 388 
Q 2069 388 2326 689 
Q 2584 991 2584 1609 
Q 2584 2291 2321 2609 
Q 2059 2928 1675 2928 
Q 1300 2928 1048 2622 
Q 797 2316 797 1656 
z
" transform="scale(0.015625)"/>
       <path id="ArialMT-75" d="M 2597 0 
L 2597 488 
Q 2209 -75 1544 -75 
Q 1250 -75 995 37 
Q 741 150 617 320 
Q 494 491 444 738 
Q 409 903 409 1263 
L 409 3319 
L 972 3319 
L 972 1478 
Q 972 1038 1006 884 
Q 1059 663 1231 536 
Q 1403 409 1656 409 
Q 1909 409 2131 539 
Q 2353 669 2445 892 
Q 2538 1116 2538 1541 
L 2538 3319 
L 3100 3319 
L 3100 0 
L 2597 0 
z
" transform="scale(0.015625)"/>
       <path id="ArialMT-61" d="M 2588 409 
Q 2275 144 1986 34 
Q 1697 -75 1366 -75 
Q 819 -75 525 192 
Q 231 459 231 875 
Q 231 1119 342 1320 
Q 453 1522 633 1644 
Q 813 1766 1038 1828 
Q 1203 1872 1538 1913 
Q 2219 1994 2541 2106 
Q 2544 2222 2544 2253 
Q 2544 2597 2384 2738 
Q 2169 2928 1744 2928 
Q 1347 2928 1158 2789 
Q 969 2650 878 2297 
L 328 2372 
Q 403 2725 575 2942 
Q 747 3159 1072 3276 
Q 1397 3394 1825 3394 
Q 2250 3394 2515 3294 
Q 2781 3194 2906 3042 
Q 3031 2891 3081 2659 
Q 3109 2516 3109 2141 
L 3109 1391 
Q 3109 606 3145 398 
Q 3181 191 3288 0 
L 2700 0 
Q 2613 175 2588 409 
z
M 2541 1666 
Q 2234 1541 1622 1453 
Q 1275 1403 1131 1340 
Q 988 1278 909 1158 
Q 831 1038 831 891 
Q 831 666 1001 516 
Q 1172 366 1500 366 
Q 1825 366 2078 508 
Q 2331 650 2450 897 
Q 2541 1088 2541 1459 
L 2541 1666 
z
" transform="scale(0.015625)"/>
       <path id="ArialMT-6c" d="M 409 0 
L 409 4581 
L 972 4581 
L 972 0 
L 409 0 
z
" transform="scale(0.015625)"/>
       <path id="ArialMT-20" transform="scale(0.015625)"/>
       <path id="ArialMT-28" d="M 1497 -1347 
Q 1031 -759 709 28 
Q 388 816 388 1659 
Q 388 2403 628 3084 
Q 909 3875 1497 4659 
L 1900 4659 
Q 1522 4009 1400 3731 
Q 1209 3300 1100 2831 
Q 966 2247 966 1656 
Q 966 153 1900 -1347 
L 1497 -1347 
z
" transform="scale(0.015625)"/>
       <path id="ArialMT-7a" d="M 125 0 
L 125 456 
L 2238 2881 
Q 1878 2863 1603 2863 
L 250 2863 
L 250 3319 
L 2963 3319 
L 2963 2947 
L 1166 841 
L 819 456 
Q 1197 484 1528 484 
L 3063 484 
L 3063 0 
L 125 0 
z
" transform="scale(0.015625)"/>
       <path id="ArialMT-2d" d="M 203 1375 
L 203 1941 
L 1931 1941 
L 1931 1375 
L 203 1375 
z
" transform="scale(0.015625)"/>
       <path id="ArialMT-63" d="M 2588 1216 
L 3141 1144 
Q 3050 572 2676 248 
Q 2303 -75 1759 -75 
Q 1078 -75 664 370 
Q 250 816 250 1647 
Q 250 2184 428 2587 
Q 606 2991 970 3192 
Q 1334 3394 1763 3394 
Q 2303 3394 2647 3120 
Q 2991 2847 3088 2344 
L 2541 2259 
Q 2463 2594 2264 2762 
Q 2066 2931 1784 2931 
Q 1359 2931 1093 2626 
Q 828 2322 828 1663 
Q 828 994 1084 691 
Q 1341 388 1753 388 
Q 2084 388 2306 591 
Q 2528 794 2588 1216 
z
" transform="scale(0.015625)"/>
       <path id="ArialMT-6f" d="M 213 1659 
Q 213 2581 725 3025 
Q 1153 3394 1769 3394 
Q 2453 3394 2887 2945 
Q 3322 2497 3322 1706 
Q 3322 1066 3130 698 
Q 2938 331 2570 128 
Q 2203 -75 1769 -75 
Q 1072 -75 642 372 
Q 213 819 213 1659 
z
M 791 1659 
Q 791 1022 1069 705 
Q 1347 388 1769 388 
Q 2188 388 2466 706 
Q 2744 1025 2744 1678 
Q 2744 2294 2464 2611 
Q 2184 2928 1769 2928 
Q 1347 2928 1069 2612 
Q 791 2297 791 1659 
z
" transform="scale(0.015625)"/>
       <path id="ArialMT-72" d="M 416 0 
L 416 3319 
L 922 3319 
L 922 2816 
Q 1116 3169 1280 3281 
Q 1444 3394 1641 3394 
Q 1925 3394 2219 3213 
L 2025 2691 
Q 1819 2813 1613 2813 
Q 1428 2813 1281 2702 
Q 1134 2591 1072 2394 
Q 978 2094 978 1738 
L 978 0 
L 416 0 
z
" transform="scale(0.015625)"/>
       <path id="ArialMT-29" d="M 791 -1347 
L 388 -1347 
Q 1322 153 1322 1656 
Q 1322 2244 1188 2822 
Q 1081 3291 891 3722 
Q 769 4003 388 4659 
L 791 4659 
Q 1378 3875 1659 3084 
Q 1900 2403 1900 1659 
Q 1900 816 1576 28 
Q 1253 -759 791 -1347 
z
" transform="scale(0.015625)"/>
      </defs>
      <use xlink:href="#ArialMT-52"/>
      <use xlink:href="#ArialMT-65" x="72.216797"/>
      <use xlink:href="#ArialMT-73" x="127.832031"/>
      <use xlink:href="#ArialMT-69" x="177.832031"/>
      <use xlink:href="#ArialMT-64" x="200.048828"/>
      <use xlink:href="#ArialMT-75" x="255.664062"/>
      <use xlink:href="#ArialMT-61" x="311.279297"/>
      <use xlink:href="#ArialMT-6c" x="366.894531"/>
      <use xlink:href="#ArialMT-20" x="389.111328"/>
      <use xlink:href="#ArialMT-28" x="416.894531"/>
      <use xlink:href="#ArialMT-7a" x="450.195312"/>
      <use xlink:href="#ArialMT-2d" x="500.195312"/>
      <use xlink:href="#ArialMT-73" x="533.496094"/>
      <use xlink:href="#ArialMT-63" x="583.496094"/>
      <use xlink:href="#ArialMT-6f" x="633.496094"/>
      <use xlink:href="#ArialMT-72" x="689.111328"/>
      <use xlink:href="#ArialMT-65" x="722.412109"/>
      <use xlink:href="#ArialMT-29" x="778.027344"/>
     </g>
    </g>
   </g>
   <g id="matplotlib.axis_2">
    <g id="ytick_1">
     <g id="line2d_7">
      <path d="M 40.862813 282.142773 
L 489.342812 282.142773 
" clip-path="url(#ped936f50c5)" style="fill: none; stroke: #cccccc; stroke-width: 0.8; stroke-linecap: round"/>
     </g>
     <g id="text_8">
      <!-- −2 -->
      <g style="fill: #262626" transform="translate(22.46125 285.721679) scale(0.1 -0.1)">
       <use xlink:href="#ArialMT-2212"/>
       <use xlink:href="#ArialMT-32" x="58.398438"/>
      </g>
     </g>
    </g>
    <g id="ytick_2">
     <g id="line2d_8">
      <path d="M 40.862813 220.756654 
L 489.342812 220.756654 
" clip-path="url(#ped936f50c5)" style="fill: none; stroke: #cccccc; stroke-width: 0.8; stroke-linecap: round"/>
     </g>
     <g id="text_9">
      <!-- −1 -->
      <g style="fill: #262626" transform="translate(22.46125 224.33556) scale(0.1 -0.1)">
       <use xlink:href="#ArialMT-2212"/>
       <use xlink:href="#ArialMT-31" x="58.398438"/>
      </g>
     </g>
    </g>
    <g id="ytick_3">
     <g id="line2d_9">
      <path d="M 40.862813 159.370535 
L 489.342812 159.370535 
" clip-path="url(#ped936f50c5)" style="fill: none; stroke: #cccccc; stroke-width: 0.8; stroke-linecap: round"/>
     </g>
     <g id="text_10">
      <!-- 0 -->
      <g style="fill: #262626" transform="translate(28.301875 162.949441) scale(0.1 -0.1)">
       <use xlink:href="#ArialMT-30"/>
      </g>
     </g>
    </g>
    <g id="ytick_4">
     <g id="line2d_10">
      <path d="M 40.862813 97.984416 
L 489.342812 97.984416 
" clip-path="url(#ped936f50c5)" style="fill: none; stroke: #cccccc; stroke-width: 0.8; stroke-linecap: round"/>
     </g>
     <g id="text_11">
      <!-- 1 -->
      <g style="fill: #262626" transform="translate(28.301875 101.563322) scale(0.1 -0.1)">
       <use xlink:href="#ArialMT-31"/>
      </g>
     </g>
    </g>
    <g id="ytick_5">
     <g id="line2d_11">
      <path d="M 40.862813 36.598297 
L 489.342812 36.598297 
" clip-path="url(#ped936f50c5)" style="fill: none; stroke: #cccccc; stroke-width: 0.8; stroke-linecap: round"/>
     </g>
     <g id="text_12">
      <!-- 2 -->
      <g style="fill: #262626" transform="translate(28.301875 40.177203) scale(0.1 -0.1)">
       <use xlink:href="#ArialMT-32"/>
      </g>
     </g>
    </g>
    <g id="text_13">
     <!-- Governance index (z-mean) -->
     <g style="fill: #262626" transform="translate(15.935625 235.361562) rotate(-90) scale(0.12 -0.12)">
      <defs>
       <path id="ArialMT-47" d="M 2638 1797 
L 2638 2334 
L 4578 2338 
L 4578 638 
Q 4131 281 3656 101 
Q 3181 -78 2681 -78 
Q 2006 -78 1454 211 
Q 903 500 622 1047 
Q 341 1594 341 2269 
Q 341 2938 620 3517 
Q 900 4097 1425 4378 
Q 1950 4659 2634 4659 
Q 3131 4659 3532 4498 
Q 3934 4338 4162 4050 
Q 4391 3763 4509 3300 
L 3963 3150 
Q 3859 3500 3706 3700 
Q 3553 3900 3268 4020 
Q 2984 4141 2638 4141 
Q 2222 4141 1919 4014 
Q 1616 3888 1430 3681 
Q 1244 3475 1141 3228 
Q 966 2803 966 2306 
Q 966 1694 1177 1281 
Q 1388 869 1791 669 
Q 2194 469 2647 469 
Q 3041 469 3416 620 
Q 3791 772 3984 944 
L 3984 1797 
L 2638 1797 
z
" transform="scale(0.015625)"/>
       <path id="ArialMT-76" d="M 1344 0 
L 81 3319 
L 675 3319 
L 1388 1331 
Q 1503 1009 1600 663 
Q 1675 925 1809 1294 
L 2547 3319 
L 3125 3319 
L 1869 0 
L 1344 0 
z
" transform="scale(0.015625)"/>
       <path id="ArialMT-6e" d="M 422 0 
L 422 3319 
L 928 3319 
L 928 2847 
Q 1294 3394 1984 3394 
Q 2284 3394 2536 3286 
Q 2788 3178 2913 3003 
Q 3038 2828 3088 2588 
Q 3119 2431 3119 2041 
L 3119 0 
L 2556 0 
L 2556 2019 
Q 2556 2363 2490 2533 
Q 2425 2703 2258 2804 
Q 2091 2906 1866 2906 
Q 1506 2906 1245 2678 
Q 984 2450 984 1813 
L 984 0 
L 422 0 
z
" transform="scale(0.015625)"/>
       <path id="ArialMT-78" d="M 47 0 
L 1259 1725 
L 138 3319 
L 841 3319 
L 1350 2541 
Q 1494 2319 1581 2169 
Q 1719 2375 1834 2534 
L 2394 3319 
L 3066 3319 
L 1919 1756 
L 3153 0 
L 2463 0 
L 1781 1031 
L 1600 1309 
L 728 0 
L 47 0 
z
" transform="scale(0.015625)"/>
       <path id="ArialMT-6d" d="M 422 0 
L 422 3319 
L 925 3319 
L 925 2853 
Q 1081 3097 1340 3245 
Q 1600 3394 1931 3394 
Q 2300 3394 2536 3241 
Q 2772 3088 2869 2813 
Q 3263 3394 3894 3394 
Q 4388 3394 4653 3120 
Q 4919 2847 4919 2278 
L 4919 0 
L 4359 0 
L 4359 2091 
Q 4359 2428 4304 2576 
Q 4250 2725 4106 2815 
Q 3963 2906 3769 2906 
Q 3419 2906 3187 2673 
Q 2956 2441 2956 1928 
L 2956 0 
L 2394 0 
L 2394 2156 
Q 2394 2531 2256 2718 
Q 2119 2906 1806 2906 
Q 1569 2906 1367 2781 
Q 1166 2656 1075 2415 
Q 984 2175 984 1722 
L 984 0 
L 422 0 
z
" transform="scale(0.015625)"/>
      </defs>
      <use xlink:href="#ArialMT-47"/>
      <use xlink:href="#ArialMT-6f" x="77.783203"/>
      <use xlink:href="#ArialMT-76" x="133.398438"/>
      <use xlink:href="#ArialMT-65" x="183.398438"/>
      <use xlink:href="#ArialMT-72" x="239.013672"/>
      <use xlink:href="#ArialMT-6e" x="272.314453"/>
      <use xlink:href="#ArialMT-61" x="327.929688"/>
      <use xlink:href="#ArialMT-6e" x="383.544922"/>
      <use xlink:href="#ArialMT-63" x="439.160156"/>
      <use xlink:href="#ArialMT-65" x="489.160156"/>
      <use xlink:href="#ArialMT-20" x="544.775391"/>
      <use xlink:href="#ArialMT-69" x="572.558594"/>
      <use xlink:href="#ArialMT-6e" x="594.775391"/>
      <use xlink:href="#ArialMT-64" x="650.390625"/>
      <use xlink:href="#ArialMT-65" x="706.005859"/>
      <use xlink:href="#ArialMT-78" x="761.621094"/>
      <use xlink:href="#ArialMT-20" x="811.621094"/>
      <use xlink:href="#ArialMT-28" x="839.404297"/>
      <use xlink:href="#ArialMT-7a" x="872.705078"/>
      <use xlink:href="#ArialMT-2d" x="922.705078"/>
      <use xlink:href="#ArialMT-6d" x="956.005859"/>
      <use xlink:href="#ArialMT-65" x="1039.306641"/>
      <use xlink:href="#ArialMT-61" x="1094.921875"/>
      <use xlink:href="#ArialMT-6e" x="1150.537109"/>
      <use xlink:href="#ArialMT-29" x="1206.152344"/>
     </g>
    </g>
   </g>
   <g id="PathCollection_1">
    <defs>
     <path id="m94b7f2d931" d="M 0 3 
C 0.795609 3 1.55874 2.683901 2.12132 2.12132 
C 2.683901 1.55874 3 0.795609 3 0 
C 3 -0.795609 2.683901 -1.55874 2.12132 -2.12132 
C 1.55874 -2.683901 0.795609 -3 0 -3 
C -0.795609 -3 -1.55874 -2.683901 -2.12132 -2.12132 
C -2.683901 -1.55874 -3 -0.795609 -3 0 
C -3 0.795609 -2.683901 1.55874 -2.12132 2.12132 
C -1.55874 2.683901 -0.795609 3 0 3 
z
" style="stroke: #000000; stroke-opacity: 0.9; stroke-width: 0.25"/>
    </defs>
    <g clip-path="url(#ped936f50c5)">
     <use xlink:href="#m94b7f2d931" x="134.637506" y="165.729603" style="fill: #1f77b4; fill-opacity: 0.9; stroke: #000000; stroke-opacity: 0.9; stroke-width: 0.25"/>
     <use xlink:href="#m94b7f2d931" x="115.305228" y="146.781406" style="fill: #1f77b4; fill-opacity: 0.9; stroke: #000000; stroke-opacity: 0.9; stroke-width: 0.25"/>
     <use xlink:href="#m94b7f2d931" x="61.248267" y="125.613382" style="fill: #1f77b4; fill-opacity: 0.9; stroke: #000000; stroke-opacity: 0.9; stroke-width: 0.25"/>
     <use xlink:href="#m94b7f2d931" x="99.168595" y="206.407033" style="fill: #1f77b4; fill-opacity: 0.9; stroke: #000000; stroke-opacity: 0.9; stroke-width: 0.25"/>
     <use xlink:href="#m94b7f2d931" x="142.049928" y="233.044181" style="fill: #1f77b4; fill-opacity: 0.9; stroke: #000000; stroke-opacity: 0.9; stroke-width: 0.25"/>
     <use xlink:href="#m94b7f2d931" x="85.486344" y="21.181818" style="fill: #1f77b4; fill-opacity: 0.9; stroke: #000000; stroke-opacity: 0.9; stroke-width: 0.25"/>
     <use xlink:href="#m94b7f2d931" x="137.238676" y="136.146053" style="fill: #1f77b4; fill-opacity: 0.9; stroke: #000000; stroke-opacity: 0.9; stroke-width: 0.25"/>
     <use xlink:href="#m94b7f2d931" x="135.992241" y="184.829573" style="fill: #1f77b4; fill-opacity: 0.9; stroke: #000000; stroke-opacity: 0.9; stroke-width: 0.25"/>
     <use xlink:href="#m94b7f2d931" x="168.65235" y="198.200954" style="fill: #1f77b4; fill-opacity: 0.9; stroke: #000000; stroke-opacity: 0.9; stroke-width: 0.25"/>
     <use xlink:href="#m94b7f2d931" x="145.937195" y="261.947057" style="fill: #1f77b4; fill-opacity: 0.9; stroke: #000000; stroke-opacity: 0.9; stroke-width: 0.25"/>
     <use xlink:href="#m94b7f2d931" x="90.80891" y="55.852943" style="fill: #1f77b4; fill-opacity: 0.9; stroke: #000000; stroke-opacity: 0.9; stroke-width: 0.25"/>
     <use xlink:href="#m94b7f2d931" x="229.184836" y="130.403294" style="fill: #1f77b4; fill-opacity: 0.9; stroke: #000000; stroke-opacity: 0.9; stroke-width: 0.25"/>
     <use xlink:href="#m94b7f2d931" x="232.663727" y="215.478326" style="fill: #1f77b4; fill-opacity: 0.9; stroke: #000000; stroke-opacity: 0.9; stroke-width: 0.25"/>
     <use xlink:href="#m94b7f2d931" x="265.742986" y="79.569847" style="fill: #1f77b4; fill-opacity: 0.9; stroke: #000000; stroke-opacity: 0.9; stroke-width: 0.25"/>
     <use xlink:href="#m94b7f2d931" x="265.605117" y="167.940727" style="fill: #1f77b4; fill-opacity: 0.9; stroke: #000000; stroke-opacity: 0.9; stroke-width: 0.25"/>
     <use xlink:href="#m94b7f2d931" x="243.421869" y="193.462316" style="fill: #1f77b4; fill-opacity: 0.9; stroke: #000000; stroke-opacity: 0.9; stroke-width: 0.25"/>
     <use xlink:href="#m94b7f2d931" x="100.26974" y="163.830892" style="fill: #1f77b4; fill-opacity: 0.9; stroke: #000000; stroke-opacity: 0.9; stroke-width: 0.25"/>
     <use xlink:href="#m94b7f2d931" x="127.69289" y="132.755602" style="fill: #1f77b4; fill-opacity: 0.9; stroke: #000000; stroke-opacity: 0.9; stroke-width: 0.25"/>
     <use xlink:href="#m94b7f2d931" x="109.115873" y="257.194505" style="fill: #1f77b4; fill-opacity: 0.9; stroke: #000000; stroke-opacity: 0.9; stroke-width: 0.25"/>
     <use xlink:href="#m94b7f2d931" x="154.462983" y="157.853565" style="fill: #1f77b4; fill-opacity: 0.9; stroke: #000000; stroke-opacity: 0.9; stroke-width: 0.25"/>
     <use xlink:href="#m94b7f2d931" x="108.169872" y="163.231126" style="fill: #1f77b4; fill-opacity: 0.9; stroke: #000000; stroke-opacity: 0.9; stroke-width: 0.25"/>
     <use xlink:href="#m94b7f2d931" x="147.828569" y="56.190599" style="fill: #1f77b4; fill-opacity: 0.9; stroke: #000000; stroke-opacity: 0.9; stroke-width: 0.25"/>
     <use xlink:href="#m94b7f2d931" x="130.863136" y="167.873187" style="fill: #1f77b4; fill-opacity: 0.9; stroke: #000000; stroke-opacity: 0.9; stroke-width: 0.25"/>
     <use xlink:href="#m94b7f2d931" x="140.742887" y="300.818182" style="fill: #1f77b4; fill-opacity: 0.9; stroke: #000000; stroke-opacity: 0.9; stroke-width: 0.25"/>
     <use xlink:href="#m94b7f2d931" x="131.549729" y="282.682491" style="fill: #1f77b4; fill-opacity: 0.9; stroke: #000000; stroke-opacity: 0.9; stroke-width: 0.25"/>
     <use xlink:href="#m94b7f2d931" x="169.471782" y="169.841772" style="fill: #1f77b4; fill-opacity: 0.9; stroke: #000000; stroke-opacity: 0.9; stroke-width: 0.25"/>
     <use xlink:href="#m94b7f2d931" x="152.034688" y="179.411918" style="fill: #1f77b4; fill-opacity: 0.9; stroke: #000000; stroke-opacity: 0.9; stroke-width: 0.25"/>
     <use xlink:href="#m94b7f2d931" x="159.598814" y="127.206367" style="fill: #1f77b4; fill-opacity: 0.9; stroke: #000000; stroke-opacity: 0.9; stroke-width: 0.25"/>
     <use xlink:href="#m94b7f2d931" x="142.621602" y="155.298181" style="fill: #1f77b4; fill-opacity: 0.9; stroke: #000000; stroke-opacity: 0.9; stroke-width: 0.25"/>
     <use xlink:href="#m94b7f2d931" x="100.87651" y="108.63823" style="fill: #1f77b4; fill-opacity: 0.9; stroke: #000000; stroke-opacity: 0.9; stroke-width: 0.25"/>
     <use xlink:href="#m94b7f2d931" x="134.205336" y="162.182454" style="fill: #1f77b4; fill-opacity: 0.9; stroke: #000000; stroke-opacity: 0.9; stroke-width: 0.25"/>
     <use xlink:href="#m94b7f2d931" x="140.955471" y="66.443033" style="fill: #1f77b4; fill-opacity: 0.9; stroke: #000000; stroke-opacity: 0.9; stroke-width: 0.25"/>
     <use xlink:href="#m94b7f2d931" x="133.971527" y="138.862715" style="fill: #1f77b4; fill-opacity: 0.9; stroke: #000000; stroke-opacity: 0.9; stroke-width: 0.25"/>
     <use xlink:href="#m94b7f2d931" x="119.632971" y="122.276704" style="fill: #1f77b4; fill-opacity: 0.9; stroke: #000000; stroke-opacity: 0.9; stroke-width: 0.25"/>
     <use xlink:href="#m94b7f2d931" x="93.027507" y="127.648386" style="fill: #1f77b4; fill-opacity: 0.9; stroke: #000000; stroke-opacity: 0.9; stroke-width: 0.25"/>
     <use xlink:href="#m94b7f2d931" x="114.161093" y="183.708578" style="fill: #1f77b4; fill-opacity: 0.9; stroke: #000000; stroke-opacity: 0.9; stroke-width: 0.25"/>
     <use xlink:href="#m94b7f2d931" x="132.364146" y="137.224186" style="fill: #1f77b4; fill-opacity: 0.9; stroke: #000000; stroke-opacity: 0.9; stroke-width: 0.25"/>
     <use xlink:href="#m94b7f2d931" x="116.579612" y="185.64918" style="fill: #1f77b4; fill-opacity: 0.9; stroke: #000000; stroke-opacity: 0.9; stroke-width: 0.25"/>
     <use xlink:href="#m94b7f2d931" x="172.759623" y="238.961244" style="fill: #1f77b4; fill-opacity: 0.9; stroke: #000000; stroke-opacity: 0.9; stroke-width: 0.25"/>
     <use xlink:href="#m94b7f2d931" x="166.95119" y="244.302861" style="fill: #1f77b4; fill-opacity: 0.9; stroke: #000000; stroke-opacity: 0.9; stroke-width: 0.25"/>
     <use xlink:href="#m94b7f2d931" x="265.171766" y="104.586384" style="fill: #1f77b4; fill-opacity: 0.9; stroke: #000000; stroke-opacity: 0.9; stroke-width: 0.25"/>
     <use xlink:href="#m94b7f2d931" x="279.198198" y="228.24883" style="fill: #1f77b4; fill-opacity: 0.9; stroke: #000000; stroke-opacity: 0.9; stroke-width: 0.25"/>
     <use xlink:href="#m94b7f2d931" x="323.698316" y="122.499578" style="fill: #1f77b4; fill-opacity: 0.9; stroke: #000000; stroke-opacity: 0.9; stroke-width: 0.25"/>
     <use xlink:href="#m94b7f2d931" x="226.43337" y="77.872348" style="fill: #1f77b4; fill-opacity: 0.9; stroke: #000000; stroke-opacity: 0.9; stroke-width: 0.25"/>
     <use xlink:href="#m94b7f2d931" x="468.957358" y="149.623011" style="fill: #1f77b4; fill-opacity: 0.9; stroke: #000000; stroke-opacity: 0.9; stroke-width: 0.25"/>
     <use xlink:href="#m94b7f2d931" x="202.221095" y="155.301542" style="fill: #1f77b4; fill-opacity: 0.9; stroke: #000000; stroke-opacity: 0.9; stroke-width: 0.25"/>
     <use xlink:href="#m94b7f2d931" x="237.746732" y="105.34858" style="fill: #1f77b4; fill-opacity: 0.9; stroke: #000000; stroke-opacity: 0.9; stroke-width: 0.25"/>
     <use xlink:href="#m94b7f2d931" x="205.115798" y="187.732577" style="fill: #1f77b4; fill-opacity: 0.9; stroke: #000000; stroke-opacity: 0.9; stroke-width: 0.25"/>
     <use xlink:href="#m94b7f2d931" x="114.678578" y="223.521414" style="fill: #1f77b4; fill-opacity: 0.9; stroke: #000000; stroke-opacity: 0.9; stroke-width: 0.25"/>
     <use xlink:href="#m94b7f2d931" x="107.025636" y="109.677473" style="fill: #1f77b4; fill-opacity: 0.9; stroke: #000000; stroke-opacity: 0.9; stroke-width: 0.25"/>
     <use xlink:href="#m94b7f2d931" x="183.997609" y="229.575129" style="fill: #1f77b4; fill-opacity: 0.9; stroke: #000000; stroke-opacity: 0.9; stroke-width: 0.25"/>
     <use xlink:href="#m94b7f2d931" x="142.771792" y="40.606463" style="fill: #1f77b4; fill-opacity: 0.9; stroke: #000000; stroke-opacity: 0.9; stroke-width: 0.25"/>
    </g>
   </g>
   <g id="PolyCollection_1">
    <defs>
     <path id="m0bc7967ab1" d="M 61.248267 -223.891833 
L 61.248267 -162.764599 
L 63.297056 -163.171069 
L 65.345846 -163.574742 
L 67.394635 -163.9755 
L 69.443425 -164.373221 
L 71.492214 -164.767778 
L 73.541003 -165.159034 
L 75.589793 -165.546849 
L 77.638582 -165.931075 
L 79.687372 -166.311557 
L 81.736161 -166.688131 
L 83.78495 -167.060628 
L 85.83374 -167.428868 
L 87.882529 -167.792666 
L 89.931319 -168.151826 
L 91.980108 -168.506142 
L 94.028897 -168.855402 
L 96.077687 -169.199381 
L 98.126476 -169.537848 
L 100.175266 -169.87056 
L 102.224055 -170.197263 
L 104.272844 -170.517694 
L 106.321634 -170.831581 
L 108.370423 -171.138641 
L 110.419213 -171.438579 
L 112.468002 -171.731095 
L 114.516791 -172.015874 
L 116.565581 -172.292596 
L 118.61437 -172.560932 
L 120.66316 -172.820544 
L 122.711949 -173.071089 
L 124.760738 -173.312217 
L 126.809528 -173.543576 
L 128.858317 -173.764808 
L 130.907107 -173.975556 
L 132.955896 -174.175463 
L 135.004686 -174.364176 
L 137.053475 -174.541346 
L 139.102264 -174.706632 
L 141.151054 -174.859702 
L 143.199843 -175.000238 
L 145.248633 -175.127937 
L 147.297422 -175.242515 
L 149.346211 -175.343706 
L 151.395001 -175.431272 
L 153.44379 -175.504997 
L 155.49258 -175.564698 
L 157.541369 -175.610219 
L 159.590158 -175.641438 
L 161.638948 -175.658268 
L 163.687737 -175.660654 
L 165.736527 -175.64858 
L 167.785316 -175.622064 
L 169.834105 -175.58116 
L 171.882895 -175.525958 
L 173.931684 -175.45658 
L 175.980474 -175.373183 
L 178.029263 -175.275953 
L 180.078052 -175.165104 
L 182.126842 -175.040877 
L 184.175631 -174.903537 
L 186.224421 -174.753369 
L 188.27321 -174.590678 
L 190.321999 -174.415781 
L 192.370789 -174.22901 
L 194.419578 -174.030707 
L 196.468368 -173.821222 
L 198.517157 -173.600907 
L 200.565946 -173.370119 
L 202.614736 -173.129216 
L 204.663525 -172.878555 
L 206.712315 -172.618488 
L 208.761104 -172.349366 
L 210.809893 -172.07153 
L 212.858683 -171.785318 
L 214.907472 -171.49106 
L 216.956262 -171.189076 
L 219.005051 -170.879678 
L 221.05384 -170.563169 
L 223.10263 -170.239841 
L 225.151419 -169.909978 
L 227.200209 -169.573852 
L 229.248998 -169.231726 
L 231.297787 -168.883852 
L 233.346577 -168.530473 
L 235.395366 -168.171821 
L 237.444156 -167.808119 
L 239.492945 -167.439581 
L 241.541734 -167.066411 
L 243.590524 -166.688804 
L 245.639313 -166.306947 
L 247.688103 -165.921018 
L 249.736892 -165.531187 
L 251.785681 -165.137616 
L 253.834471 -164.740462 
L 255.88326 -164.33987 
L 257.93205 -163.935983 
L 259.980839 -163.528935 
L 262.029628 -163.118854 
L 264.078418 -162.705863 
L 266.127207 -162.290078 
L 268.175997 -161.87161 
L 270.224786 -161.450565 
L 272.273575 -161.027045 
L 274.322365 -160.601146 
L 276.371154 -160.17296 
L 278.419944 -159.742574 
L 280.468733 -159.310074 
L 282.517522 -158.875537 
L 284.566312 -158.439042 
L 286.615101 -158.000661 
L 288.663891 -157.560463 
L 290.71268 -157.118515 
L 292.761469 -156.67488 
L 294.810259 -156.22962 
L 296.859048 -155.782792 
L 298.907838 -155.334451 
L 300.956627 -154.884652 
L 303.005416 -154.433445 
L 305.054206 -153.980877 
L 307.102995 -153.526997 
L 309.151785 -153.071848 
L 311.200574 -152.615473 
L 313.249363 -152.157914 
L 315.298153 -151.699209 
L 317.346942 -151.239395 
L 319.395732 -150.77851 
L 321.444521 -150.316587 
L 323.49331 -149.85366 
L 325.5421 -149.389761 
L 327.590889 -148.92492 
L 329.639679 -148.459166 
L 331.688468 -147.992529 
L 333.737257 -147.525034 
L 335.786047 -147.056708 
L 337.834836 -146.587576 
L 339.883626 -146.117662 
L 341.932415 -145.64699 
L 343.981204 -145.175581 
L 346.029994 -144.703458 
L 348.078783 -144.230641 
L 350.127573 -143.757149 
L 352.176362 -143.283002 
L 354.225151 -142.808219 
L 356.273941 -142.332817 
L 358.32273 -141.856813 
L 360.37152 -141.380225 
L 362.420309 -140.903068 
L 364.469098 -140.425358 
L 366.517888 -139.947109 
L 368.566677 -139.468335 
L 370.615467 -138.989052 
L 372.664256 -138.509272 
L 374.713045 -138.029008 
L 376.761835 -137.548272 
L 378.810624 -137.067078 
L 380.859414 -136.585436 
L 382.908203 -136.103358 
L 384.956992 -135.620855 
L 387.005782 -135.137937 
L 389.054571 -134.654615 
L 391.103361 -134.170898 
L 393.15215 -133.686797 
L 395.200939 -133.202321 
L 397.249729 -132.717478 
L 399.298518 -132.232277 
L 401.347308 -131.746728 
L 403.396097 -131.260837 
L 405.444887 -130.774614 
L 407.493676 -130.288065 
L 409.542465 -129.801198 
L 411.591255 -129.314021 
L 413.640044 -128.826541 
L 415.688834 -128.338764 
L 417.737623 -127.850697 
L 419.786412 -127.362347 
L 421.835202 -126.873719 
L 423.883991 -126.384821 
L 425.932781 -125.895657 
L 427.98157 -125.406234 
L 430.030359 -124.916556 
L 432.079149 -124.426631 
L 434.127938 -123.936462 
L 436.176728 -123.446055 
L 438.225517 -122.955416 
L 440.274306 -122.464547 
L 442.323096 -121.973456 
L 444.371885 -121.482146 
L 446.420675 -120.990621 
L 448.469464 -120.498886 
L 450.518253 -120.006945 
L 452.567043 -119.514803 
L 454.615832 -119.022463 
L 456.664622 -118.529929 
L 458.713411 -118.037206 
L 460.7622 -117.544296 
L 462.81099 -117.051203 
L 464.859779 -116.557932 
L 466.908569 -116.064485 
L 468.957358 -115.570865 
L 468.957358 -269.249204 
L 468.957358 -269.249204 
L 466.908569 -268.764812 
L 464.859779 -268.280593 
L 462.81099 -267.796549 
L 460.7622 -267.312685 
L 458.713411 -266.829003 
L 456.664622 -266.345507 
L 454.615832 -265.862201 
L 452.567043 -265.379089 
L 450.518253 -264.896175 
L 448.469464 -264.413462 
L 446.420675 -263.930955 
L 444.371885 -263.448659 
L 442.323096 -262.966576 
L 440.274306 -262.484713 
L 438.225517 -262.003073 
L 436.176728 -261.521661 
L 434.127938 -261.040482 
L 432.079149 -260.559541 
L 430.030359 -260.078844 
L 427.98157 -259.598394 
L 425.932781 -259.118199 
L 423.883991 -258.638263 
L 421.835202 -258.158592 
L 419.786412 -257.679193 
L 417.737623 -257.200071 
L 415.688834 -256.721232 
L 413.640044 -256.242683 
L 411.591255 -255.76443 
L 409.542465 -255.286481 
L 407.493676 -254.808843 
L 405.444887 -254.331522 
L 403.396097 -253.854526 
L 401.347308 -253.377864 
L 399.298518 -252.901542 
L 397.249729 -252.425569 
L 395.200939 -251.949954 
L 393.15215 -251.474706 
L 391.103361 -250.999833 
L 389.054571 -250.525344 
L 387.005782 -250.05125 
L 384.956992 -249.57756 
L 382.908203 -249.104285 
L 380.859414 -248.631435 
L 378.810624 -248.159021 
L 376.761835 -247.687054 
L 374.713045 -247.215547 
L 372.664256 -246.744511 
L 370.615467 -246.273959 
L 368.566677 -245.803903 
L 366.517888 -245.334358 
L 364.469098 -244.865337 
L 362.420309 -244.396854 
L 360.37152 -243.928925 
L 358.32273 -243.461565 
L 356.273941 -242.994789 
L 354.225151 -242.528615 
L 352.176362 -242.06306 
L 350.127573 -241.598141 
L 348.078783 -241.133878 
L 346.029994 -240.670288 
L 343.981204 -240.207393 
L 341.932415 -239.745212 
L 339.883626 -239.283768 
L 337.834836 -238.823082 
L 335.786047 -238.363178 
L 333.737257 -237.90408 
L 331.688468 -237.445813 
L 329.639679 -236.988403 
L 327.590889 -236.531878 
L 325.5421 -236.076265 
L 323.49331 -235.621593 
L 321.444521 -235.167894 
L 319.395732 -234.715199 
L 317.346942 -234.263542 
L 315.298153 -233.812957 
L 313.249363 -233.363479 
L 311.200574 -232.915148 
L 309.151785 -232.468001 
L 307.102995 -232.02208 
L 305.054206 -231.577428 
L 303.005416 -231.134089 
L 300.956627 -230.692109 
L 298.907838 -230.251538 
L 296.859048 -229.812425 
L 294.810259 -229.374825 
L 292.761469 -228.938793 
L 290.71268 -228.504386 
L 288.663891 -228.071666 
L 286.615101 -227.640696 
L 284.566312 -227.211542 
L 282.517522 -226.784275 
L 280.468733 -226.358967 
L 278.419944 -225.935694 
L 276.371154 -225.514537 
L 274.322365 -225.095579 
L 272.273575 -224.678907 
L 270.224786 -224.264615 
L 268.175997 -223.852799 
L 266.127207 -223.443558 
L 264.078418 -223.037001 
L 262.029628 -222.633238 
L 259.980839 -222.232385 
L 257.93205 -221.834565 
L 255.88326 -221.439906 
L 253.834471 -221.048542 
L 251.785681 -220.660615 
L 249.736892 -220.276273 
L 247.688103 -219.89567 
L 245.639313 -219.518969 
L 243.590524 -219.14634 
L 241.541734 -218.777961 
L 239.492945 -218.414018 
L 237.444156 -218.054708 
L 235.395366 -217.700235 
L 233.346577 -217.350811 
L 231.297787 -217.006659 
L 229.248998 -216.668013 
L 227.200209 -216.335115 
L 225.151419 -216.008217 
L 223.10263 -215.687582 
L 221.05384 -215.373482 
L 219.005051 -215.066201 
L 216.956262 -214.766031 
L 214.907472 -214.473275 
L 212.858683 -214.188245 
L 210.809893 -213.911261 
L 208.761104 -213.642653 
L 206.712315 -213.382758 
L 204.663525 -213.13192 
L 202.614736 -212.890486 
L 200.565946 -212.658812 
L 198.517157 -212.437252 
L 196.468368 -212.226165 
L 194.419578 -212.025907 
L 192.370789 -211.836832 
L 190.321999 -211.65929 
L 188.27321 -211.493621 
L 186.224421 -211.340157 
L 184.175631 -211.199217 
L 182.126842 -211.071105 
L 180.078052 -210.956107 
L 178.029263 -210.854486 
L 175.980474 -210.766483 
L 173.931684 -210.692314 
L 171.882895 -210.632164 
L 169.834105 -210.58619 
L 167.785316 -210.554514 
L 165.736527 -210.537226 
L 163.687737 -210.53438 
L 161.638948 -210.545994 
L 159.590158 -210.572052 
L 157.541369 -210.612499 
L 155.49258 -210.667248 
L 153.44379 -210.736176 
L 151.395001 -210.81913 
L 149.346211 -210.915924 
L 147.297422 -211.026343 
L 145.248633 -211.150148 
L 143.199843 -211.287075 
L 141.151054 -211.436839 
L 139.102264 -211.599137 
L 137.053475 -211.773651 
L 135.004686 -211.960049 
L 132.955896 -212.15799 
L 130.907107 -212.367126 
L 128.858317 -212.587102 
L 126.809528 -212.817561 
L 124.760738 -213.058148 
L 122.711949 -213.308504 
L 120.66316 -213.568277 
L 118.61437 -213.837117 
L 116.565581 -214.114681 
L 114.516791 -214.400631 
L 112.468002 -214.694638 
L 110.419213 -214.996381 
L 108.370423 -215.305548 
L 106.321634 -215.621835 
L 104.272844 -215.94495 
L 102.224055 -216.27461 
L 100.175266 -216.610541 
L 98.126476 -216.95248 
L 96.077687 -217.300175 
L 94.028897 -217.653383 
L 91.980108 -218.01187 
L 89.931319 -218.375415 
L 87.882529 -218.743802 
L 85.83374 -219.116828 
L 83.78495 -219.494296 
L 81.736161 -219.876021 
L 79.687372 -220.261823 
L 77.638582 -220.651533 
L 75.589793 -221.044987 
L 73.541003 -221.44203 
L 71.492214 -221.842514 
L 69.443425 -222.246298 
L 67.394635 -222.653248 
L 65.345846 -223.063234 
L 63.297056 -223.476135 
L 61.248267 -223.891833 
z
" style="stroke: #2c7bb6; stroke-opacity: 0.18"/>
    </defs>
    <g clip-path="url(#ped936f50c5)">
     <use xlink:href="#m0bc7967ab1" x="0" y="352.468125" style="fill: #2c7bb6; fill-opacity: 0.18; stroke: #2c7bb6; stroke-opacity: 0.18"/>
    </g>
   </g>
   <g id="line2d_12">
    <path d="M 61.248267 159.139909 
L 468.957358 160.058091 
L 468.957358 160.058091 
" clip-path="url(#ped936f50c5)" style="fill: none; stroke: #2c7bb6; stroke-width: 2; stroke-linecap: round"/>
   </g>
   <g id="line2d_13">
    <path d="M 61.248267 82.011866 
L 85.486344 114.206056 
L 90.80891 119.669669 
L 93.027507 121.550095 
L 99.168595 129.475823 
L 100.26974 132.239076 
L 100.87651 133.90306 
L 107.025636 149.591173 
L 108.169872 152.332171 
L 109.115873 154.532147 
L 114.161093 163.254042 
L 114.678578 163.832239 
L 115.305228 164.436803 
L 116.579612 165.268656 
L 119.632971 165.593417 
L 127.69289 164.004212 
L 130.863136 161.155339 
L 131.549729 160.970573 
L 132.364146 160.797869 
L 133.971527 160.264748 
L 134.205336 160.254726 
L 134.637506 160.236515 
L 135.992241 160.126866 
L 137.238676 159.910762 
L 140.742887 159.361856 
L 140.955471 159.352791 
L 142.049928 159.238252 
L 142.621602 159.317111 
L 142.771792 159.37782 
L 145.937195 163.005338 
L 147.828569 166.418499 
L 152.034688 173.004279 
L 154.462983 176.996421 
L 159.598814 185.069879 
L 166.95119 196.175154 
L 168.65235 196.78772 
L 169.471782 196.398481 
L 172.759623 193.83398 
L 183.997609 189.705837 
L 202.221095 172.837953 
L 205.115798 171.033262 
L 226.43337 158.79422 
L 229.184836 157.419097 
L 232.663727 155.687856 
L 237.746732 153.300031 
L 243.421869 150.921407 
L 265.171766 142.518471 
L 265.605117 142.352931 
L 265.742986 142.30029 
L 279.198198 137.298052 
L 323.698316 132.53948 
L 468.957358 142.822548 
" clip-path="url(#ped936f50c5)" style="fill: none; stroke-dasharray: 7.4,3.2; stroke-dashoffset: 0; stroke: #fdae61; stroke-width: 2"/>
   </g>
   <g id="line2d_14">
    <path d="M 163.655146 314.8 
L 163.655146 7.2 
" clip-path="url(#ped936f50c5)" style="fill: none; stroke-dasharray: 3.7,1.6; stroke-dashoffset: 0; stroke: #999999"/>
   </g>
   <g id="patch_3">
    <path d="M 40.862813 314.8 
L 40.862813 7.2 
" style="fill: none; stroke: #cccccc; stroke-width: 0.8; stroke-linejoin: miter; stroke-linecap: square"/>
   </g>
   <g id="patch_4">
    <path d="M 489.342812 314.8 
L 489.342812 7.2 
" style="fill: none; stroke: #cccccc; stroke-width: 0.8; stroke-linejoin: miter; stroke-linecap: square"/>
   </g>
   <g id="patch_5">
    <path d="M 40.862813 314.8 
L 489.342812 314.8 
" style="fill: none; stroke: #cccccc; stroke-width: 0.8; stroke-linejoin: miter; stroke-linecap: square"/>
   </g>
   <g id="patch_6">
    <path d="M 40.862813 7.2 
L 489.342812 7.2 
" style="fill: none; stroke: #cccccc; stroke-width: 0.8; stroke-linejoin: miter; stroke-linecap: square"/>
   </g>
   <g id="text_14">
    <g id="patch_7">
     <path d="M 368.022544 312.23675 
L 484.858012 312.23675 
Q 486.658012 312.23675 486.658012 310.43675 
L 486.658012 302.17925 
Q 486.658012 300.37925 484.858012 300.37925 
L 368.022544 300.37925 
Q 366.222544 300.37925 366.222544 302.17925 
L 366.222544 310.43675 
Q 366.222544 312.23675 368.022544 312.23675 
z
" style="fill: #ffffff; opacity: 0.6; stroke: #ffffff; stroke-linejoin: miter"/>
    </g>
    <!-- N=52  slope=-0.003  p=0.985 -->
    <g style="fill: #262626" transform="translate(368.022544 308.648) scale(0.09 -0.09)">
     <defs>
      <path id="ArialMT-4e" d="M 488 0 
L 488 4581 
L 1109 4581 
L 3516 984 
L 3516 4581 
L 4097 4581 
L 4097 0 
L 3475 0 
L 1069 3600 
L 1069 0 
L 488 0 
z
" transform="scale(0.015625)"/>
      <path id="ArialMT-3d" d="M 3381 2694 
L 356 2694 
L 356 3219 
L 3381 3219 
L 3381 2694 
z
M 3381 1303 
L 356 1303 
L 356 1828 
L 3381 1828 
L 3381 1303 
z
" transform="scale(0.015625)"/>
      <path id="ArialMT-35" d="M 266 1200 
L 856 1250 
Q 922 819 1161 601 
Q 1400 384 1738 384 
Q 2144 384 2425 690 
Q 2706 997 2706 1503 
Q 2706 1984 2436 2262 
Q 2166 2541 1728 2541 
Q 1456 2541 1237 2417 
Q 1019 2294 894 2097 
L 366 2166 
L 809 4519 
L 3088 4519 
L 3088 3981 
L 1259 3981 
L 1013 2750 
Q 1425 3038 1878 3038 
Q 2478 3038 2890 2622 
Q 3303 2206 3303 1553 
Q 3303 931 2941 478 
Q 2500 -78 1738 -78 
Q 1113 -78 717 272 
Q 322 622 266 1200 
z
" transform="scale(0.015625)"/>
      <path id="ArialMT-70" d="M 422 -1272 
L 422 3319 
L 934 3319 
L 934 2888 
Q 1116 3141 1344 3267 
Q 1572 3394 1897 3394 
Q 2322 3394 2647 3175 
Q 2972 2956 3137 2557 
Q 3303 2159 3303 1684 
Q 3303 1175 3120 767 
Q 2938 359 2589 142 
Q 2241 -75 1856 -75 
Q 1575 -75 1351 44 
Q 1128 163 984 344 
L 984 -1272 
L 422 -1272 
z
M 931 1641 
Q 931 1000 1190 694 
Q 1450 388 1819 388 
Q 2194 388 2461 705 
Q 2728 1022 2728 1688 
Q 2728 2322 2467 2637 
Q 2206 2953 1844 2953 
Q 1484 2953 1207 2617 
Q 931 2281 931 1641 
z
" transform="scale(0.015625)"/>
      <path id="ArialMT-2e" d="M 581 0 
L 581 641 
L 1222 641 
L 1222 0 
L 581 0 
z
" transform="scale(0.015625)"/>
      <path id="ArialMT-39" d="M 350 1059 
L 891 1109 
Q 959 728 1153 556 
Q 1347 384 1650 384 
Q 1909 384 2104 503 
Q 2300 622 2425 820 
Q 2550 1019 2634 1356 
Q 2719 1694 2719 2044 
Q 2719 2081 2716 2156 
Q 2547 1888 2255 1720 
Q 1963 1553 1622 1553 
Q 1053 1553 659 1965 
Q 266 2378 266 3053 
Q 266 3750 677 4175 
Q 1088 4600 1706 4600 
Q 2153 4600 2523 4359 
Q 2894 4119 3086 3673 
Q 3278 3228 3278 2384 
Q 3278 1506 3087 986 
Q 2897 466 2520 194 
Q 2144 -78 1638 -78 
Q 1100 -78 759 220 
Q 419 519 350 1059 
z
M 2653 3081 
Q 2653 3566 2395 3850 
Q 2138 4134 1775 4134 
Q 1400 4134 1122 3828 
Q 844 3522 844 3034 
Q 844 2597 1108 2323 
Q 1372 2050 1759 2050 
Q 2150 2050 2401 2323 
Q 2653 2597 2653 3081 
z
" transform="scale(0.015625)"/>
      <path id="ArialMT-38" d="M 1131 2484 
Q 781 2613 612 2850 
Q 444 3088 444 3419 
Q 444 3919 803 4259 
Q 1163 4600 1759 4600 
Q 2359 4600 2725 4251 
Q 3091 3903 3091 3403 
Q 3091 3084 2923 2848 
Q 2756 2613 2416 2484 
Q 2838 2347 3058 2040 
Q 3278 1734 3278 1309 
Q 3278 722 2862 322 
Q 2447 -78 1769 -78 
Q 1091 -78 675 323 
Q 259 725 259 1325 
Q 259 1772 486 2073 
Q 713 2375 1131 2484 
z
M 1019 3438 
Q 1019 3113 1228 2906 
Q 1438 2700 1772 2700 
Q 2097 2700 2305 2904 
Q 2513 3109 2513 3406 
Q 2513 3716 2298 3927 
Q 2084 4138 1766 4138 
Q 1444 4138 1231 3931 
Q 1019 3725 1019 3438 
z
M 838 1322 
Q 838 1081 952 856 
Q 1066 631 1291 507 
Q 1516 384 1775 384 
Q 2178 384 2440 643 
Q 2703 903 2703 1303 
Q 2703 1709 2433 1975 
Q 2163 2241 1756 2241 
Q 1359 2241 1098 1978 
Q 838 1716 838 1322 
z
" transform="scale(0.015625)"/>
     </defs>
     <use xlink:href="#ArialMT-4e"/>
     <use xlink:href="#ArialMT-3d" x="72.216797"/>
     <use xlink:href="#ArialMT-35" x="130.615234"/>
     <use xlink:href="#ArialMT-32" x="186.230469"/>
     <use xlink:href="#ArialMT-20" x="241.845703"/>
     <use xlink:href="#ArialMT-20" x="269.628906"/>
     <use xlink:href="#ArialMT-73" x="297.412109"/>
     <use xlink:href="#ArialMT-6c" x="347.412109"/>
     <use xlink:href="#ArialMT-6f" x="369.628906"/>
     <use xlink:href="#ArialMT-70" x="425.244141"/>
     <use xlink:href="#ArialMT-65" x="480.859375"/>
     <use xlink:href="#ArialMT-3d" x="536.474609"/>
     <use xlink:href="#ArialMT-2d" x="594.873047"/>
     <use xlink:href="#ArialMT-30" x="628.173828"/>
     <use xlink:href="#ArialMT-2e" x="683.789062"/>
     <use xlink:href="#ArialMT-30" x="711.572266"/>
     <use xlink:href="#ArialMT-30" x="767.1875"/>
     <use xlink:href="#ArialMT-33" x="822.802734"/>
     <use xlink:href="#ArialMT-20" x="878.417969"/>
     <use xlink:href="#ArialMT-20" x="906.201172"/>
     <use xlink:href="#ArialMT-70" x="933.984375"/>
     <use xlink:href="#ArialMT-3d" x="989.599609"/>
     <use xlink:href="#ArialMT-30" x="1047.998047"/>
     <use xlink:href="#ArialMT-2e" x="1103.613281"/>
     <use xlink:href="#ArialMT-39" x="1131.396484"/>
     <use xlink:href="#ArialMT-38" x="1187.011719"/>
     <use xlink:href="#ArialMT-35" x="1242.626953"/>
    </g>
   </g>
   <g id="legend_1">
    <g id="line2d_15">
     <path d="M 48.962813 18.592031 
L 57.962813 18.592031 
L 66.962813 18.592031 
" style="fill: none; stroke: #2c7bb6; stroke-width: 2; stroke-linecap: round"/>
    </g>
    <g id="text_15">
     <!-- OLS fit -->
     <g style="fill: #262626" transform="translate(74.162813 21.742031) scale(0.09 -0.09)">
      <defs>
       <path id="ArialMT-4f" d="M 309 2231 
Q 309 3372 921 4017 
Q 1534 4663 2503 4663 
Q 3138 4663 3647 4359 
Q 4156 4056 4423 3514 
Q 4691 2972 4691 2284 
Q 4691 1588 4409 1038 
Q 4128 488 3612 205 
Q 3097 -78 2500 -78 
Q 1853 -78 1343 234 
Q 834 547 571 1087 
Q 309 1628 309 2231 
z
M 934 2222 
Q 934 1394 1379 917 
Q 1825 441 2497 441 
Q 3181 441 3623 922 
Q 4066 1403 4066 2288 
Q 4066 2847 3877 3264 
Q 3688 3681 3323 3911 
Q 2959 4141 2506 4141 
Q 1863 4141 1398 3698 
Q 934 3256 934 2222 
z
" transform="scale(0.015625)"/>
       <path id="ArialMT-4c" d="M 469 0 
L 469 4581 
L 1075 4581 
L 1075 541 
L 3331 541 
L 3331 0 
L 469 0 
z
" transform="scale(0.015625)"/>
       <path id="ArialMT-53" d="M 288 1472 
L 859 1522 
Q 900 1178 1048 958 
Q 1197 738 1509 602 
Q 1822 466 2213 466 
Q 2559 466 2825 569 
Q 3091 672 3220 851 
Q 3350 1031 3350 1244 
Q 3350 1459 3225 1620 
Q 3100 1781 2813 1891 
Q 2628 1963 1997 2114 
Q 1366 2266 1113 2400 
Q 784 2572 623 2826 
Q 463 3081 463 3397 
Q 463 3744 659 4045 
Q 856 4347 1234 4503 
Q 1613 4659 2075 4659 
Q 2584 4659 2973 4495 
Q 3363 4331 3572 4012 
Q 3781 3694 3797 3291 
L 3216 3247 
Q 3169 3681 2898 3903 
Q 2628 4125 2100 4125 
Q 1550 4125 1298 3923 
Q 1047 3722 1047 3438 
Q 1047 3191 1225 3031 
Q 1400 2872 2139 2705 
Q 2878 2538 3153 2413 
Q 3553 2228 3743 1945 
Q 3934 1663 3934 1294 
Q 3934 928 3725 604 
Q 3516 281 3123 101 
Q 2731 -78 2241 -78 
Q 1619 -78 1198 103 
Q 778 284 539 648 
Q 300 1013 288 1472 
z
" transform="scale(0.015625)"/>
       <path id="ArialMT-66" d="M 556 0 
L 556 2881 
L 59 2881 
L 59 3319 
L 556 3319 
L 556 3672 
Q 556 4006 616 4169 
Q 697 4388 901 4523 
Q 1106 4659 1475 4659 
Q 1713 4659 2000 4603 
L 1916 4113 
Q 1741 4144 1584 4144 
Q 1328 4144 1222 4034 
Q 1116 3925 1116 3625 
L 1116 3319 
L 1763 3319 
L 1763 2881 
L 1116 2881 
L 1116 0 
L 556 0 
z
" transform="scale(0.015625)"/>
       <path id="ArialMT-74" d="M 1650 503 
L 1731 6 
Q 1494 -44 1306 -44 
Q 1000 -44 831 53 
Q 663 150 594 308 
Q 525 466 525 972 
L 525 2881 
L 113 2881 
L 113 3319 
L 525 3319 
L 525 4141 
L 1084 4478 
L 1084 3319 
L 1650 3319 
L 1650 2881 
L 1084 2881 
L 1084 941 
Q 1084 700 1114 631 
Q 1144 563 1211 522 
Q 1278 481 1403 481 
Q 1497 481 1650 503 
z
" transform="scale(0.015625)"/>
      </defs>
      <use xlink:href="#ArialMT-4f"/>
      <use xlink:href="#ArialMT-4c" x="77.783203"/>
      <use xlink:href="#ArialMT-53" x="133.398438"/>
      <use xlink:href="#ArialMT-20" x="200.097656"/>
      <use xlink:href="#ArialMT-66" x="227.880859"/>
      <use xlink:href="#ArialMT-69" x="255.664062"/>
      <use xlink:href="#ArialMT-74" x="277.880859"/>
     </g>
    </g>
    <g id="line2d_16">
     <path d="M 48.962813 31.322812 
L 57.962813 31.322812 
L 66.962813 31.322812 
" style="fill: none; stroke-dasharray: 7.4,3.2; stroke-dashoffset: 0; stroke: #fdae61; stroke-width: 2"/>
    </g>
    <g id="text_16">
     <!-- LOWESS -->
     <g style="fill: #262626" transform="translate(74.162813 34.472812) scale(0.09 -0.09)">
      <defs>
       <path id="ArialMT-57" d="M 1294 0 
L 78 4581 
L 700 4581 
L 1397 1578 
Q 1509 1106 1591 641 
Q 1766 1375 1797 1488 
L 2669 4581 
L 3400 4581 
L 4056 2263 
Q 4303 1400 4413 641 
Q 4500 1075 4641 1638 
L 5359 4581 
L 5969 4581 
L 4713 0 
L 4128 0 
L 3163 3491 
Q 3041 3928 3019 4028 
Q 2947 3713 2884 3491 
L 1913 0 
L 1294 0 
z
" transform="scale(0.015625)"/>
       <path id="ArialMT-45" d="M 506 0 
L 506 4581 
L 3819 4581 
L 3819 4041 
L 1113 4041 
L 1113 2638 
L 3647 2638 
L 3647 2100 
L 1113 2100 
L 1113 541 
L 3925 541 
L 3925 0 
L 506 0 
z
" transform="scale(0.015625)"/>
      </defs>
      <use xlink:href="#ArialMT-4c"/>
      <use xlink:href="#ArialMT-4f" x="55.615234"/>
      <use xlink:href="#ArialMT-57" x="133.398438"/>
      <use xlink:href="#ArialMT-45" x="227.783203"/>
      <use xlink:href="#ArialMT-53" x="294.482422"/>
      <use xlink:href="#ArialMT-53" x="361.181641"/>
     </g>
    </g>
   </g>
  </g>
 </g>
 <defs>
  <clipPath id="ped936f50c5">
   <rect x="40.862813" y="7.2" width="448.48" height="307.6"/>
  </clipPath>
 </defs>
</svg>
