<?xml version="1.0" encoding="utf-8" standalone="no"?>
<!DOCTYPE svg PUBLIC "-//W3C//DTD SVG 1.1//EN"
  "http://www.w3.org/Graphics/SVG/1.1/DTD/svg11.dtd">
<svg xmlns:xlink="http://www.w3.org/1999/xlink" width="496.542812pt" height="352.468125pt" viewBox="0 0 496.542812 352.468125" xmlns="http://www.w3.org/2000/svg" version="1.1">
 <metadata>
  <rdf:RDF xmlns:dc="http://purl.org/dc/elements/1.1/" xmlns:cc="http://creativecommons.org/ns#" xmlns:rdf="http://www.w3.org/1999/02/22-rdf-syntax-ns#">
   <cc:Work>
    <dc:type rdf:resource="http://purl.org/dc/dcmitype/StillImage"/>
    <dc:date>2025-11-17T20:15:58.154909</dc:date>
    <dc:format>image/svg+xml</dc:format>
    <dc:creator>
     <cc:Agent>
      <dc:title>Matplotlib v3.9.2, https://matplotlib.org/</dc:title>
     </cc:Agent>
    </dc:creator>
   </cc:Work>
  </rdf:RDF>
 </metadata>
 <defs>
  <style type="text/css">*{stroke-linejoin: round; stroke-linecap: butt}</style>
 </defs>
 <g id="figure_1">
  <g id="patch_1">
   <path d="M 0 352.468125 
L 496.542812 352.468125 
L 496.542812 0 
L 0 0 
z
" style="fill: #ffffff"/>
  </g>
  <g id="axes_1">
   <g id="patch_2">
    <path d="M 40.862813 314.8 
L 489.342812 314.8 
L 489.342812 7.2 
L 40.862813 7.2 
z
" style="fill: #ffffff"/>
   </g>
   <g id="matplotlib.axis_1">
    <g id="xtick_1">
     <g id="line2d_1">
      <path d="M 47.398412 314.8 
L 47.398412 7.2 
" clip-path="url(#pc89be2deff)" style="fill: none; stroke: #cccccc; stroke-width: 0.8; stroke-linecap: round"/>
     </g>
     <g id="text_1">
      <!-- −3 -->
      <g style="fill: #262626" transform="translate(41.697631 328.957812) scale(0.1 -0.1)">
       <defs>
        <path id="ArialMT-2212" d="M 3381 1997 
L 356 1997 
L 356 2522 
L 3381 2522 
L 3381 1997 
z
" transform="scale(0.015625)"/>
        <path id="ArialMT-33" d="M 269 1209 
L 831 1284 
Q 928 806 1161 595 
Q 1394 384 1728 384 
Q 2125 384 2398 659 
Q 2672 934 2672 1341 
Q 2672 1728 2419 1979 
Q 2166 2231 1775 2231 
Q 1616 2231 1378 2169 
L 1441 2663 
Q 1497 2656 1531 2656 
Q 1891 2656 2178 2843 
Q 2466 3031 2466 3422 
Q 2466 3731 2256 3934 
Q 2047 4138 1716 4138 
Q 1388 4138 1169 3931 
Q 950 3725 888 3313 
L 325 3413 
Q 428 3978 793 4289 
Q 1159 4600 1703 4600 
Q 2078 4600 2393 4439 
Q 2709 4278 2876 4000 
Q 3044 3722 3044 3409 
Q 3044 3113 2884 2869 
Q 2725 2625 2413 2481 
Q 2819 2388 3044 2092 
Q 3269 1797 3269 1353 
Q 3269 753 2831 336 
Q 2394 -81 1725 -81 
Q 1122 -81 723 278 
Q 325 638 269 1209 
z
" transform="scale(0.015625)"/>
       </defs>
       <use xlink:href="#ArialMT-2212"/>
       <use xlink:href="#ArialMT-33" x="58.398438"/>
      </g>
     </g>
    </g>
    <g id="xtick_2">
     <g id="line2d_2">
      <path d="M 146.563989 314.8 
L 146.563989 7.2 
" clip-path="url(#pc89be2deff)" style="fill: none; stroke: #cccccc; stroke-width: 0.8; stroke-linecap: round"/>
     </g>
     <g id="text_2">
      <!-- −2 -->
      <g style="fill: #262626" transform="translate(140.863208 328.957812) scale(0.1 -0.1)">
       <defs>
        <path id="ArialMT-32" d="M 3222 541 
L 3222 0 
L 194 0 
Q 188 203 259 391 
Q 375 700 629 1000 
Q 884 1300 1366 1694 
Q 2113 2306 2375 2664 
Q 2638 3022 2638 3341 
Q 2638 3675 2398 3904 
Q 2159 4134 1775 4134 
Q 1369 4134 1125 3890 
Q 881 3647 878 3216 
L 300 3275 
Q 359 3922 746 4261 
Q 1134 4600 1788 4600 
Q 2447 4600 2831 4234 
Q 3216 3869 3216 3328 
Q 3216 3053 3103 2787 
Q 2991 2522 2730 2228 
Q 2469 1934 1863 1422 
Q 1356 997 1212 845 
Q 1069 694 975 541 
L 3222 541 
z
" transform="scale(0.015625)"/>
       </defs>
       <use xlink:href="#ArialMT-2212"/>
       <use xlink:href="#ArialMT-32" x="58.398438"/>
      </g>
     </g>
    </g>
    <g id="xtick_3">
     <g id="line2d_3">
      <path d="M 245.729567 314.8 
L 245.729567 7.2 
" clip-path="url(#pc89be2deff)" style="fill: none; stroke: #cccccc; stroke-width: 0.8; stroke-linecap: round"/>
     </g>
     <g id="text_3">
      <!-- −1 -->
      <g style="fill: #262626" transform="translate(240.028785 328.957812) scale(0.1 -0.1)">
       <defs>
        <path id="ArialMT-31" d="M 2384 0 
L 1822 0 
L 1822 3584 
Q 1619 3391 1289 3197 
Q 959 3003 697 2906 
L 697 3450 
Q 1169 3672 1522 3987 
Q 1875 4303 2022 4600 
L 2384 4600 
L 2384 0 
z
" transform="scale(0.015625)"/>
       </defs>
       <use xlink:href="#ArialMT-2212"/>
       <use xlink:href="#ArialMT-31" x="58.398438"/>
      </g>
     </g>
    </g>
    <g id="xtick_4">
     <g id="line2d_4">
      <path d="M 344.895144 314.8 
L 344.895144 7.2 
" clip-path="url(#pc89be2deff)" style="fill: none; stroke: #cccccc; stroke-width: 0.8; stroke-linecap: round"/>
     </g>
     <g id="text_4">
      <!-- 0 -->
      <g style="fill: #262626" transform="translate(342.114675 328.957812) scale(0.1 -0.1)">
       <defs>
        <path id="ArialMT-30" d="M 266 2259 
Q 266 3072 433 3567 
Q 600 4063 929 4331 
Q 1259 4600 1759 4600 
Q 2128 4600 2406 4451 
Q 2684 4303 2865 4023 
Q 3047 3744 3150 3342 
Q 3253 2941 3253 2259 
Q 3253 1453 3087 958 
Q 2922 463 2592 192 
Q 2263 -78 1759 -78 
Q 1097 -78 719 397 
Q 266 969 266 2259 
z
M 844 2259 
Q 844 1131 1108 757 
Q 1372 384 1759 384 
Q 2147 384 2411 759 
Q 2675 1134 2675 2259 
Q 2675 3391 2411 3762 
Q 2147 4134 1753 4134 
Q 1366 4134 1134 3806 
Q 844 3388 844 2259 
z
" transform="scale(0.015625)"/>
       </defs>
       <use xlink:href="#ArialMT-30"/>
      </g>
     </g>
    </g>
    <g id="xtick_5">
     <g id="line2d_5">
      <path d="M 444.060722 314.8 
L 444.060722 7.2 
" clip-path="url(#pc89be2deff)" style="fill: none; stroke: #cccccc; stroke-width: 0.8; stroke-linecap: round"/>
     </g>
     <g id="text_5">
      <!-- 1 -->
      <g style="fill: #262626" transform="translate(441.280253 328.957812) scale(0.1 -0.1)">
       <use xlink:href="#ArialMT-31"/>
      </g>
     </g>
    </g>
    <g id="text_6">
     <!-- Residual (z-score) -->
     <g style="fill: #262626" transform="translate(220.482344 342.952969) scale(0.11 -0.11)">
      <defs>
       <path id="ArialMT-52" d="M 503 0 
L 503 4581 
L 2534 4581 
Q 3147 4581 3465 4457 
Q 3784 4334 3975 4021 
Q 4166 3709 4166 3331 
Q 4166 2844 3850 2509 
Q 3534 2175 2875 2084 
Q 3116 1969 3241 1856 
Q 3506 1613 3744 1247 
L 4541 0 
L 3778 0 
L 3172 953 
Q 2906 1366 2734 1584 
Q 2563 1803 2427 1890 
Q 2291 1978 2150 2013 
Q 2047 2034 1813 2034 
L 1109 2034 
L 1109 0 
L 503 0 
z
M 1109 2559 
L 2413 2559 
Q 2828 2559 3062 2645 
Q 3297 2731 3419 2920 
Q 3541 3109 3541 3331 
Q 3541 3656 3305 3865 
Q 3069 4075 2559 4075 
L 1109 4075 
L 1109 2559 
z
" transform="scale(0.015625)"/>
       <path id="ArialMT-65" d="M 2694 1069 
L 3275 997 
Q 3138 488 2766 206 
Q 2394 -75 1816 -75 
Q 1088 -75 661 373 
Q 234 822 234 1631 
Q 234 2469 665 2931 
Q 1097 3394 1784 3394 
Q 2450 3394 2872 2941 
Q 3294 2488 3294 1666 
Q 3294 1616 3291 1516 
L 816 1516 
Q 847 969 1125 678 
Q 1403 388 1819 388 
Q 2128 388 2347 550 
Q 2566 713 2694 1069 
z
M 847 1978 
L 2700 1978 
Q 2663 2397 2488 2606 
Q 2219 2931 1791 2931 
Q 1403 2931 1139 2672 
Q 875 2413 847 1978 
z
" transform="scale(0.015625)"/>
       <path id="ArialMT-73" d="M 197 991 
L 753 1078 
Q 800 744 1014 566 
Q 1228 388 1613 388 
Q 2000 388 2187 545 
Q 2375 703 2375 916 
Q 2375 1106 2209 1216 
Q 2094 1291 1634 1406 
Q 1016 1563 777 1677 
Q 538 1791 414 1992 
Q 291 2194 291 2438 
Q 291 2659 392 2848 
Q 494 3038 669 3163 
Q 800 3259 1026 3326 
Q 1253 3394 1513 3394 
Q 1903 3394 2198 3281 
Q 2494 3169 2634 2976 
Q 2775 2784 2828 2463 
L 2278 2388 
Q 2241 2644 2061 2787 
Q 1881 2931 1553 2931 
Q 1166 2931 1000 2803 
Q 834 2675 834 2503 
Q 834 2394 903 2306 
Q 972 2216 1119 2156 
Q 1203 2125 1616 2013 
Q 2213 1853 2448 1751 
Q 2684 1650 2818 1456 
Q 2953 1263 2953 975 
Q 2953 694 2789 445 
Q 2625 197 2315 61 
Q 2006 -75 1616 -75 
Q 969 -75 630 194 
Q 291 463 197 991 
z
" transform="scale(0.015625)"/>
       <path id="ArialMT-69" d="M 425 3934 
L 425 4581 
L 988 4581 
L 988 3934 
L 425 3934 
z
M 425 0 
L 425 3319 
L 988 3319 
L 988 0 
L 425 0 
z
" transform="scale(0.015625)"/>
       <path id="ArialMT-64" d="M 2575 0 
L 2575 419 
Q 2259 -75 1647 -75 
Q 1250 -75 917 144 
Q 584 363 401 755 
Q 219 1147 219 1656 
Q 219 2153 384 2558 
Q 550 2963 881 3178 
Q 1213 3394 1622 3394 
Q 1922 3394 2156 3267 
Q 2391 3141 2538 2938 
L 2538 4581 
L 3097 4581 
L 3097 0 
L 2575 0 
z
M 797 1656 
Q 797 1019 1065 703 
Q 1334 388 1700 388 
Q 2069 388 2326 689 
Q 2584 991 2584 1609 
Q 2584 2291 2321 2609 
Q 2059 2928 1675 2928 
Q 1300 2928 1048 2622 
Q 797 2316 797 1656 
z
" transform="scale(0.015625)"/>
       <path id="ArialMT-75" d="M 2597 0 
L 2597 488 
Q 2209 -75 1544 -75 
Q 1250 -75 995 37 
Q 741 150 617 320 
Q 494 491 444 738 
Q 409 903 409 1263 
L 409 3319 
L 972 3319 
L 972 1478 
Q 972 1038 1006 884 
Q 1059 663 1231 536 
Q 1403 409 1656 409 
Q 1909 409 2131 539 
Q 2353 669 2445 892 
Q 2538 1116 2538 1541 
L 2538 3319 
L 3100 3319 
L 3100 0 
L 2597 0 
z
" transform="scale(0.015625)"/>
       <path id="ArialMT-61" d="M 2588 409 
Q 2275 144 1986 34 
Q 1697 -75 1366 -75 
Q 819 -75 525 192 
Q 231 459 231 875 
Q 231 1119 342 1320 
Q 453 1522 633 1644 
Q 813 1766 1038 1828 
Q 1203 1872 1538 1913 
Q 2219 1994 2541 2106 
Q 2544 2222 2544 2253 
Q 2544 2597 2384 2738 
Q 2169 2928 1744 2928 
Q 1347 2928 1158 2789 
Q 969 2650 878 2297 
L 328 2372 
Q 403 2725 575 2942 
Q 747 3159 1072 3276 
Q 1397 3394 1825 3394 
Q 2250 3394 2515 3294 
Q 2781 3194 2906 3042 
Q 3031 2891 3081 2659 
Q 3109 2516 3109 2141 
L 3109 1391 
Q 3109 606 3145 398 
Q 3181 191 3288 0 
L 2700 0 
Q 2613 175 2588 409 
z
M 2541 1666 
Q 2234 1541 1622 1453 
Q 1275 1403 1131 1340 
Q 988 1278 909 1158 
Q 831 1038 831 891 
Q 831 666 1001 516 
Q 1172 366 1500 366 
Q 1825 366 2078 508 
Q 2331 650 2450 897 
Q 2541 1088 2541 1459 
L 2541 1666 
z
" transform="scale(0.015625)"/>
       <path id="ArialMT-6c" d="M 409 0 
L 409 4581 
L 972 4581 
L 972 0 
L 409 0 
z
" transform="scale(0.015625)"/>
       <path id="ArialMT-20" transform="scale(0.015625)"/>
       <path id="ArialMT-28" d="M 1497 -1347 
Q 1031 -759 709 28 
Q 388 816 388 1659 
Q 388 2403 628 3084 
Q 909 3875 1497 4659 
L 1900 4659 
Q 1522 4009 1400 3731 
Q 1209 3300 1100 2831 
Q 966 2247 966 1656 
Q 966 153 1900 -1347 
L 1497 -1347 
z
" transform="scale(0.015625)"/>
       <path id="ArialMT-7a" d="M 125 0 
L 125 456 
L 2238 2881 
Q 1878 2863 1603 2863 
L 250 2863 
L 250 3319 
L 2963 3319 
L 2963 2947 
L 1166 841 
L 819 456 
Q 1197 484 1528 484 
L 3063 484 
L 3063 0 
L 125 0 
z
" transform="scale(0.015625)"/>
       <path id="ArialMT-2d" d="M 203 1375 
L 203 1941 
L 1931 1941 
L 1931 1375 
L 203 1375 
z
" transform="scale(0.015625)"/>
       <path id="ArialMT-63" d="M 2588 1216 
L 3141 1144 
Q 3050 572 2676 248 
Q 2303 -75 1759 -75 
Q 1078 -75 664 370 
Q 250 816 250 1647 
Q 250 2184 428 2587 
Q 606 2991 970 3192 
Q 1334 3394 1763 3394 
Q 2303 3394 2647 3120 
Q 2991 2847 3088 2344 
L 2541 2259 
Q 2463 2594 2264 2762 
Q 2066 2931 1784 2931 
Q 1359 2931 1093 2626 
Q 828 2322 828 1663 
Q 828 994 1084 691 
Q 1341 388 1753 388 
Q 2084 388 2306 591 
Q 2528 794 2588 1216 
z
" transform="scale(0.015625)"/>
       <path id="ArialMT-6f" d="M 213 1659 
Q 213 2581 725 3025 
Q 1153 3394 1769 3394 
Q 2453 3394 2887 2945 
Q 3322 2497 3322 1706 
Q 3322 1066 3130 698 
Q 2938 331 2570 128 
Q 2203 -75 1769 -75 
Q 1072 -75 642 372 
Q 213 819 213 1659 
z
M 791 1659 
Q 791 1022 1069 705 
Q 1347 388 1769 388 
Q 2188 388 2466 706 
Q 2744 1025 2744 1678 
Q 2744 2294 2464 2611 
Q 2184 2928 1769 2928 
Q 1347 2928 1069 2612 
Q 791 2297 791 1659 
z
" transform="scale(0.015625)"/>
       <path id="ArialMT-72" d="M 416 0 
L 416 3319 
L 922 3319 
L 922 2816 
Q 1116 3169 1280 3281 
Q 1444 3394 1641 3394 
Q 1925 3394 2219 3213 
L 2025 2691 
Q 1819 2813 1613 2813 
Q 1428 2813 1281 2702 
Q 1134 2591 1072 2394 
Q 978 2094 978 1738 
L 978 0 
L 416 0 
z
" transform="scale(0.015625)"/>
       <path id="ArialMT-29" d="M 791 -1347 
L 388 -1347 
Q 1322 153 1322 1656 
Q 1322 2244 1188 2822 
Q 1081 3291 891 3722 
Q 769 4003 388 4659 
L 791 4659 
Q 1378 3875 1659 3084 
Q 1900 2403 1900 1659 
Q 1900 816 1576 28 
Q 1253 -759 791 -1347 
z
" transform="scale(0.015625)"/>
      </defs>
      <use xlink:href="#ArialMT-52"/>
      <use xlink:href="#ArialMT-65" x="72.216797"/>
      <use xlink:href="#ArialMT-73" x="127.832031"/>
      <use xlink:href="#ArialMT-69" x="177.832031"/>
      <use xlink:href="#ArialMT-64" x="200.048828"/>
      <use xlink:href="#ArialMT-75" x="255.664062"/>
      <use xlink:href="#ArialMT-61" x="311.279297"/>
      <use xlink:href="#ArialMT-6c" x="366.894531"/>
      <use xlink:href="#ArialMT-20" x="389.111328"/>
      <use xlink:href="#ArialMT-28" x="416.894531"/>
      <use xlink:href="#ArialMT-7a" x="450.195312"/>
      <use xlink:href="#ArialMT-2d" x="500.195312"/>
      <use xlink:href="#ArialMT-73" x="533.496094"/>
      <use xlink:href="#ArialMT-63" x="583.496094"/>
      <use xlink:href="#ArialMT-6f" x="633.496094"/>
      <use xlink:href="#ArialMT-72" x="689.111328"/>
      <use xlink:href="#ArialMT-65" x="722.412109"/>
      <use xlink:href="#ArialMT-29" x="778.027344"/>
     </g>
    </g>
   </g>
   <g id="matplotlib.axis_2">
    <g id="ytick_1">
     <g id="line2d_6">
      <path d="M 40.862813 299.789435 
L 489.342812 299.789435 
" clip-path="url(#pc89be2deff)" style="fill: none; stroke: #cccccc; stroke-width: 0.8; stroke-linecap: round"/>
     </g>
     <g id="text_7">
      <!-- −3 -->
      <g style="fill: #262626" transform="translate(22.46125 303.368342) scale(0.1 -0.1)">
       <use xlink:href="#ArialMT-2212"/>
       <use xlink:href="#ArialMT-33" x="58.398438"/>
      </g>
     </g>
    </g>
    <g id="ytick_2">
     <g id="line2d_7">
      <path d="M 40.862813 237.990281 
L 489.342812 237.990281 
" clip-path="url(#pc89be2deff)" style="fill: none; stroke: #cccccc; stroke-width: 0.8; stroke-linecap: round"/>
     </g>
     <g id="text_8">
      <!-- −2 -->
      <g style="fill: #262626" transform="translate(22.46125 241.569187) scale(0.1 -0.1)">
       <use xlink:href="#ArialMT-2212"/>
       <use xlink:href="#ArialMT-32" x="58.398438"/>
      </g>
     </g>
    </g>
    <g id="ytick_3">
     <g id="line2d_8">
      <path d="M 40.862813 176.191126 
L 489.342812 176.191126 
" clip-path="url(#pc89be2deff)" style="fill: none; stroke: #cccccc; stroke-width: 0.8; stroke-linecap: round"/>
     </g>
     <g id="text_9">
      <!-- −1 -->
      <g style="fill: #262626" transform="translate(22.46125 179.770032) scale(0.1 -0.1)">
       <use xlink:href="#ArialMT-2212"/>
       <use xlink:href="#ArialMT-31" x="58.398438"/>
      </g>
     </g>
    </g>
    <g id="ytick_4">
     <g id="line2d_9">
      <path d="M 40.862813 114.391971 
L 489.342812 114.391971 
" clip-path="url(#pc89be2deff)" style="fill: none; stroke: #cccccc; stroke-width: 0.8; stroke-linecap: round"/>
     </g>
     <g id="text_10">
      <!-- 0 -->
      <g style="fill: #262626" transform="translate(28.301875 117.970878) scale(0.1 -0.1)">
       <use xlink:href="#ArialMT-30"/>
      </g>
     </g>
    </g>
    <g id="ytick_5">
     <g id="line2d_10">
      <path d="M 40.862813 52.592817 
L 489.342812 52.592817 
" clip-path="url(#pc89be2deff)" style="fill: none; stroke: #cccccc; stroke-width: 0.8; stroke-linecap: round"/>
     </g>
     <g id="text_11">
      <!-- 1 -->
      <g style="fill: #262626" transform="translate(28.301875 56.171723) scale(0.1 -0.1)">
       <use xlink:href="#ArialMT-31"/>
      </g>
     </g>
    </g>
    <g id="text_12">
     <!-- Consumer inflation (pct) -->
     <g style="fill: #262626" transform="translate(15.935625 224.687187) rotate(-90) scale(0.12 -0.12)">
      <defs>
       <path id="ArialMT-43" d="M 3763 1606 
L 4369 1453 
Q 4178 706 3683 314 
Q 3188 -78 2472 -78 
Q 1731 -78 1267 223 
Q 803 525 561 1097 
Q 319 1669 319 2325 
Q 319 3041 592 3573 
Q 866 4106 1370 4382 
Q 1875 4659 2481 4659 
Q 3169 4659 3637 4309 
Q 4106 3959 4291 3325 
L 3694 3184 
Q 3534 3684 3231 3912 
Q 2928 4141 2469 4141 
Q 1941 4141 1586 3887 
Q 1231 3634 1087 3207 
Q 944 2781 944 2328 
Q 944 1744 1114 1308 
Q 1284 872 1643 656 
Q 2003 441 2422 441 
Q 2931 441 3284 734 
Q 3638 1028 3763 1606 
z
" transform="scale(0.015625)"/>
       <path id="ArialMT-6e" d="M 422 0 
L 422 3319 
L 928 3319 
L 928 2847 
Q 1294 3394 1984 3394 
Q 2284 3394 2536 3286 
Q 2788 3178 2913 3003 
Q 3038 2828 3088 2588 
Q 3119 2431 3119 2041 
L 3119 0 
L 2556 0 
L 2556 2019 
Q 2556 2363 2490 2533 
Q 2425 2703 2258 2804 
Q 2091 2906 1866 2906 
Q 1506 2906 1245 2678 
Q 984 2450 984 1813 
L 984 0 
L 422 0 
z
" transform="scale(0.015625)"/>
       <path id="ArialMT-6d" d="M 422 0 
L 422 3319 
L 925 3319 
L 925 2853 
Q 1081 3097 1340 3245 
Q 1600 3394 1931 3394 
Q 2300 3394 2536 3241 
Q 2772 3088 2869 2813 
Q 3263 3394 3894 3394 
Q 4388 3394 4653 3120 
Q 4919 2847 4919 2278 
L 4919 0 
L 4359 0 
L 4359 2091 
Q 4359 2428 4304 2576 
Q 4250 2725 4106 2815 
Q 3963 2906 3769 2906 
Q 3419 2906 3187 2673 
Q 2956 2441 2956 1928 
L 2956 0 
L 2394 0 
L 2394 2156 
Q 2394 2531 2256 2718 
Q 2119 2906 1806 2906 
Q 1569 2906 1367 2781 
Q 1166 2656 1075 2415 
Q 984 2175 984 1722 
L 984 0 
L 422 0 
z
" transform="scale(0.015625)"/>
       <path id="ArialMT-66" d="M 556 0 
L 556 2881 
L 59 2881 
L 59 3319 
L 556 3319 
L 556 3672 
Q 556 4006 616 4169 
Q 697 4388 901 4523 
Q 1106 4659 1475 4659 
Q 1713 4659 2000 4603 
L 1916 4113 
Q 1741 4144 1584 4144 
Q 1328 4144 1222 4034 
Q 1116 3925 1116 3625 
L 1116 3319 
L 1763 3319 
L 1763 2881 
L 1116 2881 
L 1116 0 
L 556 0 
z
" transform="scale(0.015625)"/>
       <path id="ArialMT-74" d="M 1650 503 
L 1731 6 
Q 1494 -44 1306 -44 
Q 1000 -44 831 53 
Q 663 150 594 308 
Q 525 466 525 972 
L 525 2881 
L 113 2881 
L 113 3319 
L 525 3319 
L 525 4141 
L 1084 4478 
L 1084 3319 
L 1650 3319 
L 1650 2881 
L 1084 2881 
L 1084 941 
Q 1084 700 1114 631 
Q 1144 563 1211 522 
Q 1278 481 1403 481 
Q 1497 481 1650 503 
z
" transform="scale(0.015625)"/>
       <path id="ArialMT-70" d="M 422 -1272 
L 422 3319 
L 934 3319 
L 934 2888 
Q 1116 3141 1344 3267 
Q 1572 3394 1897 3394 
Q 2322 3394 2647 3175 
Q 2972 2956 3137 2557 
Q 3303 2159 3303 1684 
Q 3303 1175 3120 767 
Q 2938 359 2589 142 
Q 2241 -75 1856 -75 
Q 1575 -75 1351 44 
Q 1128 163 984 344 
L 984 -1272 
L 422 -1272 
z
M 931 1641 
Q 931 1000 1190 694 
Q 1450 388 1819 388 
Q 2194 388 2461 705 
Q 2728 1022 2728 1688 
Q 2728 2322 2467 2637 
Q 2206 2953 1844 2953 
Q 1484 2953 1207 2617 
Q 931 2281 931 1641 
z
" transform="scale(0.015625)"/>
      </defs>
      <use xlink:href="#ArialMT-43"/>
      <use xlink:href="#ArialMT-6f" x="72.216797"/>
      <use xlink:href="#ArialMT-6e" x="127.832031"/>
      <use xlink:href="#ArialMT-73" x="183.447266"/>
      <use xlink:href="#ArialMT-75" x="233.447266"/>
      <use xlink:href="#ArialMT-6d" x="289.0625"/>
      <use xlink:href="#ArialMT-65" x="372.363281"/>
      <use xlink:href="#ArialMT-72" x="427.978516"/>
      <use xlink:href="#ArialMT-20" x="461.279297"/>
      <use xlink:href="#ArialMT-69" x="489.0625"/>
      <use xlink:href="#ArialMT-6e" x="511.279297"/>
      <use xlink:href="#ArialMT-66" x="566.894531"/>
      <use xlink:href="#ArialMT-6c" x="594.677734"/>
      <use xlink:href="#ArialMT-61" x="616.894531"/>
      <use xlink:href="#ArialMT-74" x="672.509766"/>
      <use xlink:href="#ArialMT-69" x="700.292969"/>
      <use xlink:href="#ArialMT-6f" x="722.509766"/>
      <use xlink:href="#ArialMT-6e" x="778.125"/>
      <use xlink:href="#ArialMT-20" x="833.740234"/>
      <use xlink:href="#ArialMT-28" x="861.523438"/>
      <use xlink:href="#ArialMT-70" x="894.824219"/>
      <use xlink:href="#ArialMT-63" x="950.439453"/>
      <use xlink:href="#ArialMT-74" x="1000.439453"/>
      <use xlink:href="#ArialMT-29" x="1028.222656"/>
     </g>
    </g>
   </g>
   <g id="PathCollection_1">
    <defs>
     <path id="m3ae66db7f6" d="M 0 3 
C 0.795609 3 1.55874 2.683901 2.12132 2.12132 
C 2.683901 1.55874 3 0.795609 3 0 
C 3 -0.795609 2.683901 -1.55874 2.12132 -2.12132 
C 1.55874 -2.683901 0.795609 -3 0 -3 
C -0.795609 -3 -1.55874 -2.683901 -2.12132 -2.12132 
C -2.683901 -1.55874 -3 -0.795609 -3 0 
C -3 0.795609 -2.683901 1.55874 -2.12132 2.12132 
C -1.55874 2.683901 -0.795609 3 0 3 
z
" style="stroke: #000000; stroke-opacity: 0.9; stroke-width: 0.25"/>
    </defs>
    <g clip-path="url(#pc89be2deff)">
     <use xlink:href="#m3ae66db7f6" x="390.3021" y="126.195368" style="fill: #1f77b4; fill-opacity: 0.9; stroke: #000000; stroke-opacity: 0.9; stroke-width: 0.25"/>
     <use xlink:href="#m3ae66db7f6" x="379.518599" y="126.455453" style="fill: #1f77b4; fill-opacity: 0.9; stroke: #000000; stroke-opacity: 0.9; stroke-width: 0.25"/>
     <use xlink:href="#m3ae66db7f6" x="365.52404" y="119.419264" style="fill: #1f77b4; fill-opacity: 0.9; stroke: #000000; stroke-opacity: 0.9; stroke-width: 0.25"/>
     <use xlink:href="#m3ae66db7f6" x="387.791992" y="127.12074" style="fill: #1f77b4; fill-opacity: 0.9; stroke: #000000; stroke-opacity: 0.9; stroke-width: 0.25"/>
     <use xlink:href="#m3ae66db7f6" x="250.973254" y="157.89018" style="fill: #1f77b4; fill-opacity: 0.9; stroke: #000000; stroke-opacity: 0.9; stroke-width: 0.25"/>
     <use xlink:href="#m3ae66db7f6" x="341.613336" y="86.803934" style="fill: #1f77b4; fill-opacity: 0.9; stroke: #000000; stroke-opacity: 0.9; stroke-width: 0.25"/>
     <use xlink:href="#m3ae66db7f6" x="422.740372" y="72.642124" style="fill: #1f77b4; fill-opacity: 0.9; stroke: #000000; stroke-opacity: 0.9; stroke-width: 0.25"/>
     <use xlink:href="#m3ae66db7f6" x="399.351428" y="49.860917" style="fill: #1f77b4; fill-opacity: 0.9; stroke: #000000; stroke-opacity: 0.9; stroke-width: 0.25"/>
     <use xlink:href="#m3ae66db7f6" x="416.313456" y="31.497476" style="fill: #1f77b4; fill-opacity: 0.9; stroke: #000000; stroke-opacity: 0.9; stroke-width: 0.25"/>
     <use xlink:href="#m3ae66db7f6" x="381.175703" y="81.927523" style="fill: #1f77b4; fill-opacity: 0.9; stroke: #000000; stroke-opacity: 0.9; stroke-width: 0.25"/>
     <use xlink:href="#m3ae66db7f6" x="468.957358" y="21.181818" style="fill: #1f77b4; fill-opacity: 0.9; stroke: #000000; stroke-opacity: 0.9; stroke-width: 0.25"/>
     <use xlink:href="#m3ae66db7f6" x="392.798804" y="120.688923" style="fill: #1f77b4; fill-opacity: 0.9; stroke: #000000; stroke-opacity: 0.9; stroke-width: 0.25"/>
     <use xlink:href="#m3ae66db7f6" x="397.073316" y="115.705958" style="fill: #1f77b4; fill-opacity: 0.9; stroke: #000000; stroke-opacity: 0.9; stroke-width: 0.25"/>
     <use xlink:href="#m3ae66db7f6" x="392.918741" y="118.334742" style="fill: #1f77b4; fill-opacity: 0.9; stroke: #000000; stroke-opacity: 0.9; stroke-width: 0.25"/>
     <use xlink:href="#m3ae66db7f6" x="339.760122" y="117.692415" style="fill: #1f77b4; fill-opacity: 0.9; stroke: #000000; stroke-opacity: 0.9; stroke-width: 0.25"/>
     <use xlink:href="#m3ae66db7f6" x="295.44857" y="120.615275" style="fill: #1f77b4; fill-opacity: 0.9; stroke: #000000; stroke-opacity: 0.9; stroke-width: 0.25"/>
     <use xlink:href="#m3ae66db7f6" x="246.905018" y="174.693025" style="fill: #1f77b4; fill-opacity: 0.9; stroke: #000000; stroke-opacity: 0.9; stroke-width: 0.25"/>
     <use xlink:href="#m3ae66db7f6" x="322.245564" y="132.417216" style="fill: #1f77b4; fill-opacity: 0.9; stroke: #000000; stroke-opacity: 0.9; stroke-width: 0.25"/>
     <use xlink:href="#m3ae66db7f6" x="395.200615" y="108.1213" style="fill: #1f77b4; fill-opacity: 0.9; stroke: #000000; stroke-opacity: 0.9; stroke-width: 0.25"/>
     <use xlink:href="#m3ae66db7f6" x="393.154597" y="120.085946" style="fill: #1f77b4; fill-opacity: 0.9; stroke: #000000; stroke-opacity: 0.9; stroke-width: 0.25"/>
     <use xlink:href="#m3ae66db7f6" x="121.89315" y="283.290659" style="fill: #1f77b4; fill-opacity: 0.9; stroke: #000000; stroke-opacity: 0.9; stroke-width: 0.25"/>
     <use xlink:href="#m3ae66db7f6" x="86.618606" y="236.419583" style="fill: #1f77b4; fill-opacity: 0.9; stroke: #000000; stroke-opacity: 0.9; stroke-width: 0.25"/>
     <use xlink:href="#m3ae66db7f6" x="61.248267" y="264.052542" style="fill: #1f77b4; fill-opacity: 0.9; stroke: #000000; stroke-opacity: 0.9; stroke-width: 0.25"/>
     <use xlink:href="#m3ae66db7f6" x="268.499995" y="24.359857" style="fill: #1f77b4; fill-opacity: 0.9; stroke: #000000; stroke-opacity: 0.9; stroke-width: 0.25"/>
     <use xlink:href="#m3ae66db7f6" x="393.44847" y="51.544262" style="fill: #1f77b4; fill-opacity: 0.9; stroke: #000000; stroke-opacity: 0.9; stroke-width: 0.25"/>
     <use xlink:href="#m3ae66db7f6" x="409.99232" y="44.763876" style="fill: #1f77b4; fill-opacity: 0.9; stroke: #000000; stroke-opacity: 0.9; stroke-width: 0.25"/>
     <use xlink:href="#m3ae66db7f6" x="422.005403" y="75.521869" style="fill: #1f77b4; fill-opacity: 0.9; stroke: #000000; stroke-opacity: 0.9; stroke-width: 0.25"/>
     <use xlink:href="#m3ae66db7f6" x="387.051802" y="120.949402" style="fill: #1f77b4; fill-opacity: 0.9; stroke: #000000; stroke-opacity: 0.9; stroke-width: 0.25"/>
     <use xlink:href="#m3ae66db7f6" x="408.17859" y="109.211599" style="fill: #1f77b4; fill-opacity: 0.9; stroke: #000000; stroke-opacity: 0.9; stroke-width: 0.25"/>
     <use xlink:href="#m3ae66db7f6" x="408.150739" y="92.295896" style="fill: #1f77b4; fill-opacity: 0.9; stroke: #000000; stroke-opacity: 0.9; stroke-width: 0.25"/>
    </g>
   </g>
   <g id="PolyCollection_1">
    <defs>
     <path id="m1f245465b1" d="M 61.248267 -134.667282 
L 61.248267 -51.649943 
L 63.297056 -52.963745 
L 65.345846 -54.277332 
L 67.394635 -55.590701 
L 69.443425 -56.903846 
L 71.492214 -58.216765 
L 73.541003 -59.529452 
L 75.589793 -60.841902 
L 77.638582 -62.154111 
L 79.687372 -63.466074 
L 81.736161 -64.777786 
L 83.78495 -66.089241 
L 85.83374 -67.400434 
L 87.882529 -68.711361 
L 89.931319 -70.022014 
L 91.980108 -71.33239 
L 94.028897 -72.64248 
L 96.077687 -73.95228 
L 98.126476 -75.261784 
L 100.175266 -76.570984 
L 102.224055 -77.879875 
L 104.272844 -79.188449 
L 106.321634 -80.496699 
L 108.370423 -81.804619 
L 110.419213 -83.112201 
L 112.468002 -84.419437 
L 114.516791 -85.72632 
L 116.565581 -87.032842 
L 118.61437 -88.338993 
L 120.66316 -89.644767 
L 122.711949 -90.950154 
L 124.760738 -92.255145 
L 126.809528 -93.55973 
L 128.858317 -94.863901 
L 130.907107 -96.167648 
L 132.955896 -97.470959 
L 135.004686 -98.773826 
L 137.053475 -100.076237 
L 139.102264 -101.378181 
L 141.151054 -102.679646 
L 143.199843 -103.980621 
L 145.248633 -105.281094 
L 147.297422 -106.581053 
L 149.346211 -107.880483 
L 151.395001 -109.179373 
L 153.44379 -110.477708 
L 155.49258 -111.775474 
L 157.541369 -113.072656 
L 159.590158 -114.36924 
L 161.638948 -115.665209 
L 163.687737 -116.960548 
L 165.736527 -118.25524 
L 167.785316 -119.549268 
L 169.834105 -120.842614 
L 171.882895 -122.13526 
L 173.931684 -123.427187 
L 175.980474 -124.718375 
L 178.029263 -126.008804 
L 180.078052 -127.298454 
L 182.126842 -128.587302 
L 184.175631 -129.875327 
L 186.224421 -131.162505 
L 188.27321 -132.448813 
L 190.321999 -133.734225 
L 192.370789 -135.018717 
L 194.419578 -136.302261 
L 196.468368 -137.584831 
L 198.517157 -138.866399 
L 200.565946 -140.146935 
L 202.614736 -141.426409 
L 204.663525 -142.70479 
L 206.712315 -143.982045 
L 208.761104 -145.258141 
L 210.809893 -146.533044 
L 212.858683 -147.806717 
L 214.907472 -149.079123 
L 216.956262 -150.350225 
L 219.005051 -151.619982 
L 221.05384 -152.888354 
L 223.10263 -154.155297 
L 225.151419 -155.420769 
L 227.200209 -156.684723 
L 229.248998 -157.947113 
L 231.297787 -159.20789 
L 233.346577 -160.467004 
L 235.395366 -161.724402 
L 237.444156 -162.980032 
L 239.492945 -164.233838 
L 241.541734 -165.485762 
L 243.590524 -166.735745 
L 245.639313 -167.983727 
L 247.688103 -169.229645 
L 249.736892 -170.473432 
L 251.785681 -171.715023 
L 253.834471 -172.954348 
L 255.88326 -174.191337 
L 257.93205 -175.425915 
L 259.980839 -176.658008 
L 262.029628 -177.887538 
L 264.078418 -179.114427 
L 266.127207 -180.338591 
L 268.175997 -181.559948 
L 270.224786 -182.778411 
L 272.273575 -183.993893 
L 274.322365 -185.206305 
L 276.371154 -186.415554 
L 278.419944 -187.621546 
L 280.468733 -188.824188 
L 282.517522 -190.023381 
L 284.566312 -191.219029 
L 286.615101 -192.411029 
L 288.663891 -193.599283 
L 290.71268 -194.783688 
L 292.761469 -195.964142 
L 294.810259 -197.14054 
L 296.859048 -198.31278 
L 298.907838 -199.480757 
L 300.956627 -200.644369 
L 303.005416 -201.803512 
L 305.054206 -202.958085 
L 307.102995 -204.107986 
L 309.151785 -205.253116 
L 311.200574 -206.393378 
L 313.249363 -207.528676 
L 315.298153 -208.65892 
L 317.346942 -209.784018 
L 319.395732 -210.903887 
L 321.444521 -212.018445 
L 323.49331 -213.127614 
L 325.5421 -214.231322 
L 327.590889 -215.329502 
L 329.639679 -216.422092 
L 331.688468 -217.509037 
L 333.737257 -218.590288 
L 335.786047 -219.665801 
L 337.834836 -220.735541 
L 339.883626 -221.799479 
L 341.932415 -222.857592 
L 343.981204 -223.909866 
L 346.029994 -224.956294 
L 348.078783 -225.996877 
L 350.127573 -227.031622 
L 352.176362 -228.060545 
L 354.225151 -229.083668 
L 356.273941 -230.101021 
L 358.32273 -231.112641 
L 360.37152 -232.118572 
L 362.420309 -233.118863 
L 364.469098 -234.113571 
L 366.517888 -235.102757 
L 368.566677 -236.086491 
L 370.615467 -237.064844 
L 372.664256 -238.037894 
L 374.713045 -239.005723 
L 376.761835 -239.968418 
L 378.810624 -240.926066 
L 380.859414 -241.878762 
L 382.908203 -242.8266 
L 384.956992 -243.769677 
L 387.005782 -244.708094 
L 389.054571 -245.641951 
L 391.103361 -246.57135 
L 393.15215 -247.496395 
L 395.200939 -248.417189 
L 397.249729 -249.333836 
L 399.298518 -250.246438 
L 401.347308 -251.1551 
L 403.396097 -252.059924 
L 405.444887 -252.961013 
L 407.493676 -253.858465 
L 409.542465 -254.752382 
L 411.591255 -255.642862 
L 413.640044 -256.53 
L 415.688834 -257.413893 
L 417.737623 -258.294633 
L 419.786412 -259.172312 
L 421.835202 -260.047019 
L 423.883991 -260.918843 
L 425.932781 -261.787868 
L 427.98157 -262.654178 
L 430.030359 -263.517854 
L 432.079149 -264.378977 
L 434.127938 -265.237622 
L 436.176728 -266.093865 
L 438.225517 -266.947779 
L 440.274306 -267.799435 
L 442.323096 -268.648902 
L 444.371885 -269.496246 
L 446.420675 -270.341532 
L 448.469464 -271.184823 
L 450.518253 -272.02618 
L 452.567043 -272.865662 
L 454.615832 -273.703326 
L 456.664622 -274.539227 
L 458.713411 -275.373418 
L 460.7622 -276.205952 
L 462.81099 -277.036878 
L 464.859779 -277.866245 
L 466.908569 -278.6941 
L 468.957358 -279.520487 
L 468.957358 -323.400647 
L 468.957358 -323.400647 
L 466.908569 -322.133548 
L 464.859779 -320.867915 
L 462.81099 -319.603795 
L 460.7622 -318.341234 
L 458.713411 -317.080281 
L 456.664622 -315.820985 
L 454.615832 -314.563399 
L 452.567043 -313.307576 
L 450.518253 -312.053571 
L 448.469464 -310.801441 
L 446.420675 -309.551246 
L 444.371885 -308.303045 
L 442.323096 -307.056902 
L 440.274306 -305.812882 
L 438.225517 -304.571051 
L 436.176728 -303.331478 
L 434.127938 -302.094234 
L 432.079149 -300.859392 
L 430.030359 -299.627027 
L 427.98157 -298.397217 
L 425.932781 -297.17004 
L 423.883991 -295.945578 
L 421.835202 -294.723914 
L 419.786412 -293.505135 
L 417.737623 -292.289327 
L 415.688834 -291.07658 
L 413.640044 -289.866986 
L 411.591255 -288.660637 
L 409.542465 -287.45763 
L 407.493676 -286.25806 
L 405.444887 -285.062025 
L 403.396097 -283.869626 
L 401.347308 -282.680964 
L 399.298518 -281.496139 
L 397.249729 -280.315254 
L 395.200939 -279.138414 
L 393.15215 -277.965721 
L 391.103361 -276.797279 
L 389.054571 -275.633191 
L 387.005782 -274.473561 
L 384.956992 -273.318491 
L 382.908203 -272.168082 
L 380.859414 -271.022432 
L 378.810624 -269.881641 
L 376.761835 -268.745803 
L 374.713045 -267.61501 
L 372.664256 -266.489352 
L 370.615467 -265.368915 
L 368.566677 -264.253781 
L 366.517888 -263.144028 
L 364.469098 -262.039728 
L 362.420309 -260.940949 
L 360.37152 -259.847753 
L 358.32273 -258.760196 
L 356.273941 -257.678329 
L 354.225151 -256.602195 
L 352.176362 -255.531832 
L 350.127573 -254.467267 
L 348.078783 -253.408525 
L 346.029994 -252.355621 
L 343.981204 -251.308563 
L 341.932415 -250.26735 
L 339.883626 -249.231976 
L 337.834836 -248.202426 
L 335.786047 -247.178679 
L 333.737257 -246.160705 
L 331.688468 -245.148469 
L 329.639679 -244.141927 
L 327.590889 -243.141031 
L 325.5421 -242.145724 
L 323.49331 -241.155945 
L 321.444521 -240.171627 
L 319.395732 -239.192697 
L 317.346942 -238.219079 
L 315.298153 -237.250691 
L 313.249363 -236.287448 
L 311.200574 -235.329259 
L 309.151785 -234.376034 
L 307.102995 -233.427677 
L 305.054206 -232.484091 
L 303.005416 -231.545177 
L 300.956627 -230.610833 
L 298.907838 -229.680958 
L 296.859048 -228.755448 
L 294.810259 -227.834201 
L 292.761469 -226.917112 
L 290.71268 -226.004079 
L 288.663891 -225.094997 
L 286.615101 -224.189764 
L 284.566312 -223.288278 
L 282.517522 -222.390438 
L 280.468733 -221.496144 
L 278.419944 -220.605299 
L 276.371154 -219.717805 
L 274.322365 -218.833566 
L 272.273575 -217.952491 
L 270.224786 -217.074486 
L 268.175997 -216.199463 
L 266.127207 -215.327332 
L 264.078418 -214.45801 
L 262.029628 -213.591411 
L 259.980839 -212.727454 
L 257.93205 -211.86606 
L 255.88326 -211.007152 
L 253.834471 -210.150653 
L 251.785681 -209.296491 
L 249.736892 -208.444595 
L 247.688103 -207.594896 
L 245.639313 -206.747326 
L 243.590524 -205.901821 
L 241.541734 -205.058318 
L 239.492945 -204.216755 
L 237.444156 -203.377073 
L 235.395366 -202.539216 
L 233.346577 -201.703128 
L 231.297787 -200.868755 
L 229.248998 -200.036045 
L 227.200209 -199.204947 
L 225.151419 -198.375415 
L 223.10263 -197.547399 
L 221.05384 -196.720856 
L 219.005051 -195.895741 
L 216.956262 -195.072011 
L 214.907472 -194.249626 
L 212.858683 -193.428545 
L 210.809893 -192.608731 
L 208.761104 -191.790147 
L 206.712315 -190.972756 
L 204.663525 -190.156524 
L 202.614736 -189.341418 
L 200.565946 -188.527405 
L 198.517157 -187.714454 
L 196.468368 -186.902534 
L 194.419578 -186.091618 
L 192.370789 -185.281675 
L 190.321999 -184.47268 
L 188.27321 -183.664605 
L 186.224421 -182.857426 
L 184.175631 -182.051117 
L 182.126842 -181.245655 
L 180.078052 -180.441016 
L 178.029263 -179.637179 
L 175.980474 -178.834121 
L 173.931684 -178.031822 
L 171.882895 -177.230262 
L 169.834105 -176.429421 
L 167.785316 -175.62928 
L 165.736527 -174.829821 
L 163.687737 -174.031026 
L 161.638948 -173.232878 
L 159.590158 -172.435361 
L 157.541369 -171.638457 
L 155.49258 -170.842153 
L 153.44379 -170.046432 
L 151.395001 -169.251279 
L 149.346211 -168.456682 
L 147.297422 -167.662626 
L 145.248633 -166.869097 
L 143.199843 -166.076083 
L 141.151054 -165.283571 
L 139.102264 -164.49155 
L 137.053475 -163.700007 
L 135.004686 -162.908931 
L 132.955896 -162.11831 
L 130.907107 -161.328135 
L 128.858317 -160.538394 
L 126.809528 -159.749078 
L 124.760738 -158.960177 
L 122.711949 -158.171681 
L 120.66316 -157.383581 
L 118.61437 -156.595867 
L 116.565581 -155.808532 
L 114.516791 -155.021567 
L 112.468002 -154.234962 
L 110.419213 -153.448712 
L 108.370423 -152.662807 
L 106.321634 -151.877239 
L 104.272844 -151.092003 
L 102.224055 -150.30709 
L 100.175266 -149.522494 
L 98.126476 -148.738207 
L 96.077687 -147.954223 
L 94.028897 -147.170537 
L 91.980108 -146.38714 
L 89.931319 -145.604028 
L 87.882529 -144.821195 
L 85.83374 -144.038634 
L 83.78495 -143.256341 
L 81.736161 -142.474309 
L 79.687372 -141.692534 
L 77.638582 -140.91101 
L 75.589793 -140.129732 
L 73.541003 -139.348695 
L 71.492214 -138.567895 
L 69.443425 -137.787327 
L 67.394635 -137.006986 
L 65.345846 -136.226867 
L 63.297056 -135.446968 
L 61.248267 -134.667282 
z
" style="stroke: #2c7bb6; stroke-opacity: 0.18"/>
    </defs>
    <g clip-path="url(#pc89be2deff)">
     <use xlink:href="#m1f245465b1" x="0" y="352.468125" style="fill: #2c7bb6; fill-opacity: 0.18; stroke: #2c7bb6; stroke-opacity: 0.18"/>
    </g>
   </g>
   <g id="line2d_11">
    <path d="M 61.248267 259.309512 
L 468.957358 51.007558 
L 468.957358 51.007558 
" clip-path="url(#pc89be2deff)" style="fill: none; stroke: #2c7bb6; stroke-width: 2; stroke-linecap: round"/>
   </g>
   <g id="line2d_12">
    <path d="M 61.248267 263.899658 
L 86.618606 250.497372 
L 121.89315 231.656654 
L 246.905018 165.441708 
L 250.973254 162.43756 
L 268.499995 151.809403 
L 295.44857 136.116285 
L 322.245564 118.413167 
L 339.760122 116.012767 
L 341.613336 115.671752 
L 365.52404 113.491187 
L 379.518599 117.930446 
L 381.175703 117.846704 
L 387.051802 117.384842 
L 387.791992 117.18052 
L 390.3021 116.402467 
L 392.798804 115.061875 
L 392.918741 114.940393 
L 393.154597 114.668938 
L 393.44847 114.259758 
L 395.200615 110.902731 
L 397.073316 107.869081 
L 399.351428 103.002086 
L 408.150739 83.177839 
L 408.17859 83.158317 
L 409.99232 81.507697 
L 416.313456 73.248011 
L 422.005403 65.613085 
L 422.740372 64.696747 
L 468.957358 21.621261 
" clip-path="url(#pc89be2deff)" style="fill: none; stroke-dasharray: 7.4,3.2; stroke-dashoffset: 0; stroke: #fdae61; stroke-width: 2"/>
   </g>
   <g id="line2d_13">
    <path d="M 344.895144 314.8 
L 344.895144 7.2 
" clip-path="url(#pc89be2deff)" style="fill: none; stroke-dasharray: 3.7,1.6; stroke-dashoffset: 0; stroke: #999999"/>
   </g>
   <g id="patch_3">
    <path d="M 40.862813 314.8 
L 40.862813 7.2 
" style="fill: none; stroke: #cccccc; stroke-width: 0.8; stroke-linejoin: miter; stroke-linecap: square"/>
   </g>
   <g id="patch_4">
    <path d="M 489.342812 314.8 
L 489.342812 7.2 
" style="fill: none; stroke: #cccccc; stroke-width: 0.8; stroke-linejoin: miter; stroke-linecap: square"/>
   </g>
   <g id="patch_5">
    <path d="M 40.862813 314.8 
L 489.342813 314.8 
" style="fill: none; stroke: #cccccc; stroke-width: 0.8; stroke-linejoin: miter; stroke-linecap: square"/>
   </g>
   <g id="patch_6">
    <path d="M 40.862813 7.2 
L 489.342813 7.2 
" style="fill: none; stroke: #cccccc; stroke-width: 0.8; stroke-linejoin: miter; stroke-linecap: square"/>
   </g>
   <g id="text_13">
    <g id="patch_7">
     <path d="M 358.012856 312.23675 
L 484.858012 312.23675 
Q 486.658012 312.23675 486.658012 310.43675 
L 486.658012 302.17925 
Q 486.658012 300.37925 484.858012 300.37925 
L 358.012856 300.37925 
Q 356.212856 300.37925 356.212856 302.17925 
L 356.212856 310.43675 
Q 356.212856 312.23675 358.012856 312.23675 
z
" style="fill: #ffffff; opacity: 0.6; stroke: #ffffff; stroke-linejoin: miter"/>
    </g>
    <!-- N=30  slope=0.820  p=2.98e-08 -->
    <g style="fill: #262626" transform="translate(358.012856 308.648) scale(0.09 -0.09)">
     <defs>
      <path id="ArialMT-4e" d="M 488 0 
L 488 4581 
L 1109 4581 
L 3516 984 
L 3516 4581 
L 4097 4581 
L 4097 0 
L 3475 0 
L 1069 3600 
L 1069 0 
L 488 0 
z
" transform="scale(0.015625)"/>
      <path id="ArialMT-3d" d="M 3381 2694 
L 356 2694 
L 356 3219 
L 3381 3219 
L 3381 2694 
z
M 3381 1303 
L 356 1303 
L 356 1828 
L 3381 1828 
L 3381 1303 
z
" transform="scale(0.015625)"/>
      <path id="ArialMT-2e" d="M 581 0 
L 581 641 
L 1222 641 
L 1222 0 
L 581 0 
z
" transform="scale(0.015625)"/>
      <path id="ArialMT-38" d="M 1131 2484 
Q 781 2613 612 2850 
Q 444 3088 444 3419 
Q 444 3919 803 4259 
Q 1163 4600 1759 4600 
Q 2359 4600 2725 4251 
Q 3091 3903 3091 3403 
Q 3091 3084 2923 2848 
Q 2756 2613 2416 2484 
Q 2838 2347 3058 2040 
Q 3278 1734 3278 1309 
Q 3278 722 2862 322 
Q 2447 -78 1769 -78 
Q 1091 -78 675 323 
Q 259 725 259 1325 
Q 259 1772 486 2073 
Q 713 2375 1131 2484 
z
M 1019 3438 
Q 1019 3113 1228 2906 
Q 1438 2700 1772 2700 
Q 2097 2700 2305 2904 
Q 2513 3109 2513 3406 
Q 2513 3716 2298 3927 
Q 2084 4138 1766 4138 
Q 1444 4138 1231 3931 
Q 1019 3725 1019 3438 
z
M 838 1322 
Q 838 1081 952 856 
Q 1066 631 1291 507 
Q 1516 384 1775 384 
Q 2178 384 2440 643 
Q 2703 903 2703 1303 
Q 2703 1709 2433 1975 
Q 2163 2241 1756 2241 
Q 1359 2241 1098 1978 
Q 838 1716 838 1322 
z
" transform="scale(0.015625)"/>
      <path id="ArialMT-39" d="M 350 1059 
L 891 1109 
Q 959 728 1153 556 
Q 1347 384 1650 384 
Q 1909 384 2104 503 
Q 2300 622 2425 820 
Q 2550 1019 2634 1356 
Q 2719 1694 2719 2044 
Q 2719 2081 2716 2156 
Q 2547 1888 2255 1720 
Q 1963 1553 1622 1553 
Q 1053 1553 659 1965 
Q 266 2378 266 3053 
Q 266 3750 677 4175 
Q 1088 4600 1706 4600 
Q 2153 4600 2523 4359 
Q 2894 4119 3086 3673 
Q 3278 3228 3278 2384 
Q 3278 1506 3087 986 
Q 2897 466 2520 194 
Q 2144 -78 1638 -78 
Q 1100 -78 759 220 
Q 419 519 350 1059 
z
M 2653 3081 
Q 2653 3566 2395 3850 
Q 2138 4134 1775 4134 
Q 1400 4134 1122 3828 
Q 844 3522 844 3034 
Q 844 2597 1108 2323 
Q 1372 2050 1759 2050 
Q 2150 2050 2401 2323 
Q 2653 2597 2653 3081 
z
" transform="scale(0.015625)"/>
     </defs>
     <use xlink:href="#ArialMT-4e"/>
     <use xlink:href="#ArialMT-3d" x="72.216797"/>
     <use xlink:href="#ArialMT-33" x="130.615234"/>
     <use xlink:href="#ArialMT-30" x="186.230469"/>
     <use xlink:href="#ArialMT-20" x="241.845703"/>
     <use xlink:href="#ArialMT-20" x="269.628906"/>
     <use xlink:href="#ArialMT-73" x="297.412109"/>
     <use xlink:href="#ArialMT-6c" x="347.412109"/>
     <use xlink:href="#ArialMT-6f" x="369.628906"/>
     <use xlink:href="#ArialMT-70" x="425.244141"/>
     <use xlink:href="#ArialMT-65" x="480.859375"/>
     <use xlink:href="#ArialMT-3d" x="536.474609"/>
     <use xlink:href="#ArialMT-30" x="594.873047"/>
     <use xlink:href="#ArialMT-2e" x="650.488281"/>
     <use xlink:href="#ArialMT-38" x="678.271484"/>
     <use xlink:href="#ArialMT-32" x="733.886719"/>
     <use xlink:href="#ArialMT-30" x="789.501953"/>
     <use xlink:href="#ArialMT-20" x="845.117188"/>
     <use xlink:href="#ArialMT-20" x="872.900391"/>
     <use xlink:href="#ArialMT-70" x="900.683594"/>
     <use xlink:href="#ArialMT-3d" x="956.298828"/>
     <use xlink:href="#ArialMT-32" x="1014.697266"/>
     <use xlink:href="#ArialMT-2e" x="1070.3125"/>
     <use xlink:href="#ArialMT-39" x="1098.095703"/>
     <use xlink:href="#ArialMT-38" x="1153.710938"/>
     <use xlink:href="#ArialMT-65" x="1209.326172"/>
     <use xlink:href="#ArialMT-2d" x="1264.941406"/>
     <use xlink:href="#ArialMT-30" x="1298.242188"/>
     <use xlink:href="#ArialMT-38" x="1353.857422"/>
    </g>
   </g>
   <g id="legend_1">
    <g id="line2d_14">
     <path d="M 48.962813 18.592031 
L 57.962813 18.592031 
L 66.962813 18.592031 
" style="fill: none; stroke: #2c7bb6; stroke-width: 2; stroke-linecap: round"/>
    </g>
    <g id="text_14">
     <!-- OLS fit -->
     <g style="fill: #262626" transform="translate(74.162813 21.742031) scale(0.09 -0.09)">
      <defs>
       <path id="ArialMT-4f" d="M 309 2231 
Q 309 3372 921 4017 
Q 1534 4663 2503 4663 
Q 3138 4663 3647 4359 
Q 4156 4056 4423 3514 
Q 4691 2972 4691 2284 
Q 4691 1588 4409 1038 
Q 4128 488 3612 205 
Q 3097 -78 2500 -78 
Q 1853 -78 1343 234 
Q 834 547 571 1087 
Q 309 1628 309 2231 
z
M 934 2222 
Q 934 1394 1379 917 
Q 1825 441 2497 441 
Q 3181 441 3623 922 
Q 4066 1403 4066 2288 
Q 4066 2847 3877 3264 
Q 3688 3681 3323 3911 
Q 2959 4141 2506 4141 
Q 1863 4141 1398 3698 
Q 934 3256 934 2222 
z
" transform="scale(0.015625)"/>
       <path id="ArialMT-4c" d="M 469 0 
L 469 4581 
L 1075 4581 
L 1075 541 
L 3331 541 
L 3331 0 
L 469 0 
z
" transform="scale(0.015625)"/>
       <path id="ArialMT-53" d="M 288 1472 
L 859 1522 
Q 900 1178 1048 958 
Q 1197 738 1509 602 
Q 1822 466 2213 466 
Q 2559 466 2825 569 
Q 3091 672 3220 851 
Q 3350 1031 3350 1244 
Q 3350 1459 3225 1620 
Q 3100 1781 2813 1891 
Q 2628 1963 1997 2114 
Q 1366 2266 1113 2400 
Q 784 2572 623 2826 
Q 463 3081 463 3397 
Q 463 3744 659 4045 
Q 856 4347 1234 4503 
Q 1613 4659 2075 4659 
Q 2584 4659 2973 4495 
Q 3363 4331 3572 4012 
Q 3781 3694 3797 3291 
L 3216 3247 
Q 3169 3681 2898 3903 
Q 2628 4125 2100 4125 
Q 1550 4125 1298 3923 
Q 1047 3722 1047 3438 
Q 1047 3191 1225 3031 
Q 1400 2872 2139 2705 
Q 2878 2538 3153 2413 
Q 3553 2228 3743 1945 
Q 3934 1663 3934 1294 
Q 3934 928 3725 604 
Q 3516 281 3123 101 
Q 2731 -78 2241 -78 
Q 1619 -78 1198 103 
Q 778 284 539 648 
Q 300 1013 288 1472 
z
" transform="scale(0.015625)"/>
      </defs>
      <use xlink:href="#ArialMT-4f"/>
      <use xlink:href="#ArialMT-4c" x="77.783203"/>
      <use xlink:href="#ArialMT-53" x="133.398438"/>
      <use xlink:href="#ArialMT-20" x="200.097656"/>
      <use xlink:href="#ArialMT-66" x="227.880859"/>
      <use xlink:href="#ArialMT-69" x="255.664062"/>
      <use xlink:href="#ArialMT-74" x="277.880859"/>
     </g>
    </g>
    <g id="line2d_15">
     <path d="M 48.962813 31.322812 
L 57.962813 31.322812 
L 66.962813 31.322812 
" style="fill: none; stroke-dasharray: 7.4,3.2; stroke-dashoffset: 0; stroke: #fdae61; stroke-width: 2"/>
    </g>
    <g id="text_15">
     <!-- LOWESS -->
     <g style="fill: #262626" transform="translate(74.162813 34.472812) scale(0.09 -0.09)">
      <defs>
       <path id="ArialMT-57" d="M 1294 0 
L 78 4581 
L 700 4581 
L 1397 1578 
Q 1509 1106 1591 641 
Q 1766 1375 1797 1488 
L 2669 4581 
L 3400 4581 
L 4056 2263 
Q 4303 1400 4413 641 
Q 4500 1075 4641 1638 
L 5359 4581 
L 5969 4581 
L 4713 0 
L 4128 0 
L 3163 3491 
Q 3041 3928 3019 4028 
Q 2947 3713 2884 3491 
L 1913 0 
L 1294 0 
z
" transform="scale(0.015625)"/>
       <path id="ArialMT-45" d="M 506 0 
L 506 4581 
L 3819 4581 
L 3819 4041 
L 1113 4041 
L 1113 2638 
L 3647 2638 
L 3647 2100 
L 1113 2100 
L 1113 541 
L 3925 541 
L 3925 0 
L 506 0 
z
" transform="scale(0.015625)"/>
      </defs>
      <use xlink:href="#ArialMT-4c"/>
      <use xlink:href="#ArialMT-4f" x="55.615234"/>
      <use xlink:href="#ArialMT-57" x="133.398438"/>
      <use xlink:href="#ArialMT-45" x="227.783203"/>
      <use xlink:href="#ArialMT-53" x="294.482422"/>
      <use xlink:href="#ArialMT-53" x="361.181641"/>
     </g>
    </g>
   </g>
  </g>
 </g>
 <defs>
  <clipPath id="pc89be2deff">
   <rect x="40.862813" y="7.2" width="448.48" height="307.6"/>
  </clipPath>
 </defs>
</svg>
