<?xml version="1.0" encoding="utf-8" standalone="no"?>
<!DOCTYPE svg PUBLIC "-//W3C//DTD SVG 1.1//EN"
  "http://www.w3.org/Graphics/SVG/1.1/DTD/svg11.dtd">
<svg xmlns:xlink="http://www.w3.org/1999/xlink" width="496.427848pt" height="352.468125pt" viewBox="0 0 496.427848 352.468125" xmlns="http://www.w3.org/2000/svg" version="1.1">
 <metadata>
  <rdf:RDF xmlns:dc="http://purl.org/dc/elements/1.1/" xmlns:cc="http://creativecommons.org/ns#" xmlns:rdf="http://www.w3.org/1999/02/22-rdf-syntax-ns#">
   <cc:Work>
    <dc:type rdf:resource="http://purl.org/dc/dcmitype/StillImage"/>
    <dc:date>2025-11-17T20:15:56.614824</dc:date>
    <dc:format>image/svg+xml</dc:format>
    <dc:creator>
     <cc:Agent>
      <dc:title>Matplotlib v3.9.2, https://matplotlib.org/</dc:title>
     </cc:Agent>
    </dc:creator>
   </cc:Work>
  </rdf:RDF>
 </metadata>
 <defs>
  <style type="text/css">*{stroke-linejoin: round; stroke-linecap: butt}</style>
 </defs>
 <g id="figure_1">
  <g id="patch_1">
   <path d="M 0 352.468125 
L 496.427848 352.468125 
L 496.427848 0 
L 0 0 
z
" style="fill: #ffffff"/>
  </g>
  <g id="axes_1">
   <g id="patch_2">
    <path d="M 40.862813 314.8 
L 487.40865 314.8 
L 487.40865 7.2 
L 40.862813 7.2 
z
" style="fill: #ffffff"/>
   </g>
   <g id="matplotlib.axis_1">
    <g id="xtick_1">
     <g id="line2d_1">
      <path d="M 66.391878 314.8 
L 66.391878 7.2 
" clip-path="url(#p93d2c5513f)" style="fill: none; stroke: #cccccc; stroke-width: 0.8; stroke-linecap: round"/>
     </g>
     <g id="text_1">
      <!-- −2 -->
      <g style="fill: #262626" transform="translate(60.691097 328.957812) scale(0.1 -0.1)">
       <defs>
        <path id="ArialMT-2212" d="M 3381 1997 
L 356 1997 
L 356 2522 
L 3381 2522 
L 3381 1997 
z
" transform="scale(0.015625)"/>
        <path id="ArialMT-32" d="M 3222 541 
L 3222 0 
L 194 0 
Q 188 203 259 391 
Q 375 700 629 1000 
Q 884 1300 1366 1694 
Q 2113 2306 2375 2664 
Q 2638 3022 2638 3341 
Q 2638 3675 2398 3904 
Q 2159 4134 1775 4134 
Q 1369 4134 1125 3890 
Q 881 3647 878 3216 
L 300 3275 
Q 359 3922 746 4261 
Q 1134 4600 1788 4600 
Q 2447 4600 2831 4234 
Q 3216 3869 3216 3328 
Q 3216 3053 3103 2787 
Q 2991 2522 2730 2228 
Q 2469 1934 1863 1422 
Q 1356 997 1212 845 
Q 1069 694 975 541 
L 3222 541 
z
" transform="scale(0.015625)"/>
       </defs>
       <use xlink:href="#ArialMT-2212"/>
       <use xlink:href="#ArialMT-32" x="58.398438"/>
      </g>
     </g>
    </g>
    <g id="xtick_2">
     <g id="line2d_2">
      <path d="M 150.402978 314.8 
L 150.402978 7.2 
" clip-path="url(#p93d2c5513f)" style="fill: none; stroke: #cccccc; stroke-width: 0.8; stroke-linecap: round"/>
     </g>
     <g id="text_2">
      <!-- −1 -->
      <g style="fill: #262626" transform="translate(144.702197 328.957812) scale(0.1 -0.1)">
       <defs>
        <path id="ArialMT-31" d="M 2384 0 
L 1822 0 
L 1822 3584 
Q 1619 3391 1289 3197 
Q 959 3003 697 2906 
L 697 3450 
Q 1169 3672 1522 3987 
Q 1875 4303 2022 4600 
L 2384 4600 
L 2384 0 
z
" transform="scale(0.015625)"/>
       </defs>
       <use xlink:href="#ArialMT-2212"/>
       <use xlink:href="#ArialMT-31" x="58.398438"/>
      </g>
     </g>
    </g>
    <g id="xtick_3">
     <g id="line2d_3">
      <path d="M 234.414079 314.8 
L 234.414079 7.2 
" clip-path="url(#p93d2c5513f)" style="fill: none; stroke: #cccccc; stroke-width: 0.8; stroke-linecap: round"/>
     </g>
     <g id="text_3">
      <!-- 0 -->
      <g style="fill: #262626" transform="translate(231.63361 328.957812) scale(0.1 -0.1)">
       <defs>
        <path id="ArialMT-30" d="M 266 2259 
Q 266 3072 433 3567 
Q 600 4063 929 4331 
Q 1259 4600 1759 4600 
Q 2128 4600 2406 4451 
Q 2684 4303 2865 4023 
Q 3047 3744 3150 3342 
Q 3253 2941 3253 2259 
Q 3253 1453 3087 958 
Q 2922 463 2592 192 
Q 2263 -78 1759 -78 
Q 1097 -78 719 397 
Q 266 969 266 2259 
z
M 844 2259 
Q 844 1131 1108 757 
Q 1372 384 1759 384 
Q 2147 384 2411 759 
Q 2675 1134 2675 2259 
Q 2675 3391 2411 3762 
Q 2147 4134 1753 4134 
Q 1366 4134 1134 3806 
Q 844 3388 844 2259 
z
" transform="scale(0.015625)"/>
       </defs>
       <use xlink:href="#ArialMT-30"/>
      </g>
     </g>
    </g>
    <g id="xtick_4">
     <g id="line2d_4">
      <path d="M 318.425179 314.8 
L 318.425179 7.2 
" clip-path="url(#p93d2c5513f)" style="fill: none; stroke: #cccccc; stroke-width: 0.8; stroke-linecap: round"/>
     </g>
     <g id="text_4">
      <!-- 1 -->
      <g style="fill: #262626" transform="translate(315.64471 328.957812) scale(0.1 -0.1)">
       <use xlink:href="#ArialMT-31"/>
      </g>
     </g>
    </g>
    <g id="xtick_5">
     <g id="line2d_5">
      <path d="M 402.436279 314.8 
L 402.436279 7.2 
" clip-path="url(#p93d2c5513f)" style="fill: none; stroke: #cccccc; stroke-width: 0.8; stroke-linecap: round"/>
     </g>
     <g id="text_5">
      <!-- 2 -->
      <g style="fill: #262626" transform="translate(399.65581 328.957812) scale(0.1 -0.1)">
       <use xlink:href="#ArialMT-32"/>
      </g>
     </g>
    </g>
    <g id="xtick_6">
     <g id="line2d_6">
      <path d="M 486.447379 314.8 
L 486.447379 7.2 
" clip-path="url(#p93d2c5513f)" style="fill: none; stroke: #cccccc; stroke-width: 0.8; stroke-linecap: round"/>
     </g>
     <g id="text_6">
      <!-- 3 -->
      <g style="fill: #262626" transform="translate(483.66691 328.957812) scale(0.1 -0.1)">
       <defs>
        <path id="ArialMT-33" d="M 269 1209 
L 831 1284 
Q 928 806 1161 595 
Q 1394 384 1728 384 
Q 2125 384 2398 659 
Q 2672 934 2672 1341 
Q 2672 1728 2419 1979 
Q 2166 2231 1775 2231 
Q 1616 2231 1378 2169 
L 1441 2663 
Q 1497 2656 1531 2656 
Q 1891 2656 2178 2843 
Q 2466 3031 2466 3422 
Q 2466 3731 2256 3934 
Q 2047 4138 1716 4138 
Q 1388 4138 1169 3931 
Q 950 3725 888 3313 
L 325 3413 
Q 428 3978 793 4289 
Q 1159 4600 1703 4600 
Q 2078 4600 2393 4439 
Q 2709 4278 2876 4000 
Q 3044 3722 3044 3409 
Q 3044 3113 2884 2869 
Q 2725 2625 2413 2481 
Q 2819 2388 3044 2092 
Q 3269 1797 3269 1353 
Q 3269 753 2831 336 
Q 2394 -81 1725 -81 
Q 1122 -81 723 278 
Q 325 638 269 1209 
z
" transform="scale(0.015625)"/>
       </defs>
       <use xlink:href="#ArialMT-33"/>
      </g>
     </g>
    </g>
    <g id="text_7">
     <!-- Residual (z-score) -->
     <g style="fill: #262626" transform="translate(219.515263 342.952969) scale(0.11 -0.11)">
      <defs>
       <path id="ArialMT-52" d="M 503 0 
L 503 4581 
L 2534 4581 
Q 3147 4581 3465 4457 
Q 3784 4334 3975 4021 
Q 4166 3709 4166 3331 
Q 4166 2844 3850 2509 
Q 3534 2175 2875 2084 
Q 3116 1969 3241 1856 
Q 3506 1613 3744 1247 
L 4541 0 
L 3778 0 
L 3172 953 
Q 2906 1366 2734 1584 
Q 2563 1803 2427 1890 
Q 2291 1978 2150 2013 
Q 2047 2034 1813 2034 
L 1109 2034 
L 1109 0 
L 503 0 
z
M 1109 2559 
L 2413 2559 
Q 2828 2559 3062 2645 
Q 3297 2731 3419 2920 
Q 3541 3109 3541 3331 
Q 3541 3656 3305 3865 
Q 3069 4075 2559 4075 
L 1109 4075 
L 1109 2559 
z
" transform="scale(0.015625)"/>
       <path id="ArialMT-65" d="M 2694 1069 
L 3275 997 
Q 3138 488 2766 206 
Q 2394 -75 1816 -75 
Q 1088 -75 661 373 
Q 234 822 234 1631 
Q 234 2469 665 2931 
Q 1097 3394 1784 3394 
Q 2450 3394 2872 2941 
Q 3294 2488 3294 1666 
Q 3294 1616 3291 1516 
L 816 1516 
Q 847 969 1125 678 
Q 1403 388 1819 388 
Q 2128 388 2347 550 
Q 2566 713 2694 1069 
z
M 847 1978 
L 2700 1978 
Q 2663 2397 2488 2606 
Q 2219 2931 1791 2931 
Q 1403 2931 1139 2672 
Q 875 2413 847 1978 
z
" transform="scale(0.015625)"/>
       <path id="ArialMT-73" d="M 197 991 
L 753 1078 
Q 800 744 1014 566 
Q 1228 388 1613 388 
Q 2000 388 2187 545 
Q 2375 703 2375 916 
Q 2375 1106 2209 1216 
Q 2094 1291 1634 1406 
Q 1016 1563 777 1677 
Q 538 1791 414 1992 
Q 291 2194 291 2438 
Q 291 2659 392 2848 
Q 494 3038 669 3163 
Q 800 3259 1026 3326 
Q 1253 3394 1513 3394 
Q 1903 3394 2198 3281 
Q 2494 3169 2634 2976 
Q 2775 2784 2828 2463 
L 2278 2388 
Q 2241 2644 2061 2787 
Q 1881 2931 1553 2931 
Q 1166 2931 1000 2803 
Q 834 2675 834 2503 
Q 834 2394 903 2306 
Q 972 2216 1119 2156 
Q 1203 2125 1616 2013 
Q 2213 1853 2448 1751 
Q 2684 1650 2818 1456 
Q 2953 1263 2953 975 
Q 2953 694 2789 445 
Q 2625 197 2315 61 
Q 2006 -75 1616 -75 
Q 969 -75 630 194 
Q 291 463 197 991 
z
" transform="scale(0.015625)"/>
       <path id="ArialMT-69" d="M 425 3934 
L 425 4581 
L 988 4581 
L 988 3934 
L 425 3934 
z
M 425 0 
L 425 3319 
L 988 3319 
L 988 0 
L 425 0 
z
" transform="scale(0.015625)"/>
       <path id="ArialMT-64" d="M 2575 0 
L 2575 419 
Q 2259 -75 1647 -75 
Q 1250 -75 917 144 
Q 584 363 401 755 
Q 219 1147 219 1656 
Q 219 2153 384 2558 
Q 550 2963 881 3178 
Q 1213 3394 1622 3394 
Q 1922 3394 2156 3267 
Q 2391 3141 2538 2938 
L 2538 4581 
L 3097 4581 
L 3097 0 
L 2575 0 
z
M 797 1656 
Q 797 1019 1065 703 
Q 1334 388 1700 388 
Q 2069 388 2326 689 
Q 2584 991 2584 1609 
Q 2584 2291 2321 2609 
Q 2059 2928 1675 2928 
Q 1300 2928 1048 2622 
Q 797 2316 797 1656 
z
" transform="scale(0.015625)"/>
       <path id="ArialMT-75" d="M 2597 0 
L 2597 488 
Q 2209 -75 1544 -75 
Q 1250 -75 995 37 
Q 741 150 617 320 
Q 494 491 444 738 
Q 409 903 409 1263 
L 409 3319 
L 972 3319 
L 972 1478 
Q 972 1038 1006 884 
Q 1059 663 1231 536 
Q 1403 409 1656 409 
Q 1909 409 2131 539 
Q 2353 669 2445 892 
Q 2538 1116 2538 1541 
L 2538 3319 
L 3100 3319 
L 3100 0 
L 2597 0 
z
" transform="scale(0.015625)"/>
       <path id="ArialMT-61" d="M 2588 409 
Q 2275 144 1986 34 
Q 1697 -75 1366 -75 
Q 819 -75 525 192 
Q 231 459 231 875 
Q 231 1119 342 1320 
Q 453 1522 633 1644 
Q 813 1766 1038 1828 
Q 1203 1872 1538 1913 
Q 2219 1994 2541 2106 
Q 2544 2222 2544 2253 
Q 2544 2597 2384 2738 
Q 2169 2928 1744 2928 
Q 1347 2928 1158 2789 
Q 969 2650 878 2297 
L 328 2372 
Q 403 2725 575 2942 
Q 747 3159 1072 3276 
Q 1397 3394 1825 3394 
Q 2250 3394 2515 3294 
Q 2781 3194 2906 3042 
Q 3031 2891 3081 2659 
Q 3109 2516 3109 2141 
L 3109 1391 
Q 3109 606 3145 398 
Q 3181 191 3288 0 
L 2700 0 
Q 2613 175 2588 409 
z
M 2541 1666 
Q 2234 1541 1622 1453 
Q 1275 1403 1131 1340 
Q 988 1278 909 1158 
Q 831 1038 831 891 
Q 831 666 1001 516 
Q 1172 366 1500 366 
Q 1825 366 2078 508 
Q 2331 650 2450 897 
Q 2541 1088 2541 1459 
L 2541 1666 
z
" transform="scale(0.015625)"/>
       <path id="ArialMT-6c" d="M 409 0 
L 409 4581 
L 972 4581 
L 972 0 
L 409 0 
z
" transform="scale(0.015625)"/>
       <path id="ArialMT-20" transform="scale(0.015625)"/>
       <path id="ArialMT-28" d="M 1497 -1347 
Q 1031 -759 709 28 
Q 388 816 388 1659 
Q 388 2403 628 3084 
Q 909 3875 1497 4659 
L 1900 4659 
Q 1522 4009 1400 3731 
Q 1209 3300 1100 2831 
Q 966 2247 966 1656 
Q 966 153 1900 -1347 
L 1497 -1347 
z
" transform="scale(0.015625)"/>
       <path id="ArialMT-7a" d="M 125 0 
L 125 456 
L 2238 2881 
Q 1878 2863 1603 2863 
L 250 2863 
L 250 3319 
L 2963 3319 
L 2963 2947 
L 1166 841 
L 819 456 
Q 1197 484 1528 484 
L 3063 484 
L 3063 0 
L 125 0 
z
" transform="scale(0.015625)"/>
       <path id="ArialMT-2d" d="M 203 1375 
L 203 1941 
L 1931 1941 
L 1931 1375 
L 203 1375 
z
" transform="scale(0.015625)"/>
       <path id="ArialMT-63" d="M 2588 1216 
L 3141 1144 
Q 3050 572 2676 248 
Q 2303 -75 1759 -75 
Q 1078 -75 664 370 
Q 250 816 250 1647 
Q 250 2184 428 2587 
Q 606 2991 970 3192 
Q 1334 3394 1763 3394 
Q 2303 3394 2647 3120 
Q 2991 2847 3088 2344 
L 2541 2259 
Q 2463 2594 2264 2762 
Q 2066 2931 1784 2931 
Q 1359 2931 1093 2626 
Q 828 2322 828 1663 
Q 828 994 1084 691 
Q 1341 388 1753 388 
Q 2084 388 2306 591 
Q 2528 794 2588 1216 
z
" transform="scale(0.015625)"/>
       <path id="ArialMT-6f" d="M 213 1659 
Q 213 2581 725 3025 
Q 1153 3394 1769 3394 
Q 2453 3394 2887 2945 
Q 3322 2497 3322 1706 
Q 3322 1066 3130 698 
Q 2938 331 2570 128 
Q 2203 -75 1769 -75 
Q 1072 -75 642 372 
Q 213 819 213 1659 
z
M 791 1659 
Q 791 1022 1069 705 
Q 1347 388 1769 388 
Q 2188 388 2466 706 
Q 2744 1025 2744 1678 
Q 2744 2294 2464 2611 
Q 2184 2928 1769 2928 
Q 1347 2928 1069 2612 
Q 791 2297 791 1659 
z
" transform="scale(0.015625)"/>
       <path id="ArialMT-72" d="M 416 0 
L 416 3319 
L 922 3319 
L 922 2816 
Q 1116 3169 1280 3281 
Q 1444 3394 1641 3394 
Q 1925 3394 2219 3213 
L 2025 2691 
Q 1819 2813 1613 2813 
Q 1428 2813 1281 2702 
Q 1134 2591 1072 2394 
Q 978 2094 978 1738 
L 978 0 
L 416 0 
z
" transform="scale(0.015625)"/>
       <path id="ArialMT-29" d="M 791 -1347 
L 388 -1347 
Q 1322 153 1322 1656 
Q 1322 2244 1188 2822 
Q 1081 3291 891 3722 
Q 769 4003 388 4659 
L 791 4659 
Q 1378 3875 1659 3084 
Q 1900 2403 1900 1659 
Q 1900 816 1576 28 
Q 1253 -759 791 -1347 
z
" transform="scale(0.015625)"/>
      </defs>
      <use xlink:href="#ArialMT-52"/>
      <use xlink:href="#ArialMT-65" x="72.216797"/>
      <use xlink:href="#ArialMT-73" x="127.832031"/>
      <use xlink:href="#ArialMT-69" x="177.832031"/>
      <use xlink:href="#ArialMT-64" x="200.048828"/>
      <use xlink:href="#ArialMT-75" x="255.664062"/>
      <use xlink:href="#ArialMT-61" x="311.279297"/>
      <use xlink:href="#ArialMT-6c" x="366.894531"/>
      <use xlink:href="#ArialMT-20" x="389.111328"/>
      <use xlink:href="#ArialMT-28" x="416.894531"/>
      <use xlink:href="#ArialMT-7a" x="450.195312"/>
      <use xlink:href="#ArialMT-2d" x="500.195312"/>
      <use xlink:href="#ArialMT-73" x="533.496094"/>
      <use xlink:href="#ArialMT-63" x="583.496094"/>
      <use xlink:href="#ArialMT-6f" x="633.496094"/>
      <use xlink:href="#ArialMT-72" x="689.111328"/>
      <use xlink:href="#ArialMT-65" x="722.412109"/>
      <use xlink:href="#ArialMT-29" x="778.027344"/>
     </g>
    </g>
   </g>
   <g id="matplotlib.axis_2">
    <g id="ytick_1">
     <g id="line2d_7">
      <path d="M 40.862813 282.142773 
L 487.40865 282.142773 
" clip-path="url(#p93d2c5513f)" style="fill: none; stroke: #cccccc; stroke-width: 0.8; stroke-linecap: round"/>
     </g>
     <g id="text_8">
      <!-- −2 -->
      <g style="fill: #262626" transform="translate(22.46125 285.721679) scale(0.1 -0.1)">
       <use xlink:href="#ArialMT-2212"/>
       <use xlink:href="#ArialMT-32" x="58.398438"/>
      </g>
     </g>
    </g>
    <g id="ytick_2">
     <g id="line2d_8">
      <path d="M 40.862813 220.756654 
L 487.40865 220.756654 
" clip-path="url(#p93d2c5513f)" style="fill: none; stroke: #cccccc; stroke-width: 0.8; stroke-linecap: round"/>
     </g>
     <g id="text_9">
      <!-- −1 -->
      <g style="fill: #262626" transform="translate(22.46125 224.33556) scale(0.1 -0.1)">
       <use xlink:href="#ArialMT-2212"/>
       <use xlink:href="#ArialMT-31" x="58.398438"/>
      </g>
     </g>
    </g>
    <g id="ytick_3">
     <g id="line2d_9">
      <path d="M 40.862813 159.370535 
L 487.40865 159.370535 
" clip-path="url(#p93d2c5513f)" style="fill: none; stroke: #cccccc; stroke-width: 0.8; stroke-linecap: round"/>
     </g>
     <g id="text_10">
      <!-- 0 -->
      <g style="fill: #262626" transform="translate(28.301875 162.949441) scale(0.1 -0.1)">
       <use xlink:href="#ArialMT-30"/>
      </g>
     </g>
    </g>
    <g id="ytick_4">
     <g id="line2d_10">
      <path d="M 40.862813 97.984416 
L 487.40865 97.984416 
" clip-path="url(#p93d2c5513f)" style="fill: none; stroke: #cccccc; stroke-width: 0.8; stroke-linecap: round"/>
     </g>
     <g id="text_11">
      <!-- 1 -->
      <g style="fill: #262626" transform="translate(28.301875 101.563322) scale(0.1 -0.1)">
       <use xlink:href="#ArialMT-31"/>
      </g>
     </g>
    </g>
    <g id="ytick_5">
     <g id="line2d_11">
      <path d="M 40.862813 36.598297 
L 487.40865 36.598297 
" clip-path="url(#p93d2c5513f)" style="fill: none; stroke: #cccccc; stroke-width: 0.8; stroke-linecap: round"/>
     </g>
     <g id="text_12">
      <!-- 2 -->
      <g style="fill: #262626" transform="translate(28.301875 40.177203) scale(0.1 -0.1)">
       <use xlink:href="#ArialMT-32"/>
      </g>
     </g>
    </g>
    <g id="text_13">
     <!-- Trade exposure (exports+imports / GDP) -->
     <g style="fill: #262626" transform="translate(15.935625 269.3075) rotate(-90) scale(0.12 -0.12)">
      <defs>
       <path id="ArialMT-54" d="M 1659 0 
L 1659 4041 
L 150 4041 
L 150 4581 
L 3781 4581 
L 3781 4041 
L 2266 4041 
L 2266 0 
L 1659 0 
z
" transform="scale(0.015625)"/>
       <path id="ArialMT-78" d="M 47 0 
L 1259 1725 
L 138 3319 
L 841 3319 
L 1350 2541 
Q 1494 2319 1581 2169 
Q 1719 2375 1834 2534 
L 2394 3319 
L 3066 3319 
L 1919 1756 
L 3153 0 
L 2463 0 
L 1781 1031 
L 1600 1309 
L 728 0 
L 47 0 
z
" transform="scale(0.015625)"/>
       <path id="ArialMT-70" d="M 422 -1272 
L 422 3319 
L 934 3319 
L 934 2888 
Q 1116 3141 1344 3267 
Q 1572 3394 1897 3394 
Q 2322 3394 2647 3175 
Q 2972 2956 3137 2557 
Q 3303 2159 3303 1684 
Q 3303 1175 3120 767 
Q 2938 359 2589 142 
Q 2241 -75 1856 -75 
Q 1575 -75 1351 44 
Q 1128 163 984 344 
L 984 -1272 
L 422 -1272 
z
M 931 1641 
Q 931 1000 1190 694 
Q 1450 388 1819 388 
Q 2194 388 2461 705 
Q 2728 1022 2728 1688 
Q 2728 2322 2467 2637 
Q 2206 2953 1844 2953 
Q 1484 2953 1207 2617 
Q 931 2281 931 1641 
z
" transform="scale(0.015625)"/>
       <path id="ArialMT-74" d="M 1650 503 
L 1731 6 
Q 1494 -44 1306 -44 
Q 1000 -44 831 53 
Q 663 150 594 308 
Q 525 466 525 972 
L 525 2881 
L 113 2881 
L 113 3319 
L 525 3319 
L 525 4141 
L 1084 4478 
L 1084 3319 
L 1650 3319 
L 1650 2881 
L 1084 2881 
L 1084 941 
Q 1084 700 1114 631 
Q 1144 563 1211 522 
Q 1278 481 1403 481 
Q 1497 481 1650 503 
z
" transform="scale(0.015625)"/>
       <path id="ArialMT-2b" d="M 1603 741 
L 1603 1997 
L 356 1997 
L 356 2522 
L 1603 2522 
L 1603 3769 
L 2134 3769 
L 2134 2522 
L 3381 2522 
L 3381 1997 
L 2134 1997 
L 2134 741 
L 1603 741 
z
" transform="scale(0.015625)"/>
       <path id="ArialMT-6d" d="M 422 0 
L 422 3319 
L 925 3319 
L 925 2853 
Q 1081 3097 1340 3245 
Q 1600 3394 1931 3394 
Q 2300 3394 2536 3241 
Q 2772 3088 2869 2813 
Q 3263 3394 3894 3394 
Q 4388 3394 4653 3120 
Q 4919 2847 4919 2278 
L 4919 0 
L 4359 0 
L 4359 2091 
Q 4359 2428 4304 2576 
Q 4250 2725 4106 2815 
Q 3963 2906 3769 2906 
Q 3419 2906 3187 2673 
Q 2956 2441 2956 1928 
L 2956 0 
L 2394 0 
L 2394 2156 
Q 2394 2531 2256 2718 
Q 2119 2906 1806 2906 
Q 1569 2906 1367 2781 
Q 1166 2656 1075 2415 
Q 984 2175 984 1722 
L 984 0 
L 422 0 
z
" transform="scale(0.015625)"/>
       <path id="ArialMT-2f" d="M 0 -78 
L 1328 4659 
L 1778 4659 
L 453 -78 
L 0 -78 
z
" transform="scale(0.015625)"/>
       <path id="ArialMT-47" d="M 2638 1797 
L 2638 2334 
L 4578 2338 
L 4578 638 
Q 4131 281 3656 101 
Q 3181 -78 2681 -78 
Q 2006 -78 1454 211 
Q 903 500 622 1047 
Q 341 1594 341 2269 
Q 341 2938 620 3517 
Q 900 4097 1425 4378 
Q 1950 4659 2634 4659 
Q 3131 4659 3532 4498 
Q 3934 4338 4162 4050 
Q 4391 3763 4509 3300 
L 3963 3150 
Q 3859 3500 3706 3700 
Q 3553 3900 3268 4020 
Q 2984 4141 2638 4141 
Q 2222 4141 1919 4014 
Q 1616 3888 1430 3681 
Q 1244 3475 1141 3228 
Q 966 2803 966 2306 
Q 966 1694 1177 1281 
Q 1388 869 1791 669 
Q 2194 469 2647 469 
Q 3041 469 3416 620 
Q 3791 772 3984 944 
L 3984 1797 
L 2638 1797 
z
" transform="scale(0.015625)"/>
       <path id="ArialMT-44" d="M 494 0 
L 494 4581 
L 2072 4581 
Q 2606 4581 2888 4516 
Q 3281 4425 3559 4188 
Q 3922 3881 4101 3404 
Q 4281 2928 4281 2316 
Q 4281 1794 4159 1391 
Q 4038 988 3847 723 
Q 3656 459 3429 307 
Q 3203 156 2883 78 
Q 2563 0 2147 0 
L 494 0 
z
M 1100 541 
L 2078 541 
Q 2531 541 2789 625 
Q 3047 709 3200 863 
Q 3416 1078 3536 1442 
Q 3656 1806 3656 2325 
Q 3656 3044 3420 3430 
Q 3184 3816 2847 3947 
Q 2603 4041 2063 4041 
L 1100 4041 
L 1100 541 
z
" transform="scale(0.015625)"/>
       <path id="ArialMT-50" d="M 494 0 
L 494 4581 
L 2222 4581 
Q 2678 4581 2919 4538 
Q 3256 4481 3484 4323 
Q 3713 4166 3852 3881 
Q 3991 3597 3991 3256 
Q 3991 2672 3619 2267 
Q 3247 1863 2275 1863 
L 1100 1863 
L 1100 0 
L 494 0 
z
M 1100 2403 
L 2284 2403 
Q 2872 2403 3119 2622 
Q 3366 2841 3366 3238 
Q 3366 3525 3220 3729 
Q 3075 3934 2838 4000 
Q 2684 4041 2272 4041 
L 1100 4041 
L 1100 2403 
z
" transform="scale(0.015625)"/>
      </defs>
      <use xlink:href="#ArialMT-54"/>
      <use xlink:href="#ArialMT-72" x="57.333984"/>
      <use xlink:href="#ArialMT-61" x="90.634766"/>
      <use xlink:href="#ArialMT-64" x="146.25"/>
      <use xlink:href="#ArialMT-65" x="201.865234"/>
      <use xlink:href="#ArialMT-20" x="257.480469"/>
      <use xlink:href="#ArialMT-65" x="285.263672"/>
      <use xlink:href="#ArialMT-78" x="340.878906"/>
      <use xlink:href="#ArialMT-70" x="390.878906"/>
      <use xlink:href="#ArialMT-6f" x="446.494141"/>
      <use xlink:href="#ArialMT-73" x="502.109375"/>
      <use xlink:href="#ArialMT-75" x="552.109375"/>
      <use xlink:href="#ArialMT-72" x="607.724609"/>
      <use xlink:href="#ArialMT-65" x="641.025391"/>
      <use xlink:href="#ArialMT-20" x="696.640625"/>
      <use xlink:href="#ArialMT-28" x="724.423828"/>
      <use xlink:href="#ArialMT-65" x="757.724609"/>
      <use xlink:href="#ArialMT-78" x="813.339844"/>
      <use xlink:href="#ArialMT-70" x="863.339844"/>
      <use xlink:href="#ArialMT-6f" x="918.955078"/>
      <use xlink:href="#ArialMT-72" x="974.570312"/>
      <use xlink:href="#ArialMT-74" x="1007.871094"/>
      <use xlink:href="#ArialMT-73" x="1035.654297"/>
      <use xlink:href="#ArialMT-2b" x="1085.654297"/>
      <use xlink:href="#ArialMT-69" x="1144.052734"/>
      <use xlink:href="#ArialMT-6d" x="1166.269531"/>
      <use xlink:href="#ArialMT-70" x="1249.570312"/>
      <use xlink:href="#ArialMT-6f" x="1305.185547"/>
      <use xlink:href="#ArialMT-72" x="1360.800781"/>
      <use xlink:href="#ArialMT-74" x="1394.101562"/>
      <use xlink:href="#ArialMT-73" x="1421.884766"/>
      <use xlink:href="#ArialMT-20" x="1471.884766"/>
      <use xlink:href="#ArialMT-2f" x="1499.667969"/>
      <use xlink:href="#ArialMT-20" x="1527.451172"/>
      <use xlink:href="#ArialMT-47" x="1555.234375"/>
      <use xlink:href="#ArialMT-44" x="1633.017578"/>
      <use xlink:href="#ArialMT-50" x="1705.234375"/>
      <use xlink:href="#ArialMT-29" x="1771.933594"/>
     </g>
    </g>
   </g>
   <g id="PathCollection_1">
    <defs>
     <path id="m1c722e8401" d="M 0 3 
C 0.795609 3 1.55874 2.683901 2.12132 2.12132 
C 2.683901 1.55874 3 0.795609 3 0 
C 3 -0.795609 2.683901 -1.55874 2.12132 -2.12132 
C 1.55874 -2.683901 0.795609 -3 0 -3 
C -0.795609 -3 -1.55874 -2.683901 -2.12132 -2.12132 
C -2.683901 -1.55874 -3 -0.795609 -3 0 
C -3 0.795609 -2.683901 1.55874 -2.12132 2.12132 
C -1.55874 2.683901 -0.795609 3 0 3 
z
" style="stroke: #000000; stroke-opacity: 0.9; stroke-width: 0.25"/>
    </defs>
    <g clip-path="url(#p93d2c5513f)">
     <use xlink:href="#m1c722e8401" x="228.553103" y="165.729603" style="fill: #1f77b4; fill-opacity: 0.9; stroke: #000000; stroke-opacity: 0.9; stroke-width: 0.25"/>
     <use xlink:href="#m1c722e8401" x="241.822574" y="146.781406" style="fill: #1f77b4; fill-opacity: 0.9; stroke: #000000; stroke-opacity: 0.9; stroke-width: 0.25"/>
     <use xlink:href="#m1c722e8401" x="383.387747" y="125.613382" style="fill: #1f77b4; fill-opacity: 0.9; stroke: #000000; stroke-opacity: 0.9; stroke-width: 0.25"/>
     <use xlink:href="#m1c722e8401" x="302.666774" y="206.407033" style="fill: #1f77b4; fill-opacity: 0.9; stroke: #000000; stroke-opacity: 0.9; stroke-width: 0.25"/>
     <use xlink:href="#m1c722e8401" x="282.290821" y="233.044181" style="fill: #1f77b4; fill-opacity: 0.9; stroke: #000000; stroke-opacity: 0.9; stroke-width: 0.25"/>
     <use xlink:href="#m1c722e8401" x="179.585902" y="21.181818" style="fill: #1f77b4; fill-opacity: 0.9; stroke: #000000; stroke-opacity: 0.9; stroke-width: 0.25"/>
     <use xlink:href="#m1c722e8401" x="343.021565" y="136.146053" style="fill: #1f77b4; fill-opacity: 0.9; stroke: #000000; stroke-opacity: 0.9; stroke-width: 0.25"/>
     <use xlink:href="#m1c722e8401" x="66.123553" y="184.829573" style="fill: #1f77b4; fill-opacity: 0.9; stroke: #000000; stroke-opacity: 0.9; stroke-width: 0.25"/>
     <use xlink:href="#m1c722e8401" x="373.119022" y="198.200954" style="fill: #1f77b4; fill-opacity: 0.9; stroke: #000000; stroke-opacity: 0.9; stroke-width: 0.25"/>
     <use xlink:href="#m1c722e8401" x="145.810055" y="261.947057" style="fill: #1f77b4; fill-opacity: 0.9; stroke: #000000; stroke-opacity: 0.9; stroke-width: 0.25"/>
     <use xlink:href="#m1c722e8401" x="418.468878" y="55.852943" style="fill: #1f77b4; fill-opacity: 0.9; stroke: #000000; stroke-opacity: 0.9; stroke-width: 0.25"/>
     <use xlink:href="#m1c722e8401" x="234.42603" y="130.403294" style="fill: #1f77b4; fill-opacity: 0.9; stroke: #000000; stroke-opacity: 0.9; stroke-width: 0.25"/>
     <use xlink:href="#m1c722e8401" x="135.482747" y="215.478326" style="fill: #1f77b4; fill-opacity: 0.9; stroke: #000000; stroke-opacity: 0.9; stroke-width: 0.25"/>
     <use xlink:href="#m1c722e8401" x="207.034048" y="79.569847" style="fill: #1f77b4; fill-opacity: 0.9; stroke: #000000; stroke-opacity: 0.9; stroke-width: 0.25"/>
     <use xlink:href="#m1c722e8401" x="235.87203" y="167.940727" style="fill: #1f77b4; fill-opacity: 0.9; stroke: #000000; stroke-opacity: 0.9; stroke-width: 0.25"/>
     <use xlink:href="#m1c722e8401" x="303.424755" y="193.462316" style="fill: #1f77b4; fill-opacity: 0.9; stroke: #000000; stroke-opacity: 0.9; stroke-width: 0.25"/>
     <use xlink:href="#m1c722e8401" x="251.415993" y="163.830892" style="fill: #1f77b4; fill-opacity: 0.9; stroke: #000000; stroke-opacity: 0.9; stroke-width: 0.25"/>
     <use xlink:href="#m1c722e8401" x="61.160351" y="132.755602" style="fill: #1f77b4; fill-opacity: 0.9; stroke: #000000; stroke-opacity: 0.9; stroke-width: 0.25"/>
     <use xlink:href="#m1c722e8401" x="127.663697" y="257.194505" style="fill: #1f77b4; fill-opacity: 0.9; stroke: #000000; stroke-opacity: 0.9; stroke-width: 0.25"/>
     <use xlink:href="#m1c722e8401" x="189.841311" y="157.853565" style="fill: #1f77b4; fill-opacity: 0.9; stroke: #000000; stroke-opacity: 0.9; stroke-width: 0.25"/>
     <use xlink:href="#m1c722e8401" x="228.186155" y="163.231126" style="fill: #1f77b4; fill-opacity: 0.9; stroke: #000000; stroke-opacity: 0.9; stroke-width: 0.25"/>
     <use xlink:href="#m1c722e8401" x="246.121086" y="56.190599" style="fill: #1f77b4; fill-opacity: 0.9; stroke: #000000; stroke-opacity: 0.9; stroke-width: 0.25"/>
     <use xlink:href="#m1c722e8401" x="311.395858" y="167.873187" style="fill: #1f77b4; fill-opacity: 0.9; stroke: #000000; stroke-opacity: 0.9; stroke-width: 0.25"/>
     <use xlink:href="#m1c722e8401" x="286.318332" y="300.818182" style="fill: #1f77b4; fill-opacity: 0.9; stroke: #000000; stroke-opacity: 0.9; stroke-width: 0.25"/>
     <use xlink:href="#m1c722e8401" x="116.109452" y="282.682491" style="fill: #1f77b4; fill-opacity: 0.9; stroke: #000000; stroke-opacity: 0.9; stroke-width: 0.25"/>
     <use xlink:href="#m1c722e8401" x="336.672869" y="169.841772" style="fill: #1f77b4; fill-opacity: 0.9; stroke: #000000; stroke-opacity: 0.9; stroke-width: 0.25"/>
     <use xlink:href="#m1c722e8401" x="188.162853" y="179.411918" style="fill: #1f77b4; fill-opacity: 0.9; stroke: #000000; stroke-opacity: 0.9; stroke-width: 0.25"/>
     <use xlink:href="#m1c722e8401" x="268.851556" y="127.206367" style="fill: #1f77b4; fill-opacity: 0.9; stroke: #000000; stroke-opacity: 0.9; stroke-width: 0.25"/>
     <use xlink:href="#m1c722e8401" x="213.719359" y="155.298181" style="fill: #1f77b4; fill-opacity: 0.9; stroke: #000000; stroke-opacity: 0.9; stroke-width: 0.25"/>
     <use xlink:href="#m1c722e8401" x="103.657465" y="108.63823" style="fill: #1f77b4; fill-opacity: 0.9; stroke: #000000; stroke-opacity: 0.9; stroke-width: 0.25"/>
     <use xlink:href="#m1c722e8401" x="292.986992" y="162.182454" style="fill: #1f77b4; fill-opacity: 0.9; stroke: #000000; stroke-opacity: 0.9; stroke-width: 0.25"/>
     <use xlink:href="#m1c722e8401" x="314.336366" y="66.443033" style="fill: #1f77b4; fill-opacity: 0.9; stroke: #000000; stroke-opacity: 0.9; stroke-width: 0.25"/>
     <use xlink:href="#m1c722e8401" x="229.843948" y="138.862715" style="fill: #1f77b4; fill-opacity: 0.9; stroke: #000000; stroke-opacity: 0.9; stroke-width: 0.25"/>
     <use xlink:href="#m1c722e8401" x="218.402393" y="122.276704" style="fill: #1f77b4; fill-opacity: 0.9; stroke: #000000; stroke-opacity: 0.9; stroke-width: 0.25"/>
     <use xlink:href="#m1c722e8401" x="150.320047" y="127.648386" style="fill: #1f77b4; fill-opacity: 0.9; stroke: #000000; stroke-opacity: 0.9; stroke-width: 0.25"/>
     <use xlink:href="#m1c722e8401" x="186.794882" y="183.708578" style="fill: #1f77b4; fill-opacity: 0.9; stroke: #000000; stroke-opacity: 0.9; stroke-width: 0.25"/>
     <use xlink:href="#m1c722e8401" x="246.361575" y="137.224186" style="fill: #1f77b4; fill-opacity: 0.9; stroke: #000000; stroke-opacity: 0.9; stroke-width: 0.25"/>
     <use xlink:href="#m1c722e8401" x="268.932435" y="185.64918" style="fill: #1f77b4; fill-opacity: 0.9; stroke: #000000; stroke-opacity: 0.9; stroke-width: 0.25"/>
     <use xlink:href="#m1c722e8401" x="467.111112" y="238.961244" style="fill: #1f77b4; fill-opacity: 0.9; stroke: #000000; stroke-opacity: 0.9; stroke-width: 0.25"/>
     <use xlink:href="#m1c722e8401" x="106.244421" y="244.302861" style="fill: #1f77b4; fill-opacity: 0.9; stroke: #000000; stroke-opacity: 0.9; stroke-width: 0.25"/>
     <use xlink:href="#m1c722e8401" x="226.8296" y="104.586384" style="fill: #1f77b4; fill-opacity: 0.9; stroke: #000000; stroke-opacity: 0.9; stroke-width: 0.25"/>
     <use xlink:href="#m1c722e8401" x="327.081114" y="228.24883" style="fill: #1f77b4; fill-opacity: 0.9; stroke: #000000; stroke-opacity: 0.9; stroke-width: 0.25"/>
     <use xlink:href="#m1c722e8401" x="178.456402" y="122.499578" style="fill: #1f77b4; fill-opacity: 0.9; stroke: #000000; stroke-opacity: 0.9; stroke-width: 0.25"/>
     <use xlink:href="#m1c722e8401" x="179.886661" y="77.872348" style="fill: #1f77b4; fill-opacity: 0.9; stroke: #000000; stroke-opacity: 0.9; stroke-width: 0.25"/>
     <use xlink:href="#m1c722e8401" x="223.259612" y="149.623011" style="fill: #1f77b4; fill-opacity: 0.9; stroke: #000000; stroke-opacity: 0.9; stroke-width: 0.25"/>
     <use xlink:href="#m1c722e8401" x="222.779079" y="155.301542" style="fill: #1f77b4; fill-opacity: 0.9; stroke: #000000; stroke-opacity: 0.9; stroke-width: 0.25"/>
     <use xlink:href="#m1c722e8401" x="290.632199" y="105.34858" style="fill: #1f77b4; fill-opacity: 0.9; stroke: #000000; stroke-opacity: 0.9; stroke-width: 0.25"/>
     <use xlink:href="#m1c722e8401" x="254.575108" y="187.732577" style="fill: #1f77b4; fill-opacity: 0.9; stroke: #000000; stroke-opacity: 0.9; stroke-width: 0.25"/>
     <use xlink:href="#m1c722e8401" x="200.337136" y="223.521414" style="fill: #1f77b4; fill-opacity: 0.9; stroke: #000000; stroke-opacity: 0.9; stroke-width: 0.25"/>
     <use xlink:href="#m1c722e8401" x="148.757206" y="109.677473" style="fill: #1f77b4; fill-opacity: 0.9; stroke: #000000; stroke-opacity: 0.9; stroke-width: 0.25"/>
     <use xlink:href="#m1c722e8401" x="191.797679" y="229.575129" style="fill: #1f77b4; fill-opacity: 0.9; stroke: #000000; stroke-opacity: 0.9; stroke-width: 0.25"/>
     <use xlink:href="#m1c722e8401" x="253.440175" y="40.606463" style="fill: #1f77b4; fill-opacity: 0.9; stroke: #000000; stroke-opacity: 0.9; stroke-width: 0.25"/>
    </g>
   </g>
   <g id="PolyCollection_1">
    <defs>
     <path id="m2e9d4e20ed" d="M 61.160351 -224.406835 
L 61.160351 -144.661344 
L 63.200304 -145.141846 
L 65.240258 -145.621472 
L 67.280211 -146.100195 
L 69.320165 -146.577989 
L 71.360118 -147.054826 
L 73.400072 -147.530677 
L 75.440026 -148.005513 
L 77.479979 -148.479302 
L 79.519933 -148.952013 
L 81.559886 -149.423613 
L 83.59984 -149.894066 
L 85.639794 -150.363337 
L 87.679747 -150.831388 
L 89.719701 -151.298181 
L 91.759654 -151.763675 
L 93.799608 -152.227829 
L 95.839561 -152.690598 
L 97.879515 -153.151939 
L 99.919469 -153.611803 
L 101.959422 -154.070141 
L 103.999376 -154.526903 
L 106.039329 -154.982036 
L 108.079283 -155.435485 
L 110.119236 -155.887191 
L 112.15919 -156.337097 
L 114.199144 -156.785138 
L 116.239097 -157.231252 
L 118.279051 -157.67537 
L 120.319004 -158.117422 
L 122.358958 -158.557336 
L 124.398911 -158.995036 
L 126.438865 -159.430442 
L 128.478819 -159.863473 
L 130.518772 -160.294043 
L 132.558726 -160.722062 
L 134.598679 -161.147439 
L 136.638633 -161.570077 
L 138.678586 -161.989875 
L 140.71854 -162.406729 
L 142.758494 -162.820531 
L 144.798447 -163.231168 
L 146.838401 -163.638524 
L 148.878354 -164.042476 
L 150.918308 -164.442898 
L 152.958262 -164.83966 
L 154.998215 -165.232626 
L 157.038169 -165.621655 
L 159.078122 -166.006601 
L 161.118076 -166.387314 
L 163.158029 -166.763638 
L 165.197983 -167.135412 
L 167.237937 -167.502469 
L 169.27789 -167.86464 
L 171.317844 -168.221747 
L 173.357797 -168.57361 
L 175.397751 -168.920043 
L 177.437704 -169.260855 
L 179.477658 -169.595852 
L 181.517612 -169.924836 
L 183.557565 -170.247603 
L 185.597519 -170.563948 
L 187.637472 -170.873663 
L 189.677426 -171.176537 
L 191.717379 -171.472357 
L 193.757333 -171.760909 
L 195.797287 -172.041981 
L 197.83724 -172.315358 
L 199.877194 -172.58083 
L 201.917147 -172.838186 
L 203.957101 -173.087222 
L 205.997055 -173.327734 
L 208.037008 -173.559528 
L 210.076962 -173.782414 
L 212.116915 -173.996212 
L 214.156869 -174.200748 
L 216.196822 -174.395862 
L 218.236776 -174.581402 
L 220.27673 -174.757231 
L 222.316683 -174.923225 
L 224.356637 -175.079274 
L 226.39659 -175.225282 
L 228.436544 -175.361174 
L 230.476497 -175.486887 
L 232.516451 -175.602377 
L 234.556405 -175.70762 
L 236.596358 -175.802606 
L 238.636312 -175.887347 
L 240.676265 -175.96187 
L 242.716219 -176.026223 
L 244.756172 -176.080467 
L 246.796126 -176.124685 
L 248.83608 -176.158971 
L 250.876033 -176.183439 
L 252.915987 -176.198214 
L 254.95594 -176.203436 
L 256.995894 -176.199257 
L 259.035847 -176.18584 
L 261.075801 -176.16336 
L 263.115755 -176.131997 
L 265.155708 -176.091943 
L 267.195662 -176.043394 
L 269.235615 -175.986553 
L 271.275569 -175.921625 
L 273.315523 -175.848821 
L 275.355476 -175.768352 
L 277.39543 -175.680432 
L 279.435383 -175.585275 
L 281.475337 -175.483094 
L 283.51529 -175.374101 
L 285.555244 -175.258506 
L 287.595198 -175.136519 
L 289.635151 -175.008344 
L 291.675105 -174.874183 
L 293.715058 -174.734235 
L 295.755012 -174.588693 
L 297.794965 -174.437747 
L 299.834919 -174.281582 
L 301.874873 -174.120379 
L 303.914826 -173.954312 
L 305.95478 -173.783554 
L 307.994733 -173.608267 
L 310.034687 -173.428614 
L 312.07464 -173.244749 
L 314.114594 -173.056822 
L 316.154548 -172.864978 
L 318.194501 -172.669356 
L 320.234455 -172.470093 
L 322.274408 -172.267319 
L 324.314362 -172.061158 
L 326.354316 -171.851731 
L 328.394269 -171.639156 
L 330.434223 -171.423545 
L 332.474176 -171.205004 
L 334.51413 -170.983638 
L 336.554083 -170.759547 
L 338.594037 -170.532825 
L 340.633991 -170.303567 
L 342.673944 -170.071859 
L 344.713898 -169.837788 
L 346.753851 -169.601434 
L 348.793805 -169.362877 
L 350.833758 -169.122191 
L 352.873712 -168.87945 
L 354.913666 -168.634723 
L 356.953619 -168.388078 
L 358.993573 -168.139577 
L 361.033526 -167.889283 
L 363.07348 -167.637256 
L 365.113433 -167.383552 
L 367.153387 -167.128226 
L 369.193341 -166.871332 
L 371.233294 -166.612919 
L 373.273248 -166.353036 
L 375.313201 -166.09173 
L 377.353155 -165.829046 
L 379.393109 -165.565028 
L 381.433062 -165.299717 
L 383.473016 -165.033153 
L 385.512969 -164.765375 
L 387.552923 -164.496419 
L 389.592876 -164.226322 
L 391.63283 -163.955118 
L 393.672784 -163.682841 
L 395.712737 -163.409521 
L 397.752691 -163.13519 
L 399.792644 -162.859877 
L 401.832598 -162.583612 
L 403.872551 -162.306421 
L 405.912505 -162.028331 
L 407.952459 -161.749368 
L 409.992412 -161.469556 
L 412.032366 -161.188919 
L 414.072319 -160.90748 
L 416.112273 -160.625262 
L 418.152226 -160.342285 
L 420.19218 -160.058571 
L 422.232134 -159.774139 
L 424.272087 -159.489009 
L 426.312041 -159.203199 
L 428.351994 -158.916727 
L 430.391948 -158.629612 
L 432.431901 -158.341868 
L 434.471855 -158.053514 
L 436.511809 -157.764564 
L 438.551762 -157.475034 
L 440.591716 -157.184939 
L 442.631669 -156.894292 
L 444.671623 -156.603108 
L 446.711577 -156.3114 
L 448.75153 -156.019181 
L 450.791484 -155.726464 
L 452.831437 -155.43326 
L 454.871391 -155.139581 
L 456.911344 -154.845439 
L 458.951298 -154.550846 
L 460.991252 -154.25581 
L 463.031205 -153.960344 
L 465.071159 -153.664457 
L 467.111112 -153.368158 
L 467.111112 -255.830294 
L 467.111112 -255.830294 
L 465.071159 -255.332336 
L 463.031205 -254.834789 
L 460.991252 -254.337663 
L 458.951298 -253.840968 
L 456.911344 -253.344714 
L 454.871391 -252.848913 
L 452.831437 -252.353575 
L 450.791484 -251.858711 
L 448.75153 -251.364334 
L 446.711577 -250.870455 
L 444.671623 -250.377088 
L 442.631669 -249.884244 
L 440.591716 -249.391938 
L 438.551762 -248.900183 
L 436.511809 -248.408993 
L 434.471855 -247.918383 
L 432.431901 -247.428369 
L 430.391948 -246.938967 
L 428.351994 -246.450191 
L 426.312041 -245.96206 
L 424.272087 -245.47459 
L 422.232134 -244.9878 
L 420.19218 -244.501709 
L 418.152226 -244.016335 
L 416.112273 -243.531699 
L 414.072319 -243.047821 
L 412.032366 -242.564722 
L 409.992412 -242.082426 
L 407.952459 -241.600954 
L 405.912505 -241.120331 
L 403.872551 -240.640582 
L 401.832598 -240.161731 
L 399.792644 -239.683806 
L 397.752691 -239.206834 
L 395.712737 -238.730843 
L 393.672784 -238.255864 
L 391.63283 -237.781926 
L 389.592876 -237.309063 
L 387.552923 -236.837306 
L 385.512969 -236.366691 
L 383.473016 -235.897253 
L 381.433062 -235.429029 
L 379.393109 -234.962058 
L 377.353155 -234.496381 
L 375.313201 -234.032037 
L 373.273248 -233.569072 
L 371.233294 -233.107529 
L 369.193341 -232.647456 
L 367.153387 -232.188902 
L 365.113433 -231.731917 
L 363.07348 -231.276553 
L 361.033526 -230.822866 
L 358.993573 -230.370913 
L 356.953619 -229.920753 
L 354.913666 -229.472447 
L 352.873712 -229.026061 
L 350.833758 -228.58166 
L 348.793805 -228.139315 
L 346.753851 -227.699098 
L 344.713898 -227.261085 
L 342.673944 -226.825353 
L 340.633991 -226.391986 
L 338.594037 -225.961068 
L 336.554083 -225.532687 
L 334.51413 -225.106936 
L 332.474176 -224.68391 
L 330.434223 -224.26371 
L 328.394269 -223.846438 
L 326.354316 -223.432204 
L 324.314362 -223.021118 
L 322.274408 -222.613297 
L 320.234455 -222.208863 
L 318.194501 -221.80794 
L 316.154548 -221.410659 
L 314.114594 -221.017155 
L 312.07464 -220.627569 
L 310.034687 -220.242044 
L 307.994733 -219.860731 
L 305.95478 -219.483785 
L 303.914826 -219.111367 
L 301.874873 -218.743641 
L 299.834919 -218.380778 
L 297.794965 -218.022953 
L 295.755012 -217.670348 
L 293.715058 -217.323146 
L 291.675105 -216.981538 
L 289.635151 -216.645717 
L 287.595198 -216.315882 
L 285.555244 -215.992235 
L 283.51529 -215.674982 
L 281.475337 -215.364329 
L 279.435383 -215.060488 
L 277.39543 -214.763671 
L 275.355476 -214.474091 
L 273.315523 -214.191963 
L 271.275569 -213.917499 
L 269.235615 -213.650912 
L 267.195662 -213.392411 
L 265.155708 -213.142202 
L 263.115755 -212.900488 
L 261.075801 -212.667466 
L 259.035847 -212.443326 
L 256.995894 -212.22825 
L 254.95594 -212.022411 
L 252.915987 -211.825973 
L 250.876033 -211.639089 
L 248.83608 -211.461897 
L 246.796126 -211.294523 
L 244.756172 -211.137081 
L 242.716219 -210.989666 
L 240.676265 -210.852359 
L 238.636312 -210.725223 
L 236.596358 -210.608304 
L 234.556405 -210.501631 
L 232.516451 -210.405214 
L 230.476497 -210.319044 
L 228.436544 -210.243098 
L 226.39659 -210.177329 
L 224.356637 -210.121679 
L 222.316683 -210.076067 
L 220.27673 -210.040401 
L 218.236776 -210.014571 
L 216.196822 -209.998452 
L 214.156869 -209.991906 
L 212.116915 -209.994782 
L 210.076962 -210.00692 
L 208.037008 -210.028147 
L 205.997055 -210.058281 
L 203.957101 -210.097134 
L 201.917147 -210.144509 
L 199.877194 -210.200206 
L 197.83724 -210.264018 
L 195.797287 -210.335736 
L 193.757333 -210.415148 
L 191.717379 -210.502041 
L 189.677426 -210.596201 
L 187.637472 -210.697415 
L 185.597519 -210.80547 
L 183.557565 -210.920156 
L 181.517612 -211.041263 
L 179.477658 -211.168587 
L 177.437704 -211.301925 
L 175.397751 -211.441077 
L 173.357797 -211.585851 
L 171.317844 -211.736054 
L 169.27789 -211.891501 
L 167.237937 -212.052012 
L 165.197983 -212.21741 
L 163.158029 -212.387524 
L 161.118076 -212.562188 
L 159.078122 -212.741242 
L 157.038169 -212.924528 
L 154.998215 -213.111897 
L 152.958262 -213.303204 
L 150.918308 -213.498306 
L 148.878354 -213.697069 
L 146.838401 -213.899361 
L 144.798447 -214.105057 
L 142.758494 -214.314035 
L 140.71854 -214.526177 
L 138.678586 -214.741372 
L 136.638633 -214.95951 
L 134.598679 -215.180488 
L 132.558726 -215.404205 
L 130.518772 -215.630565 
L 128.478819 -215.859475 
L 126.438865 -216.090846 
L 124.398911 -216.324592 
L 122.358958 -216.560632 
L 120.319004 -216.798887 
L 118.279051 -217.039279 
L 116.239097 -217.281738 
L 114.199144 -217.526192 
L 112.15919 -217.772574 
L 110.119236 -218.020819 
L 108.079283 -218.270867 
L 106.039329 -218.522655 
L 103.999376 -218.776129 
L 101.959422 -219.031231 
L 99.919469 -219.28791 
L 97.879515 -219.546114 
L 95.839561 -219.805795 
L 93.799608 -220.066905 
L 91.759654 -220.329399 
L 89.719701 -220.593233 
L 87.679747 -220.858367 
L 85.639794 -221.124758 
L 83.59984 -221.392369 
L 81.559886 -221.661163 
L 79.519933 -221.931102 
L 77.479979 -222.202154 
L 75.440026 -222.474284 
L 73.400072 -222.74746 
L 71.360118 -223.021651 
L 69.320165 -223.296829 
L 67.280211 -223.572963 
L 65.240258 -223.850026 
L 63.200304 -224.127992 
L 61.160351 -224.406835 
z
" style="stroke: #2c7bb6; stroke-opacity: 0.18"/>
    </defs>
    <g clip-path="url(#p93d2c5513f)">
     <use xlink:href="#m2e9d4e20ed" x="0" y="352.468125" style="fill: #2c7bb6; fill-opacity: 0.18; stroke: #2c7bb6; stroke-opacity: 0.18"/>
    </g>
   </g>
   <g id="line2d_12">
    <path d="M 61.160351 167.934036 
L 467.111112 147.868899 
L 467.111112 147.868899 
" clip-path="url(#p93d2c5513f)" style="fill: none; stroke: #2c7bb6; stroke-width: 2; stroke-linecap: round"/>
   </g>
   <g id="line2d_13">
    <path d="M 61.160351 188.064653 
L 66.123553 188.376362 
L 103.657465 186.966766 
L 106.244421 186.747423 
L 116.109452 186.130296 
L 127.663697 186.588919 
L 135.482747 187.912739 
L 145.810055 185.604238 
L 148.757206 183.63105 
L 150.320047 182.577851 
L 178.456402 155.605951 
L 179.585902 154.807585 
L 179.886661 154.701088 
L 186.794882 149.115842 
L 188.162853 148.374394 
L 189.841311 147.695238 
L 191.797679 147.467043 
L 200.337136 148.742704 
L 207.034048 148.642841 
L 213.719359 148.524363 
L 218.402393 148.587195 
L 222.779079 146.620122 
L 223.259612 146.142309 
L 226.8296 143.763784 
L 228.186155 143.262569 
L 228.553103 143.150001 
L 229.843948 142.825311 
L 234.42603 141.794897 
L 235.87203 141.414321 
L 241.822574 143.561102 
L 246.121086 147.301579 
L 246.361575 147.45858 
L 251.415993 150.197284 
L 253.440175 151.676831 
L 254.575108 152.535113 
L 268.851556 160.613089 
L 268.932435 160.636148 
L 282.290821 165.812274 
L 286.318332 167.450613 
L 290.632199 168.445124 
L 292.986992 168.799206 
L 302.666774 170.440459 
L 303.424755 170.498097 
L 311.395858 171.115176 
L 314.336366 170.927613 
L 327.081114 168.979898 
L 336.672869 165.150163 
L 343.021565 161.607824 
L 373.119022 158.46916 
L 383.387747 162.064342 
L 418.468878 169.780786 
L 467.111112 176.437371 
" clip-path="url(#p93d2c5513f)" style="fill: none; stroke-dasharray: 7.4,3.2; stroke-dashoffset: 0; stroke: #fdae61; stroke-width: 2"/>
   </g>
   <g id="line2d_14">
    <path d="M 234.414079 314.8 
L 234.414079 7.2 
" clip-path="url(#p93d2c5513f)" style="fill: none; stroke-dasharray: 3.7,1.6; stroke-dashoffset: 0; stroke: #999999"/>
   </g>
   <g id="patch_3">
    <path d="M 40.862813 314.8 
L 40.862813 7.2 
" style="fill: none; stroke: #cccccc; stroke-width: 0.8; stroke-linejoin: miter; stroke-linecap: square"/>
   </g>
   <g id="patch_4">
    <path d="M 487.40865 314.8 
L 487.40865 7.2 
" style="fill: none; stroke: #cccccc; stroke-width: 0.8; stroke-linejoin: miter; stroke-linecap: square"/>
   </g>
   <g id="patch_5">
    <path d="M 40.862812 314.8 
L 487.40865 314.8 
" style="fill: none; stroke: #cccccc; stroke-width: 0.8; stroke-linejoin: miter; stroke-linecap: square"/>
   </g>
   <g id="patch_6">
    <path d="M 40.862812 7.2 
L 487.40865 7.2 
" style="fill: none; stroke: #cccccc; stroke-width: 0.8; stroke-linejoin: miter; stroke-linecap: square"/>
   </g>
   <g id="text_14">
    <g id="patch_7">
     <path d="M 369.104442 312.23675 
L 482.943192 312.23675 
Q 484.743192 312.23675 484.743192 310.43675 
L 484.743192 302.17925 
Q 484.743192 300.37925 482.943192 300.37925 
L 369.104442 300.37925 
Q 367.304442 300.37925 367.304442 302.17925 
L 367.304442 310.43675 
Q 367.304442 312.23675 369.104442 312.23675 
z
" style="fill: #ffffff; opacity: 0.6; stroke: #ffffff; stroke-linejoin: miter"/>
    </g>
    <!-- N=52  slope=0.068  p=0.634 -->
    <g style="fill: #262626" transform="translate(369.104442 308.648) scale(0.09 -0.09)">
     <defs>
      <path id="ArialMT-4e" d="M 488 0 
L 488 4581 
L 1109 4581 
L 3516 984 
L 3516 4581 
L 4097 4581 
L 4097 0 
L 3475 0 
L 1069 3600 
L 1069 0 
L 488 0 
z
" transform="scale(0.015625)"/>
      <path id="ArialMT-3d" d="M 3381 2694 
L 356 2694 
L 356 3219 
L 3381 3219 
L 3381 2694 
z
M 3381 1303 
L 356 1303 
L 356 1828 
L 3381 1828 
L 3381 1303 
z
" transform="scale(0.015625)"/>
      <path id="ArialMT-35" d="M 266 1200 
L 856 1250 
Q 922 819 1161 601 
Q 1400 384 1738 384 
Q 2144 384 2425 690 
Q 2706 997 2706 1503 
Q 2706 1984 2436 2262 
Q 2166 2541 1728 2541 
Q 1456 2541 1237 2417 
Q 1019 2294 894 2097 
L 366 2166 
L 809 4519 
L 3088 4519 
L 3088 3981 
L 1259 3981 
L 1013 2750 
Q 1425 3038 1878 3038 
Q 2478 3038 2890 2622 
Q 3303 2206 3303 1553 
Q 3303 931 2941 478 
Q 2500 -78 1738 -78 
Q 1113 -78 717 272 
Q 322 622 266 1200 
z
" transform="scale(0.015625)"/>
      <path id="ArialMT-2e" d="M 581 0 
L 581 641 
L 1222 641 
L 1222 0 
L 581 0 
z
" transform="scale(0.015625)"/>
      <path id="ArialMT-36" d="M 3184 3459 
L 2625 3416 
Q 2550 3747 2413 3897 
Q 2184 4138 1850 4138 
Q 1581 4138 1378 3988 
Q 1113 3794 959 3422 
Q 806 3050 800 2363 
Q 1003 2672 1297 2822 
Q 1591 2972 1913 2972 
Q 2475 2972 2870 2558 
Q 3266 2144 3266 1488 
Q 3266 1056 3080 686 
Q 2894 316 2569 119 
Q 2244 -78 1831 -78 
Q 1128 -78 684 439 
Q 241 956 241 2144 
Q 241 3472 731 4075 
Q 1159 4600 1884 4600 
Q 2425 4600 2770 4297 
Q 3116 3994 3184 3459 
z
M 888 1484 
Q 888 1194 1011 928 
Q 1134 663 1356 523 
Q 1578 384 1822 384 
Q 2178 384 2434 671 
Q 2691 959 2691 1453 
Q 2691 1928 2437 2201 
Q 2184 2475 1800 2475 
Q 1419 2475 1153 2201 
Q 888 1928 888 1484 
z
" transform="scale(0.015625)"/>
      <path id="ArialMT-38" d="M 1131 2484 
Q 781 2613 612 2850 
Q 444 3088 444 3419 
Q 444 3919 803 4259 
Q 1163 4600 1759 4600 
Q 2359 4600 2725 4251 
Q 3091 3903 3091 3403 
Q 3091 3084 2923 2848 
Q 2756 2613 2416 2484 
Q 2838 2347 3058 2040 
Q 3278 1734 3278 1309 
Q 3278 722 2862 322 
Q 2447 -78 1769 -78 
Q 1091 -78 675 323 
Q 259 725 259 1325 
Q 259 1772 486 2073 
Q 713 2375 1131 2484 
z
M 1019 3438 
Q 1019 3113 1228 2906 
Q 1438 2700 1772 2700 
Q 2097 2700 2305 2904 
Q 2513 3109 2513 3406 
Q 2513 3716 2298 3927 
Q 2084 4138 1766 4138 
Q 1444 4138 1231 3931 
Q 1019 3725 1019 3438 
z
M 838 1322 
Q 838 1081 952 856 
Q 1066 631 1291 507 
Q 1516 384 1775 384 
Q 2178 384 2440 643 
Q 2703 903 2703 1303 
Q 2703 1709 2433 1975 
Q 2163 2241 1756 2241 
Q 1359 2241 1098 1978 
Q 838 1716 838 1322 
z
" transform="scale(0.015625)"/>
      <path id="ArialMT-34" d="M 2069 0 
L 2069 1097 
L 81 1097 
L 81 1613 
L 2172 4581 
L 2631 4581 
L 2631 1613 
L 3250 1613 
L 3250 1097 
L 2631 1097 
L 2631 0 
L 2069 0 
z
M 2069 1613 
L 2069 3678 
L 634 1613 
L 2069 1613 
z
" transform="scale(0.015625)"/>
     </defs>
     <use xlink:href="#ArialMT-4e"/>
     <use xlink:href="#ArialMT-3d" x="72.216797"/>
     <use xlink:href="#ArialMT-35" x="130.615234"/>
     <use xlink:href="#ArialMT-32" x="186.230469"/>
     <use xlink:href="#ArialMT-20" x="241.845703"/>
     <use xlink:href="#ArialMT-20" x="269.628906"/>
     <use xlink:href="#ArialMT-73" x="297.412109"/>
     <use xlink:href="#ArialMT-6c" x="347.412109"/>
     <use xlink:href="#ArialMT-6f" x="369.628906"/>
     <use xlink:href="#ArialMT-70" x="425.244141"/>
     <use xlink:href="#ArialMT-65" x="480.859375"/>
     <use xlink:href="#ArialMT-3d" x="536.474609"/>
     <use xlink:href="#ArialMT-30" x="594.873047"/>
     <use xlink:href="#ArialMT-2e" x="650.488281"/>
     <use xlink:href="#ArialMT-30" x="678.271484"/>
     <use xlink:href="#ArialMT-36" x="733.886719"/>
     <use xlink:href="#ArialMT-38" x="789.501953"/>
     <use xlink:href="#ArialMT-20" x="845.117188"/>
     <use xlink:href="#ArialMT-20" x="872.900391"/>
     <use xlink:href="#ArialMT-70" x="900.683594"/>
     <use xlink:href="#ArialMT-3d" x="956.298828"/>
     <use xlink:href="#ArialMT-30" x="1014.697266"/>
     <use xlink:href="#ArialMT-2e" x="1070.3125"/>
     <use xlink:href="#ArialMT-36" x="1098.095703"/>
     <use xlink:href="#ArialMT-33" x="1153.710938"/>
     <use xlink:href="#ArialMT-34" x="1209.326172"/>
    </g>
   </g>
   <g id="legend_1">
    <g id="line2d_15">
     <path d="M 48.962813 18.592031 
L 57.962813 18.592031 
L 66.962813 18.592031 
" style="fill: none; stroke: #2c7bb6; stroke-width: 2; stroke-linecap: round"/>
    </g>
    <g id="text_15">
     <!-- OLS fit -->
     <g style="fill: #262626" transform="translate(74.162813 21.742031) scale(0.09 -0.09)">
      <defs>
       <path id="ArialMT-4f" d="M 309 2231 
Q 309 3372 921 4017 
Q 1534 4663 2503 4663 
Q 3138 4663 3647 4359 
Q 4156 4056 4423 3514 
Q 4691 2972 4691 2284 
Q 4691 1588 4409 1038 
Q 4128 488 3612 205 
Q 3097 -78 2500 -78 
Q 1853 -78 1343 234 
Q 834 547 571 1087 
Q 309 1628 309 2231 
z
M 934 2222 
Q 934 1394 1379 917 
Q 1825 441 2497 441 
Q 3181 441 3623 922 
Q 4066 1403 4066 2288 
Q 4066 2847 3877 3264 
Q 3688 3681 3323 3911 
Q 2959 4141 2506 4141 
Q 1863 4141 1398 3698 
Q 934 3256 934 2222 
z
" transform="scale(0.015625)"/>
       <path id="ArialMT-4c" d="M 469 0 
L 469 4581 
L 1075 4581 
L 1075 541 
L 3331 541 
L 3331 0 
L 469 0 
z
" transform="scale(0.015625)"/>
       <path id="ArialMT-53" d="M 288 1472 
L 859 1522 
Q 900 1178 1048 958 
Q 1197 738 1509 602 
Q 1822 466 2213 466 
Q 2559 466 2825 569 
Q 3091 672 3220 851 
Q 3350 1031 3350 1244 
Q 3350 1459 3225 1620 
Q 3100 1781 2813 1891 
Q 2628 1963 1997 2114 
Q 1366 2266 1113 2400 
Q 784 2572 623 2826 
Q 463 3081 463 3397 
Q 463 3744 659 4045 
Q 856 4347 1234 4503 
Q 1613 4659 2075 4659 
Q 2584 4659 2973 4495 
Q 3363 4331 3572 4012 
Q 3781 3694 3797 3291 
L 3216 3247 
Q 3169 3681 2898 3903 
Q 2628 4125 2100 4125 
Q 1550 4125 1298 3923 
Q 1047 3722 1047 3438 
Q 1047 3191 1225 3031 
Q 1400 2872 2139 2705 
Q 2878 2538 3153 2413 
Q 3553 2228 3743 1945 
Q 3934 1663 3934 1294 
Q 3934 928 3725 604 
Q 3516 281 3123 101 
Q 2731 -78 2241 -78 
Q 1619 -78 1198 103 
Q 778 284 539 648 
Q 300 1013 288 1472 
z
" transform="scale(0.015625)"/>
       <path id="ArialMT-66" d="M 556 0 
L 556 2881 
L 59 2881 
L 59 3319 
L 556 3319 
L 556 3672 
Q 556 4006 616 4169 
Q 697 4388 901 4523 
Q 1106 4659 1475 4659 
Q 1713 4659 2000 4603 
L 1916 4113 
Q 1741 4144 1584 4144 
Q 1328 4144 1222 4034 
Q 1116 3925 1116 3625 
L 1116 3319 
L 1763 3319 
L 1763 2881 
L 1116 2881 
L 1116 0 
L 556 0 
z
" transform="scale(0.015625)"/>
      </defs>
      <use xlink:href="#ArialMT-4f"/>
      <use xlink:href="#ArialMT-4c" x="77.783203"/>
      <use xlink:href="#ArialMT-53" x="133.398438"/>
      <use xlink:href="#ArialMT-20" x="200.097656"/>
      <use xlink:href="#ArialMT-66" x="227.880859"/>
      <use xlink:href="#ArialMT-69" x="255.664062"/>
      <use xlink:href="#ArialMT-74" x="277.880859"/>
     </g>
    </g>
    <g id="line2d_16">
     <path d="M 48.962813 31.322812 
L 57.962813 31.322812 
L 66.962813 31.322812 
" style="fill: none; stroke-dasharray: 7.4,3.2; stroke-dashoffset: 0; stroke: #fdae61; stroke-width: 2"/>
    </g>
    <g id="text_16">
     <!-- LOWESS -->
     <g style="fill: #262626" transform="translate(74.162813 34.472812) scale(0.09 -0.09)">
      <defs>
       <path id="ArialMT-57" d="M 1294 0 
L 78 4581 
L 700 4581 
L 1397 1578 
Q 1509 1106 1591 641 
Q 1766 1375 1797 1488 
L 2669 4581 
L 3400 4581 
L 4056 2263 
Q 4303 1400 4413 641 
Q 4500 1075 4641 1638 
L 5359 4581 
L 5969 4581 
L 4713 0 
L 4128 0 
L 3163 3491 
Q 3041 3928 3019 4028 
Q 2947 3713 2884 3491 
L 1913 0 
L 1294 0 
z
" transform="scale(0.015625)"/>
       <path id="ArialMT-45" d="M 506 0 
L 506 4581 
L 3819 4581 
L 3819 4041 
L 1113 4041 
L 1113 2638 
L 3647 2638 
L 3647 2100 
L 1113 2100 
L 1113 541 
L 3925 541 
L 3925 0 
L 506 0 
z
" transform="scale(0.015625)"/>
      </defs>
      <use xlink:href="#ArialMT-4c"/>
      <use xlink:href="#ArialMT-4f" x="55.615234"/>
      <use xlink:href="#ArialMT-57" x="133.398438"/>
      <use xlink:href="#ArialMT-45" x="227.783203"/>
      <use xlink:href="#ArialMT-53" x="294.482422"/>
      <use xlink:href="#ArialMT-53" x="361.181641"/>
     </g>
    </g>
   </g>
  </g>
 </g>
 <defs>
  <clipPath id="p93d2c5513f">
   <rect x="40.862813" y="7.2" width="446.545838" height="307.6"/>
  </clipPath>
 </defs>
</svg>
