<?xml version="1.0" encoding="utf-8" standalone="no"?>
<!DOCTYPE svg PUBLIC "-//W3C//DTD SVG 1.1//EN"
  "http://www.w3.org/Graphics/SVG/1.1/DTD/svg11.dtd">
<svg xmlns:xlink="http://www.w3.org/1999/xlink" width="564.129375pt" height="420.027187pt" viewBox="0 0 564.129375 420.027187" xmlns="http://www.w3.org/2000/svg" version="1.1">
 <metadata>
  <rdf:RDF xmlns:dc="http://purl.org/dc/elements/1.1/" xmlns:cc="http://creativecommons.org/ns#" xmlns:rdf="http://www.w3.org/1999/02/22-rdf-syntax-ns#">
   <cc:Work>
    <dc:type rdf:resource="http://purl.org/dc/dcmitype/StillImage"/>
    <dc:date>2025-11-16T23:30:58.578693</dc:date>
    <dc:format>image/svg+xml</dc:format>
    <dc:creator>
     <cc:Agent>
      <dc:title>Matplotlib v3.9.2, https://matplotlib.org/</dc:title>
     </cc:Agent>
    </dc:creator>
   </cc:Work>
  </rdf:RDF>
 </metadata>
 <defs>
  <style type="text/css">*{stroke-linejoin: round; stroke-linecap: butt}</style>
 </defs>
 <g id="figure_1">
  <g id="patch_1">
   <path d="M 0 420.027187 
L 564.129375 420.027187 
L 564.129375 0 
L 0 0 
z
" style="fill: #ffffff"/>
  </g>
  <g id="axes_1">
   <g id="patch_2">
    <path d="M 73.169375 379.591562 
L 556.929375 379.591562 
L 556.929375 23.391562 
L 73.169375 23.391562 
z
" style="fill: #ffffff"/>
   </g>
   <g id="line2d_1">
    <path d="M 305.231426 379.591562 
L 305.231426 23.391562 
" clip-path="url(#p1b36836c5e)" style="fill: none; stroke-dasharray: 5.55,2.4; stroke-dashoffset: 0; stroke: #999999; stroke-width: 1.5"/>
   </g>
   <g id="matplotlib.axis_1">
    <g id="xtick_1">
     <g id="line2d_2">
      <path d="M 123.55846 379.591562 
L 123.55846 23.391562 
" clip-path="url(#p1b36836c5e)" style="fill: none; stroke: #cccccc; stroke-width: 0.8; stroke-linecap: round"/>
     </g>
     <g id="text_1">
      <!-- −3 -->
      <g style="fill: #262626" transform="translate(116.717523 395.180937) scale(0.12 -0.12)">
       <defs>
        <path id="ArialMT-2212" d="M 3381 1997 
L 356 1997 
L 356 2522 
L 3381 2522 
L 3381 1997 
z
" transform="scale(0.015625)"/>
        <path id="ArialMT-33" d="M 269 1209 
L 831 1284 
Q 928 806 1161 595 
Q 1394 384 1728 384 
Q 2125 384 2398 659 
Q 2672 934 2672 1341 
Q 2672 1728 2419 1979 
Q 2166 2231 1775 2231 
Q 1616 2231 1378 2169 
L 1441 2663 
Q 1497 2656 1531 2656 
Q 1891 2656 2178 2843 
Q 2466 3031 2466 3422 
Q 2466 3731 2256 3934 
Q 2047 4138 1716 4138 
Q 1388 4138 1169 3931 
Q 950 3725 888 3313 
L 325 3413 
Q 428 3978 793 4289 
Q 1159 4600 1703 4600 
Q 2078 4600 2393 4439 
Q 2709 4278 2876 4000 
Q 3044 3722 3044 3409 
Q 3044 3113 2884 2869 
Q 2725 2625 2413 2481 
Q 2819 2388 3044 2092 
Q 3269 1797 3269 1353 
Q 3269 753 2831 336 
Q 2394 -81 1725 -81 
Q 1122 -81 723 278 
Q 325 638 269 1209 
z
" transform="scale(0.015625)"/>
       </defs>
       <use xlink:href="#ArialMT-2212"/>
       <use xlink:href="#ArialMT-33" x="58.398438"/>
      </g>
     </g>
    </g>
    <g id="xtick_2">
     <g id="line2d_3">
      <path d="M 184.116116 379.591562 
L 184.116116 23.391562 
" clip-path="url(#p1b36836c5e)" style="fill: none; stroke: #cccccc; stroke-width: 0.8; stroke-linecap: round"/>
     </g>
     <g id="text_2">
      <!-- −2 -->
      <g style="fill: #262626" transform="translate(177.275178 395.180937) scale(0.12 -0.12)">
       <defs>
        <path id="ArialMT-32" d="M 3222 541 
L 3222 0 
L 194 0 
Q 188 203 259 391 
Q 375 700 629 1000 
Q 884 1300 1366 1694 
Q 2113 2306 2375 2664 
Q 2638 3022 2638 3341 
Q 2638 3675 2398 3904 
Q 2159 4134 1775 4134 
Q 1369 4134 1125 3890 
Q 881 3647 878 3216 
L 300 3275 
Q 359 3922 746 4261 
Q 1134 4600 1788 4600 
Q 2447 4600 2831 4234 
Q 3216 3869 3216 3328 
Q 3216 3053 3103 2787 
Q 2991 2522 2730 2228 
Q 2469 1934 1863 1422 
Q 1356 997 1212 845 
Q 1069 694 975 541 
L 3222 541 
z
" transform="scale(0.015625)"/>
       </defs>
       <use xlink:href="#ArialMT-2212"/>
       <use xlink:href="#ArialMT-32" x="58.398438"/>
      </g>
     </g>
    </g>
    <g id="xtick_3">
     <g id="line2d_4">
      <path d="M 244.673771 379.591562 
L 244.673771 23.391562 
" clip-path="url(#p1b36836c5e)" style="fill: none; stroke: #cccccc; stroke-width: 0.8; stroke-linecap: round"/>
     </g>
     <g id="text_3">
      <!-- −1 -->
      <g style="fill: #262626" transform="translate(237.832833 395.180937) scale(0.12 -0.12)">
       <defs>
        <path id="ArialMT-31" d="M 2384 0 
L 1822 0 
L 1822 3584 
Q 1619 3391 1289 3197 
Q 959 3003 697 2906 
L 697 3450 
Q 1169 3672 1522 3987 
Q 1875 4303 2022 4600 
L 2384 4600 
L 2384 0 
z
" transform="scale(0.015625)"/>
       </defs>
       <use xlink:href="#ArialMT-2212"/>
       <use xlink:href="#ArialMT-31" x="58.398438"/>
      </g>
     </g>
    </g>
    <g id="xtick_4">
     <g id="line2d_5">
      <path d="M 305.231426 379.591562 
L 305.231426 23.391562 
" clip-path="url(#p1b36836c5e)" style="fill: none; stroke: #cccccc; stroke-width: 0.8; stroke-linecap: round"/>
     </g>
     <g id="text_4">
      <!-- 0 -->
      <g style="fill: #262626" transform="translate(301.894863 395.180937) scale(0.12 -0.12)">
       <defs>
        <path id="ArialMT-30" d="M 266 2259 
Q 266 3072 433 3567 
Q 600 4063 929 4331 
Q 1259 4600 1759 4600 
Q 2128 4600 2406 4451 
Q 2684 4303 2865 4023 
Q 3047 3744 3150 3342 
Q 3253 2941 3253 2259 
Q 3253 1453 3087 958 
Q 2922 463 2592 192 
Q 2263 -78 1759 -78 
Q 1097 -78 719 397 
Q 266 969 266 2259 
z
M 844 2259 
Q 844 1131 1108 757 
Q 1372 384 1759 384 
Q 2147 384 2411 759 
Q 2675 1134 2675 2259 
Q 2675 3391 2411 3762 
Q 2147 4134 1753 4134 
Q 1366 4134 1134 3806 
Q 844 3388 844 2259 
z
" transform="scale(0.015625)"/>
       </defs>
       <use xlink:href="#ArialMT-30"/>
      </g>
     </g>
    </g>
    <g id="xtick_5">
     <g id="line2d_6">
      <path d="M 365.789081 379.591562 
L 365.789081 23.391562 
" clip-path="url(#p1b36836c5e)" style="fill: none; stroke: #cccccc; stroke-width: 0.8; stroke-linecap: round"/>
     </g>
     <g id="text_5">
      <!-- 1 -->
      <g style="fill: #262626" transform="translate(362.452518 395.180937) scale(0.12 -0.12)">
       <use xlink:href="#ArialMT-31"/>
      </g>
     </g>
    </g>
    <g id="xtick_6">
     <g id="line2d_7">
      <path d="M 426.346736 379.591562 
L 426.346736 23.391562 
" clip-path="url(#p1b36836c5e)" style="fill: none; stroke: #cccccc; stroke-width: 0.8; stroke-linecap: round"/>
     </g>
     <g id="text_6">
      <!-- 2 -->
      <g style="fill: #262626" transform="translate(423.010173 395.180937) scale(0.12 -0.12)">
       <use xlink:href="#ArialMT-32"/>
      </g>
     </g>
    </g>
    <g id="xtick_7">
     <g id="line2d_8">
      <path d="M 486.904391 379.591562 
L 486.904391 23.391562 
" clip-path="url(#p1b36836c5e)" style="fill: none; stroke: #cccccc; stroke-width: 0.8; stroke-linecap: round"/>
     </g>
     <g id="text_7">
      <!-- 3 -->
      <g style="fill: #262626" transform="translate(483.567828 395.180937) scale(0.12 -0.12)">
       <use xlink:href="#ArialMT-33"/>
      </g>
     </g>
    </g>
    <g id="xtick_8">
     <g id="line2d_9">
      <path d="M 547.462046 379.591562 
L 547.462046 23.391562 
" clip-path="url(#p1b36836c5e)" style="fill: none; stroke: #cccccc; stroke-width: 0.8; stroke-linecap: round"/>
     </g>
     <g id="text_8">
      <!-- 4 -->
      <g style="fill: #262626" transform="translate(544.125483 395.180937) scale(0.12 -0.12)">
       <defs>
        <path id="ArialMT-34" d="M 2069 0 
L 2069 1097 
L 81 1097 
L 81 1613 
L 2172 4581 
L 2631 4581 
L 2631 1613 
L 3250 1613 
L 3250 1097 
L 2631 1097 
L 2631 0 
L 2069 0 
z
M 2069 1613 
L 2069 3678 
L 634 1613 
L 2069 1613 
z
" transform="scale(0.015625)"/>
       </defs>
       <use xlink:href="#ArialMT-34"/>
      </g>
     </g>
    </g>
    <g id="text_9">
     <!-- Predictor (partialed) — residualized -->
     <g style="fill: #262626" transform="translate(221.015312 410.301562) scale(0.12 -0.12)">
      <defs>
       <path id="ArialMT-50" d="M 494 0 
L 494 4581 
L 2222 4581 
Q 2678 4581 2919 4538 
Q 3256 4481 3484 4323 
Q 3713 4166 3852 3881 
Q 3991 3597 3991 3256 
Q 3991 2672 3619 2267 
Q 3247 1863 2275 1863 
L 1100 1863 
L 1100 0 
L 494 0 
z
M 1100 2403 
L 2284 2403 
Q 2872 2403 3119 2622 
Q 3366 2841 3366 3238 
Q 3366 3525 3220 3729 
Q 3075 3934 2838 4000 
Q 2684 4041 2272 4041 
L 1100 4041 
L 1100 2403 
z
" transform="scale(0.015625)"/>
       <path id="ArialMT-72" d="M 416 0 
L 416 3319 
L 922 3319 
L 922 2816 
Q 1116 3169 1280 3281 
Q 1444 3394 1641 3394 
Q 1925 3394 2219 3213 
L 2025 2691 
Q 1819 2813 1613 2813 
Q 1428 2813 1281 2702 
Q 1134 2591 1072 2394 
Q 978 2094 978 1738 
L 978 0 
L 416 0 
z
" transform="scale(0.015625)"/>
       <path id="ArialMT-65" d="M 2694 1069 
L 3275 997 
Q 3138 488 2766 206 
Q 2394 -75 1816 -75 
Q 1088 -75 661 373 
Q 234 822 234 1631 
Q 234 2469 665 2931 
Q 1097 3394 1784 3394 
Q 2450 3394 2872 2941 
Q 3294 2488 3294 1666 
Q 3294 1616 3291 1516 
L 816 1516 
Q 847 969 1125 678 
Q 1403 388 1819 388 
Q 2128 388 2347 550 
Q 2566 713 2694 1069 
z
M 847 1978 
L 2700 1978 
Q 2663 2397 2488 2606 
Q 2219 2931 1791 2931 
Q 1403 2931 1139 2672 
Q 875 2413 847 1978 
z
" transform="scale(0.015625)"/>
       <path id="ArialMT-64" d="M 2575 0 
L 2575 419 
Q 2259 -75 1647 -75 
Q 1250 -75 917 144 
Q 584 363 401 755 
Q 219 1147 219 1656 
Q 219 2153 384 2558 
Q 550 2963 881 3178 
Q 1213 3394 1622 3394 
Q 1922 3394 2156 3267 
Q 2391 3141 2538 2938 
L 2538 4581 
L 3097 4581 
L 3097 0 
L 2575 0 
z
M 797 1656 
Q 797 1019 1065 703 
Q 1334 388 1700 388 
Q 2069 388 2326 689 
Q 2584 991 2584 1609 
Q 2584 2291 2321 2609 
Q 2059 2928 1675 2928 
Q 1300 2928 1048 2622 
Q 797 2316 797 1656 
z
" transform="scale(0.015625)"/>
       <path id="ArialMT-69" d="M 425 3934 
L 425 4581 
L 988 4581 
L 988 3934 
L 425 3934 
z
M 425 0 
L 425 3319 
L 988 3319 
L 988 0 
L 425 0 
z
" transform="scale(0.015625)"/>
       <path id="ArialMT-63" d="M 2588 1216 
L 3141 1144 
Q 3050 572 2676 248 
Q 2303 -75 1759 -75 
Q 1078 -75 664 370 
Q 250 816 250 1647 
Q 250 2184 428 2587 
Q 606 2991 970 3192 
Q 1334 3394 1763 3394 
Q 2303 3394 2647 3120 
Q 2991 2847 3088 2344 
L 2541 2259 
Q 2463 2594 2264 2762 
Q 2066 2931 1784 2931 
Q 1359 2931 1093 2626 
Q 828 2322 828 1663 
Q 828 994 1084 691 
Q 1341 388 1753 388 
Q 2084 388 2306 591 
Q 2528 794 2588 1216 
z
" transform="scale(0.015625)"/>
       <path id="ArialMT-74" d="M 1650 503 
L 1731 6 
Q 1494 -44 1306 -44 
Q 1000 -44 831 53 
Q 663 150 594 308 
Q 525 466 525 972 
L 525 2881 
L 113 2881 
L 113 3319 
L 525 3319 
L 525 4141 
L 1084 4478 
L 1084 3319 
L 1650 3319 
L 1650 2881 
L 1084 2881 
L 1084 941 
Q 1084 700 1114 631 
Q 1144 563 1211 522 
Q 1278 481 1403 481 
Q 1497 481 1650 503 
z
" transform="scale(0.015625)"/>
       <path id="ArialMT-6f" d="M 213 1659 
Q 213 2581 725 3025 
Q 1153 3394 1769 3394 
Q 2453 3394 2887 2945 
Q 3322 2497 3322 1706 
Q 3322 1066 3130 698 
Q 2938 331 2570 128 
Q 2203 -75 1769 -75 
Q 1072 -75 642 372 
Q 213 819 213 1659 
z
M 791 1659 
Q 791 1022 1069 705 
Q 1347 388 1769 388 
Q 2188 388 2466 706 
Q 2744 1025 2744 1678 
Q 2744 2294 2464 2611 
Q 2184 2928 1769 2928 
Q 1347 2928 1069 2612 
Q 791 2297 791 1659 
z
" transform="scale(0.015625)"/>
       <path id="ArialMT-20" transform="scale(0.015625)"/>
       <path id="ArialMT-28" d="M 1497 -1347 
Q 1031 -759 709 28 
Q 388 816 388 1659 
Q 388 2403 628 3084 
Q 909 3875 1497 4659 
L 1900 4659 
Q 1522 4009 1400 3731 
Q 1209 3300 1100 2831 
Q 966 2247 966 1656 
Q 966 153 1900 -1347 
L 1497 -1347 
z
" transform="scale(0.015625)"/>
       <path id="ArialMT-70" d="M 422 -1272 
L 422 3319 
L 934 3319 
L 934 2888 
Q 1116 3141 1344 3267 
Q 1572 3394 1897 3394 
Q 2322 3394 2647 3175 
Q 2972 2956 3137 2557 
Q 3303 2159 3303 1684 
Q 3303 1175 3120 767 
Q 2938 359 2589 142 
Q 2241 -75 1856 -75 
Q 1575 -75 1351 44 
Q 1128 163 984 344 
L 984 -1272 
L 422 -1272 
z
M 931 1641 
Q 931 1000 1190 694 
Q 1450 388 1819 388 
Q 2194 388 2461 705 
Q 2728 1022 2728 1688 
Q 2728 2322 2467 2637 
Q 2206 2953 1844 2953 
Q 1484 2953 1207 2617 
Q 931 2281 931 1641 
z
" transform="scale(0.015625)"/>
       <path id="ArialMT-61" d="M 2588 409 
Q 2275 144 1986 34 
Q 1697 -75 1366 -75 
Q 819 -75 525 192 
Q 231 459 231 875 
Q 231 1119 342 1320 
Q 453 1522 633 1644 
Q 813 1766 1038 1828 
Q 1203 1872 1538 1913 
Q 2219 1994 2541 2106 
Q 2544 2222 2544 2253 
Q 2544 2597 2384 2738 
Q 2169 2928 1744 2928 
Q 1347 2928 1158 2789 
Q 969 2650 878 2297 
L 328 2372 
Q 403 2725 575 2942 
Q 747 3159 1072 3276 
Q 1397 3394 1825 3394 
Q 2250 3394 2515 3294 
Q 2781 3194 2906 3042 
Q 3031 2891 3081 2659 
Q 3109 2516 3109 2141 
L 3109 1391 
Q 3109 606 3145 398 
Q 3181 191 3288 0 
L 2700 0 
Q 2613 175 2588 409 
z
M 2541 1666 
Q 2234 1541 1622 1453 
Q 1275 1403 1131 1340 
Q 988 1278 909 1158 
Q 831 1038 831 891 
Q 831 666 1001 516 
Q 1172 366 1500 366 
Q 1825 366 2078 508 
Q 2331 650 2450 897 
Q 2541 1088 2541 1459 
L 2541 1666 
z
" transform="scale(0.015625)"/>
       <path id="ArialMT-6c" d="M 409 0 
L 409 4581 
L 972 4581 
L 972 0 
L 409 0 
z
" transform="scale(0.015625)"/>
       <path id="ArialMT-29" d="M 791 -1347 
L 388 -1347 
Q 1322 153 1322 1656 
Q 1322 2244 1188 2822 
Q 1081 3291 891 3722 
Q 769 4003 388 4659 
L 791 4659 
Q 1378 3875 1659 3084 
Q 1900 2403 1900 1659 
Q 1900 816 1576 28 
Q 1253 -759 791 -1347 
z
" transform="scale(0.015625)"/>
       <path id="ArialMT-2014" d="M 0 1431 
L 0 1884 
L 6400 1884 
L 6400 1431 
L 0 1431 
z
" transform="scale(0.015625)"/>
       <path id="ArialMT-73" d="M 197 991 
L 753 1078 
Q 800 744 1014 566 
Q 1228 388 1613 388 
Q 2000 388 2187 545 
Q 2375 703 2375 916 
Q 2375 1106 2209 1216 
Q 2094 1291 1634 1406 
Q 1016 1563 777 1677 
Q 538 1791 414 1992 
Q 291 2194 291 2438 
Q 291 2659 392 2848 
Q 494 3038 669 3163 
Q 800 3259 1026 3326 
Q 1253 3394 1513 3394 
Q 1903 3394 2198 3281 
Q 2494 3169 2634 2976 
Q 2775 2784 2828 2463 
L 2278 2388 
Q 2241 2644 2061 2787 
Q 1881 2931 1553 2931 
Q 1166 2931 1000 2803 
Q 834 2675 834 2503 
Q 834 2394 903 2306 
Q 972 2216 1119 2156 
Q 1203 2125 1616 2013 
Q 2213 1853 2448 1751 
Q 2684 1650 2818 1456 
Q 2953 1263 2953 975 
Q 2953 694 2789 445 
Q 2625 197 2315 61 
Q 2006 -75 1616 -75 
Q 969 -75 630 194 
Q 291 463 197 991 
z
" transform="scale(0.015625)"/>
       <path id="ArialMT-75" d="M 2597 0 
L 2597 488 
Q 2209 -75 1544 -75 
Q 1250 -75 995 37 
Q 741 150 617 320 
Q 494 491 444 738 
Q 409 903 409 1263 
L 409 3319 
L 972 3319 
L 972 1478 
Q 972 1038 1006 884 
Q 1059 663 1231 536 
Q 1403 409 1656 409 
Q 1909 409 2131 539 
Q 2353 669 2445 892 
Q 2538 1116 2538 1541 
L 2538 3319 
L 3100 3319 
L 3100 0 
L 2597 0 
z
" transform="scale(0.015625)"/>
       <path id="ArialMT-7a" d="M 125 0 
L 125 456 
L 2238 2881 
Q 1878 2863 1603 2863 
L 250 2863 
L 250 3319 
L 2963 3319 
L 2963 2947 
L 1166 841 
L 819 456 
Q 1197 484 1528 484 
L 3063 484 
L 3063 0 
L 125 0 
z
" transform="scale(0.015625)"/>
      </defs>
      <use xlink:href="#ArialMT-50"/>
      <use xlink:href="#ArialMT-72" x="66.699219"/>
      <use xlink:href="#ArialMT-65" x="100"/>
      <use xlink:href="#ArialMT-64" x="155.615234"/>
      <use xlink:href="#ArialMT-69" x="211.230469"/>
      <use xlink:href="#ArialMT-63" x="233.447266"/>
      <use xlink:href="#ArialMT-74" x="283.447266"/>
      <use xlink:href="#ArialMT-6f" x="311.230469"/>
      <use xlink:href="#ArialMT-72" x="366.845703"/>
      <use xlink:href="#ArialMT-20" x="400.146484"/>
      <use xlink:href="#ArialMT-28" x="427.929688"/>
      <use xlink:href="#ArialMT-70" x="461.230469"/>
      <use xlink:href="#ArialMT-61" x="516.845703"/>
      <use xlink:href="#ArialMT-72" x="572.460938"/>
      <use xlink:href="#ArialMT-74" x="605.761719"/>
      <use xlink:href="#ArialMT-69" x="633.544922"/>
      <use xlink:href="#ArialMT-61" x="655.761719"/>
      <use xlink:href="#ArialMT-6c" x="711.376953"/>
      <use xlink:href="#ArialMT-65" x="733.59375"/>
      <use xlink:href="#ArialMT-64" x="789.208984"/>
      <use xlink:href="#ArialMT-29" x="844.824219"/>
      <use xlink:href="#ArialMT-20" x="878.125"/>
      <use xlink:href="#ArialMT-2014" x="905.908203"/>
      <use xlink:href="#ArialMT-20" x="1005.908203"/>
      <use xlink:href="#ArialMT-72" x="1033.691406"/>
      <use xlink:href="#ArialMT-65" x="1066.992188"/>
      <use xlink:href="#ArialMT-73" x="1122.607422"/>
      <use xlink:href="#ArialMT-69" x="1172.607422"/>
      <use xlink:href="#ArialMT-64" x="1194.824219"/>
      <use xlink:href="#ArialMT-75" x="1250.439453"/>
      <use xlink:href="#ArialMT-61" x="1306.054688"/>
      <use xlink:href="#ArialMT-6c" x="1361.669922"/>
      <use xlink:href="#ArialMT-69" x="1383.886719"/>
      <use xlink:href="#ArialMT-7a" x="1406.103516"/>
      <use xlink:href="#ArialMT-65" x="1456.103516"/>
      <use xlink:href="#ArialMT-64" x="1511.71875"/>
     </g>
    </g>
    <g id="text_10">
     <!-- 1e−6 -->
     <g style="fill: #262626" transform="translate(529.90125 409.155312) scale(0.12 -0.12)">
      <defs>
       <path id="ArialMT-36" d="M 3184 3459 
L 2625 3416 
Q 2550 3747 2413 3897 
Q 2184 4138 1850 4138 
Q 1581 4138 1378 3988 
Q 1113 3794 959 3422 
Q 806 3050 800 2363 
Q 1003 2672 1297 2822 
Q 1591 2972 1913 2972 
Q 2475 2972 2870 2558 
Q 3266 2144 3266 1488 
Q 3266 1056 3080 686 
Q 2894 316 2569 119 
Q 2244 -78 1831 -78 
Q 1128 -78 684 439 
Q 241 956 241 2144 
Q 241 3472 731 4075 
Q 1159 4600 1884 4600 
Q 2425 4600 2770 4297 
Q 3116 3994 3184 3459 
z
M 888 1484 
Q 888 1194 1011 928 
Q 1134 663 1356 523 
Q 1578 384 1822 384 
Q 2178 384 2434 671 
Q 2691 959 2691 1453 
Q 2691 1928 2437 2201 
Q 2184 2475 1800 2475 
Q 1419 2475 1153 2201 
Q 888 1928 888 1484 
z
" transform="scale(0.015625)"/>
      </defs>
      <use xlink:href="#ArialMT-31"/>
      <use xlink:href="#ArialMT-65" x="55.615234"/>
      <use xlink:href="#ArialMT-2212" x="111.230469"/>
      <use xlink:href="#ArialMT-36" x="169.628906"/>
     </g>
    </g>
   </g>
   <g id="matplotlib.axis_2">
    <g id="ytick_1">
     <g id="line2d_10">
      <path d="M 73.169375 369.103626 
L 556.929375 369.103626 
" clip-path="url(#p1b36836c5e)" style="fill: none; stroke: #cccccc; stroke-width: 0.8; stroke-linecap: round"/>
     </g>
     <g id="text_11">
      <!-- −0.0006 -->
      <g style="fill: #262626" transform="translate(22.46125 373.398314) scale(0.12 -0.12)">
       <defs>
        <path id="ArialMT-2e" d="M 581 0 
L 581 641 
L 1222 641 
L 1222 0 
L 581 0 
z
" transform="scale(0.015625)"/>
       </defs>
       <use xlink:href="#ArialMT-2212"/>
       <use xlink:href="#ArialMT-30" x="58.398438"/>
       <use xlink:href="#ArialMT-2e" x="114.013672"/>
       <use xlink:href="#ArialMT-30" x="141.796875"/>
       <use xlink:href="#ArialMT-30" x="197.412109"/>
       <use xlink:href="#ArialMT-30" x="253.027344"/>
       <use xlink:href="#ArialMT-36" x="308.642578"/>
      </g>
     </g>
    </g>
    <g id="ytick_2">
     <g id="line2d_11">
      <path d="M 73.169375 315.763659 
L 556.929375 315.763659 
" clip-path="url(#p1b36836c5e)" style="fill: none; stroke: #cccccc; stroke-width: 0.8; stroke-linecap: round"/>
     </g>
     <g id="text_12">
      <!-- −0.0004 -->
      <g style="fill: #262626" transform="translate(22.46125 320.058347) scale(0.12 -0.12)">
       <use xlink:href="#ArialMT-2212"/>
       <use xlink:href="#ArialMT-30" x="58.398438"/>
       <use xlink:href="#ArialMT-2e" x="114.013672"/>
       <use xlink:href="#ArialMT-30" x="141.796875"/>
       <use xlink:href="#ArialMT-30" x="197.412109"/>
       <use xlink:href="#ArialMT-30" x="253.027344"/>
       <use xlink:href="#ArialMT-34" x="308.642578"/>
      </g>
     </g>
    </g>
    <g id="ytick_3">
     <g id="line2d_12">
      <path d="M 73.169375 262.423692 
L 556.929375 262.423692 
" clip-path="url(#p1b36836c5e)" style="fill: none; stroke: #cccccc; stroke-width: 0.8; stroke-linecap: round"/>
     </g>
     <g id="text_13">
      <!-- −0.0002 -->
      <g style="fill: #262626" transform="translate(22.46125 266.718379) scale(0.12 -0.12)">
       <use xlink:href="#ArialMT-2212"/>
       <use xlink:href="#ArialMT-30" x="58.398438"/>
       <use xlink:href="#ArialMT-2e" x="114.013672"/>
       <use xlink:href="#ArialMT-30" x="141.796875"/>
       <use xlink:href="#ArialMT-30" x="197.412109"/>
       <use xlink:href="#ArialMT-30" x="253.027344"/>
       <use xlink:href="#ArialMT-32" x="308.642578"/>
      </g>
     </g>
    </g>
    <g id="ytick_4">
     <g id="line2d_13">
      <path d="M 73.169375 209.083725 
L 556.929375 209.083725 
" clip-path="url(#p1b36836c5e)" style="fill: none; stroke: #cccccc; stroke-width: 0.8; stroke-linecap: round"/>
     </g>
     <g id="text_14">
      <!-- 0.0000 -->
      <g style="fill: #262626" transform="translate(29.47 213.378412) scale(0.12 -0.12)">
       <use xlink:href="#ArialMT-30"/>
       <use xlink:href="#ArialMT-2e" x="55.615234"/>
       <use xlink:href="#ArialMT-30" x="83.398438"/>
       <use xlink:href="#ArialMT-30" x="139.013672"/>
       <use xlink:href="#ArialMT-30" x="194.628906"/>
       <use xlink:href="#ArialMT-30" x="250.244141"/>
      </g>
     </g>
    </g>
    <g id="ytick_5">
     <g id="line2d_14">
      <path d="M 73.169375 155.743758 
L 556.929375 155.743758 
" clip-path="url(#p1b36836c5e)" style="fill: none; stroke: #cccccc; stroke-width: 0.8; stroke-linecap: round"/>
     </g>
     <g id="text_15">
      <!-- 0.0002 -->
      <g style="fill: #262626" transform="translate(29.47 160.038445) scale(0.12 -0.12)">
       <use xlink:href="#ArialMT-30"/>
       <use xlink:href="#ArialMT-2e" x="55.615234"/>
       <use xlink:href="#ArialMT-30" x="83.398438"/>
       <use xlink:href="#ArialMT-30" x="139.013672"/>
       <use xlink:href="#ArialMT-30" x="194.628906"/>
       <use xlink:href="#ArialMT-32" x="250.244141"/>
      </g>
     </g>
    </g>
    <g id="ytick_6">
     <g id="line2d_15">
      <path d="M 73.169375 102.403791 
L 556.929375 102.403791 
" clip-path="url(#p1b36836c5e)" style="fill: none; stroke: #cccccc; stroke-width: 0.8; stroke-linecap: round"/>
     </g>
     <g id="text_16">
      <!-- 0.0004 -->
      <g style="fill: #262626" transform="translate(29.47 106.698478) scale(0.12 -0.12)">
       <use xlink:href="#ArialMT-30"/>
       <use xlink:href="#ArialMT-2e" x="55.615234"/>
       <use xlink:href="#ArialMT-30" x="83.398438"/>
       <use xlink:href="#ArialMT-30" x="139.013672"/>
       <use xlink:href="#ArialMT-30" x="194.628906"/>
       <use xlink:href="#ArialMT-34" x="250.244141"/>
      </g>
     </g>
    </g>
    <g id="ytick_7">
     <g id="line2d_16">
      <path d="M 73.169375 49.063824 
L 556.929375 49.063824 
" clip-path="url(#p1b36836c5e)" style="fill: none; stroke: #cccccc; stroke-width: 0.8; stroke-linecap: round"/>
     </g>
     <g id="text_17">
      <!-- 0.0006 -->
      <g style="fill: #262626" transform="translate(29.47 53.358511) scale(0.12 -0.12)">
       <use xlink:href="#ArialMT-30"/>
       <use xlink:href="#ArialMT-2e" x="55.615234"/>
       <use xlink:href="#ArialMT-30" x="83.398438"/>
       <use xlink:href="#ArialMT-30" x="139.013672"/>
       <use xlink:href="#ArialMT-30" x="194.628906"/>
       <use xlink:href="#ArialMT-36" x="250.244141"/>
      </g>
     </g>
    </g>
    <g id="text_18">
     <!-- Target (partialed) — residualized -->
     <g style="fill: #262626" transform="translate(15.935625 288.189687) rotate(-90) scale(0.12 -0.12)">
      <defs>
       <path id="ArialMT-54" d="M 1659 0 
L 1659 4041 
L 150 4041 
L 150 4581 
L 3781 4581 
L 3781 4041 
L 2266 4041 
L 2266 0 
L 1659 0 
z
" transform="scale(0.015625)"/>
       <path id="ArialMT-67" d="M 319 -275 
L 866 -356 
Q 900 -609 1056 -725 
Q 1266 -881 1628 -881 
Q 2019 -881 2231 -725 
Q 2444 -569 2519 -288 
Q 2563 -116 2559 434 
Q 2191 0 1641 0 
Q 956 0 581 494 
Q 206 988 206 1678 
Q 206 2153 378 2554 
Q 550 2956 876 3175 
Q 1203 3394 1644 3394 
Q 2231 3394 2613 2919 
L 2613 3319 
L 3131 3319 
L 3131 450 
Q 3131 -325 2973 -648 
Q 2816 -972 2473 -1159 
Q 2131 -1347 1631 -1347 
Q 1038 -1347 672 -1080 
Q 306 -813 319 -275 
z
M 784 1719 
Q 784 1066 1043 766 
Q 1303 466 1694 466 
Q 2081 466 2343 764 
Q 2606 1063 2606 1700 
Q 2606 2309 2336 2618 
Q 2066 2928 1684 2928 
Q 1309 2928 1046 2623 
Q 784 2319 784 1719 
z
" transform="scale(0.015625)"/>
      </defs>
      <use xlink:href="#ArialMT-54"/>
      <use xlink:href="#ArialMT-61" x="49.958984"/>
      <use xlink:href="#ArialMT-72" x="105.574219"/>
      <use xlink:href="#ArialMT-67" x="138.875"/>
      <use xlink:href="#ArialMT-65" x="194.490234"/>
      <use xlink:href="#ArialMT-74" x="250.105469"/>
      <use xlink:href="#ArialMT-20" x="277.888672"/>
      <use xlink:href="#ArialMT-28" x="305.671875"/>
      <use xlink:href="#ArialMT-70" x="338.972656"/>
      <use xlink:href="#ArialMT-61" x="394.587891"/>
      <use xlink:href="#ArialMT-72" x="450.203125"/>
      <use xlink:href="#ArialMT-74" x="483.503906"/>
      <use xlink:href="#ArialMT-69" x="511.287109"/>
      <use xlink:href="#ArialMT-61" x="533.503906"/>
      <use xlink:href="#ArialMT-6c" x="589.119141"/>
      <use xlink:href="#ArialMT-65" x="611.335938"/>
      <use xlink:href="#ArialMT-64" x="666.951172"/>
      <use xlink:href="#ArialMT-29" x="722.566406"/>
      <use xlink:href="#ArialMT-20" x="755.867188"/>
      <use xlink:href="#ArialMT-2014" x="783.650391"/>
      <use xlink:href="#ArialMT-20" x="883.650391"/>
      <use xlink:href="#ArialMT-72" x="911.433594"/>
      <use xlink:href="#ArialMT-65" x="944.734375"/>
      <use xlink:href="#ArialMT-73" x="1000.349609"/>
      <use xlink:href="#ArialMT-69" x="1050.349609"/>
      <use xlink:href="#ArialMT-64" x="1072.566406"/>
      <use xlink:href="#ArialMT-75" x="1128.181641"/>
      <use xlink:href="#ArialMT-61" x="1183.796875"/>
      <use xlink:href="#ArialMT-6c" x="1239.412109"/>
      <use xlink:href="#ArialMT-69" x="1261.628906"/>
      <use xlink:href="#ArialMT-7a" x="1283.845703"/>
      <use xlink:href="#ArialMT-65" x="1333.845703"/>
      <use xlink:href="#ArialMT-64" x="1389.460938"/>
     </g>
    </g>
   </g>
   <g id="PathCollection_1">
    <defs>
     <path id="ma8aff53784" d="M 0 2.44949 
C 0.649612 2.44949 1.272706 2.191396 1.732051 1.732051 
C 2.191396 1.272706 2.44949 0.649612 2.44949 0 
C 2.44949 -0.649612 2.191396 -1.272706 1.732051 -1.732051 
C 1.272706 -2.191396 0.649612 -2.44949 0 -2.44949 
C -0.649612 -2.44949 -1.272706 -2.191396 -1.732051 -1.732051 
C -2.191396 -1.272706 -2.44949 -0.649612 -2.44949 0 
C -2.44949 0.649612 -2.191396 1.272706 -1.732051 1.732051 
C -1.272706 2.191396 -0.649612 2.44949 0 2.44949 
z
" style="stroke: #1f77b4; stroke-opacity: 0.7"/>
    </defs>
    <g clip-path="url(#p1b36836c5e)">
     <use xlink:href="#ma8aff53784" x="305.158657" y="208.191771" style="fill: #1f77b4; fill-opacity: 0.7; stroke: #1f77b4; stroke-opacity: 0.7"/>
     <use xlink:href="#ma8aff53784" x="305.603867" y="207.951115" style="fill: #1f77b4; fill-opacity: 0.7; stroke: #1f77b4; stroke-opacity: 0.7"/>
     <use xlink:href="#ma8aff53784" x="311.5289" y="213.134769" style="fill: #1f77b4; fill-opacity: 0.7; stroke: #1f77b4; stroke-opacity: 0.7"/>
     <use xlink:href="#ma8aff53784" x="305.344892" y="215.825119" style="fill: #1f77b4; fill-opacity: 0.7; stroke: #1f77b4; stroke-opacity: 0.7"/>
     <use xlink:href="#ma8aff53784" x="236.40925" y="199.571035" style="fill: #1f77b4; fill-opacity: 0.7; stroke: #1f77b4; stroke-opacity: 0.7"/>
     <use xlink:href="#ma8aff53784" x="441.231605" y="153.974849" style="fill: #1f77b4; fill-opacity: 0.7; stroke: #1f77b4; stroke-opacity: 0.7"/>
     <use xlink:href="#ma8aff53784" x="372.71857" y="158.625912" style="fill: #1f77b4; fill-opacity: 0.7; stroke: #1f77b4; stroke-opacity: 0.7"/>
     <use xlink:href="#ma8aff53784" x="276.458935" y="157.291389" style="fill: #1f77b4; fill-opacity: 0.7; stroke: #1f77b4; stroke-opacity: 0.7"/>
     <use xlink:href="#ma8aff53784" x="265.914472" y="158.889956" style="fill: #1f77b4; fill-opacity: 0.7; stroke: #1f77b4; stroke-opacity: 0.7"/>
     <use xlink:href="#ma8aff53784" x="354.008857" y="139.61405" style="fill: #1f77b4; fill-opacity: 0.7; stroke: #1f77b4; stroke-opacity: 0.7"/>
     <use xlink:href="#ma8aff53784" x="263.575729" y="134.658196" style="fill: #1f77b4; fill-opacity: 0.7; stroke: #1f77b4; stroke-opacity: 0.7"/>
     <use xlink:href="#ma8aff53784" x="308.967376" y="210.480344" style="fill: #1f77b4; fill-opacity: 0.7; stroke: #1f77b4; stroke-opacity: 0.7"/>
     <use xlink:href="#ma8aff53784" x="299.691181" y="208.071206" style="fill: #1f77b4; fill-opacity: 0.7; stroke: #1f77b4; stroke-opacity: 0.7"/>
     <use xlink:href="#ma8aff53784" x="311.223556" y="208.781864" style="fill: #1f77b4; fill-opacity: 0.7; stroke: #1f77b4; stroke-opacity: 0.7"/>
     <use xlink:href="#ma8aff53784" x="302.580646" y="207.960079" style="fill: #1f77b4; fill-opacity: 0.7; stroke: #1f77b4; stroke-opacity: 0.7"/>
     <use xlink:href="#ma8aff53784" x="307.44247" y="222.401048" style="fill: #1f77b4; fill-opacity: 0.7; stroke: #1f77b4; stroke-opacity: 0.7"/>
     <use xlink:href="#ma8aff53784" x="261.110686" y="226.966197" style="fill: #1f77b4; fill-opacity: 0.7; stroke: #1f77b4; stroke-opacity: 0.7"/>
     <use xlink:href="#ma8aff53784" x="380.904999" y="222.941353" style="fill: #1f77b4; fill-opacity: 0.7; stroke: #1f77b4; stroke-opacity: 0.7"/>
     <use xlink:href="#ma8aff53784" x="306.199904" y="204.068264" style="fill: #1f77b4; fill-opacity: 0.7; stroke: #1f77b4; stroke-opacity: 0.7"/>
     <use xlink:href="#ma8aff53784" x="307.441914" y="209.539395" style="fill: #1f77b4; fill-opacity: 0.7; stroke: #1f77b4; stroke-opacity: 0.7"/>
     <use xlink:href="#ma8aff53784" x="95.158466" y="363.400653" style="fill: #1f77b4; fill-opacity: 0.7; stroke: #1f77b4; stroke-opacity: 0.7"/>
     <use xlink:href="#ma8aff53784" x="311.473344" y="328.21805" style="fill: #1f77b4; fill-opacity: 0.7; stroke: #1f77b4; stroke-opacity: 0.7"/>
     <use xlink:href="#ma8aff53784" x="315.829142" y="318.467231" style="fill: #1f77b4; fill-opacity: 0.7; stroke: #1f77b4; stroke-opacity: 0.7"/>
     <use xlink:href="#ma8aff53784" x="534.940284" y="83.070588" style="fill: #1f77b4; fill-opacity: 0.7; stroke: #1f77b4; stroke-opacity: 0.7"/>
     <use xlink:href="#ma8aff53784" x="250.754499" y="170.334315" style="fill: #1f77b4; fill-opacity: 0.7; stroke: #1f77b4; stroke-opacity: 0.7"/>
     <use xlink:href="#ma8aff53784" x="344.351544" y="156.367579" style="fill: #1f77b4; fill-opacity: 0.7; stroke: #1f77b4; stroke-opacity: 0.7"/>
     <use xlink:href="#ma8aff53784" x="318.340653" y="169.828791" style="fill: #1f77b4; fill-opacity: 0.7; stroke: #1f77b4; stroke-opacity: 0.7"/>
     <use xlink:href="#ma8aff53784" x="306.505857" y="210.579322" style="fill: #1f77b4; fill-opacity: 0.7; stroke: #1f77b4; stroke-opacity: 0.7"/>
     <use xlink:href="#ma8aff53784" x="328.387707" y="190.440575" style="fill: #1f77b4; fill-opacity: 0.7; stroke: #1f77b4; stroke-opacity: 0.7"/>
     <use xlink:href="#ma8aff53784" x="319.821594" y="197.946642" style="fill: #1f77b4; fill-opacity: 0.7; stroke: #1f77b4; stroke-opacity: 0.7"/>
    </g>
   </g>
   <g id="PolyCollection_1">
    <defs>
     <path id="md7274471ff" d="M 95.158466 -176.6034 
L 95.158466 -60.571325 
L 97.368425 -62.124518 
L 99.578384 -63.677188 
L 101.788343 -65.229322 
L 103.998301 -66.780903 
L 106.20826 -68.331916 
L 108.418219 -69.882344 
L 110.628178 -71.432169 
L 112.838137 -72.981374 
L 115.048096 -74.52994 
L 117.258055 -76.077847 
L 119.468014 -77.625077 
L 121.677973 -79.171606 
L 123.887931 -80.717415 
L 126.09789 -82.262479 
L 128.307849 -83.806776 
L 130.517808 -85.350281 
L 132.727767 -86.892968 
L 134.937726 -88.43481 
L 137.147685 -89.975781 
L 139.357644 -91.51585 
L 141.567603 -93.054987 
L 143.777561 -94.593162 
L 145.98752 -96.130341 
L 148.197479 -97.66649 
L 150.407438 -99.201572 
L 152.617397 -100.735551 
L 154.827356 -102.268387 
L 157.037315 -103.800039 
L 159.247274 -105.330464 
L 161.457232 -106.859618 
L 163.667191 -108.387453 
L 165.87715 -109.91392 
L 168.087109 -111.438968 
L 170.297068 -112.962544 
L 172.507027 -114.484589 
L 174.716986 -116.005045 
L 176.926945 -117.52385 
L 179.136904 -119.040939 
L 181.346862 -120.556242 
L 183.556821 -122.069688 
L 185.76678 -123.581202 
L 187.976739 -125.090703 
L 190.186698 -126.59811 
L 192.396657 -128.103332 
L 194.606616 -129.606279 
L 196.816575 -131.106853 
L 199.026534 -132.604952 
L 201.236492 -134.100468 
L 203.446451 -135.593287 
L 205.65641 -137.083292 
L 207.866369 -138.570354 
L 210.076328 -140.054343 
L 212.286287 -141.535118 
L 214.496246 -143.012533 
L 216.706205 -144.486431 
L 218.916163 -145.95665 
L 221.126122 -147.423016 
L 223.336081 -148.885349 
L 225.54604 -150.343456 
L 227.755999 -151.797136 
L 229.965958 -153.246175 
L 232.175917 -154.69035 
L 234.385876 -156.129424 
L 236.595835 -157.563149 
L 238.805793 -158.991262 
L 241.015752 -160.41349 
L 243.225711 -161.829544 
L 245.43567 -163.239119 
L 247.645629 -164.641898 
L 249.855588 -166.037548 
L 252.065547 -167.425719 
L 254.275506 -168.806049 
L 256.485465 -170.178157 
L 258.695423 -171.541648 
L 260.905382 -172.896112 
L 263.115341 -174.241123 
L 265.3253 -175.576242 
L 267.535259 -176.901017 
L 269.745218 -178.214983 
L 271.955177 -179.517665 
L 274.165136 -180.808581 
L 276.375095 -182.087239 
L 278.585053 -183.353146 
L 280.795012 -184.605808 
L 283.004971 -185.844731 
L 285.21493 -187.06943 
L 287.424889 -188.279428 
L 289.634848 -189.474262 
L 291.844807 -190.653491 
L 294.054766 -191.816694 
L 296.264724 -192.963478 
L 298.474683 -194.093487 
L 300.684642 -195.206398 
L 302.894601 -196.301932 
L 305.10456 -197.379855 
L 307.314519 -198.439981 
L 309.524478 -199.482178 
L 311.734437 -200.506366 
L 313.944396 -201.512518 
L 316.154354 -202.500666 
L 318.364313 -203.470894 
L 320.574272 -204.42334 
L 322.784231 -205.358193 
L 324.99419 -206.275693 
L 327.204149 -207.176122 
L 329.414108 -208.059806 
L 331.624067 -208.927105 
L 333.834026 -209.778415 
L 336.043984 -210.614157 
L 338.253943 -211.434777 
L 340.463902 -212.240737 
L 342.673861 -213.032516 
L 344.88382 -213.8106 
L 347.093779 -214.575483 
L 349.303738 -215.327659 
L 351.513697 -216.067622 
L 353.723655 -216.795861 
L 355.933614 -217.512859 
L 358.143573 -218.21909 
L 360.353532 -218.915017 
L 362.563491 -219.601092 
L 364.77345 -220.277754 
L 366.983409 -220.945425 
L 369.193368 -221.604515 
L 371.403327 -222.255417 
L 373.613285 -222.898511 
L 375.823244 -223.534158 
L 378.033203 -224.162706 
L 380.243162 -224.784487 
L 382.453121 -225.399818 
L 384.66308 -226.009 
L 386.873039 -226.612322 
L 389.082998 -227.210056 
L 391.292957 -227.802464 
L 393.502915 -228.389793 
L 395.712874 -228.972277 
L 397.922833 -229.550141 
L 400.132792 -230.123596 
L 402.342751 -230.692842 
L 404.55271 -231.258071 
L 406.762669 -231.819464 
L 408.972628 -232.377192 
L 411.182587 -232.931418 
L 413.392545 -233.482297 
L 415.602504 -234.029975 
L 417.812463 -234.574591 
L 420.022422 -235.116277 
L 422.232381 -235.655159 
L 424.44234 -236.191354 
L 426.652299 -236.724977 
L 428.862258 -237.256134 
L 431.072216 -237.784926 
L 433.282175 -238.311452 
L 435.492134 -238.835801 
L 437.702093 -239.358063 
L 439.912052 -239.878321 
L 442.122011 -240.396652 
L 444.33197 -240.913133 
L 446.541929 -241.427835 
L 448.751888 -241.940826 
L 450.961846 -242.452172 
L 453.171805 -242.961935 
L 455.381764 -243.470172 
L 457.591723 -243.976942 
L 459.801682 -244.482296 
L 462.011641 -244.986288 
L 464.2216 -245.488965 
L 466.431559 -245.990375 
L 468.641518 -246.490562 
L 470.851476 -246.989569 
L 473.061435 -247.487437 
L 475.271394 -247.984204 
L 477.481353 -248.479908 
L 479.691312 -248.974585 
L 481.901271 -249.46827 
L 484.11123 -249.960994 
L 486.321189 -250.452789 
L 488.531147 -250.943686 
L 490.741106 -251.433714 
L 492.951065 -251.922899 
L 495.161024 -252.411269 
L 497.370983 -252.898849 
L 499.580942 -253.385663 
L 501.790901 -253.871736 
L 504.00086 -254.357089 
L 506.210819 -254.841745 
L 508.420777 -255.325724 
L 510.630736 -255.809047 
L 512.840695 -256.291732 
L 515.050654 -256.773798 
L 517.260613 -257.255264 
L 519.470572 -257.736146 
L 521.680531 -258.216461 
L 523.89049 -258.696225 
L 526.100449 -259.175454 
L 528.310407 -259.654162 
L 530.520366 -260.132363 
L 532.730325 -260.610072 
L 534.940284 -261.087302 
L 534.940284 -380.444716 
L 534.940284 -380.444716 
L 532.730325 -378.889999 
L 530.520366 -377.335762 
L 528.310407 -375.782017 
L 526.100449 -374.228779 
L 523.89049 -372.676061 
L 521.680531 -371.123879 
L 519.470572 -369.572248 
L 517.260613 -368.021184 
L 515.050654 -366.470703 
L 512.840695 -364.920824 
L 510.630736 -363.371563 
L 508.420777 -361.822939 
L 506.210819 -360.274972 
L 504.00086 -358.727682 
L 501.790901 -357.181089 
L 499.580942 -355.635215 
L 497.370983 -354.090084 
L 495.161024 -352.545717 
L 492.951065 -351.002141 
L 490.741106 -349.45938 
L 488.531147 -347.917461 
L 486.321189 -346.376412 
L 484.11123 -344.836261 
L 481.901271 -343.297039 
L 479.691312 -341.758777 
L 477.481353 -340.221508 
L 475.271394 -338.685266 
L 473.061435 -337.150088 
L 470.851476 -335.616009 
L 468.641518 -334.08307 
L 466.431559 -332.55131 
L 464.2216 -331.020774 
L 462.011641 -329.491505 
L 459.801682 -327.963551 
L 457.591723 -326.436959 
L 455.381764 -324.911782 
L 453.171805 -323.388074 
L 450.961846 -321.86589 
L 448.751888 -320.34529 
L 446.541929 -318.826335 
L 444.33197 -317.309091 
L 442.122011 -315.793625 
L 439.912052 -314.280011 
L 437.702093 -312.768322 
L 435.492134 -311.258637 
L 433.282175 -309.751041 
L 431.072216 -308.24562 
L 428.862258 -306.742467 
L 426.652299 -305.241677 
L 424.44234 -303.743354 
L 422.232381 -302.247603 
L 420.022422 -300.754538 
L 417.812463 -299.264278 
L 415.602504 -297.776948 
L 413.392545 -296.29268 
L 411.182587 -294.811613 
L 408.972628 -293.333893 
L 406.762669 -291.859675 
L 404.55271 -290.389121 
L 402.342751 -288.922404 
L 400.132792 -287.459704 
L 397.922833 -286.001213 
L 395.712874 -284.54713 
L 393.502915 -283.097668 
L 391.292957 -281.653051 
L 389.082998 -280.213513 
L 386.873039 -278.779301 
L 384.66308 -277.350676 
L 382.453121 -275.927912 
L 380.243162 -274.511297 
L 378.033203 -273.101132 
L 375.823244 -271.697734 
L 373.613285 -270.301435 
L 371.403327 -268.912582 
L 369.193368 -267.531539 
L 366.983409 -266.158682 
L 364.77345 -264.794407 
L 362.563491 -263.439122 
L 360.353532 -262.093251 
L 358.143573 -260.757233 
L 355.933614 -259.431517 
L 353.723655 -258.116569 
L 351.513697 -256.812862 
L 349.303738 -255.520878 
L 347.093779 -254.241108 
L 344.88382 -252.974045 
L 342.673861 -251.720183 
L 340.463902 -250.480016 
L 338.253943 -249.25403 
L 336.043984 -248.042703 
L 333.834026 -246.846499 
L 331.624067 -245.665863 
L 329.414108 -244.501216 
L 327.204149 -243.352953 
L 324.99419 -242.221436 
L 322.784231 -241.10699 
L 320.574272 -240.009897 
L 318.364313 -238.930397 
L 316.154354 -237.868679 
L 313.944396 -236.82488 
L 311.734437 -235.799087 
L 309.524478 -234.791328 
L 307.314519 -233.801578 
L 305.10456 -232.829759 
L 302.894601 -231.875736 
L 300.684642 -230.939323 
L 298.474683 -230.020288 
L 296.264724 -229.118351 
L 294.054766 -228.233189 
L 291.844807 -227.364446 
L 289.634848 -226.511728 
L 287.424889 -225.674617 
L 285.21493 -224.852668 
L 283.004971 -224.045421 
L 280.795012 -223.252398 
L 278.585053 -222.473113 
L 276.375095 -221.707074 
L 274.165136 -220.953786 
L 271.955177 -220.212756 
L 269.745218 -219.483492 
L 267.535259 -218.765512 
L 265.3253 -218.05834 
L 263.115341 -217.361513 
L 260.905382 -216.674578 
L 258.695423 -215.997096 
L 256.485465 -215.32864 
L 254.275506 -214.668802 
L 252.065547 -214.017186 
L 249.855588 -213.373411 
L 247.645629 -212.737115 
L 245.43567 -212.107948 
L 243.225711 -211.485577 
L 241.015752 -210.869684 
L 238.805793 -210.259966 
L 236.595835 -209.656133 
L 234.385876 -209.057912 
L 232.175917 -208.46504 
L 229.965958 -207.877268 
L 227.755999 -207.294361 
L 225.54604 -206.716095 
L 223.336081 -206.142256 
L 221.126122 -205.572642 
L 218.916163 -205.007062 
L 216.706205 -204.445335 
L 214.496246 -203.887287 
L 212.286287 -203.332755 
L 210.076328 -202.781584 
L 207.866369 -202.233627 
L 205.65641 -201.688744 
L 203.446451 -201.146801 
L 201.236492 -200.607675 
L 199.026534 -200.071245 
L 196.816575 -199.537397 
L 194.606616 -199.006025 
L 192.396657 -198.477026 
L 190.186698 -197.950302 
L 187.976739 -197.425762 
L 185.76678 -196.903318 
L 183.556821 -196.382885 
L 181.346862 -195.864385 
L 179.136904 -195.347742 
L 176.926945 -194.832885 
L 174.716986 -194.319743 
L 172.507027 -193.808254 
L 170.297068 -193.298353 
L 168.087109 -192.789981 
L 165.87715 -192.283083 
L 163.667191 -191.777605 
L 161.457232 -191.273494 
L 159.247274 -190.770701 
L 157.037315 -190.26918 
L 154.827356 -189.768886 
L 152.617397 -189.269776 
L 150.407438 -188.771808 
L 148.197479 -188.274945 
L 145.98752 -187.779147 
L 143.777561 -187.28438 
L 141.567603 -186.790608 
L 139.357644 -186.2978 
L 137.147685 -185.805923 
L 134.937726 -185.314947 
L 132.727767 -184.824843 
L 130.517808 -184.335584 
L 128.307849 -183.847143 
L 126.09789 -183.359493 
L 123.887931 -182.872612 
L 121.677973 -182.386474 
L 119.468014 -181.901057 
L 117.258055 -181.41634 
L 115.048096 -180.932302 
L 112.838137 -180.448921 
L 110.628178 -179.96618 
L 108.418219 -179.484059 
L 106.20826 -179.002541 
L 103.998301 -178.521607 
L 101.788343 -178.041242 
L 99.578384 -177.56143 
L 97.368425 -177.082154 
L 95.158466 -176.6034 
z
" style="stroke: #1f77b4; stroke-opacity: 0.12"/>
    </defs>
    <g clip-path="url(#p1b36836c5e)">
     <use xlink:href="#md7274471ff" x="0" y="420.027187" style="fill: #1f77b4; fill-opacity: 0.12; stroke: #1f77b4; stroke-opacity: 0.12"/>
    </g>
   </g>
   <g id="line2d_17">
    <path d="M 95.158466 301.439825 
L 534.940284 99.261179 
L 534.940284 99.261179 
" clip-path="url(#p1b36836c5e)" style="fill: none; stroke: #1f77b4; stroke-width: 2; stroke-linecap: round"/>
   </g>
   <g id="line2d_18">
    <path d="M 95.158466 356.625871 
L 236.40925 163.783323 
L 250.754499 162.777339 
L 261.110686 161.977144 
L 263.575729 161.660366 
L 265.914472 161.216556 
L 276.458935 158.740098 
L 299.691181 208.293637 
L 302.580646 208.946933 
L 305.158657 209.359589 
L 305.344892 209.295405 
L 305.603867 209.222372 
L 306.199904 208.271775 
L 306.505857 208.940955 
L 307.441914 211.826084 
L 307.44247 211.826349 
L 308.967376 212.392642 
L 311.223556 211.048226 
L 311.473344 210.882087 
L 311.5289 210.872645 
L 315.829142 205.811563 
L 318.340653 201.811838 
L 319.821594 197.962861 
L 328.387707 193.379932 
L 344.351544 167.203797 
L 354.008857 159.735332 
L 372.71857 157.56267 
L 380.904999 157.035286 
L 441.231605 149.944956 
L 534.940284 91.233951 
" clip-path="url(#p1b36836c5e)" style="fill: none; stroke-dasharray: 6.66,2.88; stroke-dashoffset: 0; stroke: #ff7f0e; stroke-width: 1.8"/>
   </g>
   <g id="patch_3">
    <path d="M 73.169375 379.591562 
L 73.169375 23.391562 
" style="fill: none; stroke: #cccccc; stroke-width: 0.8; stroke-linejoin: miter; stroke-linecap: square"/>
   </g>
   <g id="patch_4">
    <path d="M 556.929375 379.591562 
L 556.929375 23.391562 
" style="fill: none; stroke: #cccccc; stroke-width: 0.8; stroke-linejoin: miter; stroke-linecap: square"/>
   </g>
   <g id="patch_5">
    <path d="M 73.169375 379.591562 
L 556.929375 379.591562 
" style="fill: none; stroke: #cccccc; stroke-width: 0.8; stroke-linejoin: miter; stroke-linecap: square"/>
   </g>
   <g id="patch_6">
    <path d="M 73.169375 23.391562 
L 556.929375 23.391562 
" style="fill: none; stroke: #cccccc; stroke-width: 0.8; stroke-linejoin: miter; stroke-linecap: square"/>
   </g>
   <g id="text_19">
    <g id="patch_7">
     <path d="M 413.82605 375.467562 
L 547.254175 375.467562 
Q 550.254175 375.467562 550.254175 372.467562 
L 550.254175 331.292562 
Q 550.254175 328.292562 547.254175 328.292562 
L 413.82605 328.292562 
Q 410.82605 328.292562 410.82605 331.292562 
L 410.82605 372.467562 
Q 410.82605 375.467562 413.82605 375.467562 
z
" style="fill: #ffffff; opacity: 0.8; stroke: #cccccc; stroke-linejoin: miter"/>
    </g>
    <!-- n = 30 -->
    <g style="fill: #262626" transform="translate(519.174487 338.450375) scale(0.1 -0.1)">
     <defs>
      <path id="ArialMT-6e" d="M 422 0 
L 422 3319 
L 928 3319 
L 928 2847 
Q 1294 3394 1984 3394 
Q 2284 3394 2536 3286 
Q 2788 3178 2913 3003 
Q 3038 2828 3088 2588 
Q 3119 2431 3119 2041 
L 3119 0 
L 2556 0 
L 2556 2019 
Q 2556 2363 2490 2533 
Q 2425 2703 2258 2804 
Q 2091 2906 1866 2906 
Q 1506 2906 1245 2678 
Q 984 2450 984 1813 
L 984 0 
L 422 0 
z
" transform="scale(0.015625)"/>
      <path id="ArialMT-3d" d="M 3381 2694 
L 356 2694 
L 356 3219 
L 3381 3219 
L 3381 2694 
z
M 3381 1303 
L 356 1303 
L 356 1828 
L 3381 1828 
L 3381 1303 
z
" transform="scale(0.015625)"/>
     </defs>
     <use xlink:href="#ArialMT-6e"/>
     <use xlink:href="#ArialMT-20" x="55.615234"/>
     <use xlink:href="#ArialMT-3d" x="83.398438"/>
     <use xlink:href="#ArialMT-20" x="141.796875"/>
     <use xlink:href="#ArialMT-33" x="169.580078"/>
     <use xlink:href="#ArialMT-30" x="225.195312"/>
    </g>
    <!-- slope = 104.3865 (se=28.300) -->
    <g style="fill: #262626" transform="translate(413.82605 349.1735) scale(0.1 -0.1)">
     <defs>
      <path id="ArialMT-38" d="M 1131 2484 
Q 781 2613 612 2850 
Q 444 3088 444 3419 
Q 444 3919 803 4259 
Q 1163 4600 1759 4600 
Q 2359 4600 2725 4251 
Q 3091 3903 3091 3403 
Q 3091 3084 2923 2848 
Q 2756 2613 2416 2484 
Q 2838 2347 3058 2040 
Q 3278 1734 3278 1309 
Q 3278 722 2862 322 
Q 2447 -78 1769 -78 
Q 1091 -78 675 323 
Q 259 725 259 1325 
Q 259 1772 486 2073 
Q 713 2375 1131 2484 
z
M 1019 3438 
Q 1019 3113 1228 2906 
Q 1438 2700 1772 2700 
Q 2097 2700 2305 2904 
Q 2513 3109 2513 3406 
Q 2513 3716 2298 3927 
Q 2084 4138 1766 4138 
Q 1444 4138 1231 3931 
Q 1019 3725 1019 3438 
z
M 838 1322 
Q 838 1081 952 856 
Q 1066 631 1291 507 
Q 1516 384 1775 384 
Q 2178 384 2440 643 
Q 2703 903 2703 1303 
Q 2703 1709 2433 1975 
Q 2163 2241 1756 2241 
Q 1359 2241 1098 1978 
Q 838 1716 838 1322 
z
" transform="scale(0.015625)"/>
      <path id="ArialMT-35" d="M 266 1200 
L 856 1250 
Q 922 819 1161 601 
Q 1400 384 1738 384 
Q 2144 384 2425 690 
Q 2706 997 2706 1503 
Q 2706 1984 2436 2262 
Q 2166 2541 1728 2541 
Q 1456 2541 1237 2417 
Q 1019 2294 894 2097 
L 366 2166 
L 809 4519 
L 3088 4519 
L 3088 3981 
L 1259 3981 
L 1013 2750 
Q 1425 3038 1878 3038 
Q 2478 3038 2890 2622 
Q 3303 2206 3303 1553 
Q 3303 931 2941 478 
Q 2500 -78 1738 -78 
Q 1113 -78 717 272 
Q 322 622 266 1200 
z
" transform="scale(0.015625)"/>
     </defs>
     <use xlink:href="#ArialMT-73"/>
     <use xlink:href="#ArialMT-6c" x="50"/>
     <use xlink:href="#ArialMT-6f" x="72.216797"/>
     <use xlink:href="#ArialMT-70" x="127.832031"/>
     <use xlink:href="#ArialMT-65" x="183.447266"/>
     <use xlink:href="#ArialMT-20" x="239.0625"/>
     <use xlink:href="#ArialMT-3d" x="266.845703"/>
     <use xlink:href="#ArialMT-20" x="325.244141"/>
     <use xlink:href="#ArialMT-31" x="353.027344"/>
     <use xlink:href="#ArialMT-30" x="408.642578"/>
     <use xlink:href="#ArialMT-34" x="464.257812"/>
     <use xlink:href="#ArialMT-2e" x="519.873047"/>
     <use xlink:href="#ArialMT-33" x="547.65625"/>
     <use xlink:href="#ArialMT-38" x="603.271484"/>
     <use xlink:href="#ArialMT-36" x="658.886719"/>
     <use xlink:href="#ArialMT-35" x="714.501953"/>
     <use xlink:href="#ArialMT-20" x="770.117188"/>
     <use xlink:href="#ArialMT-28" x="797.900391"/>
     <use xlink:href="#ArialMT-73" x="831.201172"/>
     <use xlink:href="#ArialMT-65" x="881.201172"/>
     <use xlink:href="#ArialMT-3d" x="936.816406"/>
     <use xlink:href="#ArialMT-32" x="995.214844"/>
     <use xlink:href="#ArialMT-38" x="1050.830078"/>
     <use xlink:href="#ArialMT-2e" x="1106.445312"/>
     <use xlink:href="#ArialMT-33" x="1134.228516"/>
     <use xlink:href="#ArialMT-30" x="1189.84375"/>
     <use xlink:href="#ArialMT-30" x="1245.458984"/>
     <use xlink:href="#ArialMT-29" x="1301.074219"/>
    </g>
    <!-- p = 9.62e-04 -->
    <g style="fill: #262626" transform="translate(490.822925 359.903187) scale(0.1 -0.1)">
     <defs>
      <path id="ArialMT-39" d="M 350 1059 
L 891 1109 
Q 959 728 1153 556 
Q 1347 384 1650 384 
Q 1909 384 2104 503 
Q 2300 622 2425 820 
Q 2550 1019 2634 1356 
Q 2719 1694 2719 2044 
Q 2719 2081 2716 2156 
Q 2547 1888 2255 1720 
Q 1963 1553 1622 1553 
Q 1053 1553 659 1965 
Q 266 2378 266 3053 
Q 266 3750 677 4175 
Q 1088 4600 1706 4600 
Q 2153 4600 2523 4359 
Q 2894 4119 3086 3673 
Q 3278 3228 3278 2384 
Q 3278 1506 3087 986 
Q 2897 466 2520 194 
Q 2144 -78 1638 -78 
Q 1100 -78 759 220 
Q 419 519 350 1059 
z
M 2653 3081 
Q 2653 3566 2395 3850 
Q 2138 4134 1775 4134 
Q 1400 4134 1122 3828 
Q 844 3522 844 3034 
Q 844 2597 1108 2323 
Q 1372 2050 1759 2050 
Q 2150 2050 2401 2323 
Q 2653 2597 2653 3081 
z
" transform="scale(0.015625)"/>
      <path id="ArialMT-2d" d="M 203 1375 
L 203 1941 
L 1931 1941 
L 1931 1375 
L 203 1375 
z
" transform="scale(0.015625)"/>
     </defs>
     <use xlink:href="#ArialMT-70"/>
     <use xlink:href="#ArialMT-20" x="55.615234"/>
     <use xlink:href="#ArialMT-3d" x="83.398438"/>
     <use xlink:href="#ArialMT-20" x="141.796875"/>
     <use xlink:href="#ArialMT-39" x="169.580078"/>
     <use xlink:href="#ArialMT-2e" x="225.195312"/>
     <use xlink:href="#ArialMT-36" x="252.978516"/>
     <use xlink:href="#ArialMT-32" x="308.59375"/>
     <use xlink:href="#ArialMT-65" x="364.208984"/>
     <use xlink:href="#ArialMT-2d" x="419.824219"/>
     <use xlink:href="#ArialMT-30" x="453.125"/>
     <use xlink:href="#ArialMT-34" x="508.740234"/>
    </g>
    <!-- R² = 0.327 -->
    <g style="fill: #262626" transform="translate(500.283862 370.480062) scale(0.1 -0.1)">
     <defs>
      <path id="ArialMT-52" d="M 503 0 
L 503 4581 
L 2534 4581 
Q 3147 4581 3465 4457 
Q 3784 4334 3975 4021 
Q 4166 3709 4166 3331 
Q 4166 2844 3850 2509 
Q 3534 2175 2875 2084 
Q 3116 1969 3241 1856 
Q 3506 1613 3744 1247 
L 4541 0 
L 3778 0 
L 3172 953 
Q 2906 1366 2734 1584 
Q 2563 1803 2427 1890 
Q 2291 1978 2150 2013 
Q 2047 2034 1813 2034 
L 1109 2034 
L 1109 0 
L 503 0 
z
M 1109 2559 
L 2413 2559 
Q 2828 2559 3062 2645 
Q 3297 2731 3419 2920 
Q 3541 3109 3541 3331 
Q 3541 3656 3305 3865 
Q 3069 4075 2559 4075 
L 1109 4075 
L 1109 2559 
z
" transform="scale(0.015625)"/>
      <path id="ArialMT-b2" d="M 78 2291 
Q 97 2469 225 2647 
Q 422 2916 872 3242 
Q 1322 3569 1406 3663 
Q 1522 3791 1522 3925 
Q 1522 4075 1412 4172 
Q 1303 4269 1091 4269 
Q 884 4269 782 4195 
Q 681 4122 616 3913 
L 144 3963 
Q 234 4309 457 4473 
Q 681 4638 1100 4638 
Q 1572 4638 1792 4453 
Q 2013 4269 2013 4003 
Q 2013 3741 1828 3506 
Q 1688 3331 1188 2972 
Q 928 2781 819 2669 
L 2025 2669 
L 2025 2291 
L 78 2291 
z
" transform="scale(0.015625)"/>
      <path id="ArialMT-37" d="M 303 3981 
L 303 4522 
L 3269 4522 
L 3269 4084 
Q 2831 3619 2401 2847 
Q 1972 2075 1738 1259 
Q 1569 684 1522 0 
L 944 0 
Q 953 541 1156 1306 
Q 1359 2072 1739 2783 
Q 2119 3494 2547 3981 
L 303 3981 
z
" transform="scale(0.015625)"/>
     </defs>
     <use xlink:href="#ArialMT-52"/>
     <use xlink:href="#ArialMT-b2" x="72.216797"/>
     <use xlink:href="#ArialMT-20" x="105.517578"/>
     <use xlink:href="#ArialMT-3d" x="133.300781"/>
     <use xlink:href="#ArialMT-20" x="191.699219"/>
     <use xlink:href="#ArialMT-30" x="219.482422"/>
     <use xlink:href="#ArialMT-2e" x="275.097656"/>
     <use xlink:href="#ArialMT-33" x="302.880859"/>
     <use xlink:href="#ArialMT-32" x="358.496094"/>
     <use xlink:href="#ArialMT-37" x="414.111328"/>
    </g>
   </g>
   <g id="text_20">
    <!-- Added-variable (Partial regression) plot — gov_index_zmean -->
    <g style="fill: #262626" transform="translate(125.962969 17.391562) scale(0.14 -0.14)">
     <defs>
      <path id="ArialMT-41" d="M -9 0 
L 1750 4581 
L 2403 4581 
L 4278 0 
L 3588 0 
L 3053 1388 
L 1138 1388 
L 634 0 
L -9 0 
z
M 1313 1881 
L 2866 1881 
L 2388 3150 
Q 2169 3728 2063 4100 
Q 1975 3659 1816 3225 
L 1313 1881 
z
" transform="scale(0.015625)"/>
      <path id="ArialMT-76" d="M 1344 0 
L 81 3319 
L 675 3319 
L 1388 1331 
Q 1503 1009 1600 663 
Q 1675 925 1809 1294 
L 2547 3319 
L 3125 3319 
L 1869 0 
L 1344 0 
z
" transform="scale(0.015625)"/>
      <path id="ArialMT-62" d="M 941 0 
L 419 0 
L 419 4581 
L 981 4581 
L 981 2947 
Q 1338 3394 1891 3394 
Q 2197 3394 2470 3270 
Q 2744 3147 2920 2923 
Q 3097 2700 3197 2384 
Q 3297 2069 3297 1709 
Q 3297 856 2875 390 
Q 2453 -75 1863 -75 
Q 1275 -75 941 416 
L 941 0 
z
M 934 1684 
Q 934 1088 1097 822 
Q 1363 388 1816 388 
Q 2184 388 2453 708 
Q 2722 1028 2722 1663 
Q 2722 2313 2464 2622 
Q 2206 2931 1841 2931 
Q 1472 2931 1203 2611 
Q 934 2291 934 1684 
z
" transform="scale(0.015625)"/>
      <path id="ArialMT-5f" d="M -97 -1272 
L -97 -866 
L 3631 -866 
L 3631 -1272 
L -97 -1272 
z
" transform="scale(0.015625)"/>
      <path id="ArialMT-78" d="M 47 0 
L 1259 1725 
L 138 3319 
L 841 3319 
L 1350 2541 
Q 1494 2319 1581 2169 
Q 1719 2375 1834 2534 
L 2394 3319 
L 3066 3319 
L 1919 1756 
L 3153 0 
L 2463 0 
L 1781 1031 
L 1600 1309 
L 728 0 
L 47 0 
z
" transform="scale(0.015625)"/>
      <path id="ArialMT-6d" d="M 422 0 
L 422 3319 
L 925 3319 
L 925 2853 
Q 1081 3097 1340 3245 
Q 1600 3394 1931 3394 
Q 2300 3394 2536 3241 
Q 2772 3088 2869 2813 
Q 3263 3394 3894 3394 
Q 4388 3394 4653 3120 
Q 4919 2847 4919 2278 
L 4919 0 
L 4359 0 
L 4359 2091 
Q 4359 2428 4304 2576 
Q 4250 2725 4106 2815 
Q 3963 2906 3769 2906 
Q 3419 2906 3187 2673 
Q 2956 2441 2956 1928 
L 2956 0 
L 2394 0 
L 2394 2156 
Q 2394 2531 2256 2718 
Q 2119 2906 1806 2906 
Q 1569 2906 1367 2781 
Q 1166 2656 1075 2415 
Q 984 2175 984 1722 
L 984 0 
L 422 0 
z
" transform="scale(0.015625)"/>
     </defs>
     <use xlink:href="#ArialMT-41"/>
     <use xlink:href="#ArialMT-64" x="66.699219"/>
     <use xlink:href="#ArialMT-64" x="122.314453"/>
     <use xlink:href="#ArialMT-65" x="177.929688"/>
     <use xlink:href="#ArialMT-64" x="233.544922"/>
     <use xlink:href="#ArialMT-2d" x="289.160156"/>
     <use xlink:href="#ArialMT-76" x="322.460938"/>
     <use xlink:href="#ArialMT-61" x="372.460938"/>
     <use xlink:href="#ArialMT-72" x="428.076172"/>
     <use xlink:href="#ArialMT-69" x="461.376953"/>
     <use xlink:href="#ArialMT-61" x="483.59375"/>
     <use xlink:href="#ArialMT-62" x="539.208984"/>
     <use xlink:href="#ArialMT-6c" x="594.824219"/>
     <use xlink:href="#ArialMT-65" x="617.041016"/>
     <use xlink:href="#ArialMT-20" x="672.65625"/>
     <use xlink:href="#ArialMT-28" x="700.439453"/>
     <use xlink:href="#ArialMT-50" x="733.740234"/>
     <use xlink:href="#ArialMT-61" x="800.439453"/>
     <use xlink:href="#ArialMT-72" x="856.054688"/>
     <use xlink:href="#ArialMT-74" x="889.355469"/>
     <use xlink:href="#ArialMT-69" x="917.138672"/>
     <use xlink:href="#ArialMT-61" x="939.355469"/>
     <use xlink:href="#ArialMT-6c" x="994.970703"/>
     <use xlink:href="#ArialMT-20" x="1017.1875"/>
     <use xlink:href="#ArialMT-72" x="1044.970703"/>
     <use xlink:href="#ArialMT-65" x="1078.271484"/>
     <use xlink:href="#ArialMT-67" x="1133.886719"/>
     <use xlink:href="#ArialMT-72" x="1189.501953"/>
     <use xlink:href="#ArialMT-65" x="1222.802734"/>
     <use xlink:href="#ArialMT-73" x="1278.417969"/>
     <use xlink:href="#ArialMT-73" x="1328.417969"/>
     <use xlink:href="#ArialMT-69" x="1378.417969"/>
     <use xlink:href="#ArialMT-6f" x="1400.634766"/>
     <use xlink:href="#ArialMT-6e" x="1456.25"/>
     <use xlink:href="#ArialMT-29" x="1511.865234"/>
     <use xlink:href="#ArialMT-20" x="1545.166016"/>
     <use xlink:href="#ArialMT-70" x="1572.949219"/>
     <use xlink:href="#ArialMT-6c" x="1628.564453"/>
     <use xlink:href="#ArialMT-6f" x="1650.78125"/>
     <use xlink:href="#ArialMT-74" x="1706.396484"/>
     <use xlink:href="#ArialMT-20" x="1734.179688"/>
     <use xlink:href="#ArialMT-2014" x="1761.962891"/>
     <use xlink:href="#ArialMT-20" x="1861.962891"/>
     <use xlink:href="#ArialMT-67" x="1889.746094"/>
     <use xlink:href="#ArialMT-6f" x="1945.361328"/>
     <use xlink:href="#ArialMT-76" x="2000.976562"/>
     <use xlink:href="#ArialMT-5f" x="2050.976562"/>
     <use xlink:href="#ArialMT-69" x="2106.591797"/>
     <use xlink:href="#ArialMT-6e" x="2128.808594"/>
     <use xlink:href="#ArialMT-64" x="2184.423828"/>
     <use xlink:href="#ArialMT-65" x="2240.039062"/>
     <use xlink:href="#ArialMT-78" x="2295.654297"/>
     <use xlink:href="#ArialMT-5f" x="2345.654297"/>
     <use xlink:href="#ArialMT-7a" x="2401.269531"/>
     <use xlink:href="#ArialMT-6d" x="2451.269531"/>
     <use xlink:href="#ArialMT-65" x="2534.570312"/>
     <use xlink:href="#ArialMT-61" x="2590.185547"/>
     <use xlink:href="#ArialMT-6e" x="2645.800781"/>
    </g>
   </g>
   <g id="legend_1">
    <g id="line2d_19">
     <path d="M 83.969375 38.580937 
L 95.969375 38.580937 
L 107.969375 38.580937 
" style="fill: none; stroke: #1f77b4; stroke-width: 2; stroke-linecap: round"/>
    </g>
    <g id="text_21">
     <!-- OLS fit -->
     <g style="fill: #262626" transform="translate(117.569375 42.780937) scale(0.12 -0.12)">
      <defs>
       <path id="ArialMT-4f" d="M 309 2231 
Q 309 3372 921 4017 
Q 1534 4663 2503 4663 
Q 3138 4663 3647 4359 
Q 4156 4056 4423 3514 
Q 4691 2972 4691 2284 
Q 4691 1588 4409 1038 
Q 4128 488 3612 205 
Q 3097 -78 2500 -78 
Q 1853 -78 1343 234 
Q 834 547 571 1087 
Q 309 1628 309 2231 
z
M 934 2222 
Q 934 1394 1379 917 
Q 1825 441 2497 441 
Q 3181 441 3623 922 
Q 4066 1403 4066 2288 
Q 4066 2847 3877 3264 
Q 3688 3681 3323 3911 
Q 2959 4141 2506 4141 
Q 1863 4141 1398 3698 
Q 934 3256 934 2222 
z
" transform="scale(0.015625)"/>
       <path id="ArialMT-4c" d="M 469 0 
L 469 4581 
L 1075 4581 
L 1075 541 
L 3331 541 
L 3331 0 
L 469 0 
z
" transform="scale(0.015625)"/>
       <path id="ArialMT-53" d="M 288 1472 
L 859 1522 
Q 900 1178 1048 958 
Q 1197 738 1509 602 
Q 1822 466 2213 466 
Q 2559 466 2825 569 
Q 3091 672 3220 851 
Q 3350 1031 3350 1244 
Q 3350 1459 3225 1620 
Q 3100 1781 2813 1891 
Q 2628 1963 1997 2114 
Q 1366 2266 1113 2400 
Q 784 2572 623 2826 
Q 463 3081 463 3397 
Q 463 3744 659 4045 
Q 856 4347 1234 4503 
Q 1613 4659 2075 4659 
Q 2584 4659 2973 4495 
Q 3363 4331 3572 4012 
Q 3781 3694 3797 3291 
L 3216 3247 
Q 3169 3681 2898 3903 
Q 2628 4125 2100 4125 
Q 1550 4125 1298 3923 
Q 1047 3722 1047 3438 
Q 1047 3191 1225 3031 
Q 1400 2872 2139 2705 
Q 2878 2538 3153 2413 
Q 3553 2228 3743 1945 
Q 3934 1663 3934 1294 
Q 3934 928 3725 604 
Q 3516 281 3123 101 
Q 2731 -78 2241 -78 
Q 1619 -78 1198 103 
Q 778 284 539 648 
Q 300 1013 288 1472 
z
" transform="scale(0.015625)"/>
       <path id="ArialMT-66" d="M 556 0 
L 556 2881 
L 59 2881 
L 59 3319 
L 556 3319 
L 556 3672 
Q 556 4006 616 4169 
Q 697 4388 901 4523 
Q 1106 4659 1475 4659 
Q 1713 4659 2000 4603 
L 1916 4113 
Q 1741 4144 1584 4144 
Q 1328 4144 1222 4034 
Q 1116 3925 1116 3625 
L 1116 3319 
L 1763 3319 
L 1763 2881 
L 1116 2881 
L 1116 0 
L 556 0 
z
" transform="scale(0.015625)"/>
      </defs>
      <use xlink:href="#ArialMT-4f"/>
      <use xlink:href="#ArialMT-4c" x="77.783203"/>
      <use xlink:href="#ArialMT-53" x="133.398438"/>
      <use xlink:href="#ArialMT-20" x="200.097656"/>
      <use xlink:href="#ArialMT-66" x="227.880859"/>
      <use xlink:href="#ArialMT-69" x="255.664062"/>
      <use xlink:href="#ArialMT-74" x="277.880859"/>
     </g>
    </g>
    <g id="line2d_20">
     <path d="M 83.969375 55.555312 
L 95.969375 55.555312 
L 107.969375 55.555312 
" style="fill: none; stroke-dasharray: 6.66,2.88; stroke-dashoffset: 0; stroke: #ff7f0e; stroke-width: 1.8"/>
    </g>
    <g id="text_22">
     <!-- LOWESS -->
     <g style="fill: #262626" transform="translate(117.569375 59.755312) scale(0.12 -0.12)">
      <defs>
       <path id="ArialMT-57" d="M 1294 0 
L 78 4581 
L 700 4581 
L 1397 1578 
Q 1509 1106 1591 641 
Q 1766 1375 1797 1488 
L 2669 4581 
L 3400 4581 
L 4056 2263 
Q 4303 1400 4413 641 
Q 4500 1075 4641 1638 
L 5359 4581 
L 5969 4581 
L 4713 0 
L 4128 0 
L 3163 3491 
Q 3041 3928 3019 4028 
Q 2947 3713 2884 3491 
L 1913 0 
L 1294 0 
z
" transform="scale(0.015625)"/>
       <path id="ArialMT-45" d="M 506 0 
L 506 4581 
L 3819 4581 
L 3819 4041 
L 1113 4041 
L 1113 2638 
L 3647 2638 
L 3647 2100 
L 1113 2100 
L 1113 541 
L 3925 541 
L 3925 0 
L 506 0 
z
" transform="scale(0.015625)"/>
      </defs>
      <use xlink:href="#ArialMT-4c"/>
      <use xlink:href="#ArialMT-4f" x="55.615234"/>
      <use xlink:href="#ArialMT-57" x="133.398438"/>
      <use xlink:href="#ArialMT-45" x="227.783203"/>
      <use xlink:href="#ArialMT-53" x="294.482422"/>
      <use xlink:href="#ArialMT-53" x="361.181641"/>
     </g>
    </g>
   </g>
  </g>
 </g>
 <defs>
  <clipPath id="p1b36836c5e">
   <rect x="73.169375" y="23.391562" width="483.76" height="356.2"/>
  </clipPath>
 </defs>
</svg>
