<?xml version="1.0" encoding="utf-8" standalone="no"?>
<!DOCTYPE svg PUBLIC "-//W3C//DTD SVG 1.1//EN"
  "http://www.w3.org/Graphics/SVG/1.1/DTD/svg11.dtd">
<svg xmlns:xlink="http://www.w3.org/1999/xlink" width="564.223125pt" height="420.027187pt" viewBox="0 0 564.223125 420.027187" xmlns="http://www.w3.org/2000/svg" version="1.1">
 <metadata>
  <rdf:RDF xmlns:dc="http://purl.org/dc/elements/1.1/" xmlns:cc="http://creativecommons.org/ns#" xmlns:rdf="http://www.w3.org/1999/02/22-rdf-syntax-ns#">
   <cc:Work>
    <dc:type rdf:resource="http://purl.org/dc/dcmitype/StillImage"/>
    <dc:date>2025-11-16T23:30:59.240701</dc:date>
    <dc:format>image/svg+xml</dc:format>
    <dc:creator>
     <cc:Agent>
      <dc:title>Matplotlib v3.9.2, https://matplotlib.org/</dc:title>
     </cc:Agent>
    </dc:creator>
   </cc:Work>
  </rdf:RDF>
 </metadata>
 <defs>
  <style type="text/css">*{stroke-linejoin: round; stroke-linecap: butt}</style>
 </defs>
 <g id="figure_1">
  <g id="patch_1">
   <path d="M 0 420.027187 
L 564.223125 420.027187 
L 564.223125 0 
L 0 0 
z
" style="fill: #ffffff"/>
  </g>
  <g id="axes_1">
   <g id="patch_2">
    <path d="M 43.143125 379.591562 
L 557.023125 379.591562 
L 557.023125 23.391562 
L 43.143125 23.391562 
z
" style="fill: #ffffff"/>
   </g>
   <g id="line2d_1">
    <path d="M 86.948365 379.591562 
L 86.948365 23.391562 
" clip-path="url(#p6fc66c7677)" style="fill: none; stroke-dasharray: 5.55,2.4; stroke-dashoffset: 0; stroke: #999999; stroke-width: 1.5"/>
   </g>
   <g id="matplotlib.axis_1">
    <g id="xtick_1">
     <g id="line2d_2">
      <path d="M 86.948365 379.591562 
L 86.948365 23.391562 
" clip-path="url(#p6fc66c7677)" style="fill: none; stroke: #cccccc; stroke-width: 0.8; stroke-linecap: round"/>
     </g>
     <g id="text_1">
      <!-- 0 -->
      <g style="fill: #262626" transform="translate(83.611802 395.180937) scale(0.12 -0.12)">
       <defs>
        <path id="ArialMT-30" d="M 266 2259 
Q 266 3072 433 3567 
Q 600 4063 929 4331 
Q 1259 4600 1759 4600 
Q 2128 4600 2406 4451 
Q 2684 4303 2865 4023 
Q 3047 3744 3150 3342 
Q 3253 2941 3253 2259 
Q 3253 1453 3087 958 
Q 2922 463 2592 192 
Q 2263 -78 1759 -78 
Q 1097 -78 719 397 
Q 266 969 266 2259 
z
M 844 2259 
Q 844 1131 1108 757 
Q 1372 384 1759 384 
Q 2147 384 2411 759 
Q 2675 1134 2675 2259 
Q 2675 3391 2411 3762 
Q 2147 4134 1753 4134 
Q 1366 4134 1134 3806 
Q 844 3388 844 2259 
z
" transform="scale(0.015625)"/>
       </defs>
       <use xlink:href="#ArialMT-30"/>
      </g>
     </g>
    </g>
    <g id="xtick_2">
     <g id="line2d_3">
      <path d="M 163.149146 379.591562 
L 163.149146 23.391562 
" clip-path="url(#p6fc66c7677)" style="fill: none; stroke: #cccccc; stroke-width: 0.8; stroke-linecap: round"/>
     </g>
     <g id="text_2">
      <!-- 1 -->
      <g style="fill: #262626" transform="translate(159.812583 395.180937) scale(0.12 -0.12)">
       <defs>
        <path id="ArialMT-31" d="M 2384 0 
L 1822 0 
L 1822 3584 
Q 1619 3391 1289 3197 
Q 959 3003 697 2906 
L 697 3450 
Q 1169 3672 1522 3987 
Q 1875 4303 2022 4600 
L 2384 4600 
L 2384 0 
z
" transform="scale(0.015625)"/>
       </defs>
       <use xlink:href="#ArialMT-31"/>
      </g>
     </g>
    </g>
    <g id="xtick_3">
     <g id="line2d_4">
      <path d="M 239.349927 379.591562 
L 239.349927 23.391562 
" clip-path="url(#p6fc66c7677)" style="fill: none; stroke: #cccccc; stroke-width: 0.8; stroke-linecap: round"/>
     </g>
     <g id="text_3">
      <!-- 2 -->
      <g style="fill: #262626" transform="translate(236.013365 395.180937) scale(0.12 -0.12)">
       <defs>
        <path id="ArialMT-32" d="M 3222 541 
L 3222 0 
L 194 0 
Q 188 203 259 391 
Q 375 700 629 1000 
Q 884 1300 1366 1694 
Q 2113 2306 2375 2664 
Q 2638 3022 2638 3341 
Q 2638 3675 2398 3904 
Q 2159 4134 1775 4134 
Q 1369 4134 1125 3890 
Q 881 3647 878 3216 
L 300 3275 
Q 359 3922 746 4261 
Q 1134 4600 1788 4600 
Q 2447 4600 2831 4234 
Q 3216 3869 3216 3328 
Q 3216 3053 3103 2787 
Q 2991 2522 2730 2228 
Q 2469 1934 1863 1422 
Q 1356 997 1212 845 
Q 1069 694 975 541 
L 3222 541 
z
" transform="scale(0.015625)"/>
       </defs>
       <use xlink:href="#ArialMT-32"/>
      </g>
     </g>
    </g>
    <g id="xtick_4">
     <g id="line2d_5">
      <path d="M 315.550708 379.591562 
L 315.550708 23.391562 
" clip-path="url(#p6fc66c7677)" style="fill: none; stroke: #cccccc; stroke-width: 0.8; stroke-linecap: round"/>
     </g>
     <g id="text_4">
      <!-- 3 -->
      <g style="fill: #262626" transform="translate(312.214146 395.180937) scale(0.12 -0.12)">
       <defs>
        <path id="ArialMT-33" d="M 269 1209 
L 831 1284 
Q 928 806 1161 595 
Q 1394 384 1728 384 
Q 2125 384 2398 659 
Q 2672 934 2672 1341 
Q 2672 1728 2419 1979 
Q 2166 2231 1775 2231 
Q 1616 2231 1378 2169 
L 1441 2663 
Q 1497 2656 1531 2656 
Q 1891 2656 2178 2843 
Q 2466 3031 2466 3422 
Q 2466 3731 2256 3934 
Q 2047 4138 1716 4138 
Q 1388 4138 1169 3931 
Q 950 3725 888 3313 
L 325 3413 
Q 428 3978 793 4289 
Q 1159 4600 1703 4600 
Q 2078 4600 2393 4439 
Q 2709 4278 2876 4000 
Q 3044 3722 3044 3409 
Q 3044 3113 2884 2869 
Q 2725 2625 2413 2481 
Q 2819 2388 3044 2092 
Q 3269 1797 3269 1353 
Q 3269 753 2831 336 
Q 2394 -81 1725 -81 
Q 1122 -81 723 278 
Q 325 638 269 1209 
z
" transform="scale(0.015625)"/>
       </defs>
       <use xlink:href="#ArialMT-33"/>
      </g>
     </g>
    </g>
    <g id="xtick_5">
     <g id="line2d_6">
      <path d="M 391.751489 379.591562 
L 391.751489 23.391562 
" clip-path="url(#p6fc66c7677)" style="fill: none; stroke: #cccccc; stroke-width: 0.8; stroke-linecap: round"/>
     </g>
     <g id="text_5">
      <!-- 4 -->
      <g style="fill: #262626" transform="translate(388.414927 395.180937) scale(0.12 -0.12)">
       <defs>
        <path id="ArialMT-34" d="M 2069 0 
L 2069 1097 
L 81 1097 
L 81 1613 
L 2172 4581 
L 2631 4581 
L 2631 1613 
L 3250 1613 
L 3250 1097 
L 2631 1097 
L 2631 0 
L 2069 0 
z
M 2069 1613 
L 2069 3678 
L 634 1613 
L 2069 1613 
z
" transform="scale(0.015625)"/>
       </defs>
       <use xlink:href="#ArialMT-34"/>
      </g>
     </g>
    </g>
    <g id="xtick_6">
     <g id="line2d_7">
      <path d="M 467.952271 379.591562 
L 467.952271 23.391562 
" clip-path="url(#p6fc66c7677)" style="fill: none; stroke: #cccccc; stroke-width: 0.8; stroke-linecap: round"/>
     </g>
     <g id="text_6">
      <!-- 5 -->
      <g style="fill: #262626" transform="translate(464.615708 395.180937) scale(0.12 -0.12)">
       <defs>
        <path id="ArialMT-35" d="M 266 1200 
L 856 1250 
Q 922 819 1161 601 
Q 1400 384 1738 384 
Q 2144 384 2425 690 
Q 2706 997 2706 1503 
Q 2706 1984 2436 2262 
Q 2166 2541 1728 2541 
Q 1456 2541 1237 2417 
Q 1019 2294 894 2097 
L 366 2166 
L 809 4519 
L 3088 4519 
L 3088 3981 
L 1259 3981 
L 1013 2750 
Q 1425 3038 1878 3038 
Q 2478 3038 2890 2622 
Q 3303 2206 3303 1553 
Q 3303 931 2941 478 
Q 2500 -78 1738 -78 
Q 1113 -78 717 272 
Q 322 622 266 1200 
z
" transform="scale(0.015625)"/>
       </defs>
       <use xlink:href="#ArialMT-35"/>
      </g>
     </g>
    </g>
    <g id="xtick_7">
     <g id="line2d_8">
      <path d="M 544.153052 379.591562 
L 544.153052 23.391562 
" clip-path="url(#p6fc66c7677)" style="fill: none; stroke: #cccccc; stroke-width: 0.8; stroke-linecap: round"/>
     </g>
     <g id="text_7">
      <!-- 6 -->
      <g style="fill: #262626" transform="translate(540.816489 395.180937) scale(0.12 -0.12)">
       <defs>
        <path id="ArialMT-36" d="M 3184 3459 
L 2625 3416 
Q 2550 3747 2413 3897 
Q 2184 4138 1850 4138 
Q 1581 4138 1378 3988 
Q 1113 3794 959 3422 
Q 806 3050 800 2363 
Q 1003 2672 1297 2822 
Q 1591 2972 1913 2972 
Q 2475 2972 2870 2558 
Q 3266 2144 3266 1488 
Q 3266 1056 3080 686 
Q 2894 316 2569 119 
Q 2244 -78 1831 -78 
Q 1128 -78 684 439 
Q 241 956 241 2144 
Q 241 3472 731 4075 
Q 1159 4600 1884 4600 
Q 2425 4600 2770 4297 
Q 3116 3994 3184 3459 
z
M 888 1484 
Q 888 1194 1011 928 
Q 1134 663 1356 523 
Q 1578 384 1822 384 
Q 2178 384 2434 671 
Q 2691 959 2691 1453 
Q 2691 1928 2437 2201 
Q 2184 2475 1800 2475 
Q 1419 2475 1153 2201 
Q 888 1928 888 1484 
z
" transform="scale(0.015625)"/>
       </defs>
       <use xlink:href="#ArialMT-36"/>
      </g>
     </g>
    </g>
    <g id="text_8">
     <!-- Predictor (partialed) — residualized -->
     <g style="fill: #262626" transform="translate(206.049062 410.301562) scale(0.12 -0.12)">
      <defs>
       <path id="ArialMT-50" d="M 494 0 
L 494 4581 
L 2222 4581 
Q 2678 4581 2919 4538 
Q 3256 4481 3484 4323 
Q 3713 4166 3852 3881 
Q 3991 3597 3991 3256 
Q 3991 2672 3619 2267 
Q 3247 1863 2275 1863 
L 1100 1863 
L 1100 0 
L 494 0 
z
M 1100 2403 
L 2284 2403 
Q 2872 2403 3119 2622 
Q 3366 2841 3366 3238 
Q 3366 3525 3220 3729 
Q 3075 3934 2838 4000 
Q 2684 4041 2272 4041 
L 1100 4041 
L 1100 2403 
z
" transform="scale(0.015625)"/>
       <path id="ArialMT-72" d="M 416 0 
L 416 3319 
L 922 3319 
L 922 2816 
Q 1116 3169 1280 3281 
Q 1444 3394 1641 3394 
Q 1925 3394 2219 3213 
L 2025 2691 
Q 1819 2813 1613 2813 
Q 1428 2813 1281 2702 
Q 1134 2591 1072 2394 
Q 978 2094 978 1738 
L 978 0 
L 416 0 
z
" transform="scale(0.015625)"/>
       <path id="ArialMT-65" d="M 2694 1069 
L 3275 997 
Q 3138 488 2766 206 
Q 2394 -75 1816 -75 
Q 1088 -75 661 373 
Q 234 822 234 1631 
Q 234 2469 665 2931 
Q 1097 3394 1784 3394 
Q 2450 3394 2872 2941 
Q 3294 2488 3294 1666 
Q 3294 1616 3291 1516 
L 816 1516 
Q 847 969 1125 678 
Q 1403 388 1819 388 
Q 2128 388 2347 550 
Q 2566 713 2694 1069 
z
M 847 1978 
L 2700 1978 
Q 2663 2397 2488 2606 
Q 2219 2931 1791 2931 
Q 1403 2931 1139 2672 
Q 875 2413 847 1978 
z
" transform="scale(0.015625)"/>
       <path id="ArialMT-64" d="M 2575 0 
L 2575 419 
Q 2259 -75 1647 -75 
Q 1250 -75 917 144 
Q 584 363 401 755 
Q 219 1147 219 1656 
Q 219 2153 384 2558 
Q 550 2963 881 3178 
Q 1213 3394 1622 3394 
Q 1922 3394 2156 3267 
Q 2391 3141 2538 2938 
L 2538 4581 
L 3097 4581 
L 3097 0 
L 2575 0 
z
M 797 1656 
Q 797 1019 1065 703 
Q 1334 388 1700 388 
Q 2069 388 2326 689 
Q 2584 991 2584 1609 
Q 2584 2291 2321 2609 
Q 2059 2928 1675 2928 
Q 1300 2928 1048 2622 
Q 797 2316 797 1656 
z
" transform="scale(0.015625)"/>
       <path id="ArialMT-69" d="M 425 3934 
L 425 4581 
L 988 4581 
L 988 3934 
L 425 3934 
z
M 425 0 
L 425 3319 
L 988 3319 
L 988 0 
L 425 0 
z
" transform="scale(0.015625)"/>
       <path id="ArialMT-63" d="M 2588 1216 
L 3141 1144 
Q 3050 572 2676 248 
Q 2303 -75 1759 -75 
Q 1078 -75 664 370 
Q 250 816 250 1647 
Q 250 2184 428 2587 
Q 606 2991 970 3192 
Q 1334 3394 1763 3394 
Q 2303 3394 2647 3120 
Q 2991 2847 3088 2344 
L 2541 2259 
Q 2463 2594 2264 2762 
Q 2066 2931 1784 2931 
Q 1359 2931 1093 2626 
Q 828 2322 828 1663 
Q 828 994 1084 691 
Q 1341 388 1753 388 
Q 2084 388 2306 591 
Q 2528 794 2588 1216 
z
" transform="scale(0.015625)"/>
       <path id="ArialMT-74" d="M 1650 503 
L 1731 6 
Q 1494 -44 1306 -44 
Q 1000 -44 831 53 
Q 663 150 594 308 
Q 525 466 525 972 
L 525 2881 
L 113 2881 
L 113 3319 
L 525 3319 
L 525 4141 
L 1084 4478 
L 1084 3319 
L 1650 3319 
L 1650 2881 
L 1084 2881 
L 1084 941 
Q 1084 700 1114 631 
Q 1144 563 1211 522 
Q 1278 481 1403 481 
Q 1497 481 1650 503 
z
" transform="scale(0.015625)"/>
       <path id="ArialMT-6f" d="M 213 1659 
Q 213 2581 725 3025 
Q 1153 3394 1769 3394 
Q 2453 3394 2887 2945 
Q 3322 2497 3322 1706 
Q 3322 1066 3130 698 
Q 2938 331 2570 128 
Q 2203 -75 1769 -75 
Q 1072 -75 642 372 
Q 213 819 213 1659 
z
M 791 1659 
Q 791 1022 1069 705 
Q 1347 388 1769 388 
Q 2188 388 2466 706 
Q 2744 1025 2744 1678 
Q 2744 2294 2464 2611 
Q 2184 2928 1769 2928 
Q 1347 2928 1069 2612 
Q 791 2297 791 1659 
z
" transform="scale(0.015625)"/>
       <path id="ArialMT-20" transform="scale(0.015625)"/>
       <path id="ArialMT-28" d="M 1497 -1347 
Q 1031 -759 709 28 
Q 388 816 388 1659 
Q 388 2403 628 3084 
Q 909 3875 1497 4659 
L 1900 4659 
Q 1522 4009 1400 3731 
Q 1209 3300 1100 2831 
Q 966 2247 966 1656 
Q 966 153 1900 -1347 
L 1497 -1347 
z
" transform="scale(0.015625)"/>
       <path id="ArialMT-70" d="M 422 -1272 
L 422 3319 
L 934 3319 
L 934 2888 
Q 1116 3141 1344 3267 
Q 1572 3394 1897 3394 
Q 2322 3394 2647 3175 
Q 2972 2956 3137 2557 
Q 3303 2159 3303 1684 
Q 3303 1175 3120 767 
Q 2938 359 2589 142 
Q 2241 -75 1856 -75 
Q 1575 -75 1351 44 
Q 1128 163 984 344 
L 984 -1272 
L 422 -1272 
z
M 931 1641 
Q 931 1000 1190 694 
Q 1450 388 1819 388 
Q 2194 388 2461 705 
Q 2728 1022 2728 1688 
Q 2728 2322 2467 2637 
Q 2206 2953 1844 2953 
Q 1484 2953 1207 2617 
Q 931 2281 931 1641 
z
" transform="scale(0.015625)"/>
       <path id="ArialMT-61" d="M 2588 409 
Q 2275 144 1986 34 
Q 1697 -75 1366 -75 
Q 819 -75 525 192 
Q 231 459 231 875 
Q 231 1119 342 1320 
Q 453 1522 633 1644 
Q 813 1766 1038 1828 
Q 1203 1872 1538 1913 
Q 2219 1994 2541 2106 
Q 2544 2222 2544 2253 
Q 2544 2597 2384 2738 
Q 2169 2928 1744 2928 
Q 1347 2928 1158 2789 
Q 969 2650 878 2297 
L 328 2372 
Q 403 2725 575 2942 
Q 747 3159 1072 3276 
Q 1397 3394 1825 3394 
Q 2250 3394 2515 3294 
Q 2781 3194 2906 3042 
Q 3031 2891 3081 2659 
Q 3109 2516 3109 2141 
L 3109 1391 
Q 3109 606 3145 398 
Q 3181 191 3288 0 
L 2700 0 
Q 2613 175 2588 409 
z
M 2541 1666 
Q 2234 1541 1622 1453 
Q 1275 1403 1131 1340 
Q 988 1278 909 1158 
Q 831 1038 831 891 
Q 831 666 1001 516 
Q 1172 366 1500 366 
Q 1825 366 2078 508 
Q 2331 650 2450 897 
Q 2541 1088 2541 1459 
L 2541 1666 
z
" transform="scale(0.015625)"/>
       <path id="ArialMT-6c" d="M 409 0 
L 409 4581 
L 972 4581 
L 972 0 
L 409 0 
z
" transform="scale(0.015625)"/>
       <path id="ArialMT-29" d="M 791 -1347 
L 388 -1347 
Q 1322 153 1322 1656 
Q 1322 2244 1188 2822 
Q 1081 3291 891 3722 
Q 769 4003 388 4659 
L 791 4659 
Q 1378 3875 1659 3084 
Q 1900 2403 1900 1659 
Q 1900 816 1576 28 
Q 1253 -759 791 -1347 
z
" transform="scale(0.015625)"/>
       <path id="ArialMT-2014" d="M 0 1431 
L 0 1884 
L 6400 1884 
L 6400 1431 
L 0 1431 
z
" transform="scale(0.015625)"/>
       <path id="ArialMT-73" d="M 197 991 
L 753 1078 
Q 800 744 1014 566 
Q 1228 388 1613 388 
Q 2000 388 2187 545 
Q 2375 703 2375 916 
Q 2375 1106 2209 1216 
Q 2094 1291 1634 1406 
Q 1016 1563 777 1677 
Q 538 1791 414 1992 
Q 291 2194 291 2438 
Q 291 2659 392 2848 
Q 494 3038 669 3163 
Q 800 3259 1026 3326 
Q 1253 3394 1513 3394 
Q 1903 3394 2198 3281 
Q 2494 3169 2634 2976 
Q 2775 2784 2828 2463 
L 2278 2388 
Q 2241 2644 2061 2787 
Q 1881 2931 1553 2931 
Q 1166 2931 1000 2803 
Q 834 2675 834 2503 
Q 834 2394 903 2306 
Q 972 2216 1119 2156 
Q 1203 2125 1616 2013 
Q 2213 1853 2448 1751 
Q 2684 1650 2818 1456 
Q 2953 1263 2953 975 
Q 2953 694 2789 445 
Q 2625 197 2315 61 
Q 2006 -75 1616 -75 
Q 969 -75 630 194 
Q 291 463 197 991 
z
" transform="scale(0.015625)"/>
       <path id="ArialMT-75" d="M 2597 0 
L 2597 488 
Q 2209 -75 1544 -75 
Q 1250 -75 995 37 
Q 741 150 617 320 
Q 494 491 444 738 
Q 409 903 409 1263 
L 409 3319 
L 972 3319 
L 972 1478 
Q 972 1038 1006 884 
Q 1059 663 1231 536 
Q 1403 409 1656 409 
Q 1909 409 2131 539 
Q 2353 669 2445 892 
Q 2538 1116 2538 1541 
L 2538 3319 
L 3100 3319 
L 3100 0 
L 2597 0 
z
" transform="scale(0.015625)"/>
       <path id="ArialMT-7a" d="M 125 0 
L 125 456 
L 2238 2881 
Q 1878 2863 1603 2863 
L 250 2863 
L 250 3319 
L 2963 3319 
L 2963 2947 
L 1166 841 
L 819 456 
Q 1197 484 1528 484 
L 3063 484 
L 3063 0 
L 125 0 
z
" transform="scale(0.015625)"/>
      </defs>
      <use xlink:href="#ArialMT-50"/>
      <use xlink:href="#ArialMT-72" x="66.699219"/>
      <use xlink:href="#ArialMT-65" x="100"/>
      <use xlink:href="#ArialMT-64" x="155.615234"/>
      <use xlink:href="#ArialMT-69" x="211.230469"/>
      <use xlink:href="#ArialMT-63" x="233.447266"/>
      <use xlink:href="#ArialMT-74" x="283.447266"/>
      <use xlink:href="#ArialMT-6f" x="311.230469"/>
      <use xlink:href="#ArialMT-72" x="366.845703"/>
      <use xlink:href="#ArialMT-20" x="400.146484"/>
      <use xlink:href="#ArialMT-28" x="427.929688"/>
      <use xlink:href="#ArialMT-70" x="461.230469"/>
      <use xlink:href="#ArialMT-61" x="516.845703"/>
      <use xlink:href="#ArialMT-72" x="572.460938"/>
      <use xlink:href="#ArialMT-74" x="605.761719"/>
      <use xlink:href="#ArialMT-69" x="633.544922"/>
      <use xlink:href="#ArialMT-61" x="655.761719"/>
      <use xlink:href="#ArialMT-6c" x="711.376953"/>
      <use xlink:href="#ArialMT-65" x="733.59375"/>
      <use xlink:href="#ArialMT-64" x="789.208984"/>
      <use xlink:href="#ArialMT-29" x="844.824219"/>
      <use xlink:href="#ArialMT-20" x="878.125"/>
      <use xlink:href="#ArialMT-2014" x="905.908203"/>
      <use xlink:href="#ArialMT-20" x="1005.908203"/>
      <use xlink:href="#ArialMT-72" x="1033.691406"/>
      <use xlink:href="#ArialMT-65" x="1066.992188"/>
      <use xlink:href="#ArialMT-73" x="1122.607422"/>
      <use xlink:href="#ArialMT-69" x="1172.607422"/>
      <use xlink:href="#ArialMT-64" x="1194.824219"/>
      <use xlink:href="#ArialMT-75" x="1250.439453"/>
      <use xlink:href="#ArialMT-61" x="1306.054688"/>
      <use xlink:href="#ArialMT-6c" x="1361.669922"/>
      <use xlink:href="#ArialMT-69" x="1383.886719"/>
      <use xlink:href="#ArialMT-7a" x="1406.103516"/>
      <use xlink:href="#ArialMT-65" x="1456.103516"/>
      <use xlink:href="#ArialMT-64" x="1511.71875"/>
     </g>
    </g>
    <g id="text_9">
     <!-- 1e−5 -->
     <g style="fill: #262626" transform="translate(529.995 409.155312) scale(0.12 -0.12)">
      <defs>
       <path id="ArialMT-2212" d="M 3381 1997 
L 356 1997 
L 356 2522 
L 3381 2522 
L 3381 1997 
z
" transform="scale(0.015625)"/>
      </defs>
      <use xlink:href="#ArialMT-31"/>
      <use xlink:href="#ArialMT-65" x="55.615234"/>
      <use xlink:href="#ArialMT-2212" x="111.230469"/>
      <use xlink:href="#ArialMT-35" x="169.628906"/>
     </g>
    </g>
   </g>
   <g id="matplotlib.axis_2">
    <g id="ytick_1">
     <g id="line2d_9">
      <path d="M 43.143125 355.954564 
L 557.023125 355.954564 
" clip-path="url(#p6fc66c7677)" style="fill: none; stroke: #cccccc; stroke-width: 0.8; stroke-linecap: round"/>
     </g>
     <g id="text_10">
      <!-- −3 -->
      <g style="fill: #262626" transform="translate(22.46125 360.249251) scale(0.12 -0.12)">
       <use xlink:href="#ArialMT-2212"/>
       <use xlink:href="#ArialMT-33" x="58.398438"/>
      </g>
     </g>
    </g>
    <g id="ytick_2">
     <g id="line2d_10">
      <path d="M 43.143125 302.380248 
L 557.023125 302.380248 
" clip-path="url(#p6fc66c7677)" style="fill: none; stroke: #cccccc; stroke-width: 0.8; stroke-linecap: round"/>
     </g>
     <g id="text_11">
      <!-- −2 -->
      <g style="fill: #262626" transform="translate(22.46125 306.674936) scale(0.12 -0.12)">
       <use xlink:href="#ArialMT-2212"/>
       <use xlink:href="#ArialMT-32" x="58.398438"/>
      </g>
     </g>
    </g>
    <g id="ytick_3">
     <g id="line2d_11">
      <path d="M 43.143125 248.805933 
L 557.023125 248.805933 
" clip-path="url(#p6fc66c7677)" style="fill: none; stroke: #cccccc; stroke-width: 0.8; stroke-linecap: round"/>
     </g>
     <g id="text_12">
      <!-- −1 -->
      <g style="fill: #262626" transform="translate(22.46125 253.100621) scale(0.12 -0.12)">
       <use xlink:href="#ArialMT-2212"/>
       <use xlink:href="#ArialMT-31" x="58.398438"/>
      </g>
     </g>
    </g>
    <g id="ytick_4">
     <g id="line2d_12">
      <path d="M 43.143125 195.231618 
L 557.023125 195.231618 
" clip-path="url(#p6fc66c7677)" style="fill: none; stroke: #cccccc; stroke-width: 0.8; stroke-linecap: round"/>
     </g>
     <g id="text_13">
      <!-- 0 -->
      <g style="fill: #262626" transform="translate(29.47 199.526305) scale(0.12 -0.12)">
       <use xlink:href="#ArialMT-30"/>
      </g>
     </g>
    </g>
    <g id="ytick_5">
     <g id="line2d_13">
      <path d="M 43.143125 141.657303 
L 557.023125 141.657303 
" clip-path="url(#p6fc66c7677)" style="fill: none; stroke: #cccccc; stroke-width: 0.8; stroke-linecap: round"/>
     </g>
     <g id="text_14">
      <!-- 1 -->
      <g style="fill: #262626" transform="translate(29.47 145.95199) scale(0.12 -0.12)">
       <use xlink:href="#ArialMT-31"/>
      </g>
     </g>
    </g>
    <g id="ytick_6">
     <g id="line2d_14">
      <path d="M 43.143125 88.082987 
L 557.023125 88.082987 
" clip-path="url(#p6fc66c7677)" style="fill: none; stroke: #cccccc; stroke-width: 0.8; stroke-linecap: round"/>
     </g>
     <g id="text_15">
      <!-- 2 -->
      <g style="fill: #262626" transform="translate(29.47 92.377675) scale(0.12 -0.12)">
       <use xlink:href="#ArialMT-32"/>
      </g>
     </g>
    </g>
    <g id="ytick_7">
     <g id="line2d_15">
      <path d="M 43.143125 34.508672 
L 557.023125 34.508672 
" clip-path="url(#p6fc66c7677)" style="fill: none; stroke: #cccccc; stroke-width: 0.8; stroke-linecap: round"/>
     </g>
     <g id="text_16">
      <!-- 3 -->
      <g style="fill: #262626" transform="translate(29.47 38.80336) scale(0.12 -0.12)">
       <use xlink:href="#ArialMT-33"/>
      </g>
     </g>
    </g>
    <g id="text_17">
     <!-- Target (partialed) — residualized -->
     <g style="fill: #262626" transform="translate(15.935625 288.189687) rotate(-90) scale(0.12 -0.12)">
      <defs>
       <path id="ArialMT-54" d="M 1659 0 
L 1659 4041 
L 150 4041 
L 150 4581 
L 3781 4581 
L 3781 4041 
L 2266 4041 
L 2266 0 
L 1659 0 
z
" transform="scale(0.015625)"/>
       <path id="ArialMT-67" d="M 319 -275 
L 866 -356 
Q 900 -609 1056 -725 
Q 1266 -881 1628 -881 
Q 2019 -881 2231 -725 
Q 2444 -569 2519 -288 
Q 2563 -116 2559 434 
Q 2191 0 1641 0 
Q 956 0 581 494 
Q 206 988 206 1678 
Q 206 2153 378 2554 
Q 550 2956 876 3175 
Q 1203 3394 1644 3394 
Q 2231 3394 2613 2919 
L 2613 3319 
L 3131 3319 
L 3131 450 
Q 3131 -325 2973 -648 
Q 2816 -972 2473 -1159 
Q 2131 -1347 1631 -1347 
Q 1038 -1347 672 -1080 
Q 306 -813 319 -275 
z
M 784 1719 
Q 784 1066 1043 766 
Q 1303 466 1694 466 
Q 2081 466 2343 764 
Q 2606 1063 2606 1700 
Q 2606 2309 2336 2618 
Q 2066 2928 1684 2928 
Q 1309 2928 1046 2623 
Q 784 2319 784 1719 
z
" transform="scale(0.015625)"/>
      </defs>
      <use xlink:href="#ArialMT-54"/>
      <use xlink:href="#ArialMT-61" x="49.958984"/>
      <use xlink:href="#ArialMT-72" x="105.574219"/>
      <use xlink:href="#ArialMT-67" x="138.875"/>
      <use xlink:href="#ArialMT-65" x="194.490234"/>
      <use xlink:href="#ArialMT-74" x="250.105469"/>
      <use xlink:href="#ArialMT-20" x="277.888672"/>
      <use xlink:href="#ArialMT-28" x="305.671875"/>
      <use xlink:href="#ArialMT-70" x="338.972656"/>
      <use xlink:href="#ArialMT-61" x="394.587891"/>
      <use xlink:href="#ArialMT-72" x="450.203125"/>
      <use xlink:href="#ArialMT-74" x="483.503906"/>
      <use xlink:href="#ArialMT-69" x="511.287109"/>
      <use xlink:href="#ArialMT-61" x="533.503906"/>
      <use xlink:href="#ArialMT-6c" x="589.119141"/>
      <use xlink:href="#ArialMT-65" x="611.335938"/>
      <use xlink:href="#ArialMT-64" x="666.951172"/>
      <use xlink:href="#ArialMT-29" x="722.566406"/>
      <use xlink:href="#ArialMT-20" x="755.867188"/>
      <use xlink:href="#ArialMT-2014" x="783.650391"/>
      <use xlink:href="#ArialMT-20" x="883.650391"/>
      <use xlink:href="#ArialMT-72" x="911.433594"/>
      <use xlink:href="#ArialMT-65" x="944.734375"/>
      <use xlink:href="#ArialMT-73" x="1000.349609"/>
      <use xlink:href="#ArialMT-69" x="1050.349609"/>
      <use xlink:href="#ArialMT-64" x="1072.566406"/>
      <use xlink:href="#ArialMT-75" x="1128.181641"/>
      <use xlink:href="#ArialMT-61" x="1183.796875"/>
      <use xlink:href="#ArialMT-6c" x="1239.412109"/>
      <use xlink:href="#ArialMT-69" x="1261.628906"/>
      <use xlink:href="#ArialMT-7a" x="1283.845703"/>
      <use xlink:href="#ArialMT-65" x="1333.845703"/>
      <use xlink:href="#ArialMT-64" x="1389.460938"/>
     </g>
    </g>
   </g>
   <g id="PathCollection_1">
    <defs>
     <path id="m5f8e765266" d="M 0 2.44949 
C 0.649612 2.44949 1.272706 2.191396 1.732051 1.732051 
C 2.191396 1.272706 2.44949 0.649612 2.44949 0 
C 2.44949 -0.649612 2.191396 -1.272706 1.732051 -1.732051 
C 1.272706 -2.191396 0.649612 -2.44949 0 -2.44949 
C -0.649612 -2.44949 -1.272706 -2.191396 -1.732051 -1.732051 
C -2.191396 -1.272706 -2.44949 -0.649612 -2.44949 0 
C -2.44949 0.649612 -2.191396 1.272706 -1.732051 1.732051 
C -1.272706 2.191396 -0.649612 2.44949 0 2.44949 
z
" style="stroke: #1f77b4; stroke-opacity: 0.7"/>
    </defs>
    <g clip-path="url(#p6fc66c7677)">
     <use xlink:href="#m5f8e765266" x="76.304032" y="198.705341" style="fill: #1f77b4; fill-opacity: 0.7; stroke: #1f77b4; stroke-opacity: 0.7"/>
     <use xlink:href="#m5f8e765266" x="76.819477" y="184.472389" style="fill: #1f77b4; fill-opacity: 0.7; stroke: #1f77b4; stroke-opacity: 0.7"/>
     <use xlink:href="#m5f8e765266" x="122.834685" y="263.769269" style="fill: #1f77b4; fill-opacity: 0.7; stroke: #1f77b4; stroke-opacity: 0.7"/>
     <use xlink:href="#m5f8e765266" x="109.825257" y="39.582472" style="fill: #1f77b4; fill-opacity: 0.7; stroke: #1f77b4; stroke-opacity: 0.7"/>
     <use xlink:href="#m5f8e765266" x="119.7067" y="222.23072" style="fill: #1f77b4; fill-opacity: 0.7; stroke: #1f77b4; stroke-opacity: 0.7"/>
     <use xlink:href="#m5f8e765266" x="243.140814" y="236.696055" style="fill: #1f77b4; fill-opacity: 0.7; stroke: #1f77b4; stroke-opacity: 0.7"/>
     <use xlink:href="#m5f8e765266" x="66.501307" y="140.02123" style="fill: #1f77b4; fill-opacity: 0.7; stroke: #1f77b4; stroke-opacity: 0.7"/>
     <use xlink:href="#m5f8e765266" x="108.992121" y="277.690641" style="fill: #1f77b4; fill-opacity: 0.7; stroke: #1f77b4; stroke-opacity: 0.7"/>
     <use xlink:href="#m5f8e765266" x="210.626198" y="90.790188" style="fill: #1f77b4; fill-opacity: 0.7; stroke: #1f77b4; stroke-opacity: 0.7"/>
     <use xlink:href="#m5f8e765266" x="95.259015" y="204.655303" style="fill: #1f77b4; fill-opacity: 0.7; stroke: #1f77b4; stroke-opacity: 0.7"/>
     <use xlink:href="#m5f8e765266" x="158.318947" y="236.784305" style="fill: #1f77b4; fill-opacity: 0.7; stroke: #1f77b4; stroke-opacity: 0.7"/>
     <use xlink:href="#m5f8e765266" x="109.995111" y="205.649592" style="fill: #1f77b4; fill-opacity: 0.7; stroke: #1f77b4; stroke-opacity: 0.7"/>
     <use xlink:href="#m5f8e765266" x="75.115035" y="229.471551" style="fill: #1f77b4; fill-opacity: 0.7; stroke: #1f77b4; stroke-opacity: 0.7"/>
     <use xlink:href="#m5f8e765266" x="102.03707" y="200.361116" style="fill: #1f77b4; fill-opacity: 0.7; stroke: #1f77b4; stroke-opacity: 0.7"/>
     <use xlink:href="#m5f8e765266" x="214.349509" y="363.400653" style="fill: #1f77b4; fill-opacity: 0.7; stroke: #1f77b4; stroke-opacity: 0.7"/>
     <use xlink:href="#m5f8e765266" x="386.166787" y="167.098195" style="fill: #1f77b4; fill-opacity: 0.7; stroke: #1f77b4; stroke-opacity: 0.7"/>
     <use xlink:href="#m5f8e765266" x="474.620785" y="170.709554" style="fill: #1f77b4; fill-opacity: 0.7; stroke: #1f77b4; stroke-opacity: 0.7"/>
     <use xlink:href="#m5f8e765266" x="337.489493" y="155.804937" style="fill: #1f77b4; fill-opacity: 0.7; stroke: #1f77b4; stroke-opacity: 0.7"/>
     <use xlink:href="#m5f8e765266" x="96.752936" y="205.06226" style="fill: #1f77b4; fill-opacity: 0.7; stroke: #1f77b4; stroke-opacity: 0.7"/>
     <use xlink:href="#m5f8e765266" x="96.152053" y="165.71035" style="fill: #1f77b4; fill-opacity: 0.7; stroke: #1f77b4; stroke-opacity: 0.7"/>
     <use xlink:href="#m5f8e765266" x="533.664943" y="249.774889" style="fill: #1f77b4; fill-opacity: 0.7; stroke: #1f77b4; stroke-opacity: 0.7"/>
     <use xlink:href="#m5f8e765266" x="461.278755" y="178.90805" style="fill: #1f77b4; fill-opacity: 0.7; stroke: #1f77b4; stroke-opacity: 0.7"/>
     <use xlink:href="#m5f8e765266" x="412.417795" y="89.754283" style="fill: #1f77b4; fill-opacity: 0.7; stroke: #1f77b4; stroke-opacity: 0.7"/>
     <use xlink:href="#m5f8e765266" x="304.632824" y="184.995683" style="fill: #1f77b4; fill-opacity: 0.7; stroke: #1f77b4; stroke-opacity: 0.7"/>
     <use xlink:href="#m5f8e765266" x="285.905068" y="212.779929" style="fill: #1f77b4; fill-opacity: 0.7; stroke: #1f77b4; stroke-opacity: 0.7"/>
     <use xlink:href="#m5f8e765266" x="349.753556" y="180.513329" style="fill: #1f77b4; fill-opacity: 0.7; stroke: #1f77b4; stroke-opacity: 0.7"/>
     <use xlink:href="#m5f8e765266" x="96.295331" y="229.206743" style="fill: #1f77b4; fill-opacity: 0.7; stroke: #1f77b4; stroke-opacity: 0.7"/>
     <use xlink:href="#m5f8e765266" x="85.591675" y="147.628535" style="fill: #1f77b4; fill-opacity: 0.7; stroke: #1f77b4; stroke-opacity: 0.7"/>
     <use xlink:href="#m5f8e765266" x="90.378386" y="267.953548" style="fill: #1f77b4; fill-opacity: 0.7; stroke: #1f77b4; stroke-opacity: 0.7"/>
     <use xlink:href="#m5f8e765266" x="130.584624" y="69.230897" style="fill: #1f77b4; fill-opacity: 0.7; stroke: #1f77b4; stroke-opacity: 0.7"/>
    </g>
   </g>
   <g id="PolyCollection_1">
    <defs>
     <path id="m0b5d1ca097" d="M 66.501307 -257.810739 
L 66.501307 -187.999172 
L 68.848863 -188.375757 
L 71.196419 -188.749621 
L 73.543975 -189.120694 
L 75.891531 -189.488905 
L 78.239087 -189.85418 
L 80.586643 -190.216446 
L 82.934199 -190.575626 
L 85.281755 -190.931641 
L 87.62931 -191.284413 
L 89.976866 -191.633859 
L 92.324422 -191.979896 
L 94.671978 -192.32244 
L 97.019534 -192.661404 
L 99.36709 -192.9967 
L 101.714646 -193.328238 
L 104.062202 -193.655927 
L 106.409758 -193.979674 
L 108.757314 -194.299385 
L 111.10487 -194.614965 
L 113.452426 -194.926316 
L 115.799982 -195.233341 
L 118.147538 -195.53594 
L 120.495094 -195.834013 
L 122.84265 -196.127459 
L 125.190206 -196.416178 
L 127.537762 -196.700065 
L 129.885318 -196.979019 
L 132.232874 -197.252936 
L 134.58043 -197.521713 
L 136.927986 -197.785247 
L 139.275542 -198.043435 
L 141.623098 -198.296174 
L 143.970654 -198.543364 
L 146.31821 -198.784902 
L 148.665765 -199.02069 
L 151.013321 -199.25063 
L 153.360877 -199.474623 
L 155.708433 -199.692577 
L 158.055989 -199.904398 
L 160.403545 -200.109997 
L 162.751101 -200.309286 
L 165.098657 -200.502181 
L 167.446213 -200.688602 
L 169.793769 -200.868469 
L 172.141325 -201.041711 
L 174.488881 -201.208258 
L 176.836437 -201.368043 
L 179.183993 -201.521008 
L 181.531549 -201.667096 
L 183.879105 -201.806256 
L 186.226661 -201.938443 
L 188.574217 -202.063616 
L 190.921773 -202.181742 
L 193.269329 -202.292792 
L 195.616885 -202.396742 
L 197.964441 -202.493575 
L 200.311997 -202.583281 
L 202.659553 -202.665855 
L 205.007109 -202.741297 
L 207.354665 -202.809616 
L 209.70222 -202.870823 
L 212.049776 -202.924939 
L 214.397332 -202.971988 
L 216.744888 -203.012002 
L 219.092444 -203.045017 
L 221.44 -203.071074 
L 223.787556 -203.090223 
L 226.135112 -203.102514 
L 228.482668 -203.108007 
L 230.830224 -203.106762 
L 233.17778 -203.098847 
L 235.525336 -203.084333 
L 237.872892 -203.063296 
L 240.220448 -203.035812 
L 242.568004 -203.001966 
L 244.91556 -202.961842 
L 247.263116 -202.915528 
L 249.610672 -202.863116 
L 251.958228 -202.804699 
L 254.305784 -202.740372 
L 256.65334 -202.670233 
L 259.000896 -202.59438 
L 261.348452 -202.512913 
L 263.696008 -202.425934 
L 266.043564 -202.333544 
L 268.39112 -202.235846 
L 270.738675 -202.132944 
L 273.086231 -202.02494 
L 275.433787 -201.911937 
L 277.781343 -201.794039 
L 280.128899 -201.671348 
L 282.476455 -201.543967 
L 284.824011 -201.411996 
L 287.171567 -201.275537 
L 289.519123 -201.13469 
L 291.866679 -200.989552 
L 294.214235 -200.840222 
L 296.561791 -200.686796 
L 298.909347 -200.529369 
L 301.256903 -200.368035 
L 303.604459 -200.202886 
L 305.952015 -200.034012 
L 308.299571 -199.861503 
L 310.647127 -199.685447 
L 312.994683 -199.505928 
L 315.342239 -199.323032 
L 317.689795 -199.136841 
L 320.037351 -198.947436 
L 322.384907 -198.754896 
L 324.732463 -198.559298 
L 327.080019 -198.360719 
L 329.427575 -198.159231 
L 331.77513 -197.954908 
L 334.122686 -197.74782 
L 336.470242 -197.538036 
L 338.817798 -197.325624 
L 341.165354 -197.110648 
L 343.51291 -196.893173 
L 345.860466 -196.673262 
L 348.208022 -196.450975 
L 350.555578 -196.226371 
L 352.903134 -195.999508 
L 355.25069 -195.770442 
L 357.598246 -195.539228 
L 359.945802 -195.30592 
L 362.293358 -195.070569 
L 364.640914 -194.833226 
L 366.98847 -194.59394 
L 369.336026 -194.352759 
L 371.683582 -194.109729 
L 374.031138 -193.864895 
L 376.378694 -193.618303 
L 378.72625 -193.369993 
L 381.073806 -193.12001 
L 383.421362 -192.868392 
L 385.768918 -192.615179 
L 388.116474 -192.36041 
L 390.46403 -192.104122 
L 392.811585 -191.846351 
L 395.159141 -191.587133 
L 397.506697 -191.326501 
L 399.854253 -191.06449 
L 402.201809 -190.801132 
L 404.549365 -190.536457 
L 406.896921 -190.270498 
L 409.244477 -190.003284 
L 411.592033 -189.734843 
L 413.939589 -189.465205 
L 416.287145 -189.194397 
L 418.634701 -188.922444 
L 420.982257 -188.649375 
L 423.329813 -188.375213 
L 425.677369 -188.099983 
L 428.024925 -187.82371 
L 430.372481 -187.546416 
L 432.720037 -187.268125 
L 435.067593 -186.988858 
L 437.415149 -186.708637 
L 439.762705 -186.427483 
L 442.110261 -186.145416 
L 444.457817 -185.862456 
L 446.805373 -185.578623 
L 449.152929 -185.293935 
L 451.500485 -185.00841 
L 453.84804 -184.722066 
L 456.195596 -184.434921 
L 458.543152 -184.146991 
L 460.890708 -183.858294 
L 463.238264 -183.568844 
L 465.58582 -183.278658 
L 467.933376 -182.987751 
L 470.280932 -182.696138 
L 472.628488 -182.403832 
L 474.976044 -182.110849 
L 477.3236 -181.817203 
L 479.671156 -181.522905 
L 482.018712 -181.22797 
L 484.366268 -180.93241 
L 486.713824 -180.636238 
L 489.06138 -180.339465 
L 491.408936 -180.042105 
L 493.756492 -179.744167 
L 496.104048 -179.445663 
L 498.451604 -179.146605 
L 500.79916 -178.847002 
L 503.146716 -178.546866 
L 505.494272 -178.246207 
L 507.841828 -177.945034 
L 510.189384 -177.643357 
L 512.53694 -177.341186 
L 514.884495 -177.03853 
L 517.232051 -176.735398 
L 519.579607 -176.431798 
L 521.927163 -176.127741 
L 524.274719 -175.823233 
L 526.622275 -175.518282 
L 528.969831 -175.212899 
L 531.317387 -174.907089 
L 533.664943 -174.60086 
L 533.664943 -304.599935 
L 533.664943 -304.599935 
L 531.317387 -304.125913 
L 528.969831 -303.65231 
L 526.622275 -303.179133 
L 524.274719 -302.706389 
L 521.927163 -302.234088 
L 519.579607 -301.762236 
L 517.232051 -301.290844 
L 514.884495 -300.819918 
L 512.53694 -300.349469 
L 510.189384 -299.879504 
L 507.841828 -299.410034 
L 505.494272 -298.941068 
L 503.146716 -298.472615 
L 500.79916 -298.004686 
L 498.451604 -297.53729 
L 496.104048 -297.070438 
L 493.756492 -296.604141 
L 491.408936 -296.13841 
L 489.06138 -295.673255 
L 486.713824 -295.20869 
L 484.366268 -294.744724 
L 482.018712 -294.281371 
L 479.671156 -293.818642 
L 477.3236 -293.356551 
L 474.976044 -292.895111 
L 472.628488 -292.434335 
L 470.280932 -291.974236 
L 467.933376 -291.514829 
L 465.58582 -291.056129 
L 463.238264 -290.59815 
L 460.890708 -290.140907 
L 458.543152 -289.684416 
L 456.195596 -289.228693 
L 453.84804 -288.773754 
L 451.500485 -288.319617 
L 449.152929 -287.866299 
L 446.805373 -287.413817 
L 444.457817 -286.96219 
L 442.110261 -286.511437 
L 439.762705 -286.061577 
L 437.415149 -285.612629 
L 435.067593 -285.164615 
L 432.720037 -284.717555 
L 430.372481 -284.27147 
L 428.024925 -283.826383 
L 425.677369 -283.382316 
L 423.329813 -282.939293 
L 420.982257 -282.497338 
L 418.634701 -282.056475 
L 416.287145 -281.616729 
L 413.939589 -281.178127 
L 411.592033 -280.740696 
L 409.244477 -280.304462 
L 406.896921 -279.869454 
L 404.549365 -279.435702 
L 402.201809 -279.003234 
L 399.854253 -278.572082 
L 397.506697 -278.142277 
L 395.159141 -277.713853 
L 392.811585 -277.286841 
L 390.46403 -276.861277 
L 388.116474 -276.437195 
L 385.768918 -276.014633 
L 383.421362 -275.593627 
L 381.073806 -275.174215 
L 378.72625 -274.756438 
L 376.378694 -274.340336 
L 374.031138 -273.92595 
L 371.683582 -273.513323 
L 369.336026 -273.1025 
L 366.98847 -272.693525 
L 364.640914 -272.286445 
L 362.293358 -271.881309 
L 359.945802 -271.478164 
L 357.598246 -271.077063 
L 355.25069 -270.678056 
L 352.903134 -270.281197 
L 350.555578 -269.88654 
L 348.208022 -269.494143 
L 345.860466 -269.104062 
L 343.51291 -268.716357 
L 341.165354 -268.331089 
L 338.817798 -267.94832 
L 336.470242 -267.568114 
L 334.122686 -267.190537 
L 331.77513 -266.815656 
L 329.427575 -266.443539 
L 327.080019 -266.074259 
L 324.732463 -265.707886 
L 322.384907 -265.344494 
L 320.037351 -264.984161 
L 317.689795 -264.626962 
L 315.342239 -264.272978 
L 312.994683 -263.922289 
L 310.647127 -263.574977 
L 308.299571 -263.231127 
L 305.952015 -262.890824 
L 303.604459 -262.554157 
L 301.256903 -262.221215 
L 298.909347 -261.892087 
L 296.561791 -261.566867 
L 294.214235 -261.245647 
L 291.866679 -260.928524 
L 289.519123 -260.615593 
L 287.171567 -260.306952 
L 284.824011 -260.0027 
L 282.476455 -259.702936 
L 280.128899 -259.407761 
L 277.781343 -259.117277 
L 275.433787 -258.831585 
L 273.086231 -258.550789 
L 270.738675 -258.274992 
L 268.39112 -258.004296 
L 266.043564 -257.738805 
L 263.696008 -257.478622 
L 261.348452 -257.223849 
L 259.000896 -256.974589 
L 256.65334 -256.730942 
L 254.305784 -256.49301 
L 251.958228 -256.260889 
L 249.610672 -256.034679 
L 247.263116 -255.814474 
L 244.91556 -255.600367 
L 242.568004 -255.392449 
L 240.220448 -255.190809 
L 237.872892 -254.995533 
L 235.525336 -254.806701 
L 233.17778 -254.624394 
L 230.830224 -254.448686 
L 228.482668 -254.279648 
L 226.135112 -254.117347 
L 223.787556 -253.961845 
L 221.44 -253.8132 
L 219.092444 -253.671465 
L 216.744888 -253.536686 
L 214.397332 -253.408906 
L 212.049776 -253.288162 
L 209.70222 -253.174485 
L 207.354665 -253.067899 
L 205.007109 -252.968424 
L 202.659553 -252.876072 
L 200.311997 -252.790853 
L 197.964441 -252.712765 
L 195.616885 -252.641806 
L 193.269329 -252.577962 
L 190.921773 -252.521218 
L 188.574217 -252.471551 
L 186.226661 -252.428931 
L 183.879105 -252.393325 
L 181.531549 -252.364691 
L 179.183993 -252.342986 
L 176.836437 -252.328157 
L 174.488881 -252.320149 
L 172.141325 -252.318902 
L 169.793769 -252.324351 
L 167.446213 -252.336425 
L 165.098657 -252.355052 
L 162.751101 -252.380154 
L 160.403545 -252.411649 
L 158.055989 -252.449455 
L 155.708433 -252.493483 
L 153.360877 -252.543643 
L 151.013321 -252.599843 
L 148.665765 -252.661989 
L 146.31821 -252.729984 
L 143.970654 -252.803729 
L 141.623098 -252.883125 
L 139.275542 -252.968071 
L 136.927986 -253.058466 
L 134.58043 -253.154206 
L 132.232874 -253.25519 
L 129.885318 -253.361314 
L 127.537762 -253.472474 
L 125.190206 -253.588568 
L 122.84265 -253.709493 
L 120.495094 -253.835146 
L 118.147538 -253.965426 
L 115.799982 -254.100232 
L 113.452426 -254.239463 
L 111.10487 -254.38302 
L 108.757314 -254.530806 
L 106.409758 -254.682724 
L 104.062202 -254.838678 
L 101.714646 -254.998573 
L 99.36709 -255.162318 
L 97.019534 -255.329821 
L 94.671978 -255.500991 
L 92.324422 -255.675742 
L 89.976866 -255.853986 
L 87.62931 -256.035639 
L 85.281755 -256.220617 
L 82.934199 -256.408839 
L 80.586643 -256.600225 
L 78.239087 -256.794698 
L 75.891531 -256.99218 
L 73.543975 -257.192597 
L 71.196419 -257.395877 
L 68.848863 -257.601947 
L 66.501307 -257.810739 
z
" style="stroke: #1f77b4; stroke-opacity: 0.12"/>
    </defs>
    <g clip-path="url(#p6fc66c7677)">
     <use xlink:href="#m0b5d1ca097" x="0" y="420.027187" style="fill: #1f77b4; fill-opacity: 0.12; stroke: #1f77b4; stroke-opacity: 0.12"/>
    </g>
   </g>
   <g id="line2d_16">
    <path d="M 66.501307 197.122232 
L 533.664943 180.42679 
L 533.664943 180.42679 
" clip-path="url(#p6fc66c7677)" style="fill: none; stroke: #1f77b4; stroke-width: 2; stroke-linecap: round"/>
   </g>
   <g id="line2d_17">
    <path d="M 66.501307 173.204674 
L 75.115035 184.5379 
L 76.304032 186.192302 
L 76.819477 186.948803 
L 85.591675 176.559961 
L 90.378386 195.09891 
L 95.259015 206.574876 
L 96.152053 205.672912 
L 96.295331 205.544945 
L 96.752936 205.168652 
L 102.03707 202.478523 
L 108.992121 222.362994 
L 109.825257 223.15818 
L 109.995111 223.208746 
L 119.7067 201.662945 
L 122.834685 173.992894 
L 130.584624 117.869616 
L 158.318947 230.527705 
L 210.626198 235.039378 
L 214.349509 234.58458 
L 243.140814 235.257204 
L 285.905068 205.404794 
L 304.632824 192.961961 
L 337.489493 176.119504 
L 349.753556 169.635627 
L 386.166787 155.230018 
L 412.417795 165.14575 
L 461.278755 179.351973 
L 474.620785 189.645601 
L 533.664943 239.473158 
" clip-path="url(#p6fc66c7677)" style="fill: none; stroke-dasharray: 6.66,2.88; stroke-dashoffset: 0; stroke: #ff7f0e; stroke-width: 1.8"/>
   </g>
   <g id="patch_3">
    <path d="M 43.143125 379.591562 
L 43.143125 23.391562 
" style="fill: none; stroke: #cccccc; stroke-width: 0.8; stroke-linejoin: miter; stroke-linecap: square"/>
   </g>
   <g id="patch_4">
    <path d="M 557.023125 379.591562 
L 557.023125 23.391562 
" style="fill: none; stroke: #cccccc; stroke-width: 0.8; stroke-linejoin: miter; stroke-linecap: square"/>
   </g>
   <g id="patch_5">
    <path d="M 43.143125 379.591562 
L 557.023125 379.591562 
" style="fill: none; stroke: #cccccc; stroke-width: 0.8; stroke-linejoin: miter; stroke-linecap: square"/>
   </g>
   <g id="patch_6">
    <path d="M 43.143125 23.391562 
L 557.023125 23.391562 
" style="fill: none; stroke: #cccccc; stroke-width: 0.8; stroke-linejoin: miter; stroke-linecap: square"/>
   </g>
   <g id="text_18">
    <g id="patch_7">
     <path d="M 391.07365 375.467562 
L 546.745525 375.467562 
Q 549.745525 375.467562 549.745525 372.467562 
L 549.745525 331.292562 
Q 549.745525 328.292562 546.745525 328.292562 
L 391.07365 328.292562 
Q 388.07365 328.292562 388.07365 331.292562 
L 388.07365 372.467562 
Q 388.07365 375.467562 391.07365 375.467562 
z
" style="fill: #ffffff; opacity: 0.8; stroke: #cccccc; stroke-linejoin: miter"/>
    </g>
    <!-- n = 30 -->
    <g style="fill: #262626" transform="translate(518.665837 338.450375) scale(0.1 -0.1)">
     <defs>
      <path id="ArialMT-6e" d="M 422 0 
L 422 3319 
L 928 3319 
L 928 2847 
Q 1294 3394 1984 3394 
Q 2284 3394 2536 3286 
Q 2788 3178 2913 3003 
Q 3038 2828 3088 2588 
Q 3119 2431 3119 2041 
L 3119 0 
L 2556 0 
L 2556 2019 
Q 2556 2363 2490 2533 
Q 2425 2703 2258 2804 
Q 2091 2906 1866 2906 
Q 1506 2906 1245 2678 
Q 984 2450 984 1813 
L 984 0 
L 422 0 
z
" transform="scale(0.015625)"/>
      <path id="ArialMT-3d" d="M 3381 2694 
L 356 2694 
L 356 3219 
L 3381 3219 
L 3381 2694 
z
M 3381 1303 
L 356 1303 
L 356 1828 
L 3381 1828 
L 3381 1303 
z
" transform="scale(0.015625)"/>
     </defs>
     <use xlink:href="#ArialMT-6e"/>
     <use xlink:href="#ArialMT-20" x="55.615234"/>
     <use xlink:href="#ArialMT-3d" x="83.398438"/>
     <use xlink:href="#ArialMT-20" x="141.796875"/>
     <use xlink:href="#ArialMT-33" x="169.580078"/>
     <use xlink:href="#ArialMT-30" x="225.195312"/>
    </g>
    <!-- slope = 5083.1355 (se=12516.416) -->
    <g style="fill: #262626" transform="translate(391.07365 349.1735) scale(0.1 -0.1)">
     <defs>
      <path id="ArialMT-38" d="M 1131 2484 
Q 781 2613 612 2850 
Q 444 3088 444 3419 
Q 444 3919 803 4259 
Q 1163 4600 1759 4600 
Q 2359 4600 2725 4251 
Q 3091 3903 3091 3403 
Q 3091 3084 2923 2848 
Q 2756 2613 2416 2484 
Q 2838 2347 3058 2040 
Q 3278 1734 3278 1309 
Q 3278 722 2862 322 
Q 2447 -78 1769 -78 
Q 1091 -78 675 323 
Q 259 725 259 1325 
Q 259 1772 486 2073 
Q 713 2375 1131 2484 
z
M 1019 3438 
Q 1019 3113 1228 2906 
Q 1438 2700 1772 2700 
Q 2097 2700 2305 2904 
Q 2513 3109 2513 3406 
Q 2513 3716 2298 3927 
Q 2084 4138 1766 4138 
Q 1444 4138 1231 3931 
Q 1019 3725 1019 3438 
z
M 838 1322 
Q 838 1081 952 856 
Q 1066 631 1291 507 
Q 1516 384 1775 384 
Q 2178 384 2440 643 
Q 2703 903 2703 1303 
Q 2703 1709 2433 1975 
Q 2163 2241 1756 2241 
Q 1359 2241 1098 1978 
Q 838 1716 838 1322 
z
" transform="scale(0.015625)"/>
      <path id="ArialMT-2e" d="M 581 0 
L 581 641 
L 1222 641 
L 1222 0 
L 581 0 
z
" transform="scale(0.015625)"/>
     </defs>
     <use xlink:href="#ArialMT-73"/>
     <use xlink:href="#ArialMT-6c" x="50"/>
     <use xlink:href="#ArialMT-6f" x="72.216797"/>
     <use xlink:href="#ArialMT-70" x="127.832031"/>
     <use xlink:href="#ArialMT-65" x="183.447266"/>
     <use xlink:href="#ArialMT-20" x="239.0625"/>
     <use xlink:href="#ArialMT-3d" x="266.845703"/>
     <use xlink:href="#ArialMT-20" x="325.244141"/>
     <use xlink:href="#ArialMT-35" x="353.027344"/>
     <use xlink:href="#ArialMT-30" x="408.642578"/>
     <use xlink:href="#ArialMT-38" x="464.257812"/>
     <use xlink:href="#ArialMT-33" x="519.873047"/>
     <use xlink:href="#ArialMT-2e" x="575.488281"/>
     <use xlink:href="#ArialMT-31" x="603.271484"/>
     <use xlink:href="#ArialMT-33" x="658.886719"/>
     <use xlink:href="#ArialMT-35" x="714.501953"/>
     <use xlink:href="#ArialMT-35" x="770.117188"/>
     <use xlink:href="#ArialMT-20" x="825.732422"/>
     <use xlink:href="#ArialMT-28" x="853.515625"/>
     <use xlink:href="#ArialMT-73" x="886.816406"/>
     <use xlink:href="#ArialMT-65" x="936.816406"/>
     <use xlink:href="#ArialMT-3d" x="992.431641"/>
     <use xlink:href="#ArialMT-31" x="1050.830078"/>
     <use xlink:href="#ArialMT-32" x="1106.445312"/>
     <use xlink:href="#ArialMT-35" x="1162.060547"/>
     <use xlink:href="#ArialMT-31" x="1217.675781"/>
     <use xlink:href="#ArialMT-36" x="1273.291016"/>
     <use xlink:href="#ArialMT-2e" x="1328.90625"/>
     <use xlink:href="#ArialMT-34" x="1356.689453"/>
     <use xlink:href="#ArialMT-31" x="1412.304688"/>
     <use xlink:href="#ArialMT-36" x="1467.919922"/>
     <use xlink:href="#ArialMT-29" x="1523.535156"/>
    </g>
    <!-- p = 6.88e-01 -->
    <g style="fill: #262626" transform="translate(490.314275 359.903187) scale(0.1 -0.1)">
     <defs>
      <path id="ArialMT-2d" d="M 203 1375 
L 203 1941 
L 1931 1941 
L 1931 1375 
L 203 1375 
z
" transform="scale(0.015625)"/>
     </defs>
     <use xlink:href="#ArialMT-70"/>
     <use xlink:href="#ArialMT-20" x="55.615234"/>
     <use xlink:href="#ArialMT-3d" x="83.398438"/>
     <use xlink:href="#ArialMT-20" x="141.796875"/>
     <use xlink:href="#ArialMT-36" x="169.580078"/>
     <use xlink:href="#ArialMT-2e" x="225.195312"/>
     <use xlink:href="#ArialMT-38" x="252.978516"/>
     <use xlink:href="#ArialMT-38" x="308.59375"/>
     <use xlink:href="#ArialMT-65" x="364.208984"/>
     <use xlink:href="#ArialMT-2d" x="419.824219"/>
     <use xlink:href="#ArialMT-30" x="453.125"/>
     <use xlink:href="#ArialMT-31" x="508.740234"/>
    </g>
    <!-- R² = 0.006 -->
    <g style="fill: #262626" transform="translate(499.775212 370.480062) scale(0.1 -0.1)">
     <defs>
      <path id="ArialMT-52" d="M 503 0 
L 503 4581 
L 2534 4581 
Q 3147 4581 3465 4457 
Q 3784 4334 3975 4021 
Q 4166 3709 4166 3331 
Q 4166 2844 3850 2509 
Q 3534 2175 2875 2084 
Q 3116 1969 3241 1856 
Q 3506 1613 3744 1247 
L 4541 0 
L 3778 0 
L 3172 953 
Q 2906 1366 2734 1584 
Q 2563 1803 2427 1890 
Q 2291 1978 2150 2013 
Q 2047 2034 1813 2034 
L 1109 2034 
L 1109 0 
L 503 0 
z
M 1109 2559 
L 2413 2559 
Q 2828 2559 3062 2645 
Q 3297 2731 3419 2920 
Q 3541 3109 3541 3331 
Q 3541 3656 3305 3865 
Q 3069 4075 2559 4075 
L 1109 4075 
L 1109 2559 
z
" transform="scale(0.015625)"/>
      <path id="ArialMT-b2" d="M 78 2291 
Q 97 2469 225 2647 
Q 422 2916 872 3242 
Q 1322 3569 1406 3663 
Q 1522 3791 1522 3925 
Q 1522 4075 1412 4172 
Q 1303 4269 1091 4269 
Q 884 4269 782 4195 
Q 681 4122 616 3913 
L 144 3963 
Q 234 4309 457 4473 
Q 681 4638 1100 4638 
Q 1572 4638 1792 4453 
Q 2013 4269 2013 4003 
Q 2013 3741 1828 3506 
Q 1688 3331 1188 2972 
Q 928 2781 819 2669 
L 2025 2669 
L 2025 2291 
L 78 2291 
z
" transform="scale(0.015625)"/>
     </defs>
     <use xlink:href="#ArialMT-52"/>
     <use xlink:href="#ArialMT-b2" x="72.216797"/>
     <use xlink:href="#ArialMT-20" x="105.517578"/>
     <use xlink:href="#ArialMT-3d" x="133.300781"/>
     <use xlink:href="#ArialMT-20" x="191.699219"/>
     <use xlink:href="#ArialMT-30" x="219.482422"/>
     <use xlink:href="#ArialMT-2e" x="275.097656"/>
     <use xlink:href="#ArialMT-30" x="302.880859"/>
     <use xlink:href="#ArialMT-30" x="358.496094"/>
     <use xlink:href="#ArialMT-36" x="414.111328"/>
    </g>
   </g>
   <g id="text_19">
    <!-- Added-variable (Partial regression) plot — inflation_consumer_prices_pct -->
    <g style="fill: #262626" transform="translate(73.264531 17.391562) scale(0.14 -0.14)">
     <defs>
      <path id="ArialMT-41" d="M -9 0 
L 1750 4581 
L 2403 4581 
L 4278 0 
L 3588 0 
L 3053 1388 
L 1138 1388 
L 634 0 
L -9 0 
z
M 1313 1881 
L 2866 1881 
L 2388 3150 
Q 2169 3728 2063 4100 
Q 1975 3659 1816 3225 
L 1313 1881 
z
" transform="scale(0.015625)"/>
      <path id="ArialMT-76" d="M 1344 0 
L 81 3319 
L 675 3319 
L 1388 1331 
Q 1503 1009 1600 663 
Q 1675 925 1809 1294 
L 2547 3319 
L 3125 3319 
L 1869 0 
L 1344 0 
z
" transform="scale(0.015625)"/>
      <path id="ArialMT-62" d="M 941 0 
L 419 0 
L 419 4581 
L 981 4581 
L 981 2947 
Q 1338 3394 1891 3394 
Q 2197 3394 2470 3270 
Q 2744 3147 2920 2923 
Q 3097 2700 3197 2384 
Q 3297 2069 3297 1709 
Q 3297 856 2875 390 
Q 2453 -75 1863 -75 
Q 1275 -75 941 416 
L 941 0 
z
M 934 1684 
Q 934 1088 1097 822 
Q 1363 388 1816 388 
Q 2184 388 2453 708 
Q 2722 1028 2722 1663 
Q 2722 2313 2464 2622 
Q 2206 2931 1841 2931 
Q 1472 2931 1203 2611 
Q 934 2291 934 1684 
z
" transform="scale(0.015625)"/>
      <path id="ArialMT-66" d="M 556 0 
L 556 2881 
L 59 2881 
L 59 3319 
L 556 3319 
L 556 3672 
Q 556 4006 616 4169 
Q 697 4388 901 4523 
Q 1106 4659 1475 4659 
Q 1713 4659 2000 4603 
L 1916 4113 
Q 1741 4144 1584 4144 
Q 1328 4144 1222 4034 
Q 1116 3925 1116 3625 
L 1116 3319 
L 1763 3319 
L 1763 2881 
L 1116 2881 
L 1116 0 
L 556 0 
z
" transform="scale(0.015625)"/>
      <path id="ArialMT-5f" d="M -97 -1272 
L -97 -866 
L 3631 -866 
L 3631 -1272 
L -97 -1272 
z
" transform="scale(0.015625)"/>
      <path id="ArialMT-6d" d="M 422 0 
L 422 3319 
L 925 3319 
L 925 2853 
Q 1081 3097 1340 3245 
Q 1600 3394 1931 3394 
Q 2300 3394 2536 3241 
Q 2772 3088 2869 2813 
Q 3263 3394 3894 3394 
Q 4388 3394 4653 3120 
Q 4919 2847 4919 2278 
L 4919 0 
L 4359 0 
L 4359 2091 
Q 4359 2428 4304 2576 
Q 4250 2725 4106 2815 
Q 3963 2906 3769 2906 
Q 3419 2906 3187 2673 
Q 2956 2441 2956 1928 
L 2956 0 
L 2394 0 
L 2394 2156 
Q 2394 2531 2256 2718 
Q 2119 2906 1806 2906 
Q 1569 2906 1367 2781 
Q 1166 2656 1075 2415 
Q 984 2175 984 1722 
L 984 0 
L 422 0 
z
" transform="scale(0.015625)"/>
     </defs>
     <use xlink:href="#ArialMT-41"/>
     <use xlink:href="#ArialMT-64" x="66.699219"/>
     <use xlink:href="#ArialMT-64" x="122.314453"/>
     <use xlink:href="#ArialMT-65" x="177.929688"/>
     <use xlink:href="#ArialMT-64" x="233.544922"/>
     <use xlink:href="#ArialMT-2d" x="289.160156"/>
     <use xlink:href="#ArialMT-76" x="322.460938"/>
     <use xlink:href="#ArialMT-61" x="372.460938"/>
     <use xlink:href="#ArialMT-72" x="428.076172"/>
     <use xlink:href="#ArialMT-69" x="461.376953"/>
     <use xlink:href="#ArialMT-61" x="483.59375"/>
     <use xlink:href="#ArialMT-62" x="539.208984"/>
     <use xlink:href="#ArialMT-6c" x="594.824219"/>
     <use xlink:href="#ArialMT-65" x="617.041016"/>
     <use xlink:href="#ArialMT-20" x="672.65625"/>
     <use xlink:href="#ArialMT-28" x="700.439453"/>
     <use xlink:href="#ArialMT-50" x="733.740234"/>
     <use xlink:href="#ArialMT-61" x="800.439453"/>
     <use xlink:href="#ArialMT-72" x="856.054688"/>
     <use xlink:href="#ArialMT-74" x="889.355469"/>
     <use xlink:href="#ArialMT-69" x="917.138672"/>
     <use xlink:href="#ArialMT-61" x="939.355469"/>
     <use xlink:href="#ArialMT-6c" x="994.970703"/>
     <use xlink:href="#ArialMT-20" x="1017.1875"/>
     <use xlink:href="#ArialMT-72" x="1044.970703"/>
     <use xlink:href="#ArialMT-65" x="1078.271484"/>
     <use xlink:href="#ArialMT-67" x="1133.886719"/>
     <use xlink:href="#ArialMT-72" x="1189.501953"/>
     <use xlink:href="#ArialMT-65" x="1222.802734"/>
     <use xlink:href="#ArialMT-73" x="1278.417969"/>
     <use xlink:href="#ArialMT-73" x="1328.417969"/>
     <use xlink:href="#ArialMT-69" x="1378.417969"/>
     <use xlink:href="#ArialMT-6f" x="1400.634766"/>
     <use xlink:href="#ArialMT-6e" x="1456.25"/>
     <use xlink:href="#ArialMT-29" x="1511.865234"/>
     <use xlink:href="#ArialMT-20" x="1545.166016"/>
     <use xlink:href="#ArialMT-70" x="1572.949219"/>
     <use xlink:href="#ArialMT-6c" x="1628.564453"/>
     <use xlink:href="#ArialMT-6f" x="1650.78125"/>
     <use xlink:href="#ArialMT-74" x="1706.396484"/>
     <use xlink:href="#ArialMT-20" x="1734.179688"/>
     <use xlink:href="#ArialMT-2014" x="1761.962891"/>
     <use xlink:href="#ArialMT-20" x="1861.962891"/>
     <use xlink:href="#ArialMT-69" x="1889.746094"/>
     <use xlink:href="#ArialMT-6e" x="1911.962891"/>
     <use xlink:href="#ArialMT-66" x="1967.578125"/>
     <use xlink:href="#ArialMT-6c" x="1995.361328"/>
     <use xlink:href="#ArialMT-61" x="2017.578125"/>
     <use xlink:href="#ArialMT-74" x="2073.193359"/>
     <use xlink:href="#ArialMT-69" x="2100.976562"/>
     <use xlink:href="#ArialMT-6f" x="2123.193359"/>
     <use xlink:href="#ArialMT-6e" x="2178.808594"/>
     <use xlink:href="#ArialMT-5f" x="2234.423828"/>
     <use xlink:href="#ArialMT-63" x="2290.039062"/>
     <use xlink:href="#ArialMT-6f" x="2340.039062"/>
     <use xlink:href="#ArialMT-6e" x="2395.654297"/>
     <use xlink:href="#ArialMT-73" x="2451.269531"/>
     <use xlink:href="#ArialMT-75" x="2501.269531"/>
     <use xlink:href="#ArialMT-6d" x="2556.884766"/>
     <use xlink:href="#ArialMT-65" x="2640.185547"/>
     <use xlink:href="#ArialMT-72" x="2695.800781"/>
     <use xlink:href="#ArialMT-5f" x="2729.101562"/>
     <use xlink:href="#ArialMT-70" x="2784.716797"/>
     <use xlink:href="#ArialMT-72" x="2840.332031"/>
     <use xlink:href="#ArialMT-69" x="2873.632812"/>
     <use xlink:href="#ArialMT-63" x="2895.849609"/>
     <use xlink:href="#ArialMT-65" x="2945.849609"/>
     <use xlink:href="#ArialMT-73" x="3001.464844"/>
     <use xlink:href="#ArialMT-5f" x="3051.464844"/>
     <use xlink:href="#ArialMT-70" x="3107.080078"/>
     <use xlink:href="#ArialMT-63" x="3162.695312"/>
     <use xlink:href="#ArialMT-74" x="3212.695312"/>
    </g>
   </g>
   <g id="legend_1">
    <g id="line2d_18">
     <path d="M 461.27625 38.580937 
L 473.27625 38.580937 
L 485.27625 38.580937 
" style="fill: none; stroke: #1f77b4; stroke-width: 2; stroke-linecap: round"/>
    </g>
    <g id="text_20">
     <!-- OLS fit -->
     <g style="fill: #262626" transform="translate(494.87625 42.780937) scale(0.12 -0.12)">
      <defs>
       <path id="ArialMT-4f" d="M 309 2231 
Q 309 3372 921 4017 
Q 1534 4663 2503 4663 
Q 3138 4663 3647 4359 
Q 4156 4056 4423 3514 
Q 4691 2972 4691 2284 
Q 4691 1588 4409 1038 
Q 4128 488 3612 205 
Q 3097 -78 2500 -78 
Q 1853 -78 1343 234 
Q 834 547 571 1087 
Q 309 1628 309 2231 
z
M 934 2222 
Q 934 1394 1379 917 
Q 1825 441 2497 441 
Q 3181 441 3623 922 
Q 4066 1403 4066 2288 
Q 4066 2847 3877 3264 
Q 3688 3681 3323 3911 
Q 2959 4141 2506 4141 
Q 1863 4141 1398 3698 
Q 934 3256 934 2222 
z
" transform="scale(0.015625)"/>
       <path id="ArialMT-4c" d="M 469 0 
L 469 4581 
L 1075 4581 
L 1075 541 
L 3331 541 
L 3331 0 
L 469 0 
z
" transform="scale(0.015625)"/>
       <path id="ArialMT-53" d="M 288 1472 
L 859 1522 
Q 900 1178 1048 958 
Q 1197 738 1509 602 
Q 1822 466 2213 466 
Q 2559 466 2825 569 
Q 3091 672 3220 851 
Q 3350 1031 3350 1244 
Q 3350 1459 3225 1620 
Q 3100 1781 2813 1891 
Q 2628 1963 1997 2114 
Q 1366 2266 1113 2400 
Q 784 2572 623 2826 
Q 463 3081 463 3397 
Q 463 3744 659 4045 
Q 856 4347 1234 4503 
Q 1613 4659 2075 4659 
Q 2584 4659 2973 4495 
Q 3363 4331 3572 4012 
Q 3781 3694 3797 3291 
L 3216 3247 
Q 3169 3681 2898 3903 
Q 2628 4125 2100 4125 
Q 1550 4125 1298 3923 
Q 1047 3722 1047 3438 
Q 1047 3191 1225 3031 
Q 1400 2872 2139 2705 
Q 2878 2538 3153 2413 
Q 3553 2228 3743 1945 
Q 3934 1663 3934 1294 
Q 3934 928 3725 604 
Q 3516 281 3123 101 
Q 2731 -78 2241 -78 
Q 1619 -78 1198 103 
Q 778 284 539 648 
Q 300 1013 288 1472 
z
" transform="scale(0.015625)"/>
      </defs>
      <use xlink:href="#ArialMT-4f"/>
      <use xlink:href="#ArialMT-4c" x="77.783203"/>
      <use xlink:href="#ArialMT-53" x="133.398438"/>
      <use xlink:href="#ArialMT-20" x="200.097656"/>
      <use xlink:href="#ArialMT-66" x="227.880859"/>
      <use xlink:href="#ArialMT-69" x="255.664062"/>
      <use xlink:href="#ArialMT-74" x="277.880859"/>
     </g>
    </g>
    <g id="line2d_19">
     <path d="M 461.27625 55.555312 
L 473.27625 55.555312 
L 485.27625 55.555312 
" style="fill: none; stroke-dasharray: 6.66,2.88; stroke-dashoffset: 0; stroke: #ff7f0e; stroke-width: 1.8"/>
    </g>
    <g id="text_21">
     <!-- LOWESS -->
     <g style="fill: #262626" transform="translate(494.87625 59.755312) scale(0.12 -0.12)">
      <defs>
       <path id="ArialMT-57" d="M 1294 0 
L 78 4581 
L 700 4581 
L 1397 1578 
Q 1509 1106 1591 641 
Q 1766 1375 1797 1488 
L 2669 4581 
L 3400 4581 
L 4056 2263 
Q 4303 1400 4413 641 
Q 4500 1075 4641 1638 
L 5359 4581 
L 5969 4581 
L 4713 0 
L 4128 0 
L 3163 3491 
Q 3041 3928 3019 4028 
Q 2947 3713 2884 3491 
L 1913 0 
L 1294 0 
z
" transform="scale(0.015625)"/>
       <path id="ArialMT-45" d="M 506 0 
L 506 4581 
L 3819 4581 
L 3819 4041 
L 1113 4041 
L 1113 2638 
L 3647 2638 
L 3647 2100 
L 1113 2100 
L 1113 541 
L 3925 541 
L 3925 0 
L 506 0 
z
" transform="scale(0.015625)"/>
      </defs>
      <use xlink:href="#ArialMT-4c"/>
      <use xlink:href="#ArialMT-4f" x="55.615234"/>
      <use xlink:href="#ArialMT-57" x="133.398438"/>
      <use xlink:href="#ArialMT-45" x="227.783203"/>
      <use xlink:href="#ArialMT-53" x="294.482422"/>
      <use xlink:href="#ArialMT-53" x="361.181641"/>
     </g>
    </g>
   </g>
  </g>
 </g>
 <defs>
  <clipPath id="p6fc66c7677">
   <rect x="43.143125" y="23.391562" width="513.88" height="356.2"/>
  </clipPath>
 </defs>
</svg>
