<?xml version="1.0" encoding="utf-8" standalone="no"?>
<!DOCTYPE svg PUBLIC "-//W3C//DTD SVG 1.1//EN"
  "http://www.w3.org/Graphics/SVG/1.1/DTD/svg11.dtd">
<svg xmlns:xlink="http://www.w3.org/1999/xlink" width="563.911883pt" height="420.027187pt" viewBox="0 0 563.911883 420.027187" xmlns="http://www.w3.org/2000/svg" version="1.1">
 <metadata>
  <rdf:RDF xmlns:dc="http://purl.org/dc/elements/1.1/" xmlns:cc="http://creativecommons.org/ns#" xmlns:rdf="http://www.w3.org/1999/02/22-rdf-syntax-ns#">
   <cc:Work>
    <dc:type rdf:resource="http://purl.org/dc/dcmitype/StillImage"/>
    <dc:date>2025-11-16T23:30:57.842501</dc:date>
    <dc:format>image/svg+xml</dc:format>
    <dc:creator>
     <cc:Agent>
      <dc:title>Matplotlib v3.9.2, https://matplotlib.org/</dc:title>
     </cc:Agent>
    </dc:creator>
   </cc:Work>
  </rdf:RDF>
 </metadata>
 <defs>
  <style type="text/css">*{stroke-linejoin: round; stroke-linecap: butt}</style>
 </defs>
 <g id="figure_1">
  <g id="patch_1">
   <path d="M 0 420.027187 
L 563.911883 420.027187 
L 563.911883 0 
L 0 0 
z
" style="fill: #ffffff"/>
  </g>
  <g id="axes_1">
   <g id="patch_2">
    <path d="M 66.160625 379.591562 
L 551.240511 379.591562 
L 551.240511 23.391562 
L 66.160625 23.391562 
z
" style="fill: #ffffff"/>
   </g>
   <g id="line2d_1">
    <path d="M 113.522911 379.591562 
L 113.522911 23.391562 
" clip-path="url(#p2171f46653)" style="fill: none; stroke-dasharray: 5.55,2.4; stroke-dashoffset: 0; stroke: #999999; stroke-width: 1.5"/>
   </g>
   <g id="matplotlib.axis_1">
    <g id="xtick_1">
     <g id="line2d_2">
      <path d="M 113.522911 379.591562 
L 113.522911 23.391562 
" clip-path="url(#p2171f46653)" style="fill: none; stroke: #cccccc; stroke-width: 0.8; stroke-linecap: round"/>
     </g>
     <g id="text_1">
      <!-- 0.0 -->
      <g style="fill: #262626" transform="translate(105.182911 395.180937) scale(0.12 -0.12)">
       <defs>
        <path id="ArialMT-30" d="M 266 2259 
Q 266 3072 433 3567 
Q 600 4063 929 4331 
Q 1259 4600 1759 4600 
Q 2128 4600 2406 4451 
Q 2684 4303 2865 4023 
Q 3047 3744 3150 3342 
Q 3253 2941 3253 2259 
Q 3253 1453 3087 958 
Q 2922 463 2592 192 
Q 2263 -78 1759 -78 
Q 1097 -78 719 397 
Q 266 969 266 2259 
z
M 844 2259 
Q 844 1131 1108 757 
Q 1372 384 1759 384 
Q 2147 384 2411 759 
Q 2675 1134 2675 2259 
Q 2675 3391 2411 3762 
Q 2147 4134 1753 4134 
Q 1366 4134 1134 3806 
Q 844 3388 844 2259 
z
" transform="scale(0.015625)"/>
        <path id="ArialMT-2e" d="M 581 0 
L 581 641 
L 1222 641 
L 1222 0 
L 581 0 
z
" transform="scale(0.015625)"/>
       </defs>
       <use xlink:href="#ArialMT-30"/>
       <use xlink:href="#ArialMT-2e" x="55.615234"/>
       <use xlink:href="#ArialMT-30" x="83.398438"/>
      </g>
     </g>
    </g>
    <g id="xtick_2">
     <g id="line2d_3">
      <path d="M 200.492705 379.591562 
L 200.492705 23.391562 
" clip-path="url(#p2171f46653)" style="fill: none; stroke: #cccccc; stroke-width: 0.8; stroke-linecap: round"/>
     </g>
     <g id="text_2">
      <!-- 0.2 -->
      <g style="fill: #262626" transform="translate(192.152705 395.180937) scale(0.12 -0.12)">
       <defs>
        <path id="ArialMT-32" d="M 3222 541 
L 3222 0 
L 194 0 
Q 188 203 259 391 
Q 375 700 629 1000 
Q 884 1300 1366 1694 
Q 2113 2306 2375 2664 
Q 2638 3022 2638 3341 
Q 2638 3675 2398 3904 
Q 2159 4134 1775 4134 
Q 1369 4134 1125 3890 
Q 881 3647 878 3216 
L 300 3275 
Q 359 3922 746 4261 
Q 1134 4600 1788 4600 
Q 2447 4600 2831 4234 
Q 3216 3869 3216 3328 
Q 3216 3053 3103 2787 
Q 2991 2522 2730 2228 
Q 2469 1934 1863 1422 
Q 1356 997 1212 845 
Q 1069 694 975 541 
L 3222 541 
z
" transform="scale(0.015625)"/>
       </defs>
       <use xlink:href="#ArialMT-30"/>
       <use xlink:href="#ArialMT-2e" x="55.615234"/>
       <use xlink:href="#ArialMT-32" x="83.398438"/>
      </g>
     </g>
    </g>
    <g id="xtick_3">
     <g id="line2d_4">
      <path d="M 287.4625 379.591562 
L 287.4625 23.391562 
" clip-path="url(#p2171f46653)" style="fill: none; stroke: #cccccc; stroke-width: 0.8; stroke-linecap: round"/>
     </g>
     <g id="text_3">
      <!-- 0.4 -->
      <g style="fill: #262626" transform="translate(279.1225 395.180937) scale(0.12 -0.12)">
       <defs>
        <path id="ArialMT-34" d="M 2069 0 
L 2069 1097 
L 81 1097 
L 81 1613 
L 2172 4581 
L 2631 4581 
L 2631 1613 
L 3250 1613 
L 3250 1097 
L 2631 1097 
L 2631 0 
L 2069 0 
z
M 2069 1613 
L 2069 3678 
L 634 1613 
L 2069 1613 
z
" transform="scale(0.015625)"/>
       </defs>
       <use xlink:href="#ArialMT-30"/>
       <use xlink:href="#ArialMT-2e" x="55.615234"/>
       <use xlink:href="#ArialMT-34" x="83.398438"/>
      </g>
     </g>
    </g>
    <g id="xtick_4">
     <g id="line2d_5">
      <path d="M 374.432294 379.591562 
L 374.432294 23.391562 
" clip-path="url(#p2171f46653)" style="fill: none; stroke: #cccccc; stroke-width: 0.8; stroke-linecap: round"/>
     </g>
     <g id="text_4">
      <!-- 0.6 -->
      <g style="fill: #262626" transform="translate(366.092294 395.180937) scale(0.12 -0.12)">
       <defs>
        <path id="ArialMT-36" d="M 3184 3459 
L 2625 3416 
Q 2550 3747 2413 3897 
Q 2184 4138 1850 4138 
Q 1581 4138 1378 3988 
Q 1113 3794 959 3422 
Q 806 3050 800 2363 
Q 1003 2672 1297 2822 
Q 1591 2972 1913 2972 
Q 2475 2972 2870 2558 
Q 3266 2144 3266 1488 
Q 3266 1056 3080 686 
Q 2894 316 2569 119 
Q 2244 -78 1831 -78 
Q 1128 -78 684 439 
Q 241 956 241 2144 
Q 241 3472 731 4075 
Q 1159 4600 1884 4600 
Q 2425 4600 2770 4297 
Q 3116 3994 3184 3459 
z
M 888 1484 
Q 888 1194 1011 928 
Q 1134 663 1356 523 
Q 1578 384 1822 384 
Q 2178 384 2434 671 
Q 2691 959 2691 1453 
Q 2691 1928 2437 2201 
Q 2184 2475 1800 2475 
Q 1419 2475 1153 2201 
Q 888 1928 888 1484 
z
" transform="scale(0.015625)"/>
       </defs>
       <use xlink:href="#ArialMT-30"/>
       <use xlink:href="#ArialMT-2e" x="55.615234"/>
       <use xlink:href="#ArialMT-36" x="83.398438"/>
      </g>
     </g>
    </g>
    <g id="xtick_5">
     <g id="line2d_6">
      <path d="M 461.402088 379.591562 
L 461.402088 23.391562 
" clip-path="url(#p2171f46653)" style="fill: none; stroke: #cccccc; stroke-width: 0.8; stroke-linecap: round"/>
     </g>
     <g id="text_5">
      <!-- 0.8 -->
      <g style="fill: #262626" transform="translate(453.062088 395.180937) scale(0.12 -0.12)">
       <defs>
        <path id="ArialMT-38" d="M 1131 2484 
Q 781 2613 612 2850 
Q 444 3088 444 3419 
Q 444 3919 803 4259 
Q 1163 4600 1759 4600 
Q 2359 4600 2725 4251 
Q 3091 3903 3091 3403 
Q 3091 3084 2923 2848 
Q 2756 2613 2416 2484 
Q 2838 2347 3058 2040 
Q 3278 1734 3278 1309 
Q 3278 722 2862 322 
Q 2447 -78 1769 -78 
Q 1091 -78 675 323 
Q 259 725 259 1325 
Q 259 1772 486 2073 
Q 713 2375 1131 2484 
z
M 1019 3438 
Q 1019 3113 1228 2906 
Q 1438 2700 1772 2700 
Q 2097 2700 2305 2904 
Q 2513 3109 2513 3406 
Q 2513 3716 2298 3927 
Q 2084 4138 1766 4138 
Q 1444 4138 1231 3931 
Q 1019 3725 1019 3438 
z
M 838 1322 
Q 838 1081 952 856 
Q 1066 631 1291 507 
Q 1516 384 1775 384 
Q 2178 384 2440 643 
Q 2703 903 2703 1303 
Q 2703 1709 2433 1975 
Q 2163 2241 1756 2241 
Q 1359 2241 1098 1978 
Q 838 1716 838 1322 
z
" transform="scale(0.015625)"/>
       </defs>
       <use xlink:href="#ArialMT-30"/>
       <use xlink:href="#ArialMT-2e" x="55.615234"/>
       <use xlink:href="#ArialMT-38" x="83.398438"/>
      </g>
     </g>
    </g>
    <g id="xtick_6">
     <g id="line2d_7">
      <path d="M 548.371883 379.591562 
L 548.371883 23.391562 
" clip-path="url(#p2171f46653)" style="fill: none; stroke: #cccccc; stroke-width: 0.8; stroke-linecap: round"/>
     </g>
     <g id="text_6">
      <!-- 1.0 -->
      <g style="fill: #262626" transform="translate(540.031883 395.180937) scale(0.12 -0.12)">
       <defs>
        <path id="ArialMT-31" d="M 2384 0 
L 1822 0 
L 1822 3584 
Q 1619 3391 1289 3197 
Q 959 3003 697 2906 
L 697 3450 
Q 1169 3672 1522 3987 
Q 1875 4303 2022 4600 
L 2384 4600 
L 2384 0 
z
" transform="scale(0.015625)"/>
       </defs>
       <use xlink:href="#ArialMT-31"/>
       <use xlink:href="#ArialMT-2e" x="55.615234"/>
       <use xlink:href="#ArialMT-30" x="83.398438"/>
      </g>
     </g>
    </g>
    <g id="text_7">
     <!-- Predictor (partialed) — residualized -->
     <g style="fill: #262626" transform="translate(214.666506 410.301562) scale(0.12 -0.12)">
      <defs>
       <path id="ArialMT-50" d="M 494 0 
L 494 4581 
L 2222 4581 
Q 2678 4581 2919 4538 
Q 3256 4481 3484 4323 
Q 3713 4166 3852 3881 
Q 3991 3597 3991 3256 
Q 3991 2672 3619 2267 
Q 3247 1863 2275 1863 
L 1100 1863 
L 1100 0 
L 494 0 
z
M 1100 2403 
L 2284 2403 
Q 2872 2403 3119 2622 
Q 3366 2841 3366 3238 
Q 3366 3525 3220 3729 
Q 3075 3934 2838 4000 
Q 2684 4041 2272 4041 
L 1100 4041 
L 1100 2403 
z
" transform="scale(0.015625)"/>
       <path id="ArialMT-72" d="M 416 0 
L 416 3319 
L 922 3319 
L 922 2816 
Q 1116 3169 1280 3281 
Q 1444 3394 1641 3394 
Q 1925 3394 2219 3213 
L 2025 2691 
Q 1819 2813 1613 2813 
Q 1428 2813 1281 2702 
Q 1134 2591 1072 2394 
Q 978 2094 978 1738 
L 978 0 
L 416 0 
z
" transform="scale(0.015625)"/>
       <path id="ArialMT-65" d="M 2694 1069 
L 3275 997 
Q 3138 488 2766 206 
Q 2394 -75 1816 -75 
Q 1088 -75 661 373 
Q 234 822 234 1631 
Q 234 2469 665 2931 
Q 1097 3394 1784 3394 
Q 2450 3394 2872 2941 
Q 3294 2488 3294 1666 
Q 3294 1616 3291 1516 
L 816 1516 
Q 847 969 1125 678 
Q 1403 388 1819 388 
Q 2128 388 2347 550 
Q 2566 713 2694 1069 
z
M 847 1978 
L 2700 1978 
Q 2663 2397 2488 2606 
Q 2219 2931 1791 2931 
Q 1403 2931 1139 2672 
Q 875 2413 847 1978 
z
" transform="scale(0.015625)"/>
       <path id="ArialMT-64" d="M 2575 0 
L 2575 419 
Q 2259 -75 1647 -75 
Q 1250 -75 917 144 
Q 584 363 401 755 
Q 219 1147 219 1656 
Q 219 2153 384 2558 
Q 550 2963 881 3178 
Q 1213 3394 1622 3394 
Q 1922 3394 2156 3267 
Q 2391 3141 2538 2938 
L 2538 4581 
L 3097 4581 
L 3097 0 
L 2575 0 
z
M 797 1656 
Q 797 1019 1065 703 
Q 1334 388 1700 388 
Q 2069 388 2326 689 
Q 2584 991 2584 1609 
Q 2584 2291 2321 2609 
Q 2059 2928 1675 2928 
Q 1300 2928 1048 2622 
Q 797 2316 797 1656 
z
" transform="scale(0.015625)"/>
       <path id="ArialMT-69" d="M 425 3934 
L 425 4581 
L 988 4581 
L 988 3934 
L 425 3934 
z
M 425 0 
L 425 3319 
L 988 3319 
L 988 0 
L 425 0 
z
" transform="scale(0.015625)"/>
       <path id="ArialMT-63" d="M 2588 1216 
L 3141 1144 
Q 3050 572 2676 248 
Q 2303 -75 1759 -75 
Q 1078 -75 664 370 
Q 250 816 250 1647 
Q 250 2184 428 2587 
Q 606 2991 970 3192 
Q 1334 3394 1763 3394 
Q 2303 3394 2647 3120 
Q 2991 2847 3088 2344 
L 2541 2259 
Q 2463 2594 2264 2762 
Q 2066 2931 1784 2931 
Q 1359 2931 1093 2626 
Q 828 2322 828 1663 
Q 828 994 1084 691 
Q 1341 388 1753 388 
Q 2084 388 2306 591 
Q 2528 794 2588 1216 
z
" transform="scale(0.015625)"/>
       <path id="ArialMT-74" d="M 1650 503 
L 1731 6 
Q 1494 -44 1306 -44 
Q 1000 -44 831 53 
Q 663 150 594 308 
Q 525 466 525 972 
L 525 2881 
L 113 2881 
L 113 3319 
L 525 3319 
L 525 4141 
L 1084 4478 
L 1084 3319 
L 1650 3319 
L 1650 2881 
L 1084 2881 
L 1084 941 
Q 1084 700 1114 631 
Q 1144 563 1211 522 
Q 1278 481 1403 481 
Q 1497 481 1650 503 
z
" transform="scale(0.015625)"/>
       <path id="ArialMT-6f" d="M 213 1659 
Q 213 2581 725 3025 
Q 1153 3394 1769 3394 
Q 2453 3394 2887 2945 
Q 3322 2497 3322 1706 
Q 3322 1066 3130 698 
Q 2938 331 2570 128 
Q 2203 -75 1769 -75 
Q 1072 -75 642 372 
Q 213 819 213 1659 
z
M 791 1659 
Q 791 1022 1069 705 
Q 1347 388 1769 388 
Q 2188 388 2466 706 
Q 2744 1025 2744 1678 
Q 2744 2294 2464 2611 
Q 2184 2928 1769 2928 
Q 1347 2928 1069 2612 
Q 791 2297 791 1659 
z
" transform="scale(0.015625)"/>
       <path id="ArialMT-20" transform="scale(0.015625)"/>
       <path id="ArialMT-28" d="M 1497 -1347 
Q 1031 -759 709 28 
Q 388 816 388 1659 
Q 388 2403 628 3084 
Q 909 3875 1497 4659 
L 1900 4659 
Q 1522 4009 1400 3731 
Q 1209 3300 1100 2831 
Q 966 2247 966 1656 
Q 966 153 1900 -1347 
L 1497 -1347 
z
" transform="scale(0.015625)"/>
       <path id="ArialMT-70" d="M 422 -1272 
L 422 3319 
L 934 3319 
L 934 2888 
Q 1116 3141 1344 3267 
Q 1572 3394 1897 3394 
Q 2322 3394 2647 3175 
Q 2972 2956 3137 2557 
Q 3303 2159 3303 1684 
Q 3303 1175 3120 767 
Q 2938 359 2589 142 
Q 2241 -75 1856 -75 
Q 1575 -75 1351 44 
Q 1128 163 984 344 
L 984 -1272 
L 422 -1272 
z
M 931 1641 
Q 931 1000 1190 694 
Q 1450 388 1819 388 
Q 2194 388 2461 705 
Q 2728 1022 2728 1688 
Q 2728 2322 2467 2637 
Q 2206 2953 1844 2953 
Q 1484 2953 1207 2617 
Q 931 2281 931 1641 
z
" transform="scale(0.015625)"/>
       <path id="ArialMT-61" d="M 2588 409 
Q 2275 144 1986 34 
Q 1697 -75 1366 -75 
Q 819 -75 525 192 
Q 231 459 231 875 
Q 231 1119 342 1320 
Q 453 1522 633 1644 
Q 813 1766 1038 1828 
Q 1203 1872 1538 1913 
Q 2219 1994 2541 2106 
Q 2544 2222 2544 2253 
Q 2544 2597 2384 2738 
Q 2169 2928 1744 2928 
Q 1347 2928 1158 2789 
Q 969 2650 878 2297 
L 328 2372 
Q 403 2725 575 2942 
Q 747 3159 1072 3276 
Q 1397 3394 1825 3394 
Q 2250 3394 2515 3294 
Q 2781 3194 2906 3042 
Q 3031 2891 3081 2659 
Q 3109 2516 3109 2141 
L 3109 1391 
Q 3109 606 3145 398 
Q 3181 191 3288 0 
L 2700 0 
Q 2613 175 2588 409 
z
M 2541 1666 
Q 2234 1541 1622 1453 
Q 1275 1403 1131 1340 
Q 988 1278 909 1158 
Q 831 1038 831 891 
Q 831 666 1001 516 
Q 1172 366 1500 366 
Q 1825 366 2078 508 
Q 2331 650 2450 897 
Q 2541 1088 2541 1459 
L 2541 1666 
z
" transform="scale(0.015625)"/>
       <path id="ArialMT-6c" d="M 409 0 
L 409 4581 
L 972 4581 
L 972 0 
L 409 0 
z
" transform="scale(0.015625)"/>
       <path id="ArialMT-29" d="M 791 -1347 
L 388 -1347 
Q 1322 153 1322 1656 
Q 1322 2244 1188 2822 
Q 1081 3291 891 3722 
Q 769 4003 388 4659 
L 791 4659 
Q 1378 3875 1659 3084 
Q 1900 2403 1900 1659 
Q 1900 816 1576 28 
Q 1253 -759 791 -1347 
z
" transform="scale(0.015625)"/>
       <path id="ArialMT-2014" d="M 0 1431 
L 0 1884 
L 6400 1884 
L 6400 1431 
L 0 1431 
z
" transform="scale(0.015625)"/>
       <path id="ArialMT-73" d="M 197 991 
L 753 1078 
Q 800 744 1014 566 
Q 1228 388 1613 388 
Q 2000 388 2187 545 
Q 2375 703 2375 916 
Q 2375 1106 2209 1216 
Q 2094 1291 1634 1406 
Q 1016 1563 777 1677 
Q 538 1791 414 1992 
Q 291 2194 291 2438 
Q 291 2659 392 2848 
Q 494 3038 669 3163 
Q 800 3259 1026 3326 
Q 1253 3394 1513 3394 
Q 1903 3394 2198 3281 
Q 2494 3169 2634 2976 
Q 2775 2784 2828 2463 
L 2278 2388 
Q 2241 2644 2061 2787 
Q 1881 2931 1553 2931 
Q 1166 2931 1000 2803 
Q 834 2675 834 2503 
Q 834 2394 903 2306 
Q 972 2216 1119 2156 
Q 1203 2125 1616 2013 
Q 2213 1853 2448 1751 
Q 2684 1650 2818 1456 
Q 2953 1263 2953 975 
Q 2953 694 2789 445 
Q 2625 197 2315 61 
Q 2006 -75 1616 -75 
Q 969 -75 630 194 
Q 291 463 197 991 
z
" transform="scale(0.015625)"/>
       <path id="ArialMT-75" d="M 2597 0 
L 2597 488 
Q 2209 -75 1544 -75 
Q 1250 -75 995 37 
Q 741 150 617 320 
Q 494 491 444 738 
Q 409 903 409 1263 
L 409 3319 
L 972 3319 
L 972 1478 
Q 972 1038 1006 884 
Q 1059 663 1231 536 
Q 1403 409 1656 409 
Q 1909 409 2131 539 
Q 2353 669 2445 892 
Q 2538 1116 2538 1541 
L 2538 3319 
L 3100 3319 
L 3100 0 
L 2597 0 
z
" transform="scale(0.015625)"/>
       <path id="ArialMT-7a" d="M 125 0 
L 125 456 
L 2238 2881 
Q 1878 2863 1603 2863 
L 250 2863 
L 250 3319 
L 2963 3319 
L 2963 2947 
L 1166 841 
L 819 456 
Q 1197 484 1528 484 
L 3063 484 
L 3063 0 
L 125 0 
z
" transform="scale(0.015625)"/>
      </defs>
      <use xlink:href="#ArialMT-50"/>
      <use xlink:href="#ArialMT-72" x="66.699219"/>
      <use xlink:href="#ArialMT-65" x="100"/>
      <use xlink:href="#ArialMT-64" x="155.615234"/>
      <use xlink:href="#ArialMT-69" x="211.230469"/>
      <use xlink:href="#ArialMT-63" x="233.447266"/>
      <use xlink:href="#ArialMT-74" x="283.447266"/>
      <use xlink:href="#ArialMT-6f" x="311.230469"/>
      <use xlink:href="#ArialMT-72" x="366.845703"/>
      <use xlink:href="#ArialMT-20" x="400.146484"/>
      <use xlink:href="#ArialMT-28" x="427.929688"/>
      <use xlink:href="#ArialMT-70" x="461.230469"/>
      <use xlink:href="#ArialMT-61" x="516.845703"/>
      <use xlink:href="#ArialMT-72" x="572.460938"/>
      <use xlink:href="#ArialMT-74" x="605.761719"/>
      <use xlink:href="#ArialMT-69" x="633.544922"/>
      <use xlink:href="#ArialMT-61" x="655.761719"/>
      <use xlink:href="#ArialMT-6c" x="711.376953"/>
      <use xlink:href="#ArialMT-65" x="733.59375"/>
      <use xlink:href="#ArialMT-64" x="789.208984"/>
      <use xlink:href="#ArialMT-29" x="844.824219"/>
      <use xlink:href="#ArialMT-20" x="878.125"/>
      <use xlink:href="#ArialMT-2014" x="905.908203"/>
      <use xlink:href="#ArialMT-20" x="1005.908203"/>
      <use xlink:href="#ArialMT-72" x="1033.691406"/>
      <use xlink:href="#ArialMT-65" x="1066.992188"/>
      <use xlink:href="#ArialMT-73" x="1122.607422"/>
      <use xlink:href="#ArialMT-69" x="1172.607422"/>
      <use xlink:href="#ArialMT-64" x="1194.824219"/>
      <use xlink:href="#ArialMT-75" x="1250.439453"/>
      <use xlink:href="#ArialMT-61" x="1306.054688"/>
      <use xlink:href="#ArialMT-6c" x="1361.669922"/>
      <use xlink:href="#ArialMT-69" x="1383.886719"/>
      <use xlink:href="#ArialMT-7a" x="1406.103516"/>
      <use xlink:href="#ArialMT-65" x="1456.103516"/>
      <use xlink:href="#ArialMT-64" x="1511.71875"/>
     </g>
    </g>
    <g id="text_8">
     <!-- 1e−5 -->
     <g style="fill: #262626" transform="translate(524.212386 409.155312) scale(0.12 -0.12)">
      <defs>
       <path id="ArialMT-2212" d="M 3381 1997 
L 356 1997 
L 356 2522 
L 3381 2522 
L 3381 1997 
z
" transform="scale(0.015625)"/>
       <path id="ArialMT-35" d="M 266 1200 
L 856 1250 
Q 922 819 1161 601 
Q 1400 384 1738 384 
Q 2144 384 2425 690 
Q 2706 997 2706 1503 
Q 2706 1984 2436 2262 
Q 2166 2541 1728 2541 
Q 1456 2541 1237 2417 
Q 1019 2294 894 2097 
L 366 2166 
L 809 4519 
L 3088 4519 
L 3088 3981 
L 1259 3981 
L 1013 2750 
Q 1425 3038 1878 3038 
Q 2478 3038 2890 2622 
Q 3303 2206 3303 1553 
Q 3303 931 2941 478 
Q 2500 -78 1738 -78 
Q 1113 -78 717 272 
Q 322 622 266 1200 
z
" transform="scale(0.015625)"/>
      </defs>
      <use xlink:href="#ArialMT-31"/>
      <use xlink:href="#ArialMT-65" x="55.615234"/>
      <use xlink:href="#ArialMT-2212" x="111.230469"/>
      <use xlink:href="#ArialMT-35" x="169.628906"/>
     </g>
    </g>
   </g>
   <g id="matplotlib.axis_2">
    <g id="ytick_1">
     <g id="line2d_8">
      <path d="M 66.160625 319.13933 
L 551.240511 319.13933 
" clip-path="url(#p2171f46653)" style="fill: none; stroke: #cccccc; stroke-width: 0.8; stroke-linecap: round"/>
     </g>
     <g id="text_9">
      <!-- 0.0000 -->
      <g style="fill: #262626" transform="translate(22.46125 323.434017) scale(0.12 -0.12)">
       <use xlink:href="#ArialMT-30"/>
       <use xlink:href="#ArialMT-2e" x="55.615234"/>
       <use xlink:href="#ArialMT-30" x="83.398438"/>
       <use xlink:href="#ArialMT-30" x="139.013672"/>
       <use xlink:href="#ArialMT-30" x="194.628906"/>
       <use xlink:href="#ArialMT-30" x="250.244141"/>
      </g>
     </g>
    </g>
    <g id="ytick_2">
     <g id="line2d_9">
      <path d="M 66.160625 252.662736 
L 551.240511 252.662736 
" clip-path="url(#p2171f46653)" style="fill: none; stroke: #cccccc; stroke-width: 0.8; stroke-linecap: round"/>
     </g>
     <g id="text_10">
      <!-- 0.0002 -->
      <g style="fill: #262626" transform="translate(22.46125 256.957424) scale(0.12 -0.12)">
       <use xlink:href="#ArialMT-30"/>
       <use xlink:href="#ArialMT-2e" x="55.615234"/>
       <use xlink:href="#ArialMT-30" x="83.398438"/>
       <use xlink:href="#ArialMT-30" x="139.013672"/>
       <use xlink:href="#ArialMT-30" x="194.628906"/>
       <use xlink:href="#ArialMT-32" x="250.244141"/>
      </g>
     </g>
    </g>
    <g id="ytick_3">
     <g id="line2d_10">
      <path d="M 66.160625 186.186143 
L 551.240511 186.186143 
" clip-path="url(#p2171f46653)" style="fill: none; stroke: #cccccc; stroke-width: 0.8; stroke-linecap: round"/>
     </g>
     <g id="text_11">
      <!-- 0.0004 -->
      <g style="fill: #262626" transform="translate(22.46125 190.48083) scale(0.12 -0.12)">
       <use xlink:href="#ArialMT-30"/>
       <use xlink:href="#ArialMT-2e" x="55.615234"/>
       <use xlink:href="#ArialMT-30" x="83.398438"/>
       <use xlink:href="#ArialMT-30" x="139.013672"/>
       <use xlink:href="#ArialMT-30" x="194.628906"/>
       <use xlink:href="#ArialMT-34" x="250.244141"/>
      </g>
     </g>
    </g>
    <g id="ytick_4">
     <g id="line2d_11">
      <path d="M 66.160625 119.70955 
L 551.240511 119.70955 
" clip-path="url(#p2171f46653)" style="fill: none; stroke: #cccccc; stroke-width: 0.8; stroke-linecap: round"/>
     </g>
     <g id="text_12">
      <!-- 0.0006 -->
      <g style="fill: #262626" transform="translate(22.46125 124.004237) scale(0.12 -0.12)">
       <use xlink:href="#ArialMT-30"/>
       <use xlink:href="#ArialMT-2e" x="55.615234"/>
       <use xlink:href="#ArialMT-30" x="83.398438"/>
       <use xlink:href="#ArialMT-30" x="139.013672"/>
       <use xlink:href="#ArialMT-30" x="194.628906"/>
       <use xlink:href="#ArialMT-36" x="250.244141"/>
      </g>
     </g>
    </g>
    <g id="ytick_5">
     <g id="line2d_12">
      <path d="M 66.160625 53.232956 
L 551.240511 53.232956 
" clip-path="url(#p2171f46653)" style="fill: none; stroke: #cccccc; stroke-width: 0.8; stroke-linecap: round"/>
     </g>
     <g id="text_13">
      <!-- 0.0008 -->
      <g style="fill: #262626" transform="translate(22.46125 57.527644) scale(0.12 -0.12)">
       <use xlink:href="#ArialMT-30"/>
       <use xlink:href="#ArialMT-2e" x="55.615234"/>
       <use xlink:href="#ArialMT-30" x="83.398438"/>
       <use xlink:href="#ArialMT-30" x="139.013672"/>
       <use xlink:href="#ArialMT-30" x="194.628906"/>
       <use xlink:href="#ArialMT-38" x="250.244141"/>
      </g>
     </g>
    </g>
    <g id="text_14">
     <!-- Target (partialed) — residualized -->
     <g style="fill: #262626" transform="translate(15.935625 288.189687) rotate(-90) scale(0.12 -0.12)">
      <defs>
       <path id="ArialMT-54" d="M 1659 0 
L 1659 4041 
L 150 4041 
L 150 4581 
L 3781 4581 
L 3781 4041 
L 2266 4041 
L 2266 0 
L 1659 0 
z
" transform="scale(0.015625)"/>
       <path id="ArialMT-67" d="M 319 -275 
L 866 -356 
Q 900 -609 1056 -725 
Q 1266 -881 1628 -881 
Q 2019 -881 2231 -725 
Q 2444 -569 2519 -288 
Q 2563 -116 2559 434 
Q 2191 0 1641 0 
Q 956 0 581 494 
Q 206 988 206 1678 
Q 206 2153 378 2554 
Q 550 2956 876 3175 
Q 1203 3394 1644 3394 
Q 2231 3394 2613 2919 
L 2613 3319 
L 3131 3319 
L 3131 450 
Q 3131 -325 2973 -648 
Q 2816 -972 2473 -1159 
Q 2131 -1347 1631 -1347 
Q 1038 -1347 672 -1080 
Q 306 -813 319 -275 
z
M 784 1719 
Q 784 1066 1043 766 
Q 1303 466 1694 466 
Q 2081 466 2343 764 
Q 2606 1063 2606 1700 
Q 2606 2309 2336 2618 
Q 2066 2928 1684 2928 
Q 1309 2928 1046 2623 
Q 784 2319 784 1719 
z
" transform="scale(0.015625)"/>
      </defs>
      <use xlink:href="#ArialMT-54"/>
      <use xlink:href="#ArialMT-61" x="49.958984"/>
      <use xlink:href="#ArialMT-72" x="105.574219"/>
      <use xlink:href="#ArialMT-67" x="138.875"/>
      <use xlink:href="#ArialMT-65" x="194.490234"/>
      <use xlink:href="#ArialMT-74" x="250.105469"/>
      <use xlink:href="#ArialMT-20" x="277.888672"/>
      <use xlink:href="#ArialMT-28" x="305.671875"/>
      <use xlink:href="#ArialMT-70" x="338.972656"/>
      <use xlink:href="#ArialMT-61" x="394.587891"/>
      <use xlink:href="#ArialMT-72" x="450.203125"/>
      <use xlink:href="#ArialMT-74" x="483.503906"/>
      <use xlink:href="#ArialMT-69" x="511.287109"/>
      <use xlink:href="#ArialMT-61" x="533.503906"/>
      <use xlink:href="#ArialMT-6c" x="589.119141"/>
      <use xlink:href="#ArialMT-65" x="611.335938"/>
      <use xlink:href="#ArialMT-64" x="666.951172"/>
      <use xlink:href="#ArialMT-29" x="722.566406"/>
      <use xlink:href="#ArialMT-20" x="755.867188"/>
      <use xlink:href="#ArialMT-2014" x="783.650391"/>
      <use xlink:href="#ArialMT-20" x="883.650391"/>
      <use xlink:href="#ArialMT-72" x="911.433594"/>
      <use xlink:href="#ArialMT-65" x="944.734375"/>
      <use xlink:href="#ArialMT-73" x="1000.349609"/>
      <use xlink:href="#ArialMT-69" x="1050.349609"/>
      <use xlink:href="#ArialMT-64" x="1072.566406"/>
      <use xlink:href="#ArialMT-75" x="1128.181641"/>
      <use xlink:href="#ArialMT-61" x="1183.796875"/>
      <use xlink:href="#ArialMT-6c" x="1239.412109"/>
      <use xlink:href="#ArialMT-69" x="1261.628906"/>
      <use xlink:href="#ArialMT-7a" x="1283.845703"/>
      <use xlink:href="#ArialMT-65" x="1333.845703"/>
      <use xlink:href="#ArialMT-64" x="1389.460938"/>
     </g>
    </g>
   </g>
   <g id="PathCollection_1">
    <defs>
     <path id="m374d507ef9" d="M 0 2.44949 
C 0.649612 2.44949 1.272706 2.191396 1.732051 1.732051 
C 2.191396 1.272706 2.44949 0.649612 2.44949 0 
C 2.44949 -0.649612 2.191396 -1.272706 1.732051 -1.732051 
C 1.272706 -2.191396 0.649612 -2.44949 0 -2.44949 
C -0.649612 -2.44949 -1.272706 -2.191396 -1.732051 -1.732051 
C -2.191396 -1.272706 -2.44949 -0.649612 -2.44949 0 
C -2.44949 0.649612 -2.191396 1.272706 -1.732051 1.732051 
C -1.272706 2.191396 -0.649612 2.44949 0 2.44949 
z
" style="stroke: #1f77b4; stroke-opacity: 0.7"/>
    </defs>
    <g clip-path="url(#p2171f46653)">
     <use xlink:href="#m374d507ef9" x="116.094545" y="317.539767" style="fill: #1f77b4; fill-opacity: 0.7; stroke: #1f77b4; stroke-opacity: 0.7"/>
     <use xlink:href="#m374d507ef9" x="114.767003" y="318.300165" style="fill: #1f77b4; fill-opacity: 0.7; stroke: #1f77b4; stroke-opacity: 0.7"/>
     <use xlink:href="#m374d507ef9" x="143.599667" y="304.257268" style="fill: #1f77b4; fill-opacity: 0.7; stroke: #1f77b4; stroke-opacity: 0.7"/>
     <use xlink:href="#m374d507ef9" x="131.301988" y="307.852586" style="fill: #1f77b4; fill-opacity: 0.7; stroke: #1f77b4; stroke-opacity: 0.7"/>
     <use xlink:href="#m374d507ef9" x="115.056359" y="308.125792" style="fill: #1f77b4; fill-opacity: 0.7; stroke: #1f77b4; stroke-opacity: 0.7"/>
     <use xlink:href="#m374d507ef9" x="111.614868" y="363.400653" style="fill: #1f77b4; fill-opacity: 0.7; stroke: #1f77b4; stroke-opacity: 0.7"/>
     <use xlink:href="#m374d507ef9" x="141.648924" y="318.854582" style="fill: #1f77b4; fill-opacity: 0.7; stroke: #1f77b4; stroke-opacity: 0.7"/>
     <use xlink:href="#m374d507ef9" x="143.194509" y="324.00984" style="fill: #1f77b4; fill-opacity: 0.7; stroke: #1f77b4; stroke-opacity: 0.7"/>
     <use xlink:href="#m374d507ef9" x="141.005985" y="307.667946" style="fill: #1f77b4; fill-opacity: 0.7; stroke: #1f77b4; stroke-opacity: 0.7"/>
     <use xlink:href="#m374d507ef9" x="88.209711" y="311.208887" style="fill: #1f77b4; fill-opacity: 0.7; stroke: #1f77b4; stroke-opacity: 0.7"/>
     <use xlink:href="#m374d507ef9" x="130.675768" y="317.03103" style="fill: #1f77b4; fill-opacity: 0.7; stroke: #1f77b4; stroke-opacity: 0.7"/>
     <use xlink:href="#m374d507ef9" x="116.51135" y="317.834718" style="fill: #1f77b4; fill-opacity: 0.7; stroke: #1f77b4; stroke-opacity: 0.7"/>
     <use xlink:href="#m374d507ef9" x="114.060768" y="318.998229" style="fill: #1f77b4; fill-opacity: 0.7; stroke: #1f77b4; stroke-opacity: 0.7"/>
     <use xlink:href="#m374d507ef9" x="115.461696" y="317.745925" style="fill: #1f77b4; fill-opacity: 0.7; stroke: #1f77b4; stroke-opacity: 0.7"/>
     <use xlink:href="#m374d507ef9" x="217.066216" y="289.626036" style="fill: #1f77b4; fill-opacity: 0.7; stroke: #1f77b4; stroke-opacity: 0.7"/>
     <use xlink:href="#m374d507ef9" x="220.927723" y="283.615505" style="fill: #1f77b4; fill-opacity: 0.7; stroke: #1f77b4; stroke-opacity: 0.7"/>
     <use xlink:href="#m374d507ef9" x="214.690848" y="270.734311" style="fill: #1f77b4; fill-opacity: 0.7; stroke: #1f77b4; stroke-opacity: 0.7"/>
     <use xlink:href="#m374d507ef9" x="222.925226" y="272.166517" style="fill: #1f77b4; fill-opacity: 0.7; stroke: #1f77b4; stroke-opacity: 0.7"/>
     <use xlink:href="#m374d507ef9" x="121.453969" y="315.605289" style="fill: #1f77b4; fill-opacity: 0.7; stroke: #1f77b4; stroke-opacity: 0.7"/>
     <use xlink:href="#m374d507ef9" x="114.838271" y="318.398061" style="fill: #1f77b4; fill-opacity: 0.7; stroke: #1f77b4; stroke-opacity: 0.7"/>
     <use xlink:href="#m374d507ef9" x="529.191426" y="89.376118" style="fill: #1f77b4; fill-opacity: 0.7; stroke: #1f77b4; stroke-opacity: 0.7"/>
     <use xlink:href="#m374d507ef9" x="450.176499" y="106.846919" style="fill: #1f77b4; fill-opacity: 0.7; stroke: #1f77b4; stroke-opacity: 0.7"/>
     <use xlink:href="#m374d507ef9" x="379.890047" y="105.351399" style="fill: #1f77b4; fill-opacity: 0.7; stroke: #1f77b4; stroke-opacity: 0.7"/>
     <use xlink:href="#m374d507ef9" x="162.641967" y="258.140964" style="fill: #1f77b4; fill-opacity: 0.7; stroke: #1f77b4; stroke-opacity: 0.7"/>
     <use xlink:href="#m374d507ef9" x="173.771443" y="310.715718" style="fill: #1f77b4; fill-opacity: 0.7; stroke: #1f77b4; stroke-opacity: 0.7"/>
     <use xlink:href="#m374d507ef9" x="136.518959" y="352.302908" style="fill: #1f77b4; fill-opacity: 0.7; stroke: #1f77b4; stroke-opacity: 0.7"/>
     <use xlink:href="#m374d507ef9" x="130.124542" y="310.00167" style="fill: #1f77b4; fill-opacity: 0.7; stroke: #1f77b4; stroke-opacity: 0.7"/>
     <use xlink:href="#m374d507ef9" x="117.863961" y="316.753397" style="fill: #1f77b4; fill-opacity: 0.7; stroke: #1f77b4; stroke-opacity: 0.7"/>
     <use xlink:href="#m374d507ef9" x="116.19036" y="319.297258" style="fill: #1f77b4; fill-opacity: 0.7; stroke: #1f77b4; stroke-opacity: 0.7"/>
     <use xlink:href="#m374d507ef9" x="116.170416" y="324.612606" style="fill: #1f77b4; fill-opacity: 0.7; stroke: #1f77b4; stroke-opacity: 0.7"/>
    </g>
   </g>
   <g id="PolyCollection_1">
    <defs>
     <path id="m167e4d0836" d="M 88.209711 -88.47655 
L 88.209711 -68.349904 
L 90.425699 -69.831193 
L 92.641688 -71.310719 
L 94.857676 -72.788426 
L 97.073665 -74.264256 
L 99.289653 -75.73815 
L 101.505642 -77.210046 
L 103.72163 -78.679882 
L 105.937619 -80.147596 
L 108.153607 -81.613123 
L 110.369596 -83.076397 
L 112.585584 -84.537353 
L 114.801573 -85.995923 
L 117.017561 -87.452039 
L 119.23355 -88.905633 
L 121.449538 -90.356638 
L 123.665527 -91.804983 
L 125.881516 -93.250601 
L 128.097504 -94.693423 
L 130.313493 -96.133382 
L 132.529481 -97.570411 
L 134.74547 -99.004444 
L 136.961458 -100.435416 
L 139.177447 -101.863264 
L 141.393435 -103.287929 
L 143.609424 -104.70935 
L 145.825412 -106.127471 
L 148.041401 -107.54224 
L 150.257389 -108.953605 
L 152.473378 -110.361521 
L 154.689366 -111.765943 
L 156.905355 -113.166833 
L 159.121343 -114.564156 
L 161.337332 -115.95788 
L 163.55332 -117.347981 
L 165.769309 -118.734438 
L 167.985297 -120.117233 
L 170.201286 -121.496356 
L 172.417274 -122.871802 
L 174.633263 -124.243569 
L 176.849251 -125.611662 
L 179.06524 -126.976092 
L 181.281228 -128.336871 
L 183.497217 -129.694022 
L 185.713205 -131.047567 
L 187.929194 -132.397537 
L 190.145183 -133.743965 
L 192.361171 -135.08689 
L 194.57716 -136.426354 
L 196.793148 -137.762403 
L 199.009137 -139.095085 
L 201.225125 -140.424455 
L 203.441114 -141.750567 
L 205.657102 -143.073479 
L 207.873091 -144.393253 
L 210.089079 -145.70995 
L 212.305068 -147.023634 
L 214.521056 -148.334372 
L 216.737045 -149.642229 
L 218.953033 -150.947273 
L 221.169022 -152.249573 
L 223.38501 -153.549197 
L 225.600999 -154.846213 
L 227.816987 -156.14069 
L 230.032976 -157.432697 
L 232.248964 -158.722301 
L 234.464953 -160.009569 
L 236.680941 -161.294568 
L 238.89693 -162.577364 
L 241.112918 -163.858021 
L 243.328907 -165.136602 
L 245.544895 -166.413171 
L 247.760884 -167.687788 
L 249.976872 -168.960513 
L 252.192861 -170.231404 
L 254.408849 -171.500519 
L 256.624838 -172.767913 
L 258.840827 -174.03364 
L 261.056815 -175.297753 
L 263.272804 -176.560304 
L 265.488792 -177.821341 
L 267.704781 -179.080914 
L 269.920769 -180.339069 
L 272.136758 -181.595852 
L 274.352746 -182.851306 
L 276.568735 -184.105475 
L 278.784723 -185.358398 
L 281.000712 -186.610117 
L 283.2167 -187.860671 
L 285.432689 -189.110095 
L 287.648677 -190.358426 
L 289.864666 -191.605699 
L 292.080654 -192.851948 
L 294.296643 -194.097205 
L 296.512631 -195.341502 
L 298.72862 -196.584868 
L 300.944608 -197.827333 
L 303.160597 -199.068924 
L 305.376585 -200.30967 
L 307.592574 -201.549597 
L 309.808562 -202.788729 
L 312.024551 -204.027091 
L 314.240539 -205.264707 
L 316.456528 -206.5016 
L 318.672516 -207.73779 
L 320.888505 -208.9733 
L 323.104493 -210.20815 
L 325.320482 -211.44236 
L 327.536471 -212.675948 
L 329.752459 -213.908933 
L 331.968448 -215.141333 
L 334.184436 -216.373164 
L 336.400425 -217.604444 
L 338.616413 -218.835187 
L 340.832402 -220.06541 
L 343.04839 -221.295128 
L 345.264379 -222.524354 
L 347.480367 -223.753102 
L 349.696356 -224.981386 
L 351.912344 -226.209219 
L 354.128333 -227.436613 
L 356.344321 -228.66358 
L 358.56031 -229.890132 
L 360.776298 -231.11628 
L 362.992287 -232.342035 
L 365.208275 -233.567408 
L 367.424264 -234.792409 
L 369.640252 -236.017047 
L 371.856241 -237.241332 
L 374.072229 -238.465273 
L 376.288218 -239.68888 
L 378.504206 -240.91216 
L 380.720195 -242.135122 
L 382.936183 -243.357775 
L 385.152172 -244.580126 
L 387.36816 -245.802183 
L 389.584149 -247.023952 
L 391.800138 -248.245442 
L 394.016126 -249.466659 
L 396.232115 -250.687609 
L 398.448103 -251.9083 
L 400.664092 -253.128737 
L 402.88008 -254.348926 
L 405.096069 -255.568874 
L 407.312057 -256.788587 
L 409.528046 -258.008069 
L 411.744034 -259.227326 
L 413.960023 -260.446363 
L 416.176011 -261.665186 
L 418.392 -262.883799 
L 420.607988 -264.102208 
L 422.823977 -265.320416 
L 425.039965 -266.538428 
L 427.255954 -267.756249 
L 429.471942 -268.973883 
L 431.687931 -270.191334 
L 433.903919 -271.408606 
L 436.119908 -272.625703 
L 438.335896 -273.842629 
L 440.551885 -275.059388 
L 442.767873 -276.275982 
L 444.983862 -277.492416 
L 447.19985 -278.708694 
L 449.415839 -279.924817 
L 451.631827 -281.14079 
L 453.847816 -282.356615 
L 456.063804 -283.572296 
L 458.279793 -284.787836 
L 460.495782 -286.003238 
L 462.71177 -287.218503 
L 464.927759 -288.433636 
L 467.143747 -289.648639 
L 469.359736 -290.863513 
L 471.575724 -292.078263 
L 473.791713 -293.29289 
L 476.007701 -294.507397 
L 478.22369 -295.721786 
L 480.439678 -296.93606 
L 482.655667 -298.150219 
L 484.871655 -299.364268 
L 487.087644 -300.578208 
L 489.303632 -301.792041 
L 491.519621 -303.005768 
L 493.735609 -304.219393 
L 495.951598 -305.432916 
L 498.167586 -306.646341 
L 500.383575 -307.859668 
L 502.599563 -309.072899 
L 504.815552 -310.286036 
L 507.03154 -311.499081 
L 509.247529 -312.712036 
L 511.463517 -313.924902 
L 513.679506 -315.13768 
L 515.895494 -316.350373 
L 518.111483 -317.562981 
L 520.327471 -318.775507 
L 522.54346 -319.987951 
L 524.759449 -321.200316 
L 526.975437 -322.412601 
L 529.191426 -323.62481 
L 529.191426 -380.444716 
L 529.191426 -380.444716 
L 526.975437 -378.906959 
L 524.759449 -377.36928 
L 522.54346 -375.831679 
L 520.327471 -374.294158 
L 518.111483 -372.756719 
L 515.895494 -371.219362 
L 513.679506 -369.68209 
L 511.463517 -368.144903 
L 509.247529 -366.607803 
L 507.03154 -365.070793 
L 504.815552 -363.533873 
L 502.599563 -361.997045 
L 500.383575 -360.460311 
L 498.167586 -358.923673 
L 495.951598 -357.387132 
L 493.735609 -355.85069 
L 491.519621 -354.314349 
L 489.303632 -352.778112 
L 487.087644 -351.241979 
L 484.871655 -349.705954 
L 482.655667 -348.170038 
L 480.439678 -346.634232 
L 478.22369 -345.098541 
L 476.007701 -343.562964 
L 473.791713 -342.027506 
L 471.575724 -340.492168 
L 469.359736 -338.956953 
L 467.143747 -337.421862 
L 464.927759 -335.8869 
L 462.71177 -334.352067 
L 460.495782 -332.817368 
L 458.279793 -331.282804 
L 456.063804 -329.748378 
L 453.847816 -328.214094 
L 451.631827 -326.679955 
L 449.415839 -325.145962 
L 447.19985 -323.61212 
L 444.983862 -322.078432 
L 442.767873 -320.544901 
L 440.551885 -319.011531 
L 438.335896 -317.478324 
L 436.119908 -315.945285 
L 433.903919 -314.412417 
L 431.687931 -312.879724 
L 429.471942 -311.347209 
L 427.255954 -309.814878 
L 425.039965 -308.282734 
L 422.823977 -306.750781 
L 420.607988 -305.219024 
L 418.392 -303.687467 
L 416.176011 -302.156115 
L 413.960023 -300.624973 
L 411.744034 -299.094045 
L 409.528046 -297.563337 
L 407.312057 -296.032854 
L 405.096069 -294.502601 
L 402.88008 -292.972584 
L 400.664092 -291.442808 
L 398.448103 -289.91328 
L 396.232115 -288.384006 
L 394.016126 -286.854991 
L 391.800138 -285.326242 
L 389.584149 -283.797767 
L 387.36816 -282.269571 
L 385.152172 -280.741663 
L 382.936183 -279.214048 
L 380.720195 -277.686736 
L 378.504206 -276.159733 
L 376.288218 -274.633049 
L 374.072229 -273.10669 
L 371.856241 -271.580666 
L 369.640252 -270.054986 
L 367.424264 -268.529659 
L 365.208275 -267.004694 
L 362.992287 -265.480101 
L 360.776298 -263.955891 
L 358.56031 -262.432074 
L 356.344321 -260.908661 
L 354.128333 -259.385663 
L 351.912344 -257.863092 
L 349.696356 -256.34096 
L 347.480367 -254.819279 
L 345.264379 -253.298062 
L 343.04839 -251.777323 
L 340.832402 -250.257075 
L 338.616413 -248.737332 
L 336.400425 -247.218111 
L 334.184436 -245.699425 
L 331.968448 -244.181291 
L 329.752459 -242.663726 
L 327.536471 -241.146746 
L 325.320482 -239.630369 
L 323.104493 -238.114613 
L 320.888505 -236.599498 
L 318.672516 -235.085043 
L 316.456528 -233.571269 
L 314.240539 -232.058196 
L 312.024551 -230.545846 
L 309.808562 -229.034243 
L 307.592574 -227.52341 
L 305.376585 -226.013372 
L 303.160597 -224.504152 
L 300.944608 -222.995779 
L 298.72862 -221.488279 
L 296.512631 -219.98168 
L 294.296643 -218.476011 
L 292.080654 -216.971303 
L 289.864666 -215.467586 
L 287.648677 -213.964895 
L 285.432689 -212.463261 
L 283.2167 -210.96272 
L 281.000712 -209.463308 
L 278.784723 -207.965061 
L 276.568735 -206.46802 
L 274.352746 -204.972223 
L 272.136758 -203.477712 
L 269.920769 -201.98453 
L 267.704781 -200.49272 
L 265.488792 -199.002327 
L 263.272804 -197.5134 
L 261.056815 -196.025985 
L 258.840827 -194.540133 
L 256.624838 -193.055895 
L 254.408849 -191.573324 
L 252.192861 -190.092473 
L 249.976872 -188.6134 
L 247.760884 -187.136159 
L 245.544895 -185.660811 
L 243.328907 -184.187414 
L 241.112918 -182.716031 
L 238.89693 -181.246723 
L 236.680941 -179.779553 
L 234.464953 -178.314587 
L 232.248964 -176.85189 
L 230.032976 -175.391529 
L 227.816987 -173.93357 
L 225.600999 -172.478082 
L 223.38501 -171.025133 
L 221.169022 -169.574792 
L 218.953033 -168.127127 
L 216.737045 -166.682206 
L 214.521056 -165.240098 
L 212.305068 -163.80087 
L 210.089079 -162.364589 
L 207.873091 -160.931321 
L 205.657102 -159.501129 
L 203.441114 -158.074077 
L 201.225125 -156.650223 
L 199.009137 -155.229628 
L 196.793148 -153.812345 
L 194.57716 -152.398429 
L 192.361171 -150.987927 
L 190.145183 -149.580887 
L 187.929194 -148.17735 
L 185.713205 -146.777355 
L 183.497217 -145.380935 
L 181.281228 -143.98812 
L 179.06524 -142.598935 
L 176.849251 -141.213399 
L 174.633263 -139.831527 
L 172.417274 -138.453329 
L 170.201286 -137.078809 
L 167.985297 -135.707967 
L 165.769309 -134.340798 
L 163.55332 -132.977289 
L 161.337332 -131.617424 
L 159.121343 -130.261184 
L 156.905355 -128.908542 
L 154.689366 -127.559466 
L 152.473378 -126.213924 
L 150.257389 -124.871874 
L 148.041401 -123.533274 
L 145.825412 -122.198078 
L 143.609424 -120.866234 
L 141.393435 -119.53769 
L 139.177447 -118.212389 
L 136.961458 -116.890272 
L 134.74547 -115.571279 
L 132.529481 -114.255346 
L 130.313493 -112.94241 
L 128.097504 -111.632404 
L 125.881516 -110.325261 
L 123.665527 -109.020914 
L 121.449538 -107.719294 
L 119.23355 -106.420333 
L 117.017561 -105.123962 
L 114.801573 -103.830113 
L 112.585584 -102.538718 
L 110.369596 -101.249708 
L 108.153607 -99.963017 
L 105.937619 -98.678579 
L 103.72163 -97.396328 
L 101.505642 -96.116199 
L 99.289653 -94.83813 
L 97.073665 -93.562058 
L 94.857676 -92.287923 
L 92.641688 -91.015665 
L 90.425699 -89.745226 
L 88.209711 -88.47655 
z
" style="stroke: #1f77b4; stroke-opacity: 0.12"/>
    </defs>
    <g clip-path="url(#p2171f46653)">
     <use xlink:href="#m167e4d0836" x="0" y="420.027187" style="fill: #1f77b4; fill-opacity: 0.12; stroke: #1f77b4; stroke-opacity: 0.12"/>
    </g>
   </g>
   <g id="line2d_13">
    <path d="M 88.209711 341.613961 
L 529.191426 67.992425 
L 529.191426 67.992425 
" clip-path="url(#p2171f46653)" style="fill: none; stroke: #1f77b4; stroke-width: 2; stroke-linecap: round"/>
   </g>
   <g id="line2d_14">
    <path d="M 88.209711 311.237144 
L 111.614868 317.853474 
L 114.060768 317.2594 
L 114.767003 316.868908 
L 114.838271 316.777647 
L 115.056359 316.441923 
L 115.461696 315.492183 
L 116.094545 319.227195 
L 116.170416 319.242855 
L 116.19036 319.247848 
L 116.51135 319.459073 
L 117.863961 318.529802 
L 121.453969 316.285621 
L 130.124542 311.733775 
L 130.675768 311.556792 
L 131.301988 311.458062 
L 136.518959 311.971936 
L 141.005985 316.669712 
L 141.648924 316.687118 
L 143.194509 316.720318 
L 143.599667 316.733406 
L 162.641967 312.702953 
L 173.771443 311.476718 
L 214.690848 288.03094 
L 217.066216 287.597523 
L 220.927723 286.944862 
L 222.925226 286.629161 
L 379.890047 106.633965 
L 450.176499 100.5382 
L 529.191426 91.437752 
" clip-path="url(#p2171f46653)" style="fill: none; stroke-dasharray: 6.66,2.88; stroke-dashoffset: 0; stroke: #ff7f0e; stroke-width: 1.8"/>
   </g>
   <g id="patch_3">
    <path d="M 66.160625 379.591562 
L 66.160625 23.391562 
" style="fill: none; stroke: #cccccc; stroke-width: 0.8; stroke-linejoin: miter; stroke-linecap: square"/>
   </g>
   <g id="patch_4">
    <path d="M 551.240511 379.591562 
L 551.240511 23.391562 
" style="fill: none; stroke: #cccccc; stroke-width: 0.8; stroke-linejoin: miter; stroke-linecap: square"/>
   </g>
   <g id="patch_5">
    <path d="M 66.160625 379.591562 
L 551.240511 379.591562 
" style="fill: none; stroke: #cccccc; stroke-width: 0.8; stroke-linejoin: miter; stroke-linecap: square"/>
   </g>
   <g id="patch_6">
    <path d="M 66.160625 23.391562 
L 551.240511 23.391562 
" style="fill: none; stroke: #cccccc; stroke-width: 0.8; stroke-linejoin: miter; stroke-linecap: square"/>
   </g>
   <g id="text_15">
    <g id="patch_7">
     <path d="M 419.232664 375.467562 
L 541.538914 375.467562 
Q 544.538914 375.467562 544.538914 372.467562 
L 544.538914 331.292562 
Q 544.538914 328.292562 541.538914 328.292562 
L 419.232664 328.292562 
Q 416.232664 328.292562 416.232664 331.292562 
L 416.232664 372.467562 
Q 416.232664 375.467562 419.232664 375.467562 
z
" style="fill: #ffffff; opacity: 0.8; stroke: #cccccc; stroke-linejoin: miter"/>
    </g>
    <!-- n = 30 -->
    <g style="fill: #262626" transform="translate(513.459226 338.450375) scale(0.1 -0.1)">
     <defs>
      <path id="ArialMT-6e" d="M 422 0 
L 422 3319 
L 928 3319 
L 928 2847 
Q 1294 3394 1984 3394 
Q 2284 3394 2536 3286 
Q 2788 3178 2913 3003 
Q 3038 2828 3088 2588 
Q 3119 2431 3119 2041 
L 3119 0 
L 2556 0 
L 2556 2019 
Q 2556 2363 2490 2533 
Q 2425 2703 2258 2804 
Q 2091 2906 1866 2906 
Q 1506 2906 1245 2678 
Q 984 2450 984 1813 
L 984 0 
L 422 0 
z
" transform="scale(0.015625)"/>
      <path id="ArialMT-3d" d="M 3381 2694 
L 356 2694 
L 356 3219 
L 3381 3219 
L 3381 2694 
z
M 3381 1303 
L 356 1303 
L 356 1828 
L 3381 1828 
L 3381 1303 
z
" transform="scale(0.015625)"/>
      <path id="ArialMT-33" d="M 269 1209 
L 831 1284 
Q 928 806 1161 595 
Q 1394 384 1728 384 
Q 2125 384 2398 659 
Q 2672 934 2672 1341 
Q 2672 1728 2419 1979 
Q 2166 2231 1775 2231 
Q 1616 2231 1378 2169 
L 1441 2663 
Q 1497 2656 1531 2656 
Q 1891 2656 2178 2843 
Q 2466 3031 2466 3422 
Q 2466 3731 2256 3934 
Q 2047 4138 1716 4138 
Q 1388 4138 1169 3931 
Q 950 3725 888 3313 
L 325 3413 
Q 428 3978 793 4289 
Q 1159 4600 1703 4600 
Q 2078 4600 2393 4439 
Q 2709 4278 2876 4000 
Q 3044 3722 3044 3409 
Q 3044 3113 2884 2869 
Q 2725 2625 2413 2481 
Q 2819 2388 3044 2092 
Q 3269 1797 3269 1353 
Q 3269 753 2831 336 
Q 2394 -81 1725 -81 
Q 1122 -81 723 278 
Q 325 638 269 1209 
z
" transform="scale(0.015625)"/>
     </defs>
     <use xlink:href="#ArialMT-6e"/>
     <use xlink:href="#ArialMT-20" x="55.615234"/>
     <use xlink:href="#ArialMT-3d" x="83.398438"/>
     <use xlink:href="#ArialMT-20" x="141.796875"/>
     <use xlink:href="#ArialMT-33" x="169.580078"/>
     <use xlink:href="#ArialMT-30" x="225.195312"/>
    </g>
    <!-- slope = 81.1763 (se=4.880) -->
    <g style="fill: #262626" transform="translate(419.232664 349.1735) scale(0.1 -0.1)">
     <defs>
      <path id="ArialMT-37" d="M 303 3981 
L 303 4522 
L 3269 4522 
L 3269 4084 
Q 2831 3619 2401 2847 
Q 1972 2075 1738 1259 
Q 1569 684 1522 0 
L 944 0 
Q 953 541 1156 1306 
Q 1359 2072 1739 2783 
Q 2119 3494 2547 3981 
L 303 3981 
z
" transform="scale(0.015625)"/>
     </defs>
     <use xlink:href="#ArialMT-73"/>
     <use xlink:href="#ArialMT-6c" x="50"/>
     <use xlink:href="#ArialMT-6f" x="72.216797"/>
     <use xlink:href="#ArialMT-70" x="127.832031"/>
     <use xlink:href="#ArialMT-65" x="183.447266"/>
     <use xlink:href="#ArialMT-20" x="239.0625"/>
     <use xlink:href="#ArialMT-3d" x="266.845703"/>
     <use xlink:href="#ArialMT-20" x="325.244141"/>
     <use xlink:href="#ArialMT-38" x="353.027344"/>
     <use xlink:href="#ArialMT-31" x="408.642578"/>
     <use xlink:href="#ArialMT-2e" x="464.257812"/>
     <use xlink:href="#ArialMT-31" x="492.041016"/>
     <use xlink:href="#ArialMT-37" x="547.65625"/>
     <use xlink:href="#ArialMT-36" x="603.271484"/>
     <use xlink:href="#ArialMT-33" x="658.886719"/>
     <use xlink:href="#ArialMT-20" x="714.501953"/>
     <use xlink:href="#ArialMT-28" x="742.285156"/>
     <use xlink:href="#ArialMT-73" x="775.585938"/>
     <use xlink:href="#ArialMT-65" x="825.585938"/>
     <use xlink:href="#ArialMT-3d" x="881.201172"/>
     <use xlink:href="#ArialMT-34" x="939.599609"/>
     <use xlink:href="#ArialMT-2e" x="995.214844"/>
     <use xlink:href="#ArialMT-38" x="1022.998047"/>
     <use xlink:href="#ArialMT-38" x="1078.613281"/>
     <use xlink:href="#ArialMT-30" x="1134.228516"/>
     <use xlink:href="#ArialMT-29" x="1189.84375"/>
    </g>
    <!-- p = 4.77e-16 -->
    <g style="fill: #262626" transform="translate(485.107664 359.903187) scale(0.1 -0.1)">
     <defs>
      <path id="ArialMT-2d" d="M 203 1375 
L 203 1941 
L 1931 1941 
L 1931 1375 
L 203 1375 
z
" transform="scale(0.015625)"/>
     </defs>
     <use xlink:href="#ArialMT-70"/>
     <use xlink:href="#ArialMT-20" x="55.615234"/>
     <use xlink:href="#ArialMT-3d" x="83.398438"/>
     <use xlink:href="#ArialMT-20" x="141.796875"/>
     <use xlink:href="#ArialMT-34" x="169.580078"/>
     <use xlink:href="#ArialMT-2e" x="225.195312"/>
     <use xlink:href="#ArialMT-37" x="252.978516"/>
     <use xlink:href="#ArialMT-37" x="308.59375"/>
     <use xlink:href="#ArialMT-65" x="364.208984"/>
     <use xlink:href="#ArialMT-2d" x="419.824219"/>
     <use xlink:href="#ArialMT-31" x="453.125"/>
     <use xlink:href="#ArialMT-36" x="508.740234"/>
    </g>
    <!-- R² = 0.908 -->
    <g style="fill: #262626" transform="translate(494.568601 370.480062) scale(0.1 -0.1)">
     <defs>
      <path id="ArialMT-52" d="M 503 0 
L 503 4581 
L 2534 4581 
Q 3147 4581 3465 4457 
Q 3784 4334 3975 4021 
Q 4166 3709 4166 3331 
Q 4166 2844 3850 2509 
Q 3534 2175 2875 2084 
Q 3116 1969 3241 1856 
Q 3506 1613 3744 1247 
L 4541 0 
L 3778 0 
L 3172 953 
Q 2906 1366 2734 1584 
Q 2563 1803 2427 1890 
Q 2291 1978 2150 2013 
Q 2047 2034 1813 2034 
L 1109 2034 
L 1109 0 
L 503 0 
z
M 1109 2559 
L 2413 2559 
Q 2828 2559 3062 2645 
Q 3297 2731 3419 2920 
Q 3541 3109 3541 3331 
Q 3541 3656 3305 3865 
Q 3069 4075 2559 4075 
L 1109 4075 
L 1109 2559 
z
" transform="scale(0.015625)"/>
      <path id="ArialMT-b2" d="M 78 2291 
Q 97 2469 225 2647 
Q 422 2916 872 3242 
Q 1322 3569 1406 3663 
Q 1522 3791 1522 3925 
Q 1522 4075 1412 4172 
Q 1303 4269 1091 4269 
Q 884 4269 782 4195 
Q 681 4122 616 3913 
L 144 3963 
Q 234 4309 457 4473 
Q 681 4638 1100 4638 
Q 1572 4638 1792 4453 
Q 2013 4269 2013 4003 
Q 2013 3741 1828 3506 
Q 1688 3331 1188 2972 
Q 928 2781 819 2669 
L 2025 2669 
L 2025 2291 
L 78 2291 
z
" transform="scale(0.015625)"/>
      <path id="ArialMT-39" d="M 350 1059 
L 891 1109 
Q 959 728 1153 556 
Q 1347 384 1650 384 
Q 1909 384 2104 503 
Q 2300 622 2425 820 
Q 2550 1019 2634 1356 
Q 2719 1694 2719 2044 
Q 2719 2081 2716 2156 
Q 2547 1888 2255 1720 
Q 1963 1553 1622 1553 
Q 1053 1553 659 1965 
Q 266 2378 266 3053 
Q 266 3750 677 4175 
Q 1088 4600 1706 4600 
Q 2153 4600 2523 4359 
Q 2894 4119 3086 3673 
Q 3278 3228 3278 2384 
Q 3278 1506 3087 986 
Q 2897 466 2520 194 
Q 2144 -78 1638 -78 
Q 1100 -78 759 220 
Q 419 519 350 1059 
z
M 2653 3081 
Q 2653 3566 2395 3850 
Q 2138 4134 1775 4134 
Q 1400 4134 1122 3828 
Q 844 3522 844 3034 
Q 844 2597 1108 2323 
Q 1372 2050 1759 2050 
Q 2150 2050 2401 2323 
Q 2653 2597 2653 3081 
z
" transform="scale(0.015625)"/>
     </defs>
     <use xlink:href="#ArialMT-52"/>
     <use xlink:href="#ArialMT-b2" x="72.216797"/>
     <use xlink:href="#ArialMT-20" x="105.517578"/>
     <use xlink:href="#ArialMT-3d" x="133.300781"/>
     <use xlink:href="#ArialMT-20" x="191.699219"/>
     <use xlink:href="#ArialMT-30" x="219.482422"/>
     <use xlink:href="#ArialMT-2e" x="275.097656"/>
     <use xlink:href="#ArialMT-39" x="302.880859"/>
     <use xlink:href="#ArialMT-30" x="358.496094"/>
     <use xlink:href="#ArialMT-38" x="414.111328"/>
    </g>
   </g>
   <g id="text_16">
    <!-- Added-variable (Partial regression) plot — trade_exposure -->
    <g style="fill: #262626" transform="translate(127.786662 17.391562) scale(0.14 -0.14)">
     <defs>
      <path id="ArialMT-41" d="M -9 0 
L 1750 4581 
L 2403 4581 
L 4278 0 
L 3588 0 
L 3053 1388 
L 1138 1388 
L 634 0 
L -9 0 
z
M 1313 1881 
L 2866 1881 
L 2388 3150 
Q 2169 3728 2063 4100 
Q 1975 3659 1816 3225 
L 1313 1881 
z
" transform="scale(0.015625)"/>
      <path id="ArialMT-76" d="M 1344 0 
L 81 3319 
L 675 3319 
L 1388 1331 
Q 1503 1009 1600 663 
Q 1675 925 1809 1294 
L 2547 3319 
L 3125 3319 
L 1869 0 
L 1344 0 
z
" transform="scale(0.015625)"/>
      <path id="ArialMT-62" d="M 941 0 
L 419 0 
L 419 4581 
L 981 4581 
L 981 2947 
Q 1338 3394 1891 3394 
Q 2197 3394 2470 3270 
Q 2744 3147 2920 2923 
Q 3097 2700 3197 2384 
Q 3297 2069 3297 1709 
Q 3297 856 2875 390 
Q 2453 -75 1863 -75 
Q 1275 -75 941 416 
L 941 0 
z
M 934 1684 
Q 934 1088 1097 822 
Q 1363 388 1816 388 
Q 2184 388 2453 708 
Q 2722 1028 2722 1663 
Q 2722 2313 2464 2622 
Q 2206 2931 1841 2931 
Q 1472 2931 1203 2611 
Q 934 2291 934 1684 
z
" transform="scale(0.015625)"/>
      <path id="ArialMT-5f" d="M -97 -1272 
L -97 -866 
L 3631 -866 
L 3631 -1272 
L -97 -1272 
z
" transform="scale(0.015625)"/>
      <path id="ArialMT-78" d="M 47 0 
L 1259 1725 
L 138 3319 
L 841 3319 
L 1350 2541 
Q 1494 2319 1581 2169 
Q 1719 2375 1834 2534 
L 2394 3319 
L 3066 3319 
L 1919 1756 
L 3153 0 
L 2463 0 
L 1781 1031 
L 1600 1309 
L 728 0 
L 47 0 
z
" transform="scale(0.015625)"/>
     </defs>
     <use xlink:href="#ArialMT-41"/>
     <use xlink:href="#ArialMT-64" x="66.699219"/>
     <use xlink:href="#ArialMT-64" x="122.314453"/>
     <use xlink:href="#ArialMT-65" x="177.929688"/>
     <use xlink:href="#ArialMT-64" x="233.544922"/>
     <use xlink:href="#ArialMT-2d" x="289.160156"/>
     <use xlink:href="#ArialMT-76" x="322.460938"/>
     <use xlink:href="#ArialMT-61" x="372.460938"/>
     <use xlink:href="#ArialMT-72" x="428.076172"/>
     <use xlink:href="#ArialMT-69" x="461.376953"/>
     <use xlink:href="#ArialMT-61" x="483.59375"/>
     <use xlink:href="#ArialMT-62" x="539.208984"/>
     <use xlink:href="#ArialMT-6c" x="594.824219"/>
     <use xlink:href="#ArialMT-65" x="617.041016"/>
     <use xlink:href="#ArialMT-20" x="672.65625"/>
     <use xlink:href="#ArialMT-28" x="700.439453"/>
     <use xlink:href="#ArialMT-50" x="733.740234"/>
     <use xlink:href="#ArialMT-61" x="800.439453"/>
     <use xlink:href="#ArialMT-72" x="856.054688"/>
     <use xlink:href="#ArialMT-74" x="889.355469"/>
     <use xlink:href="#ArialMT-69" x="917.138672"/>
     <use xlink:href="#ArialMT-61" x="939.355469"/>
     <use xlink:href="#ArialMT-6c" x="994.970703"/>
     <use xlink:href="#ArialMT-20" x="1017.1875"/>
     <use xlink:href="#ArialMT-72" x="1044.970703"/>
     <use xlink:href="#ArialMT-65" x="1078.271484"/>
     <use xlink:href="#ArialMT-67" x="1133.886719"/>
     <use xlink:href="#ArialMT-72" x="1189.501953"/>
     <use xlink:href="#ArialMT-65" x="1222.802734"/>
     <use xlink:href="#ArialMT-73" x="1278.417969"/>
     <use xlink:href="#ArialMT-73" x="1328.417969"/>
     <use xlink:href="#ArialMT-69" x="1378.417969"/>
     <use xlink:href="#ArialMT-6f" x="1400.634766"/>
     <use xlink:href="#ArialMT-6e" x="1456.25"/>
     <use xlink:href="#ArialMT-29" x="1511.865234"/>
     <use xlink:href="#ArialMT-20" x="1545.166016"/>
     <use xlink:href="#ArialMT-70" x="1572.949219"/>
     <use xlink:href="#ArialMT-6c" x="1628.564453"/>
     <use xlink:href="#ArialMT-6f" x="1650.78125"/>
     <use xlink:href="#ArialMT-74" x="1706.396484"/>
     <use xlink:href="#ArialMT-20" x="1734.179688"/>
     <use xlink:href="#ArialMT-2014" x="1761.962891"/>
     <use xlink:href="#ArialMT-20" x="1861.962891"/>
     <use xlink:href="#ArialMT-74" x="1889.746094"/>
     <use xlink:href="#ArialMT-72" x="1917.529297"/>
     <use xlink:href="#ArialMT-61" x="1950.830078"/>
     <use xlink:href="#ArialMT-64" x="2006.445312"/>
     <use xlink:href="#ArialMT-65" x="2062.060547"/>
     <use xlink:href="#ArialMT-5f" x="2117.675781"/>
     <use xlink:href="#ArialMT-65" x="2173.291016"/>
     <use xlink:href="#ArialMT-78" x="2228.90625"/>
     <use xlink:href="#ArialMT-70" x="2278.90625"/>
     <use xlink:href="#ArialMT-6f" x="2334.521484"/>
     <use xlink:href="#ArialMT-73" x="2390.136719"/>
     <use xlink:href="#ArialMT-75" x="2440.136719"/>
     <use xlink:href="#ArialMT-72" x="2495.751953"/>
     <use xlink:href="#ArialMT-65" x="2529.052734"/>
    </g>
   </g>
   <g id="legend_1">
    <g id="line2d_15">
     <path d="M 455.493636 191.906562 
L 467.493636 191.906562 
L 479.493636 191.906562 
" style="fill: none; stroke: #1f77b4; stroke-width: 2; stroke-linecap: round"/>
    </g>
    <g id="text_17">
     <!-- OLS fit -->
     <g style="fill: #262626" transform="translate(489.093636 196.106562) scale(0.12 -0.12)">
      <defs>
       <path id="ArialMT-4f" d="M 309 2231 
Q 309 3372 921 4017 
Q 1534 4663 2503 4663 
Q 3138 4663 3647 4359 
Q 4156 4056 4423 3514 
Q 4691 2972 4691 2284 
Q 4691 1588 4409 1038 
Q 4128 488 3612 205 
Q 3097 -78 2500 -78 
Q 1853 -78 1343 234 
Q 834 547 571 1087 
Q 309 1628 309 2231 
z
M 934 2222 
Q 934 1394 1379 917 
Q 1825 441 2497 441 
Q 3181 441 3623 922 
Q 4066 1403 4066 2288 
Q 4066 2847 3877 3264 
Q 3688 3681 3323 3911 
Q 2959 4141 2506 4141 
Q 1863 4141 1398 3698 
Q 934 3256 934 2222 
z
" transform="scale(0.015625)"/>
       <path id="ArialMT-4c" d="M 469 0 
L 469 4581 
L 1075 4581 
L 1075 541 
L 3331 541 
L 3331 0 
L 469 0 
z
" transform="scale(0.015625)"/>
       <path id="ArialMT-53" d="M 288 1472 
L 859 1522 
Q 900 1178 1048 958 
Q 1197 738 1509 602 
Q 1822 466 2213 466 
Q 2559 466 2825 569 
Q 3091 672 3220 851 
Q 3350 1031 3350 1244 
Q 3350 1459 3225 1620 
Q 3100 1781 2813 1891 
Q 2628 1963 1997 2114 
Q 1366 2266 1113 2400 
Q 784 2572 623 2826 
Q 463 3081 463 3397 
Q 463 3744 659 4045 
Q 856 4347 1234 4503 
Q 1613 4659 2075 4659 
Q 2584 4659 2973 4495 
Q 3363 4331 3572 4012 
Q 3781 3694 3797 3291 
L 3216 3247 
Q 3169 3681 2898 3903 
Q 2628 4125 2100 4125 
Q 1550 4125 1298 3923 
Q 1047 3722 1047 3438 
Q 1047 3191 1225 3031 
Q 1400 2872 2139 2705 
Q 2878 2538 3153 2413 
Q 3553 2228 3743 1945 
Q 3934 1663 3934 1294 
Q 3934 928 3725 604 
Q 3516 281 3123 101 
Q 2731 -78 2241 -78 
Q 1619 -78 1198 103 
Q 778 284 539 648 
Q 300 1013 288 1472 
z
" transform="scale(0.015625)"/>
       <path id="ArialMT-66" d="M 556 0 
L 556 2881 
L 59 2881 
L 59 3319 
L 556 3319 
L 556 3672 
Q 556 4006 616 4169 
Q 697 4388 901 4523 
Q 1106 4659 1475 4659 
Q 1713 4659 2000 4603 
L 1916 4113 
Q 1741 4144 1584 4144 
Q 1328 4144 1222 4034 
Q 1116 3925 1116 3625 
L 1116 3319 
L 1763 3319 
L 1763 2881 
L 1116 2881 
L 1116 0 
L 556 0 
z
" transform="scale(0.015625)"/>
      </defs>
      <use xlink:href="#ArialMT-4f"/>
      <use xlink:href="#ArialMT-4c" x="77.783203"/>
      <use xlink:href="#ArialMT-53" x="133.398438"/>
      <use xlink:href="#ArialMT-20" x="200.097656"/>
      <use xlink:href="#ArialMT-66" x="227.880859"/>
      <use xlink:href="#ArialMT-69" x="255.664062"/>
      <use xlink:href="#ArialMT-74" x="277.880859"/>
     </g>
    </g>
    <g id="line2d_16">
     <path d="M 455.493636 208.880937 
L 467.493636 208.880937 
L 479.493636 208.880937 
" style="fill: none; stroke-dasharray: 6.66,2.88; stroke-dashoffset: 0; stroke: #ff7f0e; stroke-width: 1.8"/>
    </g>
    <g id="text_18">
     <!-- LOWESS -->
     <g style="fill: #262626" transform="translate(489.093636 213.080937) scale(0.12 -0.12)">
      <defs>
       <path id="ArialMT-57" d="M 1294 0 
L 78 4581 
L 700 4581 
L 1397 1578 
Q 1509 1106 1591 641 
Q 1766 1375 1797 1488 
L 2669 4581 
L 3400 4581 
L 4056 2263 
Q 4303 1400 4413 641 
Q 4500 1075 4641 1638 
L 5359 4581 
L 5969 4581 
L 4713 0 
L 4128 0 
L 3163 3491 
Q 3041 3928 3019 4028 
Q 2947 3713 2884 3491 
L 1913 0 
L 1294 0 
z
" transform="scale(0.015625)"/>
       <path id="ArialMT-45" d="M 506 0 
L 506 4581 
L 3819 4581 
L 3819 4041 
L 1113 4041 
L 1113 2638 
L 3647 2638 
L 3647 2100 
L 1113 2100 
L 1113 541 
L 3925 541 
L 3925 0 
L 506 0 
z
" transform="scale(0.015625)"/>
      </defs>
      <use xlink:href="#ArialMT-4c"/>
      <use xlink:href="#ArialMT-4f" x="55.615234"/>
      <use xlink:href="#ArialMT-57" x="133.398438"/>
      <use xlink:href="#ArialMT-45" x="227.783203"/>
      <use xlink:href="#ArialMT-53" x="294.482422"/>
      <use xlink:href="#ArialMT-53" x="361.181641"/>
     </g>
    </g>
   </g>
  </g>
 </g>
 <defs>
  <clipPath id="p2171f46653">
   <rect x="66.160625" y="23.391562" width="485.079886" height="356.2"/>
  </clipPath>
 </defs>
</svg>
