<?xml version="1.0" encoding="utf-8" standalone="no"?>
<!DOCTYPE svg PUBLIC "-//W3C//DTD SVG 1.1//EN"
  "http://www.w3.org/Graphics/SVG/1.1/DTD/svg11.dtd">
<svg xmlns:xlink="http://www.w3.org/1999/xlink" width="805.3152pt" height="680.568187pt" viewBox="0 0 805.3152 680.568187" xmlns="http://www.w3.org/2000/svg" version="1.1">
 <metadata>
  <rdf:RDF xmlns:dc="http://purl.org/dc/elements/1.1/" xmlns:cc="http://creativecommons.org/ns#" xmlns:rdf="http://www.w3.org/1999/02/22-rdf-syntax-ns#">
   <cc:Work>
    <dc:type rdf:resource="http://purl.org/dc/dcmitype/StillImage"/>
    <dc:date>2025-11-17T20:15:52.643398</dc:date>
    <dc:format>image/svg+xml</dc:format>
    <dc:creator>
     <cc:Agent>
      <dc:title>Matplotlib v3.9.2, https://matplotlib.org/</dc:title>
     </cc:Agent>
    </dc:creator>
   </cc:Work>
  </rdf:RDF>
 </metadata>
 <defs>
  <style type="text/css">*{stroke-linejoin: round; stroke-linecap: butt}</style>
 </defs>
 <g id="figure_1">
  <g id="patch_1">
   <path d="M 0 680.568187 
L 805.3152 680.568187 
L 805.3152 0 
L 0 0 
z
" style="fill: #ffffff"/>
  </g>
  <g id="axes_1">
   <g id="patch_2">
    <path d="M 199.153845 604.0075 
L 685.177845 604.0075 
L 685.177845 24.8475 
L 199.153845 24.8475 
z
" style="fill: #ffffff"/>
   </g>
   <g id="matplotlib.axis_1">
    <g id="xtick_1">
     <g id="text_1">
      <!-- −1 -->
      <g style="fill: #262626" transform="translate(260.388665 619.596875) scale(0.12 -0.12)">
       <defs>
        <path id="ArialMT-2212" d="M 3381 1997 
L 356 1997 
L 356 2522 
L 3381 2522 
L 3381 1997 
z
" transform="scale(0.015625)"/>
        <path id="ArialMT-31" d="M 2384 0 
L 1822 0 
L 1822 3584 
Q 1619 3391 1289 3197 
Q 959 3003 697 2906 
L 697 3450 
Q 1169 3672 1522 3987 
Q 1875 4303 2022 4600 
L 2384 4600 
L 2384 0 
z
" transform="scale(0.015625)"/>
       </defs>
       <use xlink:href="#ArialMT-2212"/>
       <use xlink:href="#ArialMT-31" x="58.398438"/>
      </g>
     </g>
    </g>
    <g id="xtick_2">
     <g id="text_2">
      <!-- 0 -->
      <g style="fill: #262626" transform="translate(333.798235 619.596875) scale(0.12 -0.12)">
       <defs>
        <path id="ArialMT-30" d="M 266 2259 
Q 266 3072 433 3567 
Q 600 4063 929 4331 
Q 1259 4600 1759 4600 
Q 2128 4600 2406 4451 
Q 2684 4303 2865 4023 
Q 3047 3744 3150 3342 
Q 3253 2941 3253 2259 
Q 3253 1453 3087 958 
Q 2922 463 2592 192 
Q 2263 -78 1759 -78 
Q 1097 -78 719 397 
Q 266 969 266 2259 
z
M 844 2259 
Q 844 1131 1108 757 
Q 1372 384 1759 384 
Q 2147 384 2411 759 
Q 2675 1134 2675 2259 
Q 2675 3391 2411 3762 
Q 2147 4134 1753 4134 
Q 1366 4134 1134 3806 
Q 844 3388 844 2259 
z
" transform="scale(0.015625)"/>
       </defs>
       <use xlink:href="#ArialMT-30"/>
      </g>
     </g>
    </g>
    <g id="xtick_3">
     <g id="text_3">
      <!-- 1 -->
      <g style="fill: #262626" transform="translate(403.703429 619.596875) scale(0.12 -0.12)">
       <use xlink:href="#ArialMT-31"/>
      </g>
     </g>
    </g>
    <g id="xtick_4">
     <g id="text_4">
      <!-- 2 -->
      <g style="fill: #262626" transform="translate(473.608624 619.596875) scale(0.12 -0.12)">
       <defs>
        <path id="ArialMT-32" d="M 3222 541 
L 3222 0 
L 194 0 
Q 188 203 259 391 
Q 375 700 629 1000 
Q 884 1300 1366 1694 
Q 2113 2306 2375 2664 
Q 2638 3022 2638 3341 
Q 2638 3675 2398 3904 
Q 2159 4134 1775 4134 
Q 1369 4134 1125 3890 
Q 881 3647 878 3216 
L 300 3275 
Q 359 3922 746 4261 
Q 1134 4600 1788 4600 
Q 2447 4600 2831 4234 
Q 3216 3869 3216 3328 
Q 3216 3053 3103 2787 
Q 2991 2522 2730 2228 
Q 2469 1934 1863 1422 
Q 1356 997 1212 845 
Q 1069 694 975 541 
L 3222 541 
z
" transform="scale(0.015625)"/>
       </defs>
       <use xlink:href="#ArialMT-32"/>
      </g>
     </g>
    </g>
    <g id="xtick_5">
     <g id="text_5">
      <!-- 3 -->
      <g style="fill: #262626" transform="translate(543.513819 619.596875) scale(0.12 -0.12)">
       <defs>
        <path id="ArialMT-33" d="M 269 1209 
L 831 1284 
Q 928 806 1161 595 
Q 1394 384 1728 384 
Q 2125 384 2398 659 
Q 2672 934 2672 1341 
Q 2672 1728 2419 1979 
Q 2166 2231 1775 2231 
Q 1616 2231 1378 2169 
L 1441 2663 
Q 1497 2656 1531 2656 
Q 1891 2656 2178 2843 
Q 2466 3031 2466 3422 
Q 2466 3731 2256 3934 
Q 2047 4138 1716 4138 
Q 1388 4138 1169 3931 
Q 950 3725 888 3313 
L 325 3413 
Q 428 3978 793 4289 
Q 1159 4600 1703 4600 
Q 2078 4600 2393 4439 
Q 2709 4278 2876 4000 
Q 3044 3722 3044 3409 
Q 3044 3113 2884 2869 
Q 2725 2625 2413 2481 
Q 2819 2388 3044 2092 
Q 3269 1797 3269 1353 
Q 3269 753 2831 336 
Q 2394 -81 1725 -81 
Q 1122 -81 723 278 
Q 325 638 269 1209 
z
" transform="scale(0.015625)"/>
       </defs>
       <use xlink:href="#ArialMT-33"/>
      </g>
     </g>
    </g>
    <g id="xtick_6">
     <g id="text_6">
      <!-- 4 -->
      <g style="fill: #262626" transform="translate(613.419013 619.596875) scale(0.12 -0.12)">
       <defs>
        <path id="ArialMT-34" d="M 2069 0 
L 2069 1097 
L 81 1097 
L 81 1613 
L 2172 4581 
L 2631 4581 
L 2631 1613 
L 3250 1613 
L 3250 1097 
L 2631 1097 
L 2631 0 
L 2069 0 
z
M 2069 1613 
L 2069 3678 
L 634 1613 
L 2069 1613 
z
" transform="scale(0.015625)"/>
       </defs>
       <use xlink:href="#ArialMT-34"/>
      </g>
     </g>
    </g>
    <g id="text_7">
     <!-- Standardized effect (σ of target) -->
     <g style="fill: #262626" transform="translate(357.53022 634.7175) scale(0.12 -0.12)">
      <defs>
       <path id="ArialMT-53" d="M 288 1472 
L 859 1522 
Q 900 1178 1048 958 
Q 1197 738 1509 602 
Q 1822 466 2213 466 
Q 2559 466 2825 569 
Q 3091 672 3220 851 
Q 3350 1031 3350 1244 
Q 3350 1459 3225 1620 
Q 3100 1781 2813 1891 
Q 2628 1963 1997 2114 
Q 1366 2266 1113 2400 
Q 784 2572 623 2826 
Q 463 3081 463 3397 
Q 463 3744 659 4045 
Q 856 4347 1234 4503 
Q 1613 4659 2075 4659 
Q 2584 4659 2973 4495 
Q 3363 4331 3572 4012 
Q 3781 3694 3797 3291 
L 3216 3247 
Q 3169 3681 2898 3903 
Q 2628 4125 2100 4125 
Q 1550 4125 1298 3923 
Q 1047 3722 1047 3438 
Q 1047 3191 1225 3031 
Q 1400 2872 2139 2705 
Q 2878 2538 3153 2413 
Q 3553 2228 3743 1945 
Q 3934 1663 3934 1294 
Q 3934 928 3725 604 
Q 3516 281 3123 101 
Q 2731 -78 2241 -78 
Q 1619 -78 1198 103 
Q 778 284 539 648 
Q 300 1013 288 1472 
z
" transform="scale(0.015625)"/>
       <path id="ArialMT-74" d="M 1650 503 
L 1731 6 
Q 1494 -44 1306 -44 
Q 1000 -44 831 53 
Q 663 150 594 308 
Q 525 466 525 972 
L 525 2881 
L 113 2881 
L 113 3319 
L 525 3319 
L 525 4141 
L 1084 4478 
L 1084 3319 
L 1650 3319 
L 1650 2881 
L 1084 2881 
L 1084 941 
Q 1084 700 1114 631 
Q 1144 563 1211 522 
Q 1278 481 1403 481 
Q 1497 481 1650 503 
z
" transform="scale(0.015625)"/>
       <path id="ArialMT-61" d="M 2588 409 
Q 2275 144 1986 34 
Q 1697 -75 1366 -75 
Q 819 -75 525 192 
Q 231 459 231 875 
Q 231 1119 342 1320 
Q 453 1522 633 1644 
Q 813 1766 1038 1828 
Q 1203 1872 1538 1913 
Q 2219 1994 2541 2106 
Q 2544 2222 2544 2253 
Q 2544 2597 2384 2738 
Q 2169 2928 1744 2928 
Q 1347 2928 1158 2789 
Q 969 2650 878 2297 
L 328 2372 
Q 403 2725 575 2942 
Q 747 3159 1072 3276 
Q 1397 3394 1825 3394 
Q 2250 3394 2515 3294 
Q 2781 3194 2906 3042 
Q 3031 2891 3081 2659 
Q 3109 2516 3109 2141 
L 3109 1391 
Q 3109 606 3145 398 
Q 3181 191 3288 0 
L 2700 0 
Q 2613 175 2588 409 
z
M 2541 1666 
Q 2234 1541 1622 1453 
Q 1275 1403 1131 1340 
Q 988 1278 909 1158 
Q 831 1038 831 891 
Q 831 666 1001 516 
Q 1172 366 1500 366 
Q 1825 366 2078 508 
Q 2331 650 2450 897 
Q 2541 1088 2541 1459 
L 2541 1666 
z
" transform="scale(0.015625)"/>
       <path id="ArialMT-6e" d="M 422 0 
L 422 3319 
L 928 3319 
L 928 2847 
Q 1294 3394 1984 3394 
Q 2284 3394 2536 3286 
Q 2788 3178 2913 3003 
Q 3038 2828 3088 2588 
Q 3119 2431 3119 2041 
L 3119 0 
L 2556 0 
L 2556 2019 
Q 2556 2363 2490 2533 
Q 2425 2703 2258 2804 
Q 2091 2906 1866 2906 
Q 1506 2906 1245 2678 
Q 984 2450 984 1813 
L 984 0 
L 422 0 
z
" transform="scale(0.015625)"/>
       <path id="ArialMT-64" d="M 2575 0 
L 2575 419 
Q 2259 -75 1647 -75 
Q 1250 -75 917 144 
Q 584 363 401 755 
Q 219 1147 219 1656 
Q 219 2153 384 2558 
Q 550 2963 881 3178 
Q 1213 3394 1622 3394 
Q 1922 3394 2156 3267 
Q 2391 3141 2538 2938 
L 2538 4581 
L 3097 4581 
L 3097 0 
L 2575 0 
z
M 797 1656 
Q 797 1019 1065 703 
Q 1334 388 1700 388 
Q 2069 388 2326 689 
Q 2584 991 2584 1609 
Q 2584 2291 2321 2609 
Q 2059 2928 1675 2928 
Q 1300 2928 1048 2622 
Q 797 2316 797 1656 
z
" transform="scale(0.015625)"/>
       <path id="ArialMT-72" d="M 416 0 
L 416 3319 
L 922 3319 
L 922 2816 
Q 1116 3169 1280 3281 
Q 1444 3394 1641 3394 
Q 1925 3394 2219 3213 
L 2025 2691 
Q 1819 2813 1613 2813 
Q 1428 2813 1281 2702 
Q 1134 2591 1072 2394 
Q 978 2094 978 1738 
L 978 0 
L 416 0 
z
" transform="scale(0.015625)"/>
       <path id="ArialMT-69" d="M 425 3934 
L 425 4581 
L 988 4581 
L 988 3934 
L 425 3934 
z
M 425 0 
L 425 3319 
L 988 3319 
L 988 0 
L 425 0 
z
" transform="scale(0.015625)"/>
       <path id="ArialMT-7a" d="M 125 0 
L 125 456 
L 2238 2881 
Q 1878 2863 1603 2863 
L 250 2863 
L 250 3319 
L 2963 3319 
L 2963 2947 
L 1166 841 
L 819 456 
Q 1197 484 1528 484 
L 3063 484 
L 3063 0 
L 125 0 
z
" transform="scale(0.015625)"/>
       <path id="ArialMT-65" d="M 2694 1069 
L 3275 997 
Q 3138 488 2766 206 
Q 2394 -75 1816 -75 
Q 1088 -75 661 373 
Q 234 822 234 1631 
Q 234 2469 665 2931 
Q 1097 3394 1784 3394 
Q 2450 3394 2872 2941 
Q 3294 2488 3294 1666 
Q 3294 1616 3291 1516 
L 816 1516 
Q 847 969 1125 678 
Q 1403 388 1819 388 
Q 2128 388 2347 550 
Q 2566 713 2694 1069 
z
M 847 1978 
L 2700 1978 
Q 2663 2397 2488 2606 
Q 2219 2931 1791 2931 
Q 1403 2931 1139 2672 
Q 875 2413 847 1978 
z
" transform="scale(0.015625)"/>
       <path id="ArialMT-20" transform="scale(0.015625)"/>
       <path id="ArialMT-66" d="M 556 0 
L 556 2881 
L 59 2881 
L 59 3319 
L 556 3319 
L 556 3672 
Q 556 4006 616 4169 
Q 697 4388 901 4523 
Q 1106 4659 1475 4659 
Q 1713 4659 2000 4603 
L 1916 4113 
Q 1741 4144 1584 4144 
Q 1328 4144 1222 4034 
Q 1116 3925 1116 3625 
L 1116 3319 
L 1763 3319 
L 1763 2881 
L 1116 2881 
L 1116 0 
L 556 0 
z
" transform="scale(0.015625)"/>
       <path id="ArialMT-63" d="M 2588 1216 
L 3141 1144 
Q 3050 572 2676 248 
Q 2303 -75 1759 -75 
Q 1078 -75 664 370 
Q 250 816 250 1647 
Q 250 2184 428 2587 
Q 606 2991 970 3192 
Q 1334 3394 1763 3394 
Q 2303 3394 2647 3120 
Q 2991 2847 3088 2344 
L 2541 2259 
Q 2463 2594 2264 2762 
Q 2066 2931 1784 2931 
Q 1359 2931 1093 2626 
Q 828 2322 828 1663 
Q 828 994 1084 691 
Q 1341 388 1753 388 
Q 2084 388 2306 591 
Q 2528 794 2588 1216 
z
" transform="scale(0.015625)"/>
       <path id="ArialMT-28" d="M 1497 -1347 
Q 1031 -759 709 28 
Q 388 816 388 1659 
Q 388 2403 628 3084 
Q 909 3875 1497 4659 
L 1900 4659 
Q 1522 4009 1400 3731 
Q 1209 3300 1100 2831 
Q 966 2247 966 1656 
Q 966 153 1900 -1347 
L 1497 -1347 
z
" transform="scale(0.015625)"/>
       <path id="ArialMT-3c3" d="M 3809 3319 
L 3809 2863 
L 2906 2863 
Q 3322 2475 3322 1656 
Q 3322 766 2867 345 
Q 2413 -75 1763 -75 
Q 1088 -75 650 362 
Q 213 800 213 1659 
Q 213 2544 667 2969 
Q 1122 3394 1763 3394 
Q 1997 3394 2294 3319 
L 3809 3319 
z
M 1753 2928 
Q 1344 2928 1067 2609 
Q 791 2291 791 1656 
Q 791 1025 1061 706 
Q 1331 388 1763 388 
Q 2216 388 2483 720 
Q 2750 1053 2750 1659 
Q 2750 2213 2504 2570 
Q 2259 2928 1753 2928 
z
" transform="scale(0.015625)"/>
       <path id="ArialMT-6f" d="M 213 1659 
Q 213 2581 725 3025 
Q 1153 3394 1769 3394 
Q 2453 3394 2887 2945 
Q 3322 2497 3322 1706 
Q 3322 1066 3130 698 
Q 2938 331 2570 128 
Q 2203 -75 1769 -75 
Q 1072 -75 642 372 
Q 213 819 213 1659 
z
M 791 1659 
Q 791 1022 1069 705 
Q 1347 388 1769 388 
Q 2188 388 2466 706 
Q 2744 1025 2744 1678 
Q 2744 2294 2464 2611 
Q 2184 2928 1769 2928 
Q 1347 2928 1069 2612 
Q 791 2297 791 1659 
z
" transform="scale(0.015625)"/>
       <path id="ArialMT-67" d="M 319 -275 
L 866 -356 
Q 900 -609 1056 -725 
Q 1266 -881 1628 -881 
Q 2019 -881 2231 -725 
Q 2444 -569 2519 -288 
Q 2563 -116 2559 434 
Q 2191 0 1641 0 
Q 956 0 581 494 
Q 206 988 206 1678 
Q 206 2153 378 2554 
Q 550 2956 876 3175 
Q 1203 3394 1644 3394 
Q 2231 3394 2613 2919 
L 2613 3319 
L 3131 3319 
L 3131 450 
Q 3131 -325 2973 -648 
Q 2816 -972 2473 -1159 
Q 2131 -1347 1631 -1347 
Q 1038 -1347 672 -1080 
Q 306 -813 319 -275 
z
M 784 1719 
Q 784 1066 1043 766 
Q 1303 466 1694 466 
Q 2081 466 2343 764 
Q 2606 1063 2606 1700 
Q 2606 2309 2336 2618 
Q 2066 2928 1684 2928 
Q 1309 2928 1046 2623 
Q 784 2319 784 1719 
z
" transform="scale(0.015625)"/>
       <path id="ArialMT-29" d="M 791 -1347 
L 388 -1347 
Q 1322 153 1322 1656 
Q 1322 2244 1188 2822 
Q 1081 3291 891 3722 
Q 769 4003 388 4659 
L 791 4659 
Q 1378 3875 1659 3084 
Q 1900 2403 1900 1659 
Q 1900 816 1576 28 
Q 1253 -759 791 -1347 
z
" transform="scale(0.015625)"/>
      </defs>
      <use xlink:href="#ArialMT-53"/>
      <use xlink:href="#ArialMT-74" x="66.699219"/>
      <use xlink:href="#ArialMT-61" x="94.482422"/>
      <use xlink:href="#ArialMT-6e" x="150.097656"/>
      <use xlink:href="#ArialMT-64" x="205.712891"/>
      <use xlink:href="#ArialMT-61" x="261.328125"/>
      <use xlink:href="#ArialMT-72" x="316.943359"/>
      <use xlink:href="#ArialMT-64" x="350.244141"/>
      <use xlink:href="#ArialMT-69" x="405.859375"/>
      <use xlink:href="#ArialMT-7a" x="428.076172"/>
      <use xlink:href="#ArialMT-65" x="478.076172"/>
      <use xlink:href="#ArialMT-64" x="533.691406"/>
      <use xlink:href="#ArialMT-20" x="589.306641"/>
      <use xlink:href="#ArialMT-65" x="617.089844"/>
      <use xlink:href="#ArialMT-66" x="672.705078"/>
      <use xlink:href="#ArialMT-66" x="698.738281"/>
      <use xlink:href="#ArialMT-65" x="726.521484"/>
      <use xlink:href="#ArialMT-63" x="782.136719"/>
      <use xlink:href="#ArialMT-74" x="832.136719"/>
      <use xlink:href="#ArialMT-20" x="859.919922"/>
      <use xlink:href="#ArialMT-28" x="887.703125"/>
      <use xlink:href="#ArialMT-3c3" x="921.003906"/>
      <use xlink:href="#ArialMT-20" x="982.722656"/>
      <use xlink:href="#ArialMT-6f" x="1010.505859"/>
      <use xlink:href="#ArialMT-66" x="1066.121094"/>
      <use xlink:href="#ArialMT-20" x="1093.904297"/>
      <use xlink:href="#ArialMT-74" x="1121.6875"/>
      <use xlink:href="#ArialMT-61" x="1149.470703"/>
      <use xlink:href="#ArialMT-72" x="1205.085938"/>
      <use xlink:href="#ArialMT-67" x="1238.386719"/>
      <use xlink:href="#ArialMT-65" x="1294.001953"/>
      <use xlink:href="#ArialMT-74" x="1349.617188"/>
      <use xlink:href="#ArialMT-29" x="1377.400391"/>
     </g>
    </g>
   </g>
   <g id="matplotlib.axis_2">
    <g id="ytick_1"/>
    <g id="ytick_2"/>
    <g id="ytick_3"/>
    <g id="ytick_4"/>
    <g id="ytick_5"/>
    <g id="ytick_6"/>
    <g id="ytick_7"/>
    <g id="ytick_8"/>
    <g id="ytick_9"/>
    <g id="ytick_10"/>
    <g id="ytick_11"/>
    <g id="ytick_12"/>
    <g id="ytick_13"/>
    <g id="ytick_14"/>
    <g id="ytick_15"/>
    <g id="ytick_16"/>
    <g id="ytick_17"/>
    <g id="ytick_18"/>
   </g>
   <g id="LineCollection_1">
    <path d="M 356.469239 51.172955 
L 546.014187 51.172955 
" clip-path="url(#p08498e6042)" style="fill: none; stroke: #1f77b4; stroke-opacity: 0.85; stroke-width: 3"/>
   </g>
   <g id="line2d_1">
    <path d="M 356.469239 51.172955 
" style="fill: none; stroke: #1f77b4; stroke-width: 1.5; stroke-linecap: round"/>
    <defs>
     <path id="m272b2260dc" d="M -3 -0 
L 3 3 
L 3 -3 
z
" style="stroke: #1f77b4; stroke-linejoin: miter"/>
    </defs>
    <g>
     <use xlink:href="#m272b2260dc" x="356.469239" y="51.172955" style="fill: #1f77b4; stroke: #1f77b4; stroke-linejoin: miter"/>
    </g>
   </g>
   <g id="line2d_2">
    <path d="M 546.014187 51.172955 
" style="fill: none; stroke: #1f77b4; stroke-width: 1.5; stroke-linecap: round"/>
    <defs>
     <path id="m3a2b45b1c6" d="M 3 0 
L -3 -3 
L -3 3 
z
" style="stroke: #1f77b4; stroke-linejoin: miter"/>
    </defs>
    <g>
     <use xlink:href="#m3a2b45b1c6" x="546.014187" y="51.172955" style="fill: #1f77b4; stroke: #1f77b4; stroke-linejoin: miter"/>
    </g>
   </g>
   <g id="LineCollection_2">
    <path d="M 261.177376 113.115201 
L 328.027907 113.115201 
" clip-path="url(#p08498e6042)" style="fill: none; stroke: #ff5733; stroke-opacity: 0.85; stroke-width: 3"/>
   </g>
   <g id="line2d_3">
    <path d="M 261.177376 113.115201 
" style="fill: none; stroke: #ff5733; stroke-width: 1.5; stroke-linecap: round"/>
    <defs>
     <path id="m236e264ce8" d="M -3 -0 
L 3 3 
L 3 -3 
z
" style="stroke: #ff5733; stroke-linejoin: miter"/>
    </defs>
    <g>
     <use xlink:href="#m236e264ce8" x="261.177376" y="113.115201" style="fill: #ff5733; stroke: #ff5733; stroke-linejoin: miter"/>
    </g>
   </g>
   <g id="line2d_4">
    <path d="M 328.027907 113.115201 
" style="fill: none; stroke: #ff5733; stroke-width: 1.5; stroke-linecap: round"/>
    <defs>
     <path id="m1a118e32a8" d="M 3 0 
L -3 -3 
L -3 3 
z
" style="stroke: #ff5733; stroke-linejoin: miter"/>
    </defs>
    <g>
     <use xlink:href="#m1a118e32a8" x="328.027907" y="113.115201" style="fill: #ff5733; stroke: #ff5733; stroke-linejoin: miter"/>
    </g>
   </g>
   <g id="LineCollection_3">
    <path d="M 331.414262 236.999693 
L 336.102633 236.999693 
" clip-path="url(#p08498e6042)" style="fill: none; stroke: #1f77b4; stroke-opacity: 0.85; stroke-width: 3"/>
   </g>
   <g id="line2d_5">
    <path d="M 331.414262 236.999693 
" style="fill: none; stroke: #1f77b4; stroke-width: 1.5; stroke-linecap: round"/>
    <g>
     <use xlink:href="#m272b2260dc" x="331.414262" y="236.999693" style="fill: #1f77b4; stroke: #1f77b4; stroke-linejoin: miter"/>
    </g>
   </g>
   <g id="line2d_6">
    <path d="M 336.102633 236.999693 
" style="fill: none; stroke: #1f77b4; stroke-width: 1.5; stroke-linecap: round"/>
    <g>
     <use xlink:href="#m3a2b45b1c6" x="336.102633" y="236.999693" style="fill: #1f77b4; stroke: #1f77b4; stroke-linejoin: miter"/>
    </g>
   </g>
   <g id="LineCollection_4">
    <path d="M 330.993059 298.941939 
L 335.976253 298.941939 
" clip-path="url(#p08498e6042)" style="fill: none; stroke: #ff5733; stroke-opacity: 0.85; stroke-width: 3"/>
   </g>
   <g id="line2d_7">
    <path d="M 330.993059 298.941939 
" style="fill: none; stroke: #ff5733; stroke-width: 1.5; stroke-linecap: round"/>
    <g>
     <use xlink:href="#m236e264ce8" x="330.993059" y="298.941939" style="fill: #ff5733; stroke: #ff5733; stroke-linejoin: miter"/>
    </g>
   </g>
   <g id="line2d_8">
    <path d="M 335.976253 298.941939 
" style="fill: none; stroke: #ff5733; stroke-width: 1.5; stroke-linecap: round"/>
    <g>
     <use xlink:href="#m1a118e32a8" x="335.976253" y="298.941939" style="fill: #ff5733; stroke: #ff5733; stroke-linejoin: miter"/>
    </g>
   </g>
   <g id="LineCollection_5">
    <path d="M 363.446476 422.82643 
L 644.675845 422.82643 
" clip-path="url(#p08498e6042)" style="fill: none; stroke: #1f77b4; stroke-opacity: 0.85; stroke-width: 3"/>
   </g>
   <g id="line2d_9">
    <path d="M 363.446476 422.82643 
" style="fill: none; stroke: #1f77b4; stroke-width: 1.5; stroke-linecap: round"/>
    <g>
     <use xlink:href="#m272b2260dc" x="363.446476" y="422.82643" style="fill: #1f77b4; stroke: #1f77b4; stroke-linejoin: miter"/>
    </g>
   </g>
   <g id="line2d_10">
    <path d="M 644.675845 422.82643 
" style="fill: none; stroke: #1f77b4; stroke-width: 1.5; stroke-linecap: round"/>
    <g>
     <use xlink:href="#m3a2b45b1c6" x="644.675845" y="422.82643" style="fill: #1f77b4; stroke: #1f77b4; stroke-linejoin: miter"/>
    </g>
   </g>
   <g id="LineCollection_6">
    <path d="M 342.227624 484.768676 
L 415.042109 484.768676 
" clip-path="url(#p08498e6042)" style="fill: none; stroke: #ff5733; stroke-opacity: 0.85; stroke-width: 3"/>
   </g>
   <g id="line2d_11">
    <path d="M 342.227624 484.768676 
" style="fill: none; stroke: #ff5733; stroke-width: 1.5; stroke-linecap: round"/>
    <g>
     <use xlink:href="#m236e264ce8" x="342.227624" y="484.768676" style="fill: #ff5733; stroke: #ff5733; stroke-linejoin: miter"/>
    </g>
   </g>
   <g id="line2d_12">
    <path d="M 415.042109 484.768676 
" style="fill: none; stroke: #ff5733; stroke-width: 1.5; stroke-linecap: round"/>
    <g>
     <use xlink:href="#m1a118e32a8" x="415.042109" y="484.768676" style="fill: #ff5733; stroke: #ff5733; stroke-linejoin: miter"/>
    </g>
   </g>
   <g id="line2d_13">
    <path d="M 337.134797 604.0075 
L 337.134797 24.8475 
" clip-path="url(#p08498e6042)" style="fill: none; stroke-dasharray: 3.7,1.6; stroke-dashoffset: 0; stroke: #999999"/>
   </g>
   <g id="patch_3">
    <path d="M 199.153845 604.0075 
L 199.153845 24.8475 
" style="fill: none; stroke: #262626; stroke-width: 0.8; stroke-linejoin: miter; stroke-linecap: square"/>
   </g>
   <g id="patch_4">
    <path d="M 685.177845 604.0075 
L 685.177845 24.8475 
" style="fill: none; stroke: #262626; stroke-width: 0.8; stroke-linejoin: miter; stroke-linecap: square"/>
   </g>
   <g id="patch_5">
    <path d="M 199.153845 604.0075 
L 685.177845 604.0075 
" style="fill: none; stroke: #262626; stroke-width: 0.8; stroke-linejoin: miter; stroke-linecap: square"/>
   </g>
   <g id="patch_6">
    <path d="M 199.153845 24.8475 
L 685.177845 24.8475 
" style="fill: none; stroke: #262626; stroke-width: 0.8; stroke-linejoin: miter; stroke-linecap: square"/>
   </g>
   <g id="text_8">
    <!-- gov_index_zmean -->
    <g style="fill: #262626" transform="translate(81.21 131.632637) scale(0.12 -0.12)">
     <defs>
      <path id="Arial-BoldMT-67" d="M 378 -219 
L 1381 -341 
Q 1406 -516 1497 -581 
Q 1622 -675 1891 -675 
Q 2234 -675 2406 -572 
Q 2522 -503 2581 -350 
Q 2622 -241 2622 53 
L 2622 538 
Q 2228 0 1628 0 
Q 959 0 569 566 
Q 263 1013 263 1678 
Q 263 2513 664 2953 
Q 1066 3394 1663 3394 
Q 2278 3394 2678 2853 
L 2678 3319 
L 3500 3319 
L 3500 341 
Q 3500 -247 3403 -537 
Q 3306 -828 3131 -993 
Q 2956 -1159 2664 -1253 
Q 2372 -1347 1925 -1347 
Q 1081 -1347 728 -1058 
Q 375 -769 375 -325 
Q 375 -281 378 -219 
z
M 1163 1728 
Q 1163 1200 1367 954 
Q 1572 709 1872 709 
Q 2194 709 2416 961 
Q 2638 1213 2638 1706 
Q 2638 2222 2425 2472 
Q 2213 2722 1888 2722 
Q 1572 2722 1367 2476 
Q 1163 2231 1163 1728 
z
" transform="scale(0.015625)"/>
      <path id="Arial-BoldMT-6f" d="M 256 1706 
Q 256 2144 472 2553 
Q 688 2963 1083 3178 
Q 1478 3394 1966 3394 
Q 2719 3394 3200 2905 
Q 3681 2416 3681 1669 
Q 3681 916 3195 420 
Q 2709 -75 1972 -75 
Q 1516 -75 1102 131 
Q 688 338 472 736 
Q 256 1134 256 1706 
z
M 1156 1659 
Q 1156 1166 1390 903 
Q 1625 641 1969 641 
Q 2313 641 2545 903 
Q 2778 1166 2778 1666 
Q 2778 2153 2545 2415 
Q 2313 2678 1969 2678 
Q 1625 2678 1390 2415 
Q 1156 2153 1156 1659 
z
" transform="scale(0.015625)"/>
      <path id="Arial-BoldMT-76" d="M 1372 0 
L 34 3319 
L 956 3319 
L 1581 1625 
L 1763 1059 
Q 1834 1275 1853 1344 
Q 1897 1484 1947 1625 
L 2578 3319 
L 3481 3319 
L 2163 0 
L 1372 0 
z
" transform="scale(0.015625)"/>
      <path id="Arial-BoldMT-5f" d="M -59 -1266 
L -59 -697 
L 3591 -697 
L 3591 -1266 
L -59 -1266 
z
" transform="scale(0.015625)"/>
      <path id="Arial-BoldMT-69" d="M 459 3769 
L 459 4581 
L 1338 4581 
L 1338 3769 
L 459 3769 
z
M 459 0 
L 459 3319 
L 1338 3319 
L 1338 0 
L 459 0 
z
" transform="scale(0.015625)"/>
      <path id="Arial-BoldMT-6e" d="M 3478 0 
L 2600 0 
L 2600 1694 
Q 2600 2231 2544 2389 
Q 2488 2547 2361 2634 
Q 2234 2722 2056 2722 
Q 1828 2722 1647 2597 
Q 1466 2472 1398 2265 
Q 1331 2059 1331 1503 
L 1331 0 
L 453 0 
L 453 3319 
L 1269 3319 
L 1269 2831 
Q 1703 3394 2363 3394 
Q 2653 3394 2893 3289 
Q 3134 3184 3257 3021 
Q 3381 2859 3429 2653 
Q 3478 2447 3478 2063 
L 3478 0 
z
" transform="scale(0.015625)"/>
      <path id="Arial-BoldMT-64" d="M 3503 0 
L 2688 0 
L 2688 488 
Q 2484 203 2207 64 
Q 1931 -75 1650 -75 
Q 1078 -75 670 386 
Q 263 847 263 1672 
Q 263 2516 659 2955 
Q 1056 3394 1663 3394 
Q 2219 3394 2625 2931 
L 2625 4581 
L 3503 4581 
L 3503 0 
z
M 1159 1731 
Q 1159 1200 1306 963 
Q 1519 619 1900 619 
Q 2203 619 2415 876 
Q 2628 1134 2628 1647 
Q 2628 2219 2422 2470 
Q 2216 2722 1894 2722 
Q 1581 2722 1370 2473 
Q 1159 2225 1159 1731 
z
" transform="scale(0.015625)"/>
      <path id="Arial-BoldMT-65" d="M 2381 1056 
L 3256 909 
Q 3088 428 2723 176 
Q 2359 -75 1813 -75 
Q 947 -75 531 491 
Q 203 944 203 1634 
Q 203 2459 634 2926 
Q 1066 3394 1725 3394 
Q 2466 3394 2894 2905 
Q 3322 2416 3303 1406 
L 1103 1406 
Q 1113 1016 1316 798 
Q 1519 581 1822 581 
Q 2028 581 2168 693 
Q 2309 806 2381 1056 
z
M 2431 1944 
Q 2422 2325 2234 2523 
Q 2047 2722 1778 2722 
Q 1491 2722 1303 2513 
Q 1116 2303 1119 1944 
L 2431 1944 
z
" transform="scale(0.015625)"/>
      <path id="Arial-BoldMT-78" d="M 38 0 
L 1234 1709 
L 88 3319 
L 1159 3319 
L 1747 2406 
L 2366 3319 
L 3397 3319 
L 2272 1747 
L 3500 0 
L 2422 0 
L 1747 1028 
L 1066 0 
L 38 0 
z
" transform="scale(0.015625)"/>
      <path id="Arial-BoldMT-7a" d="M 106 0 
L 106 684 
L 1350 2113 
Q 1656 2463 1803 2609 
Q 1650 2600 1400 2597 
L 228 2591 
L 228 3319 
L 2972 3319 
L 2972 2697 
L 1703 1234 
L 1256 750 
Q 1622 772 1709 772 
L 3069 772 
L 3069 0 
L 106 0 
z
" transform="scale(0.015625)"/>
      <path id="Arial-BoldMT-6d" d="M 394 3319 
L 1203 3319 
L 1203 2866 
Q 1638 3394 2238 3394 
Q 2556 3394 2790 3262 
Q 3025 3131 3175 2866 
Q 3394 3131 3647 3262 
Q 3900 3394 4188 3394 
Q 4553 3394 4806 3245 
Q 5059 3097 5184 2809 
Q 5275 2597 5275 2122 
L 5275 0 
L 4397 0 
L 4397 1897 
Q 4397 2391 4306 2534 
Q 4184 2722 3931 2722 
Q 3747 2722 3584 2609 
Q 3422 2497 3350 2280 
Q 3278 2063 3278 1594 
L 3278 0 
L 2400 0 
L 2400 1819 
Q 2400 2303 2353 2443 
Q 2306 2584 2207 2653 
Q 2109 2722 1941 2722 
Q 1738 2722 1575 2612 
Q 1413 2503 1342 2297 
Q 1272 2091 1272 1613 
L 1272 0 
L 394 0 
L 394 3319 
z
" transform="scale(0.015625)"/>
      <path id="Arial-BoldMT-61" d="M 1116 2306 
L 319 2450 
Q 453 2931 781 3162 
Q 1109 3394 1756 3394 
Q 2344 3394 2631 3255 
Q 2919 3116 3036 2902 
Q 3153 2688 3153 2116 
L 3144 1091 
Q 3144 653 3186 445 
Q 3228 238 3344 0 
L 2475 0 
Q 2441 88 2391 259 
Q 2369 338 2359 363 
Q 2134 144 1878 34 
Q 1622 -75 1331 -75 
Q 819 -75 523 203 
Q 228 481 228 906 
Q 228 1188 362 1408 
Q 497 1628 739 1745 
Q 981 1863 1438 1950 
Q 2053 2066 2291 2166 
L 2291 2253 
Q 2291 2506 2166 2614 
Q 2041 2722 1694 2722 
Q 1459 2722 1328 2630 
Q 1197 2538 1116 2306 
z
M 2291 1594 
Q 2122 1538 1756 1459 
Q 1391 1381 1278 1306 
Q 1106 1184 1106 997 
Q 1106 813 1243 678 
Q 1381 544 1594 544 
Q 1831 544 2047 700 
Q 2206 819 2256 991 
Q 2291 1103 2291 1419 
L 2291 1594 
z
" transform="scale(0.015625)"/>
     </defs>
     <use xlink:href="#Arial-BoldMT-67"/>
     <use xlink:href="#Arial-BoldMT-6f" x="61.083984"/>
     <use xlink:href="#Arial-BoldMT-76" x="122.167969"/>
     <use xlink:href="#Arial-BoldMT-5f" x="177.783203"/>
     <use xlink:href="#Arial-BoldMT-69" x="233.398438"/>
     <use xlink:href="#Arial-BoldMT-6e" x="261.181641"/>
     <use xlink:href="#Arial-BoldMT-64" x="322.265625"/>
     <use xlink:href="#Arial-BoldMT-65" x="383.349609"/>
     <use xlink:href="#Arial-BoldMT-78" x="438.964844"/>
     <use xlink:href="#Arial-BoldMT-5f" x="494.580078"/>
     <use xlink:href="#Arial-BoldMT-7a" x="550.195312"/>
     <use xlink:href="#Arial-BoldMT-6d" x="600.195312"/>
     <use xlink:href="#Arial-BoldMT-65" x="689.111328"/>
     <use xlink:href="#Arial-BoldMT-61" x="744.726562"/>
     <use xlink:href="#Arial-BoldMT-6e" x="800.341797"/>
    </g>
   </g>
   <g id="text_9">
    <!-- inflation_consumer_prices_pct -->
    <g style="fill: #262626" transform="translate(7.2 317.608437) scale(0.12 -0.12)">
     <defs>
      <path id="Arial-BoldMT-66" d="M 75 3319 
L 563 3319 
L 563 3569 
Q 563 3988 652 4194 
Q 741 4400 980 4529 
Q 1219 4659 1584 4659 
Q 1959 4659 2319 4547 
L 2200 3934 
Q 1991 3984 1797 3984 
Q 1606 3984 1523 3895 
Q 1441 3806 1441 3553 
L 1441 3319 
L 2097 3319 
L 2097 2628 
L 1441 2628 
L 1441 0 
L 563 0 
L 563 2628 
L 75 2628 
L 75 3319 
z
" transform="scale(0.015625)"/>
      <path id="Arial-BoldMT-6c" d="M 459 0 
L 459 4581 
L 1338 4581 
L 1338 0 
L 459 0 
z
" transform="scale(0.015625)"/>
      <path id="Arial-BoldMT-74" d="M 1981 3319 
L 1981 2619 
L 1381 2619 
L 1381 1281 
Q 1381 875 1398 808 
Q 1416 741 1477 697 
Q 1538 653 1625 653 
Q 1747 653 1978 738 
L 2053 56 
Q 1747 -75 1359 -75 
Q 1122 -75 931 4 
Q 741 84 652 211 
Q 563 338 528 553 
Q 500 706 500 1172 
L 500 2619 
L 97 2619 
L 97 3319 
L 500 3319 
L 500 3978 
L 1381 4491 
L 1381 3319 
L 1981 3319 
z
" transform="scale(0.015625)"/>
      <path id="Arial-BoldMT-63" d="M 3353 2338 
L 2488 2181 
Q 2444 2441 2289 2572 
Q 2134 2703 1888 2703 
Q 1559 2703 1364 2476 
Q 1169 2250 1169 1719 
Q 1169 1128 1367 884 
Q 1566 641 1900 641 
Q 2150 641 2309 783 
Q 2469 925 2534 1272 
L 3397 1125 
Q 3263 531 2881 228 
Q 2500 -75 1859 -75 
Q 1131 -75 698 384 
Q 266 844 266 1656 
Q 266 2478 700 2936 
Q 1134 3394 1875 3394 
Q 2481 3394 2839 3133 
Q 3197 2872 3353 2338 
z
" transform="scale(0.015625)"/>
      <path id="Arial-BoldMT-73" d="M 150 947 
L 1031 1081 
Q 1088 825 1259 692 
Q 1431 559 1741 559 
Q 2081 559 2253 684 
Q 2369 772 2369 919 
Q 2369 1019 2306 1084 
Q 2241 1147 2013 1200 
Q 950 1434 666 1628 
Q 272 1897 272 2375 
Q 272 2806 612 3100 
Q 953 3394 1669 3394 
Q 2350 3394 2681 3172 
Q 3013 2950 3138 2516 
L 2309 2363 
Q 2256 2556 2107 2659 
Q 1959 2763 1684 2763 
Q 1338 2763 1188 2666 
Q 1088 2597 1088 2488 
Q 1088 2394 1175 2328 
Q 1294 2241 1995 2081 
Q 2697 1922 2975 1691 
Q 3250 1456 3250 1038 
Q 3250 581 2869 253 
Q 2488 -75 1741 -75 
Q 1063 -75 667 200 
Q 272 475 150 947 
z
" transform="scale(0.015625)"/>
      <path id="Arial-BoldMT-75" d="M 2644 0 
L 2644 497 
Q 2463 231 2167 78 
Q 1872 -75 1544 -75 
Q 1209 -75 943 72 
Q 678 219 559 484 
Q 441 750 441 1219 
L 441 3319 
L 1319 3319 
L 1319 1794 
Q 1319 1094 1367 936 
Q 1416 778 1544 686 
Q 1672 594 1869 594 
Q 2094 594 2272 717 
Q 2450 841 2515 1023 
Q 2581 1206 2581 1919 
L 2581 3319 
L 3459 3319 
L 3459 0 
L 2644 0 
z
" transform="scale(0.015625)"/>
      <path id="Arial-BoldMT-72" d="M 1300 0 
L 422 0 
L 422 3319 
L 1238 3319 
L 1238 2847 
Q 1447 3181 1614 3287 
Q 1781 3394 1994 3394 
Q 2294 3394 2572 3228 
L 2300 2463 
Q 2078 2606 1888 2606 
Q 1703 2606 1575 2504 
Q 1447 2403 1373 2137 
Q 1300 1872 1300 1025 
L 1300 0 
z
" transform="scale(0.015625)"/>
      <path id="Arial-BoldMT-70" d="M 434 3319 
L 1253 3319 
L 1253 2831 
Q 1413 3081 1684 3237 
Q 1956 3394 2288 3394 
Q 2866 3394 3269 2941 
Q 3672 2488 3672 1678 
Q 3672 847 3265 386 
Q 2859 -75 2281 -75 
Q 2006 -75 1782 34 
Q 1559 144 1313 409 
L 1313 -1263 
L 434 -1263 
L 434 3319 
z
M 1303 1716 
Q 1303 1156 1525 889 
Q 1747 622 2066 622 
Q 2372 622 2575 867 
Q 2778 1113 2778 1672 
Q 2778 2194 2568 2447 
Q 2359 2700 2050 2700 
Q 1728 2700 1515 2451 
Q 1303 2203 1303 1716 
z
" transform="scale(0.015625)"/>
     </defs>
     <use xlink:href="#Arial-BoldMT-69"/>
     <use xlink:href="#Arial-BoldMT-6e" x="27.783203"/>
     <use xlink:href="#Arial-BoldMT-66" x="88.867188"/>
     <use xlink:href="#Arial-BoldMT-6c" x="122.167969"/>
     <use xlink:href="#Arial-BoldMT-61" x="149.951172"/>
     <use xlink:href="#Arial-BoldMT-74" x="205.566406"/>
     <use xlink:href="#Arial-BoldMT-69" x="238.867188"/>
     <use xlink:href="#Arial-BoldMT-6f" x="266.650391"/>
     <use xlink:href="#Arial-BoldMT-6e" x="327.734375"/>
     <use xlink:href="#Arial-BoldMT-5f" x="388.818359"/>
     <use xlink:href="#Arial-BoldMT-63" x="444.433594"/>
     <use xlink:href="#Arial-BoldMT-6f" x="500.048828"/>
     <use xlink:href="#Arial-BoldMT-6e" x="561.132812"/>
     <use xlink:href="#Arial-BoldMT-73" x="622.216797"/>
     <use xlink:href="#Arial-BoldMT-75" x="677.832031"/>
     <use xlink:href="#Arial-BoldMT-6d" x="738.916016"/>
     <use xlink:href="#Arial-BoldMT-65" x="827.832031"/>
     <use xlink:href="#Arial-BoldMT-72" x="883.447266"/>
     <use xlink:href="#Arial-BoldMT-5f" x="922.363281"/>
     <use xlink:href="#Arial-BoldMT-70" x="977.978516"/>
     <use xlink:href="#Arial-BoldMT-72" x="1039.0625"/>
     <use xlink:href="#Arial-BoldMT-69" x="1077.978516"/>
     <use xlink:href="#Arial-BoldMT-63" x="1105.761719"/>
     <use xlink:href="#Arial-BoldMT-65" x="1161.376953"/>
     <use xlink:href="#Arial-BoldMT-73" x="1216.992188"/>
     <use xlink:href="#Arial-BoldMT-5f" x="1272.607422"/>
     <use xlink:href="#Arial-BoldMT-70" x="1328.222656"/>
     <use xlink:href="#Arial-BoldMT-63" x="1389.306641"/>
     <use xlink:href="#Arial-BoldMT-74" x="1444.921875"/>
    </g>
   </g>
   <g id="text_10">
    <!-- trade_exposure -->
    <g style="fill: #262626" transform="translate(95.206875 503.36205) scale(0.12 -0.12)">
     <use xlink:href="#Arial-BoldMT-74"/>
     <use xlink:href="#Arial-BoldMT-72" x="33.300781"/>
     <use xlink:href="#Arial-BoldMT-61" x="72.216797"/>
     <use xlink:href="#Arial-BoldMT-64" x="127.832031"/>
     <use xlink:href="#Arial-BoldMT-65" x="188.916016"/>
     <use xlink:href="#Arial-BoldMT-5f" x="244.53125"/>
     <use xlink:href="#Arial-BoldMT-65" x="300.146484"/>
     <use xlink:href="#Arial-BoldMT-78" x="355.761719"/>
     <use xlink:href="#Arial-BoldMT-70" x="411.376953"/>
     <use xlink:href="#Arial-BoldMT-6f" x="472.460938"/>
     <use xlink:href="#Arial-BoldMT-73" x="533.544922"/>
     <use xlink:href="#Arial-BoldMT-75" x="589.160156"/>
     <use xlink:href="#Arial-BoldMT-72" x="650.244141"/>
     <use xlink:href="#Arial-BoldMT-65" x="689.160156"/>
    </g>
   </g>
   <g id="text_11">
    <!-- Standardized effects (σ of target) by model -->
    <g style="fill: #262626" transform="translate(290.637095 18.8475) scale(0.16 -0.16)">
     <defs>
      <path id="ArialMT-73" d="M 197 991 
L 753 1078 
Q 800 744 1014 566 
Q 1228 388 1613 388 
Q 2000 388 2187 545 
Q 2375 703 2375 916 
Q 2375 1106 2209 1216 
Q 2094 1291 1634 1406 
Q 1016 1563 777 1677 
Q 538 1791 414 1992 
Q 291 2194 291 2438 
Q 291 2659 392 2848 
Q 494 3038 669 3163 
Q 800 3259 1026 3326 
Q 1253 3394 1513 3394 
Q 1903 3394 2198 3281 
Q 2494 3169 2634 2976 
Q 2775 2784 2828 2463 
L 2278 2388 
Q 2241 2644 2061 2787 
Q 1881 2931 1553 2931 
Q 1166 2931 1000 2803 
Q 834 2675 834 2503 
Q 834 2394 903 2306 
Q 972 2216 1119 2156 
Q 1203 2125 1616 2013 
Q 2213 1853 2448 1751 
Q 2684 1650 2818 1456 
Q 2953 1263 2953 975 
Q 2953 694 2789 445 
Q 2625 197 2315 61 
Q 2006 -75 1616 -75 
Q 969 -75 630 194 
Q 291 463 197 991 
z
" transform="scale(0.015625)"/>
      <path id="ArialMT-62" d="M 941 0 
L 419 0 
L 419 4581 
L 981 4581 
L 981 2947 
Q 1338 3394 1891 3394 
Q 2197 3394 2470 3270 
Q 2744 3147 2920 2923 
Q 3097 2700 3197 2384 
Q 3297 2069 3297 1709 
Q 3297 856 2875 390 
Q 2453 -75 1863 -75 
Q 1275 -75 941 416 
L 941 0 
z
M 934 1684 
Q 934 1088 1097 822 
Q 1363 388 1816 388 
Q 2184 388 2453 708 
Q 2722 1028 2722 1663 
Q 2722 2313 2464 2622 
Q 2206 2931 1841 2931 
Q 1472 2931 1203 2611 
Q 934 2291 934 1684 
z
" transform="scale(0.015625)"/>
      <path id="ArialMT-79" d="M 397 -1278 
L 334 -750 
Q 519 -800 656 -800 
Q 844 -800 956 -737 
Q 1069 -675 1141 -563 
Q 1194 -478 1313 -144 
Q 1328 -97 1363 -6 
L 103 3319 
L 709 3319 
L 1400 1397 
Q 1534 1031 1641 628 
Q 1738 1016 1872 1384 
L 2581 3319 
L 3144 3319 
L 1881 -56 
Q 1678 -603 1566 -809 
Q 1416 -1088 1222 -1217 
Q 1028 -1347 759 -1347 
Q 597 -1347 397 -1278 
z
" transform="scale(0.015625)"/>
      <path id="ArialMT-6d" d="M 422 0 
L 422 3319 
L 925 3319 
L 925 2853 
Q 1081 3097 1340 3245 
Q 1600 3394 1931 3394 
Q 2300 3394 2536 3241 
Q 2772 3088 2869 2813 
Q 3263 3394 3894 3394 
Q 4388 3394 4653 3120 
Q 4919 2847 4919 2278 
L 4919 0 
L 4359 0 
L 4359 2091 
Q 4359 2428 4304 2576 
Q 4250 2725 4106 2815 
Q 3963 2906 3769 2906 
Q 3419 2906 3187 2673 
Q 2956 2441 2956 1928 
L 2956 0 
L 2394 0 
L 2394 2156 
Q 2394 2531 2256 2718 
Q 2119 2906 1806 2906 
Q 1569 2906 1367 2781 
Q 1166 2656 1075 2415 
Q 984 2175 984 1722 
L 984 0 
L 422 0 
z
" transform="scale(0.015625)"/>
      <path id="ArialMT-6c" d="M 409 0 
L 409 4581 
L 972 4581 
L 972 0 
L 409 0 
z
" transform="scale(0.015625)"/>
     </defs>
     <use xlink:href="#ArialMT-53"/>
     <use xlink:href="#ArialMT-74" x="66.699219"/>
     <use xlink:href="#ArialMT-61" x="94.482422"/>
     <use xlink:href="#ArialMT-6e" x="150.097656"/>
     <use xlink:href="#ArialMT-64" x="205.712891"/>
     <use xlink:href="#ArialMT-61" x="261.328125"/>
     <use xlink:href="#ArialMT-72" x="316.943359"/>
     <use xlink:href="#ArialMT-64" x="350.244141"/>
     <use xlink:href="#ArialMT-69" x="405.859375"/>
     <use xlink:href="#ArialMT-7a" x="428.076172"/>
     <use xlink:href="#ArialMT-65" x="478.076172"/>
     <use xlink:href="#ArialMT-64" x="533.691406"/>
     <use xlink:href="#ArialMT-20" x="589.306641"/>
     <use xlink:href="#ArialMT-65" x="617.089844"/>
     <use xlink:href="#ArialMT-66" x="672.705078"/>
     <use xlink:href="#ArialMT-66" x="698.738281"/>
     <use xlink:href="#ArialMT-65" x="726.521484"/>
     <use xlink:href="#ArialMT-63" x="782.136719"/>
     <use xlink:href="#ArialMT-74" x="832.136719"/>
     <use xlink:href="#ArialMT-73" x="859.919922"/>
     <use xlink:href="#ArialMT-20" x="909.919922"/>
     <use xlink:href="#ArialMT-28" x="937.703125"/>
     <use xlink:href="#ArialMT-3c3" x="971.003906"/>
     <use xlink:href="#ArialMT-20" x="1032.722656"/>
     <use xlink:href="#ArialMT-6f" x="1060.505859"/>
     <use xlink:href="#ArialMT-66" x="1116.121094"/>
     <use xlink:href="#ArialMT-20" x="1143.904297"/>
     <use xlink:href="#ArialMT-74" x="1171.6875"/>
     <use xlink:href="#ArialMT-61" x="1199.470703"/>
     <use xlink:href="#ArialMT-72" x="1255.085938"/>
     <use xlink:href="#ArialMT-67" x="1288.386719"/>
     <use xlink:href="#ArialMT-65" x="1344.001953"/>
     <use xlink:href="#ArialMT-74" x="1399.617188"/>
     <use xlink:href="#ArialMT-29" x="1427.400391"/>
     <use xlink:href="#ArialMT-20" x="1460.701172"/>
     <use xlink:href="#ArialMT-62" x="1488.484375"/>
     <use xlink:href="#ArialMT-79" x="1544.099609"/>
     <use xlink:href="#ArialMT-20" x="1594.099609"/>
     <use xlink:href="#ArialMT-6d" x="1621.882812"/>
     <use xlink:href="#ArialMT-6f" x="1705.183594"/>
     <use xlink:href="#ArialMT-64" x="1760.798828"/>
     <use xlink:href="#ArialMT-65" x="1816.414062"/>
     <use xlink:href="#ArialMT-6c" x="1872.029297"/>
    </g>
   </g>
   <g id="line2d_14">
    <path d="M 356.469239 51.172955 
" clip-path="url(#p08498e6042)" style="fill: none; stroke: #ffffff; stroke-width: 1.5; stroke-linecap: round"/>
    <defs>
     <path id="m4093c1c553" d="M 0 4 
C 1.060812 4 2.078319 3.578535 2.828427 2.828427 
C 3.578535 2.078319 4 1.060812 4 0 
C 4 -1.060812 3.578535 -2.078319 2.828427 -2.828427 
C 2.078319 -3.578535 1.060812 -4 0 -4 
C -1.060812 -4 -2.078319 -3.578535 -2.828427 -2.828427 
C -3.578535 -2.078319 -4 -1.060812 -4 0 
C -4 1.060812 -3.578535 2.078319 -2.828427 2.828427 
C -2.078319 3.578535 -1.060812 4 0 4 
z
" style="stroke: #1f77b4; stroke-width: 1.6"/>
    </defs>
    <g clip-path="url(#p08498e6042)">
     <use xlink:href="#m4093c1c553" x="356.469239" y="51.172955" style="fill: #ffffff; stroke: #1f77b4; stroke-width: 1.6"/>
    </g>
   </g>
   <g id="line2d_15">
    <path d="M 356.469239 82.144078 
" clip-path="url(#p08498e6042)" style="fill: none; stroke: #ffffff; stroke-width: 1.5; stroke-linecap: round"/>
    <g clip-path="url(#p08498e6042)">
     <use xlink:href="#m4093c1c553" x="356.469239" y="82.144078" style="fill: #ffffff; stroke: #1f77b4; stroke-width: 1.6"/>
    </g>
   </g>
   <g id="line2d_16">
    <path d="M 328.027907 113.115201 
" clip-path="url(#p08498e6042)" style="fill: none; stroke: #ffffff; stroke-width: 1.5; stroke-linecap: round"/>
    <defs>
     <path id="m2a6a9683b4" d="M 0 4 
C 1.060812 4 2.078319 3.578535 2.828427 2.828427 
C 3.578535 2.078319 4 1.060812 4 0 
C 4 -1.060812 3.578535 -2.078319 2.828427 -2.828427 
C 2.078319 -3.578535 1.060812 -4 0 -4 
C -1.060812 -4 -2.078319 -3.578535 -2.828427 -2.828427 
C -3.578535 -2.078319 -4 -1.060812 -4 0 
C -4 1.060812 -3.578535 2.078319 -2.828427 2.828427 
C -2.078319 3.578535 -1.060812 4 0 4 
z
" style="stroke: #ff5733; stroke-width: 1.6"/>
    </defs>
    <g clip-path="url(#p08498e6042)">
     <use xlink:href="#m2a6a9683b4" x="328.027907" y="113.115201" style="fill: #ffffff; stroke: #ff5733; stroke-width: 1.6"/>
    </g>
   </g>
   <g id="line2d_17">
    <path d="M 328.027907 144.086324 
" clip-path="url(#p08498e6042)" style="fill: none; stroke: #ffffff; stroke-width: 1.5; stroke-linecap: round"/>
    <g clip-path="url(#p08498e6042)">
     <use xlink:href="#m2a6a9683b4" x="328.027907" y="144.086324" style="fill: #ffffff; stroke: #ff5733; stroke-width: 1.6"/>
    </g>
   </g>
   <g id="line2d_18">
    <path d="M 329.025464 175.057447 
" clip-path="url(#p08498e6042)" style="fill: none; stroke: #ffffff; stroke-width: 1.5; stroke-linecap: round"/>
    <defs>
     <path id="mfd3af30254" d="M 0 4 
C 1.060812 4 2.078319 3.578535 2.828427 2.828427 
C 3.578535 2.078319 4 1.060812 4 0 
C 4 -1.060812 3.578535 -2.078319 2.828427 -2.828427 
C 2.078319 -3.578535 1.060812 -4 0 -4 
C -1.060812 -4 -2.078319 -3.578535 -2.828427 -2.828427 
C -3.578535 -2.078319 -4 -1.060812 -4 0 
C -4 1.060812 -3.578535 2.078319 -2.828427 2.828427 
C -2.078319 3.578535 -1.060812 4 0 4 
z
" style="stroke: #6a3d9a; stroke-width: 1.6"/>
    </defs>
    <g clip-path="url(#p08498e6042)">
     <use xlink:href="#mfd3af30254" x="329.025464" y="175.057447" style="fill: #ffffff; stroke: #6a3d9a; stroke-width: 1.6"/>
    </g>
   </g>
   <g id="line2d_19">
    <path d="M 329.025464 206.02857 
" clip-path="url(#p08498e6042)" style="fill: none; stroke: #ffffff; stroke-width: 1.5; stroke-linecap: round"/>
    <g clip-path="url(#p08498e6042)">
     <use xlink:href="#mfd3af30254" x="329.025464" y="206.02857" style="fill: #ffffff; stroke: #6a3d9a; stroke-width: 1.6"/>
    </g>
   </g>
   <g id="line2d_20">
    <path d="M 331.414262 236.999693 
" clip-path="url(#p08498e6042)" style="fill: none; stroke: #ffffff; stroke-width: 1.5; stroke-linecap: round"/>
    <g clip-path="url(#p08498e6042)">
     <use xlink:href="#m4093c1c553" x="331.414262" y="236.999693" style="fill: #ffffff; stroke: #1f77b4; stroke-width: 1.6"/>
    </g>
   </g>
   <g id="line2d_21">
    <path d="M 331.414262 267.970816 
" clip-path="url(#p08498e6042)" style="fill: none; stroke: #ffffff; stroke-width: 1.5; stroke-linecap: round"/>
    <g clip-path="url(#p08498e6042)">
     <use xlink:href="#m4093c1c553" x="331.414262" y="267.970816" style="fill: #ffffff; stroke: #1f77b4; stroke-width: 1.6"/>
    </g>
   </g>
   <g id="line2d_22">
    <path d="M 330.993059 298.941939 
" clip-path="url(#p08498e6042)" style="fill: none; stroke: #ffffff; stroke-width: 1.5; stroke-linecap: round"/>
    <g clip-path="url(#p08498e6042)">
     <use xlink:href="#m2a6a9683b4" x="330.993059" y="298.941939" style="fill: #ffffff; stroke: #ff5733; stroke-width: 1.6"/>
    </g>
   </g>
   <g id="line2d_23">
    <path d="M 330.993059 329.913061 
" clip-path="url(#p08498e6042)" style="fill: none; stroke: #ffffff; stroke-width: 1.5; stroke-linecap: round"/>
    <g clip-path="url(#p08498e6042)">
     <use xlink:href="#m2a6a9683b4" x="330.993059" y="329.913061" style="fill: #ffffff; stroke: #ff5733; stroke-width: 1.6"/>
    </g>
   </g>
   <g id="line2d_24">
    <path d="M 239.655845 360.884184 
" clip-path="url(#p08498e6042)" style="fill: none; stroke: #ffffff; stroke-width: 1.5; stroke-linecap: round"/>
    <g clip-path="url(#p08498e6042)">
     <use xlink:href="#mfd3af30254" x="239.655845" y="360.884184" style="fill: #ffffff; stroke: #6a3d9a; stroke-width: 1.6"/>
    </g>
   </g>
   <g id="line2d_25">
    <path d="M 239.655845 391.855307 
" clip-path="url(#p08498e6042)" style="fill: none; stroke: #ffffff; stroke-width: 1.5; stroke-linecap: round"/>
    <g clip-path="url(#p08498e6042)">
     <use xlink:href="#mfd3af30254" x="239.655845" y="391.855307" style="fill: #ffffff; stroke: #6a3d9a; stroke-width: 1.6"/>
    </g>
   </g>
   <g id="line2d_26">
    <path d="M 363.446476 422.82643 
" clip-path="url(#p08498e6042)" style="fill: none; stroke: #ffffff; stroke-width: 1.5; stroke-linecap: round"/>
    <g clip-path="url(#p08498e6042)">
     <use xlink:href="#m4093c1c553" x="363.446476" y="422.82643" style="fill: #ffffff; stroke: #1f77b4; stroke-width: 1.6"/>
    </g>
   </g>
   <g id="line2d_27">
    <path d="M 363.446476 453.797553 
" clip-path="url(#p08498e6042)" style="fill: none; stroke: #ffffff; stroke-width: 1.5; stroke-linecap: round"/>
    <g clip-path="url(#p08498e6042)">
     <use xlink:href="#m4093c1c553" x="363.446476" y="453.797553" style="fill: #ffffff; stroke: #1f77b4; stroke-width: 1.6"/>
    </g>
   </g>
   <g id="line2d_28">
    <path d="M 342.227624 484.768676 
" clip-path="url(#p08498e6042)" style="fill: none; stroke: #ffffff; stroke-width: 1.5; stroke-linecap: round"/>
    <g clip-path="url(#p08498e6042)">
     <use xlink:href="#m2a6a9683b4" x="342.227624" y="484.768676" style="fill: #ffffff; stroke: #ff5733; stroke-width: 1.6"/>
    </g>
   </g>
   <g id="line2d_29">
    <path d="M 342.227624 515.739799 
" clip-path="url(#p08498e6042)" style="fill: none; stroke: #ffffff; stroke-width: 1.5; stroke-linecap: round"/>
    <g clip-path="url(#p08498e6042)">
     <use xlink:href="#m2a6a9683b4" x="342.227624" y="515.739799" style="fill: #ffffff; stroke: #ff5733; stroke-width: 1.6"/>
    </g>
   </g>
   <g id="line2d_30">
    <path d="M 340.186133 546.710922 
" clip-path="url(#p08498e6042)" style="fill: none; stroke: #ffffff; stroke-width: 1.5; stroke-linecap: round"/>
    <g clip-path="url(#p08498e6042)">
     <use xlink:href="#mfd3af30254" x="340.186133" y="546.710922" style="fill: #ffffff; stroke: #6a3d9a; stroke-width: 1.6"/>
    </g>
   </g>
   <g id="line2d_31">
    <path d="M 340.186133 577.682045 
" clip-path="url(#p08498e6042)" style="fill: none; stroke: #ffffff; stroke-width: 1.5; stroke-linecap: round"/>
    <g clip-path="url(#p08498e6042)">
     <use xlink:href="#mfd3af30254" x="340.186133" y="577.682045" style="fill: #ffffff; stroke: #6a3d9a; stroke-width: 1.6"/>
    </g>
   </g>
   <g id="legend_1">
    <g id="line2d_32">
     <defs>
      <path id="m00c77e5c23" d="M 0 4 
C 1.060812 4 2.078319 3.578535 2.828427 2.828427 
C 3.578535 2.078319 4 1.060812 4 0 
C 4 -1.060812 3.578535 -2.078319 2.828427 -2.828427 
C 2.078319 -3.578535 1.060812 -4 0 -4 
C -1.060812 -4 -2.078319 -3.578535 -2.828427 -2.828427 
C -3.578535 -2.078319 -4 -1.060812 -4 0 
C -4 1.060812 -3.578535 2.078319 -2.828427 2.828427 
C -2.078319 3.578535 -1.060812 4 0 4 
z
" style="stroke: #1f77b4"/>
     </defs>
     <g>
      <use xlink:href="#m00c77e5c23" x="717.698325" y="296.355312" style="fill: #1f77b4; stroke: #1f77b4"/>
     </g>
    </g>
    <g id="text_12">
     <!-- FE -->
     <g style="fill: #262626" transform="translate(739.298325 300.555312) scale(0.12 -0.12)">
      <defs>
       <path id="ArialMT-46" d="M 525 0 
L 525 4581 
L 3616 4581 
L 3616 4041 
L 1131 4041 
L 1131 2622 
L 3281 2622 
L 3281 2081 
L 1131 2081 
L 1131 0 
L 525 0 
z
" transform="scale(0.015625)"/>
       <path id="ArialMT-45" d="M 506 0 
L 506 4581 
L 3819 4581 
L 3819 4041 
L 1113 4041 
L 1113 2638 
L 3647 2638 
L 3647 2100 
L 1113 2100 
L 1113 541 
L 3925 541 
L 3925 0 
L 506 0 
z
" transform="scale(0.015625)"/>
      </defs>
      <use xlink:href="#ArialMT-46"/>
      <use xlink:href="#ArialMT-45" x="61.083984"/>
     </g>
    </g>
    <g id="line2d_33">
     <defs>
      <path id="m6c5387383c" d="M 0 4 
C 1.060812 4 2.078319 3.578535 2.828427 2.828427 
C 3.578535 2.078319 4 1.060812 4 0 
C 4 -1.060812 3.578535 -2.078319 2.828427 -2.828427 
C 2.078319 -3.578535 1.060812 -4 0 -4 
C -1.060812 -4 -2.078319 -3.578535 -2.828427 -2.828427 
C -3.578535 -2.078319 -4 -1.060812 -4 0 
C -4 1.060812 -3.578535 2.078319 -2.828427 2.828427 
C -2.078319 3.578535 -1.060812 4 0 4 
z
" style="stroke: #ff5733"/>
     </defs>
     <g>
      <use xlink:href="#m6c5387383c" x="717.698325" y="313.329687" style="fill: #ff5733; stroke: #ff5733"/>
     </g>
    </g>
    <g id="text_13">
     <!-- OLS -->
     <g style="fill: #262626" transform="translate(739.298325 317.529687) scale(0.12 -0.12)">
      <defs>
       <path id="ArialMT-4f" d="M 309 2231 
Q 309 3372 921 4017 
Q 1534 4663 2503 4663 
Q 3138 4663 3647 4359 
Q 4156 4056 4423 3514 
Q 4691 2972 4691 2284 
Q 4691 1588 4409 1038 
Q 4128 488 3612 205 
Q 3097 -78 2500 -78 
Q 1853 -78 1343 234 
Q 834 547 571 1087 
Q 309 1628 309 2231 
z
M 934 2222 
Q 934 1394 1379 917 
Q 1825 441 2497 441 
Q 3181 441 3623 922 
Q 4066 1403 4066 2288 
Q 4066 2847 3877 3264 
Q 3688 3681 3323 3911 
Q 2959 4141 2506 4141 
Q 1863 4141 1398 3698 
Q 934 3256 934 2222 
z
" transform="scale(0.015625)"/>
       <path id="ArialMT-4c" d="M 469 0 
L 469 4581 
L 1075 4581 
L 1075 541 
L 3331 541 
L 3331 0 
L 469 0 
z
" transform="scale(0.015625)"/>
      </defs>
      <use xlink:href="#ArialMT-4f"/>
      <use xlink:href="#ArialMT-4c" x="77.783203"/>
      <use xlink:href="#ArialMT-53" x="133.398438"/>
     </g>
    </g>
    <g id="line2d_34">
     <defs>
      <path id="md86b3e33c9" d="M 0 4 
C 1.060812 4 2.078319 3.578535 2.828427 2.828427 
C 3.578535 2.078319 4 1.060812 4 0 
C 4 -1.060812 3.578535 -2.078319 2.828427 -2.828427 
C 2.078319 -3.578535 1.060812 -4 0 -4 
C -1.060812 -4 -2.078319 -3.578535 -2.828427 -2.828427 
C -3.578535 -2.078319 -4 -1.060812 -4 0 
C -4 1.060812 -3.578535 2.078319 -2.828427 2.828427 
C -2.078319 3.578535 -1.060812 4 0 4 
z
" style="stroke: #6a3d9a"/>
     </defs>
     <g>
      <use xlink:href="#md86b3e33c9" x="717.698325" y="330.304062" style="fill: #6a3d9a; stroke: #6a3d9a"/>
     </g>
    </g>
    <g id="text_14">
     <!-- ElasticNet -->
     <g style="fill: #262626" transform="translate(739.298325 334.504062) scale(0.12 -0.12)">
      <defs>
       <path id="ArialMT-4e" d="M 488 0 
L 488 4581 
L 1109 4581 
L 3516 984 
L 3516 4581 
L 4097 4581 
L 4097 0 
L 3475 0 
L 1069 3600 
L 1069 0 
L 488 0 
z
" transform="scale(0.015625)"/>
      </defs>
      <use xlink:href="#ArialMT-45"/>
      <use xlink:href="#ArialMT-6c" x="66.699219"/>
      <use xlink:href="#ArialMT-61" x="88.916016"/>
      <use xlink:href="#ArialMT-73" x="144.53125"/>
      <use xlink:href="#ArialMT-74" x="194.53125"/>
      <use xlink:href="#ArialMT-69" x="222.314453"/>
      <use xlink:href="#ArialMT-63" x="244.53125"/>
      <use xlink:href="#ArialMT-4e" x="294.53125"/>
      <use xlink:href="#ArialMT-65" x="366.748047"/>
      <use xlink:href="#ArialMT-74" x="422.363281"/>
     </g>
    </g>
   </g>
   <g id="line2d_35">
    <path d="M 356.469239 51.172955 
" clip-path="url(#p08498e6042)" style="fill: none; stroke: #1f77b4; stroke-width: 1.5; stroke-linecap: round"/>
    <defs>
     <path id="m18315e7afa" d="M 0 1.5 
C 0.397805 1.5 0.77937 1.341951 1.06066 1.06066 
C 1.341951 0.77937 1.5 0.397805 1.5 0 
C 1.5 -0.397805 1.341951 -0.77937 1.06066 -1.06066 
C 0.77937 -1.341951 0.397805 -1.5 0 -1.5 
C -0.397805 -1.5 -0.77937 -1.341951 -1.06066 -1.06066 
C -1.341951 -0.77937 -1.5 -0.397805 -1.5 0 
C -1.5 0.397805 -1.341951 0.77937 -1.06066 1.06066 
C -0.77937 1.341951 -0.397805 1.5 0 1.5 
z
" style="stroke: #1f77b4"/>
    </defs>
    <g clip-path="url(#p08498e6042)">
     <use xlink:href="#m18315e7afa" x="356.469239" y="51.172955" style="fill: #1f77b4; stroke: #1f77b4"/>
    </g>
   </g>
   <g id="line2d_36">
    <path d="M 356.469239 82.144078 
" clip-path="url(#p08498e6042)" style="fill: none; stroke: #1f77b4; stroke-width: 1.5; stroke-linecap: round"/>
    <g clip-path="url(#p08498e6042)">
     <use xlink:href="#m18315e7afa" x="356.469239" y="82.144078" style="fill: #1f77b4; stroke: #1f77b4"/>
    </g>
   </g>
   <g id="line2d_37">
    <path d="M 328.027907 113.115201 
" clip-path="url(#p08498e6042)" style="fill: none; stroke: #ff5733; stroke-width: 1.5; stroke-linecap: round"/>
    <defs>
     <path id="m6dbb9177e8" d="M 0 1.5 
C 0.397805 1.5 0.77937 1.341951 1.06066 1.06066 
C 1.341951 0.77937 1.5 0.397805 1.5 0 
C 1.5 -0.397805 1.341951 -0.77937 1.06066 -1.06066 
C 0.77937 -1.341951 0.397805 -1.5 0 -1.5 
C -0.397805 -1.5 -0.77937 -1.341951 -1.06066 -1.06066 
C -1.341951 -0.77937 -1.5 -0.397805 -1.5 0 
C -1.5 0.397805 -1.341951 0.77937 -1.06066 1.06066 
C -0.77937 1.341951 -0.397805 1.5 0 1.5 
z
" style="stroke: #ff5733"/>
    </defs>
    <g clip-path="url(#p08498e6042)">
     <use xlink:href="#m6dbb9177e8" x="328.027907" y="113.115201" style="fill: #ff5733; stroke: #ff5733"/>
    </g>
   </g>
   <g id="line2d_38">
    <path d="M 328.027907 144.086324 
" clip-path="url(#p08498e6042)" style="fill: none; stroke: #ff5733; stroke-width: 1.5; stroke-linecap: round"/>
    <g clip-path="url(#p08498e6042)">
     <use xlink:href="#m6dbb9177e8" x="328.027907" y="144.086324" style="fill: #ff5733; stroke: #ff5733"/>
    </g>
   </g>
   <g id="line2d_39">
    <path d="M 329.025464 175.057447 
" clip-path="url(#p08498e6042)" style="fill: none; stroke: #6a3d9a; stroke-width: 1.5; stroke-linecap: round"/>
    <defs>
     <path id="m33267f292d" d="M 0 1.5 
C 0.397805 1.5 0.77937 1.341951 1.06066 1.06066 
C 1.341951 0.77937 1.5 0.397805 1.5 0 
C 1.5 -0.397805 1.341951 -0.77937 1.06066 -1.06066 
C 0.77937 -1.341951 0.397805 -1.5 0 -1.5 
C -0.397805 -1.5 -0.77937 -1.341951 -1.06066 -1.06066 
C -1.341951 -0.77937 -1.5 -0.397805 -1.5 0 
C -1.5 0.397805 -1.341951 0.77937 -1.06066 1.06066 
C -0.77937 1.341951 -0.397805 1.5 0 1.5 
z
" style="stroke: #6a3d9a"/>
    </defs>
    <g clip-path="url(#p08498e6042)">
     <use xlink:href="#m33267f292d" x="329.025464" y="175.057447" style="fill: #6a3d9a; stroke: #6a3d9a"/>
    </g>
   </g>
   <g id="line2d_40">
    <path d="M 329.025464 206.02857 
" clip-path="url(#p08498e6042)" style="fill: none; stroke: #6a3d9a; stroke-width: 1.5; stroke-linecap: round"/>
    <g clip-path="url(#p08498e6042)">
     <use xlink:href="#m33267f292d" x="329.025464" y="206.02857" style="fill: #6a3d9a; stroke: #6a3d9a"/>
    </g>
   </g>
   <g id="line2d_41">
    <path d="M 331.414262 236.999693 
" clip-path="url(#p08498e6042)" style="fill: none; stroke: #1f77b4; stroke-width: 1.5; stroke-linecap: round"/>
    <g clip-path="url(#p08498e6042)">
     <use xlink:href="#m18315e7afa" x="331.414262" y="236.999693" style="fill: #1f77b4; stroke: #1f77b4"/>
    </g>
   </g>
   <g id="line2d_42">
    <path d="M 331.414262 267.970816 
" clip-path="url(#p08498e6042)" style="fill: none; stroke: #1f77b4; stroke-width: 1.5; stroke-linecap: round"/>
    <g clip-path="url(#p08498e6042)">
     <use xlink:href="#m18315e7afa" x="331.414262" y="267.970816" style="fill: #1f77b4; stroke: #1f77b4"/>
    </g>
   </g>
   <g id="line2d_43">
    <path d="M 330.993059 298.941939 
" clip-path="url(#p08498e6042)" style="fill: none; stroke: #ff5733; stroke-width: 1.5; stroke-linecap: round"/>
    <g clip-path="url(#p08498e6042)">
     <use xlink:href="#m6dbb9177e8" x="330.993059" y="298.941939" style="fill: #ff5733; stroke: #ff5733"/>
    </g>
   </g>
   <g id="line2d_44">
    <path d="M 330.993059 329.913061 
" clip-path="url(#p08498e6042)" style="fill: none; stroke: #ff5733; stroke-width: 1.5; stroke-linecap: round"/>
    <g clip-path="url(#p08498e6042)">
     <use xlink:href="#m6dbb9177e8" x="330.993059" y="329.913061" style="fill: #ff5733; stroke: #ff5733"/>
    </g>
   </g>
   <g id="line2d_45">
    <path d="M 239.655845 360.884184 
" clip-path="url(#p08498e6042)" style="fill: none; stroke: #6a3d9a; stroke-width: 1.5; stroke-linecap: round"/>
    <g clip-path="url(#p08498e6042)">
     <use xlink:href="#m33267f292d" x="239.655845" y="360.884184" style="fill: #6a3d9a; stroke: #6a3d9a"/>
    </g>
   </g>
   <g id="line2d_46">
    <path d="M 239.655845 391.855307 
" clip-path="url(#p08498e6042)" style="fill: none; stroke: #6a3d9a; stroke-width: 1.5; stroke-linecap: round"/>
    <g clip-path="url(#p08498e6042)">
     <use xlink:href="#m33267f292d" x="239.655845" y="391.855307" style="fill: #6a3d9a; stroke: #6a3d9a"/>
    </g>
   </g>
   <g id="line2d_47">
    <path d="M 363.446476 422.82643 
" clip-path="url(#p08498e6042)" style="fill: none; stroke: #1f77b4; stroke-width: 1.5; stroke-linecap: round"/>
    <g clip-path="url(#p08498e6042)">
     <use xlink:href="#m18315e7afa" x="363.446476" y="422.82643" style="fill: #1f77b4; stroke: #1f77b4"/>
    </g>
   </g>
   <g id="line2d_48">
    <path d="M 363.446476 453.797553 
" clip-path="url(#p08498e6042)" style="fill: none; stroke: #1f77b4; stroke-width: 1.5; stroke-linecap: round"/>
    <g clip-path="url(#p08498e6042)">
     <use xlink:href="#m18315e7afa" x="363.446476" y="453.797553" style="fill: #1f77b4; stroke: #1f77b4"/>
    </g>
   </g>
   <g id="line2d_49">
    <path d="M 342.227624 484.768676 
" clip-path="url(#p08498e6042)" style="fill: none; stroke: #ff5733; stroke-width: 1.5; stroke-linecap: round"/>
    <g clip-path="url(#p08498e6042)">
     <use xlink:href="#m6dbb9177e8" x="342.227624" y="484.768676" style="fill: #ff5733; stroke: #ff5733"/>
    </g>
   </g>
   <g id="line2d_50">
    <path d="M 342.227624 515.739799 
" clip-path="url(#p08498e6042)" style="fill: none; stroke: #ff5733; stroke-width: 1.5; stroke-linecap: round"/>
    <g clip-path="url(#p08498e6042)">
     <use xlink:href="#m6dbb9177e8" x="342.227624" y="515.739799" style="fill: #ff5733; stroke: #ff5733"/>
    </g>
   </g>
   <g id="line2d_51">
    <path d="M 340.186133 546.710922 
" clip-path="url(#p08498e6042)" style="fill: none; stroke: #6a3d9a; stroke-width: 1.5; stroke-linecap: round"/>
    <g clip-path="url(#p08498e6042)">
     <use xlink:href="#m33267f292d" x="340.186133" y="546.710922" style="fill: #6a3d9a; stroke: #6a3d9a"/>
    </g>
   </g>
   <g id="line2d_52">
    <path d="M 340.186133 577.682045 
" clip-path="url(#p08498e6042)" style="fill: none; stroke: #6a3d9a; stroke-width: 1.5; stroke-linecap: round"/>
    <g clip-path="url(#p08498e6042)">
     <use xlink:href="#m33267f292d" x="340.186133" y="577.682045" style="fill: #6a3d9a; stroke: #6a3d9a"/>
    </g>
   </g>
  </g>
  <g id="text_15">
   <!-- Note: FE = within-country fixed-effects; ElasticNet = penalized ML model (coef shrinkage). Standardized effects convert coefficient into SD units of the target for comparability. -->
   <g style="fill: #262626" transform="translate(9.136245 671.2635) scale(0.1 -0.1)">
    <defs>
     <path id="ArialMT-3a" d="M 578 2678 
L 578 3319 
L 1219 3319 
L 1219 2678 
L 578 2678 
z
M 578 0 
L 578 641 
L 1219 641 
L 1219 0 
L 578 0 
z
" transform="scale(0.015625)"/>
     <path id="ArialMT-3d" d="M 3381 2694 
L 356 2694 
L 356 3219 
L 3381 3219 
L 3381 2694 
z
M 3381 1303 
L 356 1303 
L 356 1828 
L 3381 1828 
L 3381 1303 
z
" transform="scale(0.015625)"/>
     <path id="ArialMT-77" d="M 1034 0 
L 19 3319 
L 600 3319 
L 1128 1403 
L 1325 691 
Q 1338 744 1497 1375 
L 2025 3319 
L 2603 3319 
L 3100 1394 
L 3266 759 
L 3456 1400 
L 4025 3319 
L 4572 3319 
L 3534 0 
L 2950 0 
L 2422 1988 
L 2294 2553 
L 1622 0 
L 1034 0 
z
" transform="scale(0.015625)"/>
     <path id="ArialMT-68" d="M 422 0 
L 422 4581 
L 984 4581 
L 984 2938 
Q 1378 3394 1978 3394 
Q 2347 3394 2619 3248 
Q 2891 3103 3008 2847 
Q 3125 2591 3125 2103 
L 3125 0 
L 2563 0 
L 2563 2103 
Q 2563 2525 2380 2717 
Q 2197 2909 1863 2909 
Q 1613 2909 1392 2779 
Q 1172 2650 1078 2428 
Q 984 2206 984 1816 
L 984 0 
L 422 0 
z
" transform="scale(0.015625)"/>
     <path id="ArialMT-2d" d="M 203 1375 
L 203 1941 
L 1931 1941 
L 1931 1375 
L 203 1375 
z
" transform="scale(0.015625)"/>
     <path id="ArialMT-75" d="M 2597 0 
L 2597 488 
Q 2209 -75 1544 -75 
Q 1250 -75 995 37 
Q 741 150 617 320 
Q 494 491 444 738 
Q 409 903 409 1263 
L 409 3319 
L 972 3319 
L 972 1478 
Q 972 1038 1006 884 
Q 1059 663 1231 536 
Q 1403 409 1656 409 
Q 1909 409 2131 539 
Q 2353 669 2445 892 
Q 2538 1116 2538 1541 
L 2538 3319 
L 3100 3319 
L 3100 0 
L 2597 0 
z
" transform="scale(0.015625)"/>
     <path id="ArialMT-78" d="M 47 0 
L 1259 1725 
L 138 3319 
L 841 3319 
L 1350 2541 
Q 1494 2319 1581 2169 
Q 1719 2375 1834 2534 
L 2394 3319 
L 3066 3319 
L 1919 1756 
L 3153 0 
L 2463 0 
L 1781 1031 
L 1600 1309 
L 728 0 
L 47 0 
z
" transform="scale(0.015625)"/>
     <path id="ArialMT-3b" d="M 569 2678 
L 569 3319 
L 1209 3319 
L 1209 2678 
L 569 2678 
z
M 569 0 
L 569 641 
L 1209 641 
L 1209 0 
Q 1209 -353 1084 -570 
Q 959 -788 688 -906 
L 531 -666 
Q 709 -588 793 -436 
Q 878 -284 888 0 
L 569 0 
z
" transform="scale(0.015625)"/>
     <path id="ArialMT-70" d="M 422 -1272 
L 422 3319 
L 934 3319 
L 934 2888 
Q 1116 3141 1344 3267 
Q 1572 3394 1897 3394 
Q 2322 3394 2647 3175 
Q 2972 2956 3137 2557 
Q 3303 2159 3303 1684 
Q 3303 1175 3120 767 
Q 2938 359 2589 142 
Q 2241 -75 1856 -75 
Q 1575 -75 1351 44 
Q 1128 163 984 344 
L 984 -1272 
L 422 -1272 
z
M 931 1641 
Q 931 1000 1190 694 
Q 1450 388 1819 388 
Q 2194 388 2461 705 
Q 2728 1022 2728 1688 
Q 2728 2322 2467 2637 
Q 2206 2953 1844 2953 
Q 1484 2953 1207 2617 
Q 931 2281 931 1641 
z
" transform="scale(0.015625)"/>
     <path id="ArialMT-4d" d="M 475 0 
L 475 4581 
L 1388 4581 
L 2472 1338 
Q 2622 884 2691 659 
Q 2769 909 2934 1394 
L 4031 4581 
L 4847 4581 
L 4847 0 
L 4263 0 
L 4263 3834 
L 2931 0 
L 2384 0 
L 1059 3900 
L 1059 0 
L 475 0 
z
" transform="scale(0.015625)"/>
     <path id="ArialMT-6b" d="M 425 0 
L 425 4581 
L 988 4581 
L 988 1969 
L 2319 3319 
L 3047 3319 
L 1778 2088 
L 3175 0 
L 2481 0 
L 1384 1697 
L 988 1316 
L 988 0 
L 425 0 
z
" transform="scale(0.015625)"/>
     <path id="ArialMT-2e" d="M 581 0 
L 581 641 
L 1222 641 
L 1222 0 
L 581 0 
z
" transform="scale(0.015625)"/>
     <path id="ArialMT-76" d="M 1344 0 
L 81 3319 
L 675 3319 
L 1388 1331 
Q 1503 1009 1600 663 
Q 1675 925 1809 1294 
L 2547 3319 
L 3125 3319 
L 1869 0 
L 1344 0 
z
" transform="scale(0.015625)"/>
     <path id="ArialMT-44" d="M 494 0 
L 494 4581 
L 2072 4581 
Q 2606 4581 2888 4516 
Q 3281 4425 3559 4188 
Q 3922 3881 4101 3404 
Q 4281 2928 4281 2316 
Q 4281 1794 4159 1391 
Q 4038 988 3847 723 
Q 3656 459 3429 307 
Q 3203 156 2883 78 
Q 2563 0 2147 0 
L 494 0 
z
M 1100 541 
L 2078 541 
Q 2531 541 2789 625 
Q 3047 709 3200 863 
Q 3416 1078 3536 1442 
Q 3656 1806 3656 2325 
Q 3656 3044 3420 3430 
Q 3184 3816 2847 3947 
Q 2603 4041 2063 4041 
L 1100 4041 
L 1100 541 
z
" transform="scale(0.015625)"/>
    </defs>
    <use xlink:href="#ArialMT-4e"/>
    <use xlink:href="#ArialMT-6f" x="72.216797"/>
    <use xlink:href="#ArialMT-74" x="127.832031"/>
    <use xlink:href="#ArialMT-65" x="155.615234"/>
    <use xlink:href="#ArialMT-3a" x="211.230469"/>
    <use xlink:href="#ArialMT-20" x="239.013672"/>
    <use xlink:href="#ArialMT-46" x="266.796875"/>
    <use xlink:href="#ArialMT-45" x="327.880859"/>
    <use xlink:href="#ArialMT-20" x="394.580078"/>
    <use xlink:href="#ArialMT-3d" x="422.363281"/>
    <use xlink:href="#ArialMT-20" x="480.761719"/>
    <use xlink:href="#ArialMT-77" x="508.544922"/>
    <use xlink:href="#ArialMT-69" x="580.761719"/>
    <use xlink:href="#ArialMT-74" x="602.978516"/>
    <use xlink:href="#ArialMT-68" x="630.761719"/>
    <use xlink:href="#ArialMT-69" x="686.376953"/>
    <use xlink:href="#ArialMT-6e" x="708.59375"/>
    <use xlink:href="#ArialMT-2d" x="764.208984"/>
    <use xlink:href="#ArialMT-63" x="797.509766"/>
    <use xlink:href="#ArialMT-6f" x="847.509766"/>
    <use xlink:href="#ArialMT-75" x="903.125"/>
    <use xlink:href="#ArialMT-6e" x="958.740234"/>
    <use xlink:href="#ArialMT-74" x="1014.355469"/>
    <use xlink:href="#ArialMT-72" x="1042.138672"/>
    <use xlink:href="#ArialMT-79" x="1075.439453"/>
    <use xlink:href="#ArialMT-20" x="1125.439453"/>
    <use xlink:href="#ArialMT-66" x="1153.222656"/>
    <use xlink:href="#ArialMT-69" x="1181.005859"/>
    <use xlink:href="#ArialMT-78" x="1203.222656"/>
    <use xlink:href="#ArialMT-65" x="1253.222656"/>
    <use xlink:href="#ArialMT-64" x="1308.837891"/>
    <use xlink:href="#ArialMT-2d" x="1364.453125"/>
    <use xlink:href="#ArialMT-65" x="1397.753906"/>
    <use xlink:href="#ArialMT-66" x="1453.369141"/>
    <use xlink:href="#ArialMT-66" x="1479.402344"/>
    <use xlink:href="#ArialMT-65" x="1507.185547"/>
    <use xlink:href="#ArialMT-63" x="1562.800781"/>
    <use xlink:href="#ArialMT-74" x="1612.800781"/>
    <use xlink:href="#ArialMT-73" x="1640.583984"/>
    <use xlink:href="#ArialMT-3b" x="1690.583984"/>
    <use xlink:href="#ArialMT-20" x="1718.367188"/>
    <use xlink:href="#ArialMT-45" x="1746.150391"/>
    <use xlink:href="#ArialMT-6c" x="1812.849609"/>
    <use xlink:href="#ArialMT-61" x="1835.066406"/>
    <use xlink:href="#ArialMT-73" x="1890.681641"/>
    <use xlink:href="#ArialMT-74" x="1940.681641"/>
    <use xlink:href="#ArialMT-69" x="1968.464844"/>
    <use xlink:href="#ArialMT-63" x="1990.681641"/>
    <use xlink:href="#ArialMT-4e" x="2040.681641"/>
    <use xlink:href="#ArialMT-65" x="2112.898438"/>
    <use xlink:href="#ArialMT-74" x="2168.513672"/>
    <use xlink:href="#ArialMT-20" x="2196.296875"/>
    <use xlink:href="#ArialMT-3d" x="2224.080078"/>
    <use xlink:href="#ArialMT-20" x="2282.478516"/>
    <use xlink:href="#ArialMT-70" x="2310.261719"/>
    <use xlink:href="#ArialMT-65" x="2365.876953"/>
    <use xlink:href="#ArialMT-6e" x="2421.492188"/>
    <use xlink:href="#ArialMT-61" x="2477.107422"/>
    <use xlink:href="#ArialMT-6c" x="2532.722656"/>
    <use xlink:href="#ArialMT-69" x="2554.939453"/>
    <use xlink:href="#ArialMT-7a" x="2577.15625"/>
    <use xlink:href="#ArialMT-65" x="2627.15625"/>
    <use xlink:href="#ArialMT-64" x="2682.771484"/>
    <use xlink:href="#ArialMT-20" x="2738.386719"/>
    <use xlink:href="#ArialMT-4d" x="2766.169922"/>
    <use xlink:href="#ArialMT-4c" x="2849.470703"/>
    <use xlink:href="#ArialMT-20" x="2901.335938"/>
    <use xlink:href="#ArialMT-6d" x="2929.119141"/>
    <use xlink:href="#ArialMT-6f" x="3012.419922"/>
    <use xlink:href="#ArialMT-64" x="3068.035156"/>
    <use xlink:href="#ArialMT-65" x="3123.650391"/>
    <use xlink:href="#ArialMT-6c" x="3179.265625"/>
    <use xlink:href="#ArialMT-20" x="3201.482422"/>
    <use xlink:href="#ArialMT-28" x="3229.265625"/>
    <use xlink:href="#ArialMT-63" x="3262.566406"/>
    <use xlink:href="#ArialMT-6f" x="3312.566406"/>
    <use xlink:href="#ArialMT-65" x="3368.181641"/>
    <use xlink:href="#ArialMT-66" x="3423.796875"/>
    <use xlink:href="#ArialMT-20" x="3451.580078"/>
    <use xlink:href="#ArialMT-73" x="3479.363281"/>
    <use xlink:href="#ArialMT-68" x="3529.363281"/>
    <use xlink:href="#ArialMT-72" x="3584.978516"/>
    <use xlink:href="#ArialMT-69" x="3618.279297"/>
    <use xlink:href="#ArialMT-6e" x="3640.496094"/>
    <use xlink:href="#ArialMT-6b" x="3696.111328"/>
    <use xlink:href="#ArialMT-61" x="3746.111328"/>
    <use xlink:href="#ArialMT-67" x="3801.726562"/>
    <use xlink:href="#ArialMT-65" x="3857.341797"/>
    <use xlink:href="#ArialMT-29" x="3912.957031"/>
    <use xlink:href="#ArialMT-2e" x="3946.257812"/>
    <use xlink:href="#ArialMT-20" x="3974.041016"/>
    <use xlink:href="#ArialMT-53" x="4001.824219"/>
    <use xlink:href="#ArialMT-74" x="4068.523438"/>
    <use xlink:href="#ArialMT-61" x="4096.306641"/>
    <use xlink:href="#ArialMT-6e" x="4151.921875"/>
    <use xlink:href="#ArialMT-64" x="4207.537109"/>
    <use xlink:href="#ArialMT-61" x="4263.152344"/>
    <use xlink:href="#ArialMT-72" x="4318.767578"/>
    <use xlink:href="#ArialMT-64" x="4352.068359"/>
    <use xlink:href="#ArialMT-69" x="4407.683594"/>
    <use xlink:href="#ArialMT-7a" x="4429.900391"/>
    <use xlink:href="#ArialMT-65" x="4479.900391"/>
    <use xlink:href="#ArialMT-64" x="4535.515625"/>
    <use xlink:href="#ArialMT-20" x="4591.130859"/>
    <use xlink:href="#ArialMT-65" x="4618.914062"/>
    <use xlink:href="#ArialMT-66" x="4674.529297"/>
    <use xlink:href="#ArialMT-66" x="4700.5625"/>
    <use xlink:href="#ArialMT-65" x="4728.345703"/>
    <use xlink:href="#ArialMT-63" x="4783.960938"/>
    <use xlink:href="#ArialMT-74" x="4833.960938"/>
    <use xlink:href="#ArialMT-73" x="4861.744141"/>
    <use xlink:href="#ArialMT-20" x="4911.744141"/>
    <use xlink:href="#ArialMT-63" x="4939.527344"/>
    <use xlink:href="#ArialMT-6f" x="4989.527344"/>
    <use xlink:href="#ArialMT-6e" x="5045.142578"/>
    <use xlink:href="#ArialMT-76" x="5100.757812"/>
    <use xlink:href="#ArialMT-65" x="5150.757812"/>
    <use xlink:href="#ArialMT-72" x="5206.373047"/>
    <use xlink:href="#ArialMT-74" x="5239.673828"/>
    <use xlink:href="#ArialMT-20" x="5267.457031"/>
    <use xlink:href="#ArialMT-63" x="5295.240234"/>
    <use xlink:href="#ArialMT-6f" x="5345.240234"/>
    <use xlink:href="#ArialMT-65" x="5400.855469"/>
    <use xlink:href="#ArialMT-66" x="5456.470703"/>
    <use xlink:href="#ArialMT-66" x="5482.503906"/>
    <use xlink:href="#ArialMT-69" x="5510.287109"/>
    <use xlink:href="#ArialMT-63" x="5532.503906"/>
    <use xlink:href="#ArialMT-69" x="5582.503906"/>
    <use xlink:href="#ArialMT-65" x="5604.720703"/>
    <use xlink:href="#ArialMT-6e" x="5660.335938"/>
    <use xlink:href="#ArialMT-74" x="5715.951172"/>
    <use xlink:href="#ArialMT-20" x="5743.734375"/>
    <use xlink:href="#ArialMT-69" x="5771.517578"/>
    <use xlink:href="#ArialMT-6e" x="5793.734375"/>
    <use xlink:href="#ArialMT-74" x="5849.349609"/>
    <use xlink:href="#ArialMT-6f" x="5877.132812"/>
    <use xlink:href="#ArialMT-20" x="5932.748047"/>
    <use xlink:href="#ArialMT-53" x="5960.53125"/>
    <use xlink:href="#ArialMT-44" x="6027.230469"/>
    <use xlink:href="#ArialMT-20" x="6099.447266"/>
    <use xlink:href="#ArialMT-75" x="6127.230469"/>
    <use xlink:href="#ArialMT-6e" x="6182.845703"/>
    <use xlink:href="#ArialMT-69" x="6238.460938"/>
    <use xlink:href="#ArialMT-74" x="6260.677734"/>
    <use xlink:href="#ArialMT-73" x="6288.460938"/>
    <use xlink:href="#ArialMT-20" x="6338.460938"/>
    <use xlink:href="#ArialMT-6f" x="6366.244141"/>
    <use xlink:href="#ArialMT-66" x="6421.859375"/>
    <use xlink:href="#ArialMT-20" x="6449.642578"/>
    <use xlink:href="#ArialMT-74" x="6477.425781"/>
    <use xlink:href="#ArialMT-68" x="6505.208984"/>
    <use xlink:href="#ArialMT-65" x="6560.824219"/>
    <use xlink:href="#ArialMT-20" x="6616.439453"/>
    <use xlink:href="#ArialMT-74" x="6644.222656"/>
    <use xlink:href="#ArialMT-61" x="6672.005859"/>
    <use xlink:href="#ArialMT-72" x="6727.621094"/>
    <use xlink:href="#ArialMT-67" x="6760.921875"/>
    <use xlink:href="#ArialMT-65" x="6816.537109"/>
    <use xlink:href="#ArialMT-74" x="6872.152344"/>
    <use xlink:href="#ArialMT-20" x="6899.935547"/>
    <use xlink:href="#ArialMT-66" x="6927.71875"/>
    <use xlink:href="#ArialMT-6f" x="6955.501953"/>
    <use xlink:href="#ArialMT-72" x="7011.117188"/>
    <use xlink:href="#ArialMT-20" x="7044.417969"/>
    <use xlink:href="#ArialMT-63" x="7072.201172"/>
    <use xlink:href="#ArialMT-6f" x="7122.201172"/>
    <use xlink:href="#ArialMT-6d" x="7177.816406"/>
    <use xlink:href="#ArialMT-70" x="7261.117188"/>
    <use xlink:href="#ArialMT-61" x="7316.732422"/>
    <use xlink:href="#ArialMT-72" x="7372.347656"/>
    <use xlink:href="#ArialMT-61" x="7405.648438"/>
    <use xlink:href="#ArialMT-62" x="7461.263672"/>
    <use xlink:href="#ArialMT-69" x="7516.878906"/>
    <use xlink:href="#ArialMT-6c" x="7539.095703"/>
    <use xlink:href="#ArialMT-69" x="7561.3125"/>
    <use xlink:href="#ArialMT-74" x="7583.529297"/>
    <use xlink:href="#ArialMT-79" x="7611.3125"/>
    <use xlink:href="#ArialMT-2e" x="7653.9375"/>
   </g>
  </g>
 </g>
 <defs>
  <clipPath id="p08498e6042">
   <rect x="199.153845" y="24.8475" width="486.024" height="579.16"/>
  </clipPath>
 </defs>
</svg>
