<?xml version="1.0" encoding="utf-8" standalone="no"?>
<!DOCTYPE svg PUBLIC "-//W3C//DTD SVG 1.1//EN"
  "http://www.w3.org/Graphics/SVG/1.1/DTD/svg11.dtd">
<svg xmlns:xlink="http://www.w3.org/1999/xlink" width="388.495156pt" height="251.754219pt" viewBox="0 0 388.495156 251.754219" xmlns="http://www.w3.org/2000/svg" version="1.1">
 <metadata>
  <rdf:RDF xmlns:dc="http://purl.org/dc/elements/1.1/" xmlns:cc="http://creativecommons.org/ns#" xmlns:rdf="http://www.w3.org/1999/02/22-rdf-syntax-ns#">
   <cc:Work>
    <dc:type rdf:resource="http://purl.org/dc/dcmitype/StillImage"/>
    <dc:date>2025-11-30T15:51:40.542162</dc:date>
    <dc:format>image/svg+xml</dc:format>
    <dc:creator>
     <cc:Agent>
      <dc:title>Matplotlib v3.9.2, https://matplotlib.org/</dc:title>
     </cc:Agent>
    </dc:creator>
   </cc:Work>
  </rdf:RDF>
 </metadata>
 <defs>
  <style type="text/css">*{stroke-linejoin: round; stroke-linecap: butt}</style>
 </defs>
 <g id="figure_1">
  <g id="patch_1">
   <path d="M 0 251.754219 
L 388.495156 251.754219 
L 388.495156 0 
L 0 0 
z
" style="fill: #ffffff"/>
  </g>
  <g id="axes_1">
   <g id="patch_2">
    <path d="M 38.891406 216.28 
L 381.295156 216.28 
L 381.295156 7.2 
L 38.891406 7.2 
z
" style="fill: #ffffff"/>
   </g>
   <g id="matplotlib.axis_1">
    <g id="xtick_1">
     <g id="line2d_1">
      <path d="M 82.27802 216.28 
L 82.27802 7.2 
" clip-path="url(#p599a69b065)" style="fill: none; stroke-dasharray: 0.8,1.32; stroke-dashoffset: 0; stroke: #b0b0b0; stroke-opacity: 0.12; stroke-width: 0.8"/>
     </g>
     <g id="line2d_2">
      <defs>
       <path id="m0254f59a7b" d="M 0 0 
L 0 3.5 
" style="stroke: #000000; stroke-width: 0.8"/>
      </defs>
      <g>
       <use xlink:href="#m0254f59a7b" x="82.27802" y="216.28" style="stroke: #000000; stroke-width: 0.8"/>
      </g>
     </g>
     <g id="text_1">
      <!-- −2 -->
      <g transform="translate(76.958488 230.22375) scale(0.1 -0.1)">
       <defs>
        <path id="TimesNewRomanPSMT-2212" d="M 3484 2000 
L 116 2000 
L 116 2256 
L 3484 2256 
L 3484 2000 
z
" transform="scale(0.015625)"/>
        <path id="TimesNewRomanPSMT-32" d="M 2934 816 
L 2638 0 
L 138 0 
L 138 116 
Q 1241 1122 1691 1759 
Q 2141 2397 2141 2925 
Q 2141 3328 1894 3587 
Q 1647 3847 1303 3847 
Q 991 3847 742 3664 
Q 494 3481 375 3128 
L 259 3128 
Q 338 3706 661 4015 
Q 984 4325 1469 4325 
Q 1984 4325 2329 3994 
Q 2675 3663 2675 3213 
Q 2675 2891 2525 2569 
Q 2294 2063 1775 1497 
Q 997 647 803 472 
L 1909 472 
Q 2247 472 2383 497 
Q 2519 522 2628 598 
Q 2738 675 2819 816 
L 2934 816 
z
" transform="scale(0.015625)"/>
       </defs>
       <use xlink:href="#TimesNewRomanPSMT-2212"/>
       <use xlink:href="#TimesNewRomanPSMT-32" x="56.396484"/>
      </g>
     </g>
    </g>
    <g id="xtick_2">
     <g id="line2d_3">
      <path d="M 153.550292 216.28 
L 153.550292 7.2 
" clip-path="url(#p599a69b065)" style="fill: none; stroke-dasharray: 0.8,1.32; stroke-dashoffset: 0; stroke: #b0b0b0; stroke-opacity: 0.12; stroke-width: 0.8"/>
     </g>
     <g id="line2d_4">
      <g>
       <use xlink:href="#m0254f59a7b" x="153.550292" y="216.28" style="stroke: #000000; stroke-width: 0.8"/>
      </g>
     </g>
     <g id="text_2">
      <!-- −1 -->
      <g transform="translate(148.230761 230.22375) scale(0.1 -0.1)">
       <defs>
        <path id="TimesNewRomanPSMT-31" d="M 750 3822 
L 1781 4325 
L 1884 4325 
L 1884 747 
Q 1884 391 1914 303 
Q 1944 216 2037 169 
Q 2131 122 2419 116 
L 2419 0 
L 825 0 
L 825 116 
Q 1125 122 1212 167 
Q 1300 213 1334 289 
Q 1369 366 1369 747 
L 1369 3034 
Q 1369 3497 1338 3628 
Q 1316 3728 1258 3775 
Q 1200 3822 1119 3822 
Q 1003 3822 797 3725 
L 750 3822 
z
" transform="scale(0.015625)"/>
       </defs>
       <use xlink:href="#TimesNewRomanPSMT-2212"/>
       <use xlink:href="#TimesNewRomanPSMT-31" x="56.396484"/>
      </g>
     </g>
    </g>
    <g id="xtick_3">
     <g id="line2d_5">
      <path d="M 224.822565 216.28 
L 224.822565 7.2 
" clip-path="url(#p599a69b065)" style="fill: none; stroke-dasharray: 0.8,1.32; stroke-dashoffset: 0; stroke: #b0b0b0; stroke-opacity: 0.12; stroke-width: 0.8"/>
     </g>
     <g id="line2d_6">
      <g>
       <use xlink:href="#m0254f59a7b" x="224.822565" y="216.28" style="stroke: #000000; stroke-width: 0.8"/>
      </g>
     </g>
     <g id="text_3">
      <!-- 0 -->
      <g transform="translate(222.322565 230.22375) scale(0.1 -0.1)">
       <defs>
        <path id="TimesNewRomanPSMT-30" d="M 231 2094 
Q 231 2819 450 3342 
Q 669 3866 1031 4122 
Q 1313 4325 1613 4325 
Q 2100 4325 2488 3828 
Q 2972 3213 2972 2159 
Q 2972 1422 2759 906 
Q 2547 391 2217 158 
Q 1888 -75 1581 -75 
Q 975 -75 572 641 
Q 231 1244 231 2094 
z
M 844 2016 
Q 844 1141 1059 588 
Q 1238 122 1591 122 
Q 1759 122 1940 273 
Q 2122 425 2216 781 
Q 2359 1319 2359 2297 
Q 2359 3022 2209 3506 
Q 2097 3866 1919 4016 
Q 1791 4119 1609 4119 
Q 1397 4119 1231 3928 
Q 1006 3669 925 3112 
Q 844 2556 844 2016 
z
" transform="scale(0.015625)"/>
       </defs>
       <use xlink:href="#TimesNewRomanPSMT-30"/>
      </g>
     </g>
    </g>
    <g id="xtick_4">
     <g id="line2d_7">
      <path d="M 296.094838 216.28 
L 296.094838 7.2 
" clip-path="url(#p599a69b065)" style="fill: none; stroke-dasharray: 0.8,1.32; stroke-dashoffset: 0; stroke: #b0b0b0; stroke-opacity: 0.12; stroke-width: 0.8"/>
     </g>
     <g id="line2d_8">
      <g>
       <use xlink:href="#m0254f59a7b" x="296.094838" y="216.28" style="stroke: #000000; stroke-width: 0.8"/>
      </g>
     </g>
     <g id="text_4">
      <!-- 1 -->
      <g transform="translate(293.594838 230.22375) scale(0.1 -0.1)">
       <use xlink:href="#TimesNewRomanPSMT-31"/>
      </g>
     </g>
    </g>
    <g id="xtick_5">
     <g id="line2d_9">
      <path d="M 367.367111 216.28 
L 367.367111 7.2 
" clip-path="url(#p599a69b065)" style="fill: none; stroke-dasharray: 0.8,1.32; stroke-dashoffset: 0; stroke: #b0b0b0; stroke-opacity: 0.12; stroke-width: 0.8"/>
     </g>
     <g id="line2d_10">
      <g>
       <use xlink:href="#m0254f59a7b" x="367.367111" y="216.28" style="stroke: #000000; stroke-width: 0.8"/>
      </g>
     </g>
     <g id="text_5">
      <!-- 2 -->
      <g transform="translate(364.867111 230.22375) scale(0.1 -0.1)">
       <use xlink:href="#TimesNewRomanPSMT-32"/>
      </g>
     </g>
    </g>
    <g id="text_6">
     <!-- gov index zmean -->
     <g transform="translate(179.352656 242.612187) scale(0.09 -0.09)">
      <defs>
       <path id="TimesNewRomanPSMT-67" d="M 966 1044 
Q 703 1172 562 1401 
Q 422 1631 422 1909 
Q 422 2334 742 2640 
Q 1063 2947 1563 2947 
Q 1972 2947 2272 2747 
L 2878 2747 
Q 3013 2747 3034 2739 
Q 3056 2731 3066 2713 
Q 3084 2684 3084 2613 
Q 3084 2531 3069 2500 
Q 3059 2484 3036 2475 
Q 3013 2466 2878 2466 
L 2506 2466 
Q 2681 2241 2681 1891 
Q 2681 1491 2375 1206 
Q 2069 922 1553 922 
Q 1341 922 1119 984 
Q 981 866 932 777 
Q 884 688 884 625 
Q 884 572 936 522 
Q 988 472 1138 450 
Q 1225 438 1575 428 
Q 2219 413 2409 384 
Q 2700 344 2873 169 
Q 3047 -6 3047 -263 
Q 3047 -616 2716 -925 
Q 2228 -1381 1444 -1381 
Q 841 -1381 425 -1109 
Q 191 -953 191 -784 
Q 191 -709 225 -634 
Q 278 -519 444 -313 
Q 466 -284 763 25 
Q 600 122 533 198 
Q 466 275 466 372 
Q 466 481 555 628 
Q 644 775 966 1044 
z
M 1509 2797 
Q 1278 2797 1122 2612 
Q 966 2428 966 2047 
Q 966 1553 1178 1281 
Q 1341 1075 1591 1075 
Q 1828 1075 1981 1253 
Q 2134 1431 2134 1813 
Q 2134 2309 1919 2591 
Q 1759 2797 1509 2797 
z
M 934 0 
Q 788 -159 713 -296 
Q 638 -434 638 -550 
Q 638 -700 819 -813 
Q 1131 -1006 1722 -1006 
Q 2284 -1006 2551 -807 
Q 2819 -609 2819 -384 
Q 2819 -222 2659 -153 
Q 2497 -84 2016 -72 
Q 1313 -53 934 0 
z
" transform="scale(0.015625)"/>
       <path id="TimesNewRomanPSMT-6f" d="M 1600 2947 
Q 2250 2947 2644 2453 
Q 2978 2031 2978 1484 
Q 2978 1100 2793 706 
Q 2609 313 2286 112 
Q 1963 -88 1566 -88 
Q 919 -88 538 428 
Q 216 863 216 1403 
Q 216 1797 411 2186 
Q 606 2575 925 2761 
Q 1244 2947 1600 2947 
z
M 1503 2744 
Q 1338 2744 1170 2645 
Q 1003 2547 900 2300 
Q 797 2053 797 1666 
Q 797 1041 1045 587 
Q 1294 134 1700 134 
Q 2003 134 2200 384 
Q 2397 634 2397 1244 
Q 2397 2006 2069 2444 
Q 1847 2744 1503 2744 
z
" transform="scale(0.015625)"/>
       <path id="TimesNewRomanPSMT-76" d="M 53 2863 
L 1400 2863 
L 1400 2747 
L 1313 2747 
Q 1191 2747 1127 2687 
Q 1063 2628 1063 2528 
Q 1063 2419 1128 2269 
L 1794 688 
L 2463 2328 
Q 2534 2503 2534 2594 
Q 2534 2638 2509 2666 
Q 2475 2713 2422 2730 
Q 2369 2747 2206 2747 
L 2206 2863 
L 3141 2863 
L 3141 2747 
Q 2978 2734 2916 2681 
Q 2806 2588 2719 2369 
L 1703 -88 
L 1575 -88 
L 553 2328 
Q 484 2497 421 2570 
Q 359 2644 263 2694 
Q 209 2722 53 2747 
L 53 2863 
z
" transform="scale(0.015625)"/>
       <path id="TimesNewRomanPSMT-20" transform="scale(0.015625)"/>
       <path id="TimesNewRomanPSMT-69" d="M 928 4444 
Q 1059 4444 1151 4351 
Q 1244 4259 1244 4128 
Q 1244 3997 1151 3903 
Q 1059 3809 928 3809 
Q 797 3809 703 3903 
Q 609 3997 609 4128 
Q 609 4259 701 4351 
Q 794 4444 928 4444 
z
M 1188 2947 
L 1188 647 
Q 1188 378 1227 289 
Q 1266 200 1342 156 
Q 1419 113 1622 113 
L 1622 0 
L 231 0 
L 231 113 
Q 441 113 512 153 
Q 584 194 626 287 
Q 669 381 669 647 
L 669 1750 
Q 669 2216 641 2353 
Q 619 2453 572 2492 
Q 525 2531 444 2531 
Q 356 2531 231 2484 
L 188 2597 
L 1050 2947 
L 1188 2947 
z
" transform="scale(0.015625)"/>
       <path id="TimesNewRomanPSMT-6e" d="M 1034 2341 
Q 1538 2947 1994 2947 
Q 2228 2947 2397 2830 
Q 2566 2713 2666 2444 
Q 2734 2256 2734 1869 
L 2734 647 
Q 2734 375 2778 278 
Q 2813 200 2889 156 
Q 2966 113 3172 113 
L 3172 0 
L 1756 0 
L 1756 113 
L 1816 113 
Q 2016 113 2095 173 
Q 2175 234 2206 353 
Q 2219 400 2219 647 
L 2219 1819 
Q 2219 2209 2117 2386 
Q 2016 2563 1775 2563 
Q 1403 2563 1034 2156 
L 1034 647 
Q 1034 356 1069 288 
Q 1113 197 1189 155 
Q 1266 113 1500 113 
L 1500 0 
L 84 0 
L 84 113 
L 147 113 
Q 366 113 442 223 
Q 519 334 519 647 
L 519 1709 
Q 519 2225 495 2337 
Q 472 2450 423 2490 
Q 375 2531 294 2531 
Q 206 2531 84 2484 
L 38 2597 
L 900 2947 
L 1034 2947 
L 1034 2341 
z
" transform="scale(0.015625)"/>
       <path id="TimesNewRomanPSMT-64" d="M 2222 322 
Q 2013 103 1813 7 
Q 1613 -88 1381 -88 
Q 913 -88 563 304 
Q 213 697 213 1313 
Q 213 1928 600 2439 
Q 988 2950 1597 2950 
Q 1975 2950 2222 2709 
L 2222 3238 
Q 2222 3728 2198 3840 
Q 2175 3953 2125 3993 
Q 2075 4034 2000 4034 
Q 1919 4034 1784 3984 
L 1744 4094 
L 2597 4444 
L 2738 4444 
L 2738 1134 
Q 2738 631 2761 520 
Q 2784 409 2836 365 
Q 2888 322 2956 322 
Q 3041 322 3181 375 
L 3216 266 
L 2366 -88 
L 2222 -88 
L 2222 322 
z
M 2222 541 
L 2222 2016 
Q 2203 2228 2109 2403 
Q 2016 2578 1861 2667 
Q 1706 2756 1559 2756 
Q 1284 2756 1069 2509 
Q 784 2184 784 1559 
Q 784 928 1059 592 
Q 1334 256 1672 256 
Q 1956 256 2222 541 
z
" transform="scale(0.015625)"/>
       <path id="TimesNewRomanPSMT-65" d="M 681 1784 
Q 678 1147 991 784 
Q 1303 422 1725 422 
Q 2006 422 2214 576 
Q 2422 731 2563 1106 
L 2659 1044 
Q 2594 616 2278 264 
Q 1963 -88 1488 -88 
Q 972 -88 605 314 
Q 238 716 238 1394 
Q 238 2128 614 2539 
Q 991 2950 1559 2950 
Q 2041 2950 2350 2633 
Q 2659 2316 2659 1784 
L 681 1784 
z
M 681 1966 
L 2006 1966 
Q 1991 2241 1941 2353 
Q 1863 2528 1708 2628 
Q 1553 2728 1384 2728 
Q 1125 2728 920 2526 
Q 716 2325 681 1966 
z
" transform="scale(0.015625)"/>
       <path id="TimesNewRomanPSMT-78" d="M 84 2863 
L 1431 2863 
L 1431 2747 
Q 1303 2747 1251 2703 
Q 1200 2659 1200 2588 
Q 1200 2513 1309 2356 
Q 1344 2306 1413 2200 
L 1616 1875 
L 1850 2200 
Q 2075 2509 2075 2591 
Q 2075 2656 2022 2701 
Q 1969 2747 1850 2747 
L 1850 2863 
L 2819 2863 
L 2819 2747 
Q 2666 2738 2553 2663 
Q 2400 2556 2134 2200 
L 1744 1678 
L 2456 653 
Q 2719 275 2831 198 
Q 2944 122 3122 113 
L 3122 0 
L 1772 0 
L 1772 113 
Q 1913 113 1991 175 
Q 2050 219 2050 291 
Q 2050 363 1850 653 
L 1431 1266 
L 972 653 
Q 759 369 759 316 
Q 759 241 829 180 
Q 900 119 1041 113 
L 1041 0 
L 106 0 
L 106 113 
Q 219 128 303 191 
Q 422 281 703 653 
L 1303 1450 
L 759 2238 
Q 528 2575 401 2661 
Q 275 2747 84 2747 
L 84 2863 
z
" transform="scale(0.015625)"/>
       <path id="TimesNewRomanPSMT-7a" d="M 2688 878 
L 2653 0 
L 128 0 
L 128 113 
L 2028 2644 
L 1091 2644 
Q 788 2644 694 2605 
Q 600 2566 541 2456 
Q 456 2300 444 2069 
L 319 2069 
L 338 2863 
L 2738 2863 
L 2738 2747 
L 819 209 
L 1863 209 
Q 2191 209 2308 264 
Q 2425 319 2497 456 
Q 2547 556 2581 878 
L 2688 878 
z
" transform="scale(0.015625)"/>
       <path id="TimesNewRomanPSMT-6d" d="M 1050 2338 
Q 1363 2650 1419 2697 
Q 1559 2816 1721 2881 
Q 1884 2947 2044 2947 
Q 2313 2947 2506 2790 
Q 2700 2634 2766 2338 
Q 3088 2713 3309 2830 
Q 3531 2947 3766 2947 
Q 3994 2947 4170 2830 
Q 4347 2713 4450 2447 
Q 4519 2266 4519 1878 
L 4519 647 
Q 4519 378 4559 278 
Q 4591 209 4675 161 
Q 4759 113 4950 113 
L 4950 0 
L 3538 0 
L 3538 113 
L 3597 113 
Q 3781 113 3884 184 
Q 3956 234 3988 344 
Q 4000 397 4000 647 
L 4000 1878 
Q 4000 2228 3916 2372 
Q 3794 2572 3525 2572 
Q 3359 2572 3192 2489 
Q 3025 2406 2788 2181 
L 2781 2147 
L 2788 2013 
L 2788 647 
Q 2788 353 2820 281 
Q 2853 209 2943 161 
Q 3034 113 3253 113 
L 3253 0 
L 1806 0 
L 1806 113 
Q 2044 113 2133 169 
Q 2222 225 2256 338 
Q 2272 391 2272 647 
L 2272 1878 
Q 2272 2228 2169 2381 
Q 2031 2581 1784 2581 
Q 1616 2581 1450 2491 
Q 1191 2353 1050 2181 
L 1050 647 
Q 1050 366 1089 281 
Q 1128 197 1204 155 
Q 1281 113 1516 113 
L 1516 0 
L 100 0 
L 100 113 
Q 297 113 375 155 
Q 453 197 493 289 
Q 534 381 534 647 
L 534 1741 
Q 534 2213 506 2350 
Q 484 2453 437 2492 
Q 391 2531 309 2531 
Q 222 2531 100 2484 
L 53 2597 
L 916 2947 
L 1050 2947 
L 1050 2338 
z
" transform="scale(0.015625)"/>
       <path id="TimesNewRomanPSMT-61" d="M 1822 413 
Q 1381 72 1269 19 
Q 1100 -59 909 -59 
Q 613 -59 420 144 
Q 228 347 228 678 
Q 228 888 322 1041 
Q 450 1253 767 1440 
Q 1084 1628 1822 1897 
L 1822 2009 
Q 1822 2438 1686 2597 
Q 1550 2756 1291 2756 
Q 1094 2756 978 2650 
Q 859 2544 859 2406 
L 866 2225 
Q 866 2081 792 2003 
Q 719 1925 600 1925 
Q 484 1925 411 2006 
Q 338 2088 338 2228 
Q 338 2497 613 2722 
Q 888 2947 1384 2947 
Q 1766 2947 2009 2819 
Q 2194 2722 2281 2516 
Q 2338 2381 2338 1966 
L 2338 994 
Q 2338 584 2353 492 
Q 2369 400 2405 369 
Q 2441 338 2488 338 
Q 2538 338 2575 359 
Q 2641 400 2828 588 
L 2828 413 
Q 2478 -56 2159 -56 
Q 2006 -56 1915 50 
Q 1825 156 1822 413 
z
M 1822 616 
L 1822 1706 
Q 1350 1519 1213 1441 
Q 966 1303 859 1153 
Q 753 1003 753 825 
Q 753 600 887 451 
Q 1022 303 1197 303 
Q 1434 303 1822 616 
z
" transform="scale(0.015625)"/>
      </defs>
      <use xlink:href="#TimesNewRomanPSMT-67"/>
      <use xlink:href="#TimesNewRomanPSMT-6f" x="50"/>
      <use xlink:href="#TimesNewRomanPSMT-76" x="100"/>
      <use xlink:href="#TimesNewRomanPSMT-20" x="150"/>
      <use xlink:href="#TimesNewRomanPSMT-69" x="175"/>
      <use xlink:href="#TimesNewRomanPSMT-6e" x="202.783203"/>
      <use xlink:href="#TimesNewRomanPSMT-64" x="252.783203"/>
      <use xlink:href="#TimesNewRomanPSMT-65" x="302.783203"/>
      <use xlink:href="#TimesNewRomanPSMT-78" x="347.167969"/>
      <use xlink:href="#TimesNewRomanPSMT-20" x="397.167969"/>
      <use xlink:href="#TimesNewRomanPSMT-7a" x="422.167969"/>
      <use xlink:href="#TimesNewRomanPSMT-6d" x="466.552734"/>
      <use xlink:href="#TimesNewRomanPSMT-65" x="544.335938"/>
      <use xlink:href="#TimesNewRomanPSMT-61" x="588.720703"/>
      <use xlink:href="#TimesNewRomanPSMT-6e" x="633.105469"/>
     </g>
    </g>
   </g>
   <g id="matplotlib.axis_2">
    <g id="ytick_1">
     <g id="line2d_11">
      <path d="M 38.891406 201.838274 
L 381.295156 201.838274 
" clip-path="url(#p599a69b065)" style="fill: none; stroke-dasharray: 0.8,1.32; stroke-dashoffset: 0; stroke: #b0b0b0; stroke-opacity: 0.12; stroke-width: 0.8"/>
     </g>
     <g id="line2d_12">
      <defs>
       <path id="m8d9fc6240c" d="M 0 0 
L -3.5 0 
" style="stroke: #000000; stroke-width: 0.8"/>
      </defs>
      <g>
       <use xlink:href="#m8d9fc6240c" x="38.891406" y="201.838274" style="stroke: #000000; stroke-width: 0.8"/>
      </g>
     </g>
     <g id="text_7">
      <!-- 1.5 -->
      <g transform="translate(19.391406 205.310149) scale(0.1 -0.1)">
       <defs>
        <path id="TimesNewRomanPSMT-2e" d="M 800 606 
Q 947 606 1047 504 
Q 1147 403 1147 259 
Q 1147 116 1045 14 
Q 944 -88 800 -88 
Q 656 -88 554 14 
Q 453 116 453 259 
Q 453 406 554 506 
Q 656 606 800 606 
z
" transform="scale(0.015625)"/>
        <path id="TimesNewRomanPSMT-35" d="M 2778 4238 
L 2534 3706 
L 1259 3706 
L 981 3138 
Q 1809 3016 2294 2522 
Q 2709 2097 2709 1522 
Q 2709 1188 2573 903 
Q 2438 619 2231 419 
Q 2025 219 1772 97 
Q 1413 -75 1034 -75 
Q 653 -75 479 54 
Q 306 184 306 341 
Q 306 428 378 495 
Q 450 563 559 563 
Q 641 563 702 538 
Q 763 513 909 409 
Q 1144 247 1384 247 
Q 1750 247 2026 523 
Q 2303 800 2303 1197 
Q 2303 1581 2056 1914 
Q 1809 2247 1375 2428 
Q 1034 2569 447 2591 
L 1259 4238 
L 2778 4238 
z
" transform="scale(0.015625)"/>
       </defs>
       <use xlink:href="#TimesNewRomanPSMT-31"/>
       <use xlink:href="#TimesNewRomanPSMT-2e" x="50"/>
       <use xlink:href="#TimesNewRomanPSMT-35" x="75"/>
      </g>
     </g>
    </g>
    <g id="ytick_2">
     <g id="line2d_13">
      <path d="M 38.891406 175.21486 
L 381.295156 175.21486 
" clip-path="url(#p599a69b065)" style="fill: none; stroke-dasharray: 0.8,1.32; stroke-dashoffset: 0; stroke: #b0b0b0; stroke-opacity: 0.12; stroke-width: 0.8"/>
     </g>
     <g id="line2d_14">
      <g>
       <use xlink:href="#m8d9fc6240c" x="38.891406" y="175.21486" style="stroke: #000000; stroke-width: 0.8"/>
      </g>
     </g>
     <g id="text_8">
      <!-- 2.0 -->
      <g transform="translate(19.391406 178.686735) scale(0.1 -0.1)">
       <use xlink:href="#TimesNewRomanPSMT-32"/>
       <use xlink:href="#TimesNewRomanPSMT-2e" x="50"/>
       <use xlink:href="#TimesNewRomanPSMT-30" x="75"/>
      </g>
     </g>
    </g>
    <g id="ytick_3">
     <g id="line2d_15">
      <path d="M 38.891406 148.591445 
L 381.295156 148.591445 
" clip-path="url(#p599a69b065)" style="fill: none; stroke-dasharray: 0.8,1.32; stroke-dashoffset: 0; stroke: #b0b0b0; stroke-opacity: 0.12; stroke-width: 0.8"/>
     </g>
     <g id="line2d_16">
      <g>
       <use xlink:href="#m8d9fc6240c" x="38.891406" y="148.591445" style="stroke: #000000; stroke-width: 0.8"/>
      </g>
     </g>
     <g id="text_9">
      <!-- 2.5 -->
      <g transform="translate(19.391406 152.06332) scale(0.1 -0.1)">
       <use xlink:href="#TimesNewRomanPSMT-32"/>
       <use xlink:href="#TimesNewRomanPSMT-2e" x="50"/>
       <use xlink:href="#TimesNewRomanPSMT-35" x="75"/>
      </g>
     </g>
    </g>
    <g id="ytick_4">
     <g id="line2d_17">
      <path d="M 38.891406 121.96803 
L 381.295156 121.96803 
" clip-path="url(#p599a69b065)" style="fill: none; stroke-dasharray: 0.8,1.32; stroke-dashoffset: 0; stroke: #b0b0b0; stroke-opacity: 0.12; stroke-width: 0.8"/>
     </g>
     <g id="line2d_18">
      <g>
       <use xlink:href="#m8d9fc6240c" x="38.891406" y="121.96803" style="stroke: #000000; stroke-width: 0.8"/>
      </g>
     </g>
     <g id="text_10">
      <!-- 3.0 -->
      <g transform="translate(19.391406 125.439905) scale(0.1 -0.1)">
       <defs>
        <path id="TimesNewRomanPSMT-33" d="M 325 3431 
Q 506 3859 782 4092 
Q 1059 4325 1472 4325 
Q 1981 4325 2253 3994 
Q 2459 3747 2459 3466 
Q 2459 3003 1878 2509 
Q 2269 2356 2469 2072 
Q 2669 1788 2669 1403 
Q 2669 853 2319 450 
Q 1863 -75 997 -75 
Q 569 -75 414 31 
Q 259 138 259 259 
Q 259 350 332 419 
Q 406 488 509 488 
Q 588 488 669 463 
Q 722 447 909 348 
Q 1097 250 1169 231 
Q 1284 197 1416 197 
Q 1734 197 1970 444 
Q 2206 691 2206 1028 
Q 2206 1275 2097 1509 
Q 2016 1684 1919 1775 
Q 1784 1900 1550 2001 
Q 1316 2103 1072 2103 
L 972 2103 
L 972 2197 
Q 1219 2228 1467 2375 
Q 1716 2522 1828 2728 
Q 1941 2934 1941 3181 
Q 1941 3503 1739 3701 
Q 1538 3900 1238 3900 
Q 753 3900 428 3381 
L 325 3431 
z
" transform="scale(0.015625)"/>
       </defs>
       <use xlink:href="#TimesNewRomanPSMT-33"/>
       <use xlink:href="#TimesNewRomanPSMT-2e" x="50"/>
       <use xlink:href="#TimesNewRomanPSMT-30" x="75"/>
      </g>
     </g>
    </g>
    <g id="ytick_5">
     <g id="line2d_19">
      <path d="M 38.891406 95.344615 
L 381.295156 95.344615 
" clip-path="url(#p599a69b065)" style="fill: none; stroke-dasharray: 0.8,1.32; stroke-dashoffset: 0; stroke: #b0b0b0; stroke-opacity: 0.12; stroke-width: 0.8"/>
     </g>
     <g id="line2d_20">
      <g>
       <use xlink:href="#m8d9fc6240c" x="38.891406" y="95.344615" style="stroke: #000000; stroke-width: 0.8"/>
      </g>
     </g>
     <g id="text_11">
      <!-- 3.5 -->
      <g transform="translate(19.391406 98.81649) scale(0.1 -0.1)">
       <use xlink:href="#TimesNewRomanPSMT-33"/>
       <use xlink:href="#TimesNewRomanPSMT-2e" x="50"/>
       <use xlink:href="#TimesNewRomanPSMT-35" x="75"/>
      </g>
     </g>
    </g>
    <g id="ytick_6">
     <g id="line2d_21">
      <path d="M 38.891406 68.721201 
L 381.295156 68.721201 
" clip-path="url(#p599a69b065)" style="fill: none; stroke-dasharray: 0.8,1.32; stroke-dashoffset: 0; stroke: #b0b0b0; stroke-opacity: 0.12; stroke-width: 0.8"/>
     </g>
     <g id="line2d_22">
      <g>
       <use xlink:href="#m8d9fc6240c" x="38.891406" y="68.721201" style="stroke: #000000; stroke-width: 0.8"/>
      </g>
     </g>
     <g id="text_12">
      <!-- 4.0 -->
      <g transform="translate(19.391406 72.193076) scale(0.1 -0.1)">
       <defs>
        <path id="TimesNewRomanPSMT-34" d="M 2978 1563 
L 2978 1119 
L 2409 1119 
L 2409 0 
L 1894 0 
L 1894 1119 
L 100 1119 
L 100 1519 
L 2066 4325 
L 2409 4325 
L 2409 1563 
L 2978 1563 
z
M 1894 1563 
L 1894 3666 
L 406 1563 
L 1894 1563 
z
" transform="scale(0.015625)"/>
       </defs>
       <use xlink:href="#TimesNewRomanPSMT-34"/>
       <use xlink:href="#TimesNewRomanPSMT-2e" x="50"/>
       <use xlink:href="#TimesNewRomanPSMT-30" x="75"/>
      </g>
     </g>
    </g>
    <g id="ytick_7">
     <g id="line2d_23">
      <path d="M 38.891406 42.097786 
L 381.295156 42.097786 
" clip-path="url(#p599a69b065)" style="fill: none; stroke-dasharray: 0.8,1.32; stroke-dashoffset: 0; stroke: #b0b0b0; stroke-opacity: 0.12; stroke-width: 0.8"/>
     </g>
     <g id="line2d_24">
      <g>
       <use xlink:href="#m8d9fc6240c" x="38.891406" y="42.097786" style="stroke: #000000; stroke-width: 0.8"/>
      </g>
     </g>
     <g id="text_13">
      <!-- 4.5 -->
      <g transform="translate(19.391406 45.569661) scale(0.1 -0.1)">
       <use xlink:href="#TimesNewRomanPSMT-34"/>
       <use xlink:href="#TimesNewRomanPSMT-2e" x="50"/>
       <use xlink:href="#TimesNewRomanPSMT-35" x="75"/>
      </g>
     </g>
    </g>
    <g id="ytick_8">
     <g id="line2d_25">
      <path d="M 38.891406 15.474371 
L 381.295156 15.474371 
" clip-path="url(#p599a69b065)" style="fill: none; stroke-dasharray: 0.8,1.32; stroke-dashoffset: 0; stroke: #b0b0b0; stroke-opacity: 0.12; stroke-width: 0.8"/>
     </g>
     <g id="line2d_26">
      <g>
       <use xlink:href="#m8d9fc6240c" x="38.891406" y="15.474371" style="stroke: #000000; stroke-width: 0.8"/>
      </g>
     </g>
     <g id="text_14">
      <!-- 5.0 -->
      <g transform="translate(19.391406 18.946246) scale(0.1 -0.1)">
       <use xlink:href="#TimesNewRomanPSMT-35"/>
       <use xlink:href="#TimesNewRomanPSMT-2e" x="50"/>
       <use xlink:href="#TimesNewRomanPSMT-30" x="75"/>
      </g>
     </g>
    </g>
    <g id="text_15">
     <!-- gdp_growth_pct -->
     <g transform="translate(13.449375 141.236094) rotate(-90) scale(0.09 -0.09)">
      <defs>
       <path id="TimesNewRomanPSMT-70" d="M -6 2578 
L 875 2934 
L 994 2934 
L 994 2266 
Q 1216 2644 1439 2795 
Q 1663 2947 1909 2947 
Q 2341 2947 2628 2609 
Q 2981 2197 2981 1534 
Q 2981 794 2556 309 
Q 2206 -88 1675 -88 
Q 1444 -88 1275 -22 
Q 1150 25 994 166 
L 994 -706 
Q 994 -1000 1030 -1079 
Q 1066 -1159 1155 -1206 
Q 1244 -1253 1478 -1253 
L 1478 -1369 
L -22 -1369 
L -22 -1253 
L 56 -1253 
Q 228 -1256 350 -1188 
Q 409 -1153 442 -1076 
Q 475 -1000 475 -688 
L 475 2019 
Q 475 2297 450 2372 
Q 425 2447 370 2484 
Q 316 2522 222 2522 
Q 147 2522 31 2478 
L -6 2578 
z
M 994 2081 
L 994 1013 
Q 994 666 1022 556 
Q 1066 375 1236 237 
Q 1406 100 1666 100 
Q 1978 100 2172 344 
Q 2425 663 2425 1241 
Q 2425 1897 2138 2250 
Q 1938 2494 1663 2494 
Q 1513 2494 1366 2419 
Q 1253 2363 994 2081 
z
" transform="scale(0.015625)"/>
       <path id="TimesNewRomanPSMT-5f" d="M 3256 -1381 
L -53 -1381 
L -53 -1119 
L 3256 -1119 
L 3256 -1381 
z
" transform="scale(0.015625)"/>
       <path id="TimesNewRomanPSMT-72" d="M 1038 2947 
L 1038 2303 
Q 1397 2947 1775 2947 
Q 1947 2947 2059 2842 
Q 2172 2738 2172 2600 
Q 2172 2478 2090 2393 
Q 2009 2309 1897 2309 
Q 1788 2309 1652 2417 
Q 1516 2525 1450 2525 
Q 1394 2525 1328 2463 
Q 1188 2334 1038 2041 
L 1038 669 
Q 1038 431 1097 309 
Q 1138 225 1241 169 
Q 1344 113 1538 113 
L 1538 0 
L 72 0 
L 72 113 
Q 291 113 397 181 
Q 475 231 506 341 
Q 522 394 522 644 
L 522 1753 
Q 522 2253 501 2348 
Q 481 2444 426 2487 
Q 372 2531 291 2531 
Q 194 2531 72 2484 
L 41 2597 
L 906 2947 
L 1038 2947 
z
" transform="scale(0.015625)"/>
       <path id="TimesNewRomanPSMT-77" d="M 41 2863 
L 1241 2863 
L 1241 2747 
Q 1075 2734 1023 2687 
Q 972 2641 972 2553 
Q 972 2456 1025 2319 
L 1638 672 
L 2253 2013 
L 2091 2434 
Q 2016 2622 1894 2694 
Q 1825 2738 1638 2747 
L 1638 2863 
L 3000 2863 
L 3000 2747 
Q 2775 2738 2681 2666 
Q 2619 2616 2619 2506 
Q 2619 2444 2644 2378 
L 3294 734 
L 3897 2319 
Q 3959 2488 3959 2588 
Q 3959 2647 3898 2694 
Q 3838 2741 3659 2747 
L 3659 2863 
L 4563 2863 
L 4563 2747 
Q 4291 2706 4163 2378 
L 3206 -88 
L 3078 -88 
L 2363 1741 
L 1528 -88 
L 1413 -88 
L 494 2319 
Q 403 2547 315 2626 
Q 228 2706 41 2747 
L 41 2863 
z
" transform="scale(0.015625)"/>
       <path id="TimesNewRomanPSMT-74" d="M 1031 3803 
L 1031 2863 
L 1700 2863 
L 1700 2644 
L 1031 2644 
L 1031 788 
Q 1031 509 1111 412 
Q 1191 316 1316 316 
Q 1419 316 1516 380 
Q 1613 444 1666 569 
L 1788 569 
Q 1678 263 1478 108 
Q 1278 -47 1066 -47 
Q 922 -47 784 33 
Q 647 113 581 261 
Q 516 409 516 719 
L 516 2644 
L 63 2644 
L 63 2747 
Q 234 2816 414 2980 
Q 594 3144 734 3369 
Q 806 3488 934 3803 
L 1031 3803 
z
" transform="scale(0.015625)"/>
       <path id="TimesNewRomanPSMT-68" d="M 1041 4444 
L 1041 2350 
Q 1388 2731 1591 2839 
Q 1794 2947 1997 2947 
Q 2241 2947 2416 2812 
Q 2591 2678 2675 2391 
Q 2734 2191 2734 1659 
L 2734 647 
Q 2734 375 2778 275 
Q 2809 200 2884 156 
Q 2959 113 3159 113 
L 3159 0 
L 1753 0 
L 1753 113 
L 1819 113 
Q 2019 113 2097 173 
Q 2175 234 2206 353 
Q 2216 403 2216 647 
L 2216 1659 
Q 2216 2128 2167 2275 
Q 2119 2422 2012 2495 
Q 1906 2569 1756 2569 
Q 1603 2569 1437 2487 
Q 1272 2406 1041 2159 
L 1041 647 
Q 1041 353 1073 281 
Q 1106 209 1195 161 
Q 1284 113 1503 113 
L 1503 0 
L 84 0 
L 84 113 
Q 275 113 384 172 
Q 447 203 484 290 
Q 522 378 522 647 
L 522 3238 
Q 522 3728 498 3840 
Q 475 3953 426 3993 
Q 378 4034 297 4034 
Q 231 4034 84 3984 
L 41 4094 
L 897 4444 
L 1041 4444 
z
" transform="scale(0.015625)"/>
       <path id="TimesNewRomanPSMT-63" d="M 2631 1088 
Q 2516 522 2178 217 
Q 1841 -88 1431 -88 
Q 944 -88 581 321 
Q 219 731 219 1428 
Q 219 2103 620 2525 
Q 1022 2947 1584 2947 
Q 2006 2947 2278 2723 
Q 2550 2500 2550 2259 
Q 2550 2141 2473 2067 
Q 2397 1994 2259 1994 
Q 2075 1994 1981 2113 
Q 1928 2178 1911 2362 
Q 1894 2547 1784 2644 
Q 1675 2738 1481 2738 
Q 1169 2738 978 2506 
Q 725 2200 725 1697 
Q 725 1184 976 792 
Q 1228 400 1656 400 
Q 1963 400 2206 609 
Q 2378 753 2541 1131 
L 2631 1088 
z
" transform="scale(0.015625)"/>
      </defs>
      <use xlink:href="#TimesNewRomanPSMT-67"/>
      <use xlink:href="#TimesNewRomanPSMT-64" x="50"/>
      <use xlink:href="#TimesNewRomanPSMT-70" x="100"/>
      <use xlink:href="#TimesNewRomanPSMT-5f" x="150"/>
      <use xlink:href="#TimesNewRomanPSMT-67" x="200"/>
      <use xlink:href="#TimesNewRomanPSMT-72" x="250"/>
      <use xlink:href="#TimesNewRomanPSMT-6f" x="283.300781"/>
      <use xlink:href="#TimesNewRomanPSMT-77" x="333.300781"/>
      <use xlink:href="#TimesNewRomanPSMT-74" x="405.517578"/>
      <use xlink:href="#TimesNewRomanPSMT-68" x="433.300781"/>
      <use xlink:href="#TimesNewRomanPSMT-5f" x="483.300781"/>
      <use xlink:href="#TimesNewRomanPSMT-70" x="533.300781"/>
      <use xlink:href="#TimesNewRomanPSMT-63" x="583.300781"/>
      <use xlink:href="#TimesNewRomanPSMT-74" x="627.685547"/>
     </g>
    </g>
   </g>
   <g id="LineCollection_1">
    <path d="M 109.088652 166.4459 
L 109.088652 93.731059 
" clip-path="url(#p599a69b065)" style="fill: none; stroke: #1f77b4; stroke-opacity: 0.95; stroke-width: 1.5"/>
    <path d="M 138.496158 83.242621 
L 138.496158 16.703636 
" clip-path="url(#p599a69b065)" style="fill: none; stroke: #1f77b4; stroke-opacity: 0.95; stroke-width: 1.5"/>
    <path d="M 153.297879 64.187225 
L 153.297879 29.122346 
" clip-path="url(#p599a69b065)" style="fill: none; stroke: #1f77b4; stroke-opacity: 0.95; stroke-width: 1.5"/>
    <path d="M 164.849689 59.917 
L 164.849689 25.382424 
" clip-path="url(#p599a69b065)" style="fill: none; stroke: #1f77b4; stroke-opacity: 0.95; stroke-width: 1.5"/>
    <path d="M 173.633101 85.310586 
L 173.633101 54.785255 
" clip-path="url(#p599a69b065)" style="fill: none; stroke: #1f77b4; stroke-opacity: 0.95; stroke-width: 1.5"/>
    <path d="M 182.248618 52.49621 
L 182.248618 25.476882 
" clip-path="url(#p599a69b065)" style="fill: none; stroke: #1f77b4; stroke-opacity: 0.95; stroke-width: 1.5"/>
    <path d="M 190.137464 63.310956 
L 190.137464 39.755615 
" clip-path="url(#p599a69b065)" style="fill: none; stroke: #1f77b4; stroke-opacity: 0.95; stroke-width: 1.5"/>
    <path d="M 198.698932 57.582322 
L 198.698932 29.878265 
" clip-path="url(#p599a69b065)" style="fill: none; stroke: #1f77b4; stroke-opacity: 0.95; stroke-width: 1.5"/>
    <path d="M 205.233078 68.267963 
L 205.233078 32.935144 
" clip-path="url(#p599a69b065)" style="fill: none; stroke: #1f77b4; stroke-opacity: 0.95; stroke-width: 1.5"/>
    <path d="M 212.968841 126.324049 
L 212.968841 76.465562 
" clip-path="url(#p599a69b065)" style="fill: none; stroke: #1f77b4; stroke-opacity: 0.95; stroke-width: 1.5"/>
    <path d="M 222.308261 88.484313 
L 222.308261 58.290221 
" clip-path="url(#p599a69b065)" style="fill: none; stroke: #1f77b4; stroke-opacity: 0.95; stroke-width: 1.5"/>
    <path d="M 234.148397 128.087058 
L 234.148397 81.912296 
" clip-path="url(#p599a69b065)" style="fill: none; stroke: #1f77b4; stroke-opacity: 0.95; stroke-width: 1.5"/>
    <path d="M 247.375504 108.842537 
L 247.375504 74.511732 
" clip-path="url(#p599a69b065)" style="fill: none; stroke: #1f77b4; stroke-opacity: 0.95; stroke-width: 1.5"/>
    <path d="M 261.025886 154.656672 
L 261.025886 116.524121 
" clip-path="url(#p599a69b065)" style="fill: none; stroke: #1f77b4; stroke-opacity: 0.95; stroke-width: 1.5"/>
    <path d="M 271.926738 144.740257 
L 271.926738 106.999637 
" clip-path="url(#p599a69b065)" style="fill: none; stroke: #1f77b4; stroke-opacity: 0.95; stroke-width: 1.5"/>
    <path d="M 282.639591 168.266591 
L 282.639591 117.058948 
" clip-path="url(#p599a69b065)" style="fill: none; stroke: #1f77b4; stroke-opacity: 0.95; stroke-width: 1.5"/>
    <path d="M 294.896798 206.776364 
L 294.896798 165.801381 
" clip-path="url(#p599a69b065)" style="fill: none; stroke: #1f77b4; stroke-opacity: 0.95; stroke-width: 1.5"/>
    <path d="M 309.606426 195.453023 
L 309.606426 161.429461 
" clip-path="url(#p599a69b065)" style="fill: none; stroke: #1f77b4; stroke-opacity: 0.95; stroke-width: 1.5"/>
    <path d="M 329.069943 159.57431 
L 329.069943 129.617021 
" clip-path="url(#p599a69b065)" style="fill: none; stroke: #1f77b4; stroke-opacity: 0.95; stroke-width: 1.5"/>
    <path d="M 348.879072 175.795272 
L 348.879072 159.336326 
" clip-path="url(#p599a69b065)" style="fill: none; stroke: #1f77b4; stroke-opacity: 0.95; stroke-width: 1.5"/>
   </g>
   <g id="line2d_27">
    <defs>
     <path id="me8a0080952" d="M 3 0 
L -3 -0 
" style="stroke: #1f77b4; stroke-opacity: 0.95"/>
    </defs>
    <g clip-path="url(#p599a69b065)">
     <use xlink:href="#me8a0080952" x="109.088652" y="166.4459" style="fill: #1f77b4; fill-opacity: 0.95; stroke: #1f77b4; stroke-opacity: 0.95"/>
     <use xlink:href="#me8a0080952" x="138.496158" y="83.242621" style="fill: #1f77b4; fill-opacity: 0.95; stroke: #1f77b4; stroke-opacity: 0.95"/>
     <use xlink:href="#me8a0080952" x="153.297879" y="64.187225" style="fill: #1f77b4; fill-opacity: 0.95; stroke: #1f77b4; stroke-opacity: 0.95"/>
     <use xlink:href="#me8a0080952" x="164.849689" y="59.917" style="fill: #1f77b4; fill-opacity: 0.95; stroke: #1f77b4; stroke-opacity: 0.95"/>
     <use xlink:href="#me8a0080952" x="173.633101" y="85.310586" style="fill: #1f77b4; fill-opacity: 0.95; stroke: #1f77b4; stroke-opacity: 0.95"/>
     <use xlink:href="#me8a0080952" x="182.248618" y="52.49621" style="fill: #1f77b4; fill-opacity: 0.95; stroke: #1f77b4; stroke-opacity: 0.95"/>
     <use xlink:href="#me8a0080952" x="190.137464" y="63.310956" style="fill: #1f77b4; fill-opacity: 0.95; stroke: #1f77b4; stroke-opacity: 0.95"/>
     <use xlink:href="#me8a0080952" x="198.698932" y="57.582322" style="fill: #1f77b4; fill-opacity: 0.95; stroke: #1f77b4; stroke-opacity: 0.95"/>
     <use xlink:href="#me8a0080952" x="205.233078" y="68.267963" style="fill: #1f77b4; fill-opacity: 0.95; stroke: #1f77b4; stroke-opacity: 0.95"/>
     <use xlink:href="#me8a0080952" x="212.968841" y="126.324049" style="fill: #1f77b4; fill-opacity: 0.95; stroke: #1f77b4; stroke-opacity: 0.95"/>
     <use xlink:href="#me8a0080952" x="222.308261" y="88.484313" style="fill: #1f77b4; fill-opacity: 0.95; stroke: #1f77b4; stroke-opacity: 0.95"/>
     <use xlink:href="#me8a0080952" x="234.148397" y="128.087058" style="fill: #1f77b4; fill-opacity: 0.95; stroke: #1f77b4; stroke-opacity: 0.95"/>
     <use xlink:href="#me8a0080952" x="247.375504" y="108.842537" style="fill: #1f77b4; fill-opacity: 0.95; stroke: #1f77b4; stroke-opacity: 0.95"/>
     <use xlink:href="#me8a0080952" x="261.025886" y="154.656672" style="fill: #1f77b4; fill-opacity: 0.95; stroke: #1f77b4; stroke-opacity: 0.95"/>
     <use xlink:href="#me8a0080952" x="271.926738" y="144.740257" style="fill: #1f77b4; fill-opacity: 0.95; stroke: #1f77b4; stroke-opacity: 0.95"/>
     <use xlink:href="#me8a0080952" x="282.639591" y="168.266591" style="fill: #1f77b4; fill-opacity: 0.95; stroke: #1f77b4; stroke-opacity: 0.95"/>
     <use xlink:href="#me8a0080952" x="294.896798" y="206.776364" style="fill: #1f77b4; fill-opacity: 0.95; stroke: #1f77b4; stroke-opacity: 0.95"/>
     <use xlink:href="#me8a0080952" x="309.606426" y="195.453023" style="fill: #1f77b4; fill-opacity: 0.95; stroke: #1f77b4; stroke-opacity: 0.95"/>
     <use xlink:href="#me8a0080952" x="329.069943" y="159.57431" style="fill: #1f77b4; fill-opacity: 0.95; stroke: #1f77b4; stroke-opacity: 0.95"/>
     <use xlink:href="#me8a0080952" x="348.879072" y="175.795272" style="fill: #1f77b4; fill-opacity: 0.95; stroke: #1f77b4; stroke-opacity: 0.95"/>
    </g>
   </g>
   <g id="line2d_28">
    <g clip-path="url(#p599a69b065)">
     <use xlink:href="#me8a0080952" x="109.088652" y="93.731059" style="fill: #1f77b4; fill-opacity: 0.95; stroke: #1f77b4; stroke-opacity: 0.95"/>
     <use xlink:href="#me8a0080952" x="138.496158" y="16.703636" style="fill: #1f77b4; fill-opacity: 0.95; stroke: #1f77b4; stroke-opacity: 0.95"/>
     <use xlink:href="#me8a0080952" x="153.297879" y="29.122346" style="fill: #1f77b4; fill-opacity: 0.95; stroke: #1f77b4; stroke-opacity: 0.95"/>
     <use xlink:href="#me8a0080952" x="164.849689" y="25.382424" style="fill: #1f77b4; fill-opacity: 0.95; stroke: #1f77b4; stroke-opacity: 0.95"/>
     <use xlink:href="#me8a0080952" x="173.633101" y="54.785255" style="fill: #1f77b4; fill-opacity: 0.95; stroke: #1f77b4; stroke-opacity: 0.95"/>
     <use xlink:href="#me8a0080952" x="182.248618" y="25.476882" style="fill: #1f77b4; fill-opacity: 0.95; stroke: #1f77b4; stroke-opacity: 0.95"/>
     <use xlink:href="#me8a0080952" x="190.137464" y="39.755615" style="fill: #1f77b4; fill-opacity: 0.95; stroke: #1f77b4; stroke-opacity: 0.95"/>
     <use xlink:href="#me8a0080952" x="198.698932" y="29.878265" style="fill: #1f77b4; fill-opacity: 0.95; stroke: #1f77b4; stroke-opacity: 0.95"/>
     <use xlink:href="#me8a0080952" x="205.233078" y="32.935144" style="fill: #1f77b4; fill-opacity: 0.95; stroke: #1f77b4; stroke-opacity: 0.95"/>
     <use xlink:href="#me8a0080952" x="212.968841" y="76.465562" style="fill: #1f77b4; fill-opacity: 0.95; stroke: #1f77b4; stroke-opacity: 0.95"/>
     <use xlink:href="#me8a0080952" x="222.308261" y="58.290221" style="fill: #1f77b4; fill-opacity: 0.95; stroke: #1f77b4; stroke-opacity: 0.95"/>
     <use xlink:href="#me8a0080952" x="234.148397" y="81.912296" style="fill: #1f77b4; fill-opacity: 0.95; stroke: #1f77b4; stroke-opacity: 0.95"/>
     <use xlink:href="#me8a0080952" x="247.375504" y="74.511732" style="fill: #1f77b4; fill-opacity: 0.95; stroke: #1f77b4; stroke-opacity: 0.95"/>
     <use xlink:href="#me8a0080952" x="261.025886" y="116.524121" style="fill: #1f77b4; fill-opacity: 0.95; stroke: #1f77b4; stroke-opacity: 0.95"/>
     <use xlink:href="#me8a0080952" x="271.926738" y="106.999637" style="fill: #1f77b4; fill-opacity: 0.95; stroke: #1f77b4; stroke-opacity: 0.95"/>
     <use xlink:href="#me8a0080952" x="282.639591" y="117.058948" style="fill: #1f77b4; fill-opacity: 0.95; stroke: #1f77b4; stroke-opacity: 0.95"/>
     <use xlink:href="#me8a0080952" x="294.896798" y="165.801381" style="fill: #1f77b4; fill-opacity: 0.95; stroke: #1f77b4; stroke-opacity: 0.95"/>
     <use xlink:href="#me8a0080952" x="309.606426" y="161.429461" style="fill: #1f77b4; fill-opacity: 0.95; stroke: #1f77b4; stroke-opacity: 0.95"/>
     <use xlink:href="#me8a0080952" x="329.069943" y="129.617021" style="fill: #1f77b4; fill-opacity: 0.95; stroke: #1f77b4; stroke-opacity: 0.95"/>
     <use xlink:href="#me8a0080952" x="348.879072" y="159.336326" style="fill: #1f77b4; fill-opacity: 0.95; stroke: #1f77b4; stroke-opacity: 0.95"/>
    </g>
   </g>
   <g id="line2d_29">
    <path d="M 54.455213 70.040608 
L 58.093455 70.290291 
L 64.228607 70.418646 
L 69.996575 70.208138 
L 75.984979 69.712349 
L 91.199606 68.230027 
L 97.68349 67.909777 
L 104.053437 67.850372 
L 111.780133 67.78489 
L 114.213448 67.553012 
L 116.383982 67.119795 
L 118.157534 66.532228 
L 119.941648 65.673155 
L 121.543022 64.64234 
L 123.247707 63.303775 
L 125.269161 61.427737 
L 131.458873 55.445941 
L 133.664523 53.803318 
L 142.098018 48.012167 
L 144.68151 45.741293 
L 148.37409 42.363852 
L 150.868559 40.372558 
L 152.272681 39.535185 
L 152.745892 39.265549 
L 153.671176 38.748694 
L 155.632436 37.865235 
L 157.884433 37.347022 
L 164.527524 36.199116 
L 169.494053 35.035488 
L 171.32821 34.643742 
L 173.61744 34.647872 
L 174.892867 34.969845 
L 180.105471 36.864455 
L 181.610821 37.080545 
L 184.415015 37.218124 
L 187.884334 37.123678 
L 189.168065 37.065164 
L 190.308154 37.118844 
L 190.829585 37.131877 
L 192.447125 37.625818 
L 193.534316 38.264424 
L 194.116536 38.617836 
L 194.643761 39.00704 
L 195.422044 39.604413 
L 196.047402 40.214459 
L 197.518322 41.856586 
L 202.925183 50.217833 
L 220.066251 78.260478 
L 221.042168 79.518674 
L 221.945667 80.737719 
L 222.997682 81.898609 
L 223.372082 82.311818 
L 226.399011 84.891027 
L 226.581828 85.027356 
L 226.829091 85.100359 
L 227.404187 85.359072 
L 227.863066 85.583677 
L 228.453434 85.794756 
L 229.348628 86.180729 
L 229.574755 86.294702 
L 229.860193 86.387673 
L 230.228765 86.497656 
L 231.466126 86.958933 
L 231.950762 87.15271 
L 233.890797 87.90253 
L 236.551473 89.044928 
L 239.04783 90.448716 
L 241.22973 91.92103 
L 256.199183 103.151362 
L 257.379305 104.160719 
L 258.035477 104.691003 
L 262.270367 108.884046 
L 263.232709 109.906561 
L 264.718864 111.531254 
L 266.339604 113.48335 
L 268.759777 116.556 
L 270.817206 119.277693 
L 274.369249 124.201193 
L 280.322352 132.686558 
L 284.581192 138.427939 
L 286.839354 141.247216 
L 292.642837 147.814058 
L 296.147562 150.621983 
L 298.068541 151.801469 
L 298.933945 152.273948 
L 299.288154 152.486202 
L 299.645706 152.672867 
L 300.21093 152.993297 
L 300.48181 153.107626 
L 302.950728 154.200093 
L 303.319408 154.370793 
L 304.841863 154.984267 
L 305.066656 155.037516 
L 305.758246 155.277606 
L 306.868603 155.482165 
L 309.21095 155.897162 
L 310.032903 155.9171 
L 310.284381 155.946147 
L 312.11164 156.129762 
L 312.764932 156.235563 
L 314.276176 156.428051 
L 317.550583 156.903451 
L 327.217186 158.332432 
L 332.66599 158.871007 
L 338.861537 159.249674 
L 348.627129 159.5801 
L 363.465113 160.118427 
L 365.731349 160.220575 
L 365.731349 160.220575 
" clip-path="url(#p599a69b065)" style="fill: none; stroke: #004488; stroke-width: 1.6; stroke-linecap: square"/>
   </g>
   <g id="line2d_30">
    <defs>
     <path id="meb7c28e831" d="M 0 3 
C 0.795609 3 1.55874 2.683901 2.12132 2.12132 
C 2.683901 1.55874 3 0.795609 3 0 
C 3 -0.795609 2.683901 -1.55874 2.12132 -2.12132 
C 1.55874 -2.683901 0.795609 -3 0 -3 
C -0.795609 -3 -1.55874 -2.683901 -2.12132 -2.12132 
C -2.683901 -1.55874 -3 -0.795609 -3 0 
C -3 0.795609 -2.683901 1.55874 -2.12132 2.12132 
C -1.55874 2.683901 -0.795609 3 0 3 
z
" style="stroke: #000000; stroke-opacity: 0.95"/>
    </defs>
    <g clip-path="url(#p599a69b065)">
     <use xlink:href="#meb7c28e831" x="109.088652" y="130.088479" style="fill: #1f77b4; fill-opacity: 0.95; stroke: #000000; stroke-opacity: 0.95"/>
     <use xlink:href="#meb7c28e831" x="138.496158" y="49.973128" style="fill: #1f77b4; fill-opacity: 0.95; stroke: #000000; stroke-opacity: 0.95"/>
     <use xlink:href="#meb7c28e831" x="153.297879" y="46.654786" style="fill: #1f77b4; fill-opacity: 0.95; stroke: #000000; stroke-opacity: 0.95"/>
     <use xlink:href="#meb7c28e831" x="164.849689" y="42.649712" style="fill: #1f77b4; fill-opacity: 0.95; stroke: #000000; stroke-opacity: 0.95"/>
     <use xlink:href="#meb7c28e831" x="173.633101" y="70.04792" style="fill: #1f77b4; fill-opacity: 0.95; stroke: #000000; stroke-opacity: 0.95"/>
     <use xlink:href="#meb7c28e831" x="182.248618" y="38.986546" style="fill: #1f77b4; fill-opacity: 0.95; stroke: #000000; stroke-opacity: 0.95"/>
     <use xlink:href="#meb7c28e831" x="190.137464" y="51.533285" style="fill: #1f77b4; fill-opacity: 0.95; stroke: #000000; stroke-opacity: 0.95"/>
     <use xlink:href="#meb7c28e831" x="198.698932" y="43.730294" style="fill: #1f77b4; fill-opacity: 0.95; stroke: #000000; stroke-opacity: 0.95"/>
     <use xlink:href="#meb7c28e831" x="205.233078" y="50.601553" style="fill: #1f77b4; fill-opacity: 0.95; stroke: #000000; stroke-opacity: 0.95"/>
     <use xlink:href="#meb7c28e831" x="212.968841" y="101.394806" style="fill: #1f77b4; fill-opacity: 0.95; stroke: #000000; stroke-opacity: 0.95"/>
     <use xlink:href="#meb7c28e831" x="222.308261" y="73.387267" style="fill: #1f77b4; fill-opacity: 0.95; stroke: #000000; stroke-opacity: 0.95"/>
     <use xlink:href="#meb7c28e831" x="234.148397" y="104.999677" style="fill: #1f77b4; fill-opacity: 0.95; stroke: #000000; stroke-opacity: 0.95"/>
     <use xlink:href="#meb7c28e831" x="247.375504" y="91.677134" style="fill: #1f77b4; fill-opacity: 0.95; stroke: #000000; stroke-opacity: 0.95"/>
     <use xlink:href="#meb7c28e831" x="261.025886" y="135.590396" style="fill: #1f77b4; fill-opacity: 0.95; stroke: #000000; stroke-opacity: 0.95"/>
     <use xlink:href="#meb7c28e831" x="271.926738" y="125.869947" style="fill: #1f77b4; fill-opacity: 0.95; stroke: #000000; stroke-opacity: 0.95"/>
     <use xlink:href="#meb7c28e831" x="282.639591" y="142.662769" style="fill: #1f77b4; fill-opacity: 0.95; stroke: #000000; stroke-opacity: 0.95"/>
     <use xlink:href="#meb7c28e831" x="294.896798" y="186.288872" style="fill: #1f77b4; fill-opacity: 0.95; stroke: #000000; stroke-opacity: 0.95"/>
     <use xlink:href="#meb7c28e831" x="309.606426" y="178.441242" style="fill: #1f77b4; fill-opacity: 0.95; stroke: #000000; stroke-opacity: 0.95"/>
     <use xlink:href="#meb7c28e831" x="329.069943" y="144.595665" style="fill: #1f77b4; fill-opacity: 0.95; stroke: #000000; stroke-opacity: 0.95"/>
     <use xlink:href="#meb7c28e831" x="348.879072" y="167.565799" style="fill: #1f77b4; fill-opacity: 0.95; stroke: #000000; stroke-opacity: 0.95"/>
    </g>
   </g>
   <g id="patch_3">
    <path d="M 38.891406 216.28 
L 38.891406 7.2 
" style="fill: none; stroke: #000000; stroke-width: 0.8; stroke-linejoin: miter; stroke-linecap: square"/>
   </g>
   <g id="patch_4">
    <path d="M 381.295156 216.28 
L 381.295156 7.2 
" style="fill: none; stroke: #000000; stroke-width: 0.8; stroke-linejoin: miter; stroke-linecap: square"/>
   </g>
   <g id="patch_5">
    <path d="M 38.891406 216.28 
L 381.295156 216.28 
" style="fill: none; stroke: #000000; stroke-width: 0.8; stroke-linejoin: miter; stroke-linecap: square"/>
   </g>
   <g id="patch_6">
    <path d="M 38.891406 7.2 
L 381.295156 7.2 
" style="fill: none; stroke: #000000; stroke-width: 0.8; stroke-linejoin: miter; stroke-linecap: square"/>
   </g>
  </g>
 </g>
 <defs>
  <clipPath id="p599a69b065">
   <rect x="38.891406" y="7.2" width="342.40375" height="209.08"/>
  </clipPath>
 </defs>
</svg>
