<?xml version="1.0" encoding="utf-8" standalone="no"?>
<!DOCTYPE svg PUBLIC "-//W3C//DTD SVG 1.1//EN"
  "http://www.w3.org/Graphics/SVG/1.1/DTD/svg11.dtd">
<svg xmlns:xlink="http://www.w3.org/1999/xlink" width="419.489062pt" height="280.04pt" viewBox="0 0 419.489062 280.04" xmlns="http://www.w3.org/2000/svg" version="1.1">
 <metadata>
  <rdf:RDF xmlns:dc="http://purl.org/dc/elements/1.1/" xmlns:cc="http://creativecommons.org/ns#" xmlns:rdf="http://www.w3.org/1999/02/22-rdf-syntax-ns#">
   <cc:Work>
    <dc:type rdf:resource="http://purl.org/dc/dcmitype/StillImage"/>
    <dc:date>2025-11-17T20:16:07.185777</dc:date>
    <dc:format>image/svg+xml</dc:format>
    <dc:creator>
     <cc:Agent>
      <dc:title>Matplotlib v3.9.2, https://matplotlib.org/</dc:title>
     </cc:Agent>
    </dc:creator>
   </cc:Work>
  </rdf:RDF>
 </metadata>
 <defs>
  <style type="text/css">*{stroke-linejoin: round; stroke-linecap: butt}</style>
 </defs>
 <g id="figure_1">
  <g id="patch_1">
   <path d="M 0 280.04 
L 419.489062 280.04 
L 419.489062 0 
L 0 0 
z
" style="fill: #ffffff"/>
  </g>
  <g id="axes_1">
   <g id="patch_2">
    <path d="M 49.589063 243.549375 
L 412.289062 243.549375 
L 412.289062 21.789375 
L 49.589063 21.789375 
z
" style="fill: #ffffff"/>
   </g>
   <g id="matplotlib.axis_1">
    <g id="xtick_1">
     <g id="line2d_1">
      <path d="M 69.98442 243.549375 
L 69.98442 21.789375 
" clip-path="url(#pa73af14f84)" style="fill: none; stroke: #cccccc; stroke-width: 0.8; stroke-linecap: round"/>
     </g>
     <g id="text_1">
      <!-- −60 -->
      <g style="fill: #262626" transform="translate(61.50317 257.707188) scale(0.1 -0.1)">
       <defs>
        <path id="ArialMT-2212" d="M 3381 1997 
L 356 1997 
L 356 2522 
L 3381 2522 
L 3381 1997 
z
" transform="scale(0.015625)"/>
        <path id="ArialMT-36" d="M 3184 3459 
L 2625 3416 
Q 2550 3747 2413 3897 
Q 2184 4138 1850 4138 
Q 1581 4138 1378 3988 
Q 1113 3794 959 3422 
Q 806 3050 800 2363 
Q 1003 2672 1297 2822 
Q 1591 2972 1913 2972 
Q 2475 2972 2870 2558 
Q 3266 2144 3266 1488 
Q 3266 1056 3080 686 
Q 2894 316 2569 119 
Q 2244 -78 1831 -78 
Q 1128 -78 684 439 
Q 241 956 241 2144 
Q 241 3472 731 4075 
Q 1159 4600 1884 4600 
Q 2425 4600 2770 4297 
Q 3116 3994 3184 3459 
z
M 888 1484 
Q 888 1194 1011 928 
Q 1134 663 1356 523 
Q 1578 384 1822 384 
Q 2178 384 2434 671 
Q 2691 959 2691 1453 
Q 2691 1928 2437 2201 
Q 2184 2475 1800 2475 
Q 1419 2475 1153 2201 
Q 888 1928 888 1484 
z
" transform="scale(0.015625)"/>
        <path id="ArialMT-30" d="M 266 2259 
Q 266 3072 433 3567 
Q 600 4063 929 4331 
Q 1259 4600 1759 4600 
Q 2128 4600 2406 4451 
Q 2684 4303 2865 4023 
Q 3047 3744 3150 3342 
Q 3253 2941 3253 2259 
Q 3253 1453 3087 958 
Q 2922 463 2592 192 
Q 2263 -78 1759 -78 
Q 1097 -78 719 397 
Q 266 969 266 2259 
z
M 844 2259 
Q 844 1131 1108 757 
Q 1372 384 1759 384 
Q 2147 384 2411 759 
Q 2675 1134 2675 2259 
Q 2675 3391 2411 3762 
Q 2147 4134 1753 4134 
Q 1366 4134 1134 3806 
Q 844 3388 844 2259 
z
" transform="scale(0.015625)"/>
       </defs>
       <use xlink:href="#ArialMT-2212"/>
       <use xlink:href="#ArialMT-36" x="58.398438"/>
       <use xlink:href="#ArialMT-30" x="114.013672"/>
      </g>
     </g>
    </g>
    <g id="xtick_2">
     <g id="line2d_2">
      <path d="M 115.277094 243.549375 
L 115.277094 21.789375 
" clip-path="url(#pa73af14f84)" style="fill: none; stroke: #cccccc; stroke-width: 0.8; stroke-linecap: round"/>
     </g>
     <g id="text_2">
      <!-- −40 -->
      <g style="fill: #262626" transform="translate(106.795844 257.707188) scale(0.1 -0.1)">
       <defs>
        <path id="ArialMT-34" d="M 2069 0 
L 2069 1097 
L 81 1097 
L 81 1613 
L 2172 4581 
L 2631 4581 
L 2631 1613 
L 3250 1613 
L 3250 1097 
L 2631 1097 
L 2631 0 
L 2069 0 
z
M 2069 1613 
L 2069 3678 
L 634 1613 
L 2069 1613 
z
" transform="scale(0.015625)"/>
       </defs>
       <use xlink:href="#ArialMT-2212"/>
       <use xlink:href="#ArialMT-34" x="58.398438"/>
       <use xlink:href="#ArialMT-30" x="114.013672"/>
      </g>
     </g>
    </g>
    <g id="xtick_3">
     <g id="line2d_3">
      <path d="M 160.569767 243.549375 
L 160.569767 21.789375 
" clip-path="url(#pa73af14f84)" style="fill: none; stroke: #cccccc; stroke-width: 0.8; stroke-linecap: round"/>
     </g>
     <g id="text_3">
      <!-- −20 -->
      <g style="fill: #262626" transform="translate(152.088517 257.707188) scale(0.1 -0.1)">
       <defs>
        <path id="ArialMT-32" d="M 3222 541 
L 3222 0 
L 194 0 
Q 188 203 259 391 
Q 375 700 629 1000 
Q 884 1300 1366 1694 
Q 2113 2306 2375 2664 
Q 2638 3022 2638 3341 
Q 2638 3675 2398 3904 
Q 2159 4134 1775 4134 
Q 1369 4134 1125 3890 
Q 881 3647 878 3216 
L 300 3275 
Q 359 3922 746 4261 
Q 1134 4600 1788 4600 
Q 2447 4600 2831 4234 
Q 3216 3869 3216 3328 
Q 3216 3053 3103 2787 
Q 2991 2522 2730 2228 
Q 2469 1934 1863 1422 
Q 1356 997 1212 845 
Q 1069 694 975 541 
L 3222 541 
z
" transform="scale(0.015625)"/>
       </defs>
       <use xlink:href="#ArialMT-2212"/>
       <use xlink:href="#ArialMT-32" x="58.398438"/>
       <use xlink:href="#ArialMT-30" x="114.013672"/>
      </g>
     </g>
    </g>
    <g id="xtick_4">
     <g id="line2d_4">
      <path d="M 205.86244 243.549375 
L 205.86244 21.789375 
" clip-path="url(#pa73af14f84)" style="fill: none; stroke: #cccccc; stroke-width: 0.8; stroke-linecap: round"/>
     </g>
     <g id="text_4">
      <!-- 0 -->
      <g style="fill: #262626" transform="translate(203.081971 257.707188) scale(0.1 -0.1)">
       <use xlink:href="#ArialMT-30"/>
      </g>
     </g>
    </g>
    <g id="xtick_5">
     <g id="line2d_5">
      <path d="M 251.155113 243.549375 
L 251.155113 21.789375 
" clip-path="url(#pa73af14f84)" style="fill: none; stroke: #cccccc; stroke-width: 0.8; stroke-linecap: round"/>
     </g>
     <g id="text_5">
      <!-- 20 -->
      <g style="fill: #262626" transform="translate(245.594175 257.707188) scale(0.1 -0.1)">
       <use xlink:href="#ArialMT-32"/>
       <use xlink:href="#ArialMT-30" x="55.615234"/>
      </g>
     </g>
    </g>
    <g id="xtick_6">
     <g id="line2d_6">
      <path d="M 296.447786 243.549375 
L 296.447786 21.789375 
" clip-path="url(#pa73af14f84)" style="fill: none; stroke: #cccccc; stroke-width: 0.8; stroke-linecap: round"/>
     </g>
     <g id="text_6">
      <!-- 40 -->
      <g style="fill: #262626" transform="translate(290.886848 257.707188) scale(0.1 -0.1)">
       <use xlink:href="#ArialMT-34"/>
       <use xlink:href="#ArialMT-30" x="55.615234"/>
      </g>
     </g>
    </g>
    <g id="xtick_7">
     <g id="line2d_7">
      <path d="M 341.740459 243.549375 
L 341.740459 21.789375 
" clip-path="url(#pa73af14f84)" style="fill: none; stroke: #cccccc; stroke-width: 0.8; stroke-linecap: round"/>
     </g>
     <g id="text_7">
      <!-- 60 -->
      <g style="fill: #262626" transform="translate(336.179521 257.707188) scale(0.1 -0.1)">
       <use xlink:href="#ArialMT-36"/>
       <use xlink:href="#ArialMT-30" x="55.615234"/>
      </g>
     </g>
    </g>
    <g id="xtick_8">
     <g id="line2d_8">
      <path d="M 387.033132 243.549375 
L 387.033132 21.789375 
" clip-path="url(#pa73af14f84)" style="fill: none; stroke: #cccccc; stroke-width: 0.8; stroke-linecap: round"/>
     </g>
     <g id="text_8">
      <!-- 80 -->
      <g style="fill: #262626" transform="translate(381.472195 257.707188) scale(0.1 -0.1)">
       <defs>
        <path id="ArialMT-38" d="M 1131 2484 
Q 781 2613 612 2850 
Q 444 3088 444 3419 
Q 444 3919 803 4259 
Q 1163 4600 1759 4600 
Q 2359 4600 2725 4251 
Q 3091 3903 3091 3403 
Q 3091 3084 2923 2848 
Q 2756 2613 2416 2484 
Q 2838 2347 3058 2040 
Q 3278 1734 3278 1309 
Q 3278 722 2862 322 
Q 2447 -78 1769 -78 
Q 1091 -78 675 323 
Q 259 725 259 1325 
Q 259 1772 486 2073 
Q 713 2375 1131 2484 
z
M 1019 3438 
Q 1019 3113 1228 2906 
Q 1438 2700 1772 2700 
Q 2097 2700 2305 2904 
Q 2513 3109 2513 3406 
Q 2513 3716 2298 3927 
Q 2084 4138 1766 4138 
Q 1444 4138 1231 3931 
Q 1019 3725 1019 3438 
z
M 838 1322 
Q 838 1081 952 856 
Q 1066 631 1291 507 
Q 1516 384 1775 384 
Q 2178 384 2440 643 
Q 2703 903 2703 1303 
Q 2703 1709 2433 1975 
Q 2163 2241 1756 2241 
Q 1359 2241 1098 1978 
Q 838 1716 838 1322 
z
" transform="scale(0.015625)"/>
       </defs>
       <use xlink:href="#ArialMT-38"/>
       <use xlink:href="#ArialMT-30" x="55.615234"/>
      </g>
     </g>
    </g>
    <g id="text_9">
     <!-- Residual -->
     <g style="fill: #262626" transform="translate(211.484375 270.8525) scale(0.1 -0.1)">
      <defs>
       <path id="ArialMT-52" d="M 503 0 
L 503 4581 
L 2534 4581 
Q 3147 4581 3465 4457 
Q 3784 4334 3975 4021 
Q 4166 3709 4166 3331 
Q 4166 2844 3850 2509 
Q 3534 2175 2875 2084 
Q 3116 1969 3241 1856 
Q 3506 1613 3744 1247 
L 4541 0 
L 3778 0 
L 3172 953 
Q 2906 1366 2734 1584 
Q 2563 1803 2427 1890 
Q 2291 1978 2150 2013 
Q 2047 2034 1813 2034 
L 1109 2034 
L 1109 0 
L 503 0 
z
M 1109 2559 
L 2413 2559 
Q 2828 2559 3062 2645 
Q 3297 2731 3419 2920 
Q 3541 3109 3541 3331 
Q 3541 3656 3305 3865 
Q 3069 4075 2559 4075 
L 1109 4075 
L 1109 2559 
z
" transform="scale(0.015625)"/>
       <path id="ArialMT-65" d="M 2694 1069 
L 3275 997 
Q 3138 488 2766 206 
Q 2394 -75 1816 -75 
Q 1088 -75 661 373 
Q 234 822 234 1631 
Q 234 2469 665 2931 
Q 1097 3394 1784 3394 
Q 2450 3394 2872 2941 
Q 3294 2488 3294 1666 
Q 3294 1616 3291 1516 
L 816 1516 
Q 847 969 1125 678 
Q 1403 388 1819 388 
Q 2128 388 2347 550 
Q 2566 713 2694 1069 
z
M 847 1978 
L 2700 1978 
Q 2663 2397 2488 2606 
Q 2219 2931 1791 2931 
Q 1403 2931 1139 2672 
Q 875 2413 847 1978 
z
" transform="scale(0.015625)"/>
       <path id="ArialMT-73" d="M 197 991 
L 753 1078 
Q 800 744 1014 566 
Q 1228 388 1613 388 
Q 2000 388 2187 545 
Q 2375 703 2375 916 
Q 2375 1106 2209 1216 
Q 2094 1291 1634 1406 
Q 1016 1563 777 1677 
Q 538 1791 414 1992 
Q 291 2194 291 2438 
Q 291 2659 392 2848 
Q 494 3038 669 3163 
Q 800 3259 1026 3326 
Q 1253 3394 1513 3394 
Q 1903 3394 2198 3281 
Q 2494 3169 2634 2976 
Q 2775 2784 2828 2463 
L 2278 2388 
Q 2241 2644 2061 2787 
Q 1881 2931 1553 2931 
Q 1166 2931 1000 2803 
Q 834 2675 834 2503 
Q 834 2394 903 2306 
Q 972 2216 1119 2156 
Q 1203 2125 1616 2013 
Q 2213 1853 2448 1751 
Q 2684 1650 2818 1456 
Q 2953 1263 2953 975 
Q 2953 694 2789 445 
Q 2625 197 2315 61 
Q 2006 -75 1616 -75 
Q 969 -75 630 194 
Q 291 463 197 991 
z
" transform="scale(0.015625)"/>
       <path id="ArialMT-69" d="M 425 3934 
L 425 4581 
L 988 4581 
L 988 3934 
L 425 3934 
z
M 425 0 
L 425 3319 
L 988 3319 
L 988 0 
L 425 0 
z
" transform="scale(0.015625)"/>
       <path id="ArialMT-64" d="M 2575 0 
L 2575 419 
Q 2259 -75 1647 -75 
Q 1250 -75 917 144 
Q 584 363 401 755 
Q 219 1147 219 1656 
Q 219 2153 384 2558 
Q 550 2963 881 3178 
Q 1213 3394 1622 3394 
Q 1922 3394 2156 3267 
Q 2391 3141 2538 2938 
L 2538 4581 
L 3097 4581 
L 3097 0 
L 2575 0 
z
M 797 1656 
Q 797 1019 1065 703 
Q 1334 388 1700 388 
Q 2069 388 2326 689 
Q 2584 991 2584 1609 
Q 2584 2291 2321 2609 
Q 2059 2928 1675 2928 
Q 1300 2928 1048 2622 
Q 797 2316 797 1656 
z
" transform="scale(0.015625)"/>
       <path id="ArialMT-75" d="M 2597 0 
L 2597 488 
Q 2209 -75 1544 -75 
Q 1250 -75 995 37 
Q 741 150 617 320 
Q 494 491 444 738 
Q 409 903 409 1263 
L 409 3319 
L 972 3319 
L 972 1478 
Q 972 1038 1006 884 
Q 1059 663 1231 536 
Q 1403 409 1656 409 
Q 1909 409 2131 539 
Q 2353 669 2445 892 
Q 2538 1116 2538 1541 
L 2538 3319 
L 3100 3319 
L 3100 0 
L 2597 0 
z
" transform="scale(0.015625)"/>
       <path id="ArialMT-61" d="M 2588 409 
Q 2275 144 1986 34 
Q 1697 -75 1366 -75 
Q 819 -75 525 192 
Q 231 459 231 875 
Q 231 1119 342 1320 
Q 453 1522 633 1644 
Q 813 1766 1038 1828 
Q 1203 1872 1538 1913 
Q 2219 1994 2541 2106 
Q 2544 2222 2544 2253 
Q 2544 2597 2384 2738 
Q 2169 2928 1744 2928 
Q 1347 2928 1158 2789 
Q 969 2650 878 2297 
L 328 2372 
Q 403 2725 575 2942 
Q 747 3159 1072 3276 
Q 1397 3394 1825 3394 
Q 2250 3394 2515 3294 
Q 2781 3194 2906 3042 
Q 3031 2891 3081 2659 
Q 3109 2516 3109 2141 
L 3109 1391 
Q 3109 606 3145 398 
Q 3181 191 3288 0 
L 2700 0 
Q 2613 175 2588 409 
z
M 2541 1666 
Q 2234 1541 1622 1453 
Q 1275 1403 1131 1340 
Q 988 1278 909 1158 
Q 831 1038 831 891 
Q 831 666 1001 516 
Q 1172 366 1500 366 
Q 1825 366 2078 508 
Q 2331 650 2450 897 
Q 2541 1088 2541 1459 
L 2541 1666 
z
" transform="scale(0.015625)"/>
       <path id="ArialMT-6c" d="M 409 0 
L 409 4581 
L 972 4581 
L 972 0 
L 409 0 
z
" transform="scale(0.015625)"/>
      </defs>
      <use xlink:href="#ArialMT-52"/>
      <use xlink:href="#ArialMT-65" x="72.216797"/>
      <use xlink:href="#ArialMT-73" x="127.832031"/>
      <use xlink:href="#ArialMT-69" x="177.832031"/>
      <use xlink:href="#ArialMT-64" x="200.048828"/>
      <use xlink:href="#ArialMT-75" x="255.664062"/>
      <use xlink:href="#ArialMT-61" x="311.279297"/>
      <use xlink:href="#ArialMT-6c" x="366.894531"/>
     </g>
    </g>
   </g>
   <g id="matplotlib.axis_2">
    <g id="ytick_1">
     <g id="line2d_9">
      <path d="M 49.589063 243.549375 
L 412.289062 243.549375 
" clip-path="url(#pa73af14f84)" style="fill: none; stroke: #cccccc; stroke-width: 0.8; stroke-linecap: round"/>
     </g>
     <g id="text_10">
      <!-- 0 -->
      <g style="fill: #262626" transform="translate(37.028125 247.128281) scale(0.1 -0.1)">
       <use xlink:href="#ArialMT-30"/>
      </g>
     </g>
    </g>
    <g id="ytick_2">
     <g id="line2d_10">
      <path d="M 49.589063 214.889052 
L 412.289062 214.889052 
" clip-path="url(#pa73af14f84)" style="fill: none; stroke: #cccccc; stroke-width: 0.8; stroke-linecap: round"/>
     </g>
     <g id="text_11">
      <!-- 250 -->
      <g style="fill: #262626" transform="translate(25.90625 218.467958) scale(0.1 -0.1)">
       <defs>
        <path id="ArialMT-35" d="M 266 1200 
L 856 1250 
Q 922 819 1161 601 
Q 1400 384 1738 384 
Q 2144 384 2425 690 
Q 2706 997 2706 1503 
Q 2706 1984 2436 2262 
Q 2166 2541 1728 2541 
Q 1456 2541 1237 2417 
Q 1019 2294 894 2097 
L 366 2166 
L 809 4519 
L 3088 4519 
L 3088 3981 
L 1259 3981 
L 1013 2750 
Q 1425 3038 1878 3038 
Q 2478 3038 2890 2622 
Q 3303 2206 3303 1553 
Q 3303 931 2941 478 
Q 2500 -78 1738 -78 
Q 1113 -78 717 272 
Q 322 622 266 1200 
z
" transform="scale(0.015625)"/>
       </defs>
       <use xlink:href="#ArialMT-32"/>
       <use xlink:href="#ArialMT-35" x="55.615234"/>
       <use xlink:href="#ArialMT-30" x="111.230469"/>
      </g>
     </g>
    </g>
    <g id="ytick_3">
     <g id="line2d_11">
      <path d="M 49.589063 186.228729 
L 412.289062 186.228729 
" clip-path="url(#pa73af14f84)" style="fill: none; stroke: #cccccc; stroke-width: 0.8; stroke-linecap: round"/>
     </g>
     <g id="text_12">
      <!-- 500 -->
      <g style="fill: #262626" transform="translate(25.90625 189.807635) scale(0.1 -0.1)">
       <use xlink:href="#ArialMT-35"/>
       <use xlink:href="#ArialMT-30" x="55.615234"/>
       <use xlink:href="#ArialMT-30" x="111.230469"/>
      </g>
     </g>
    </g>
    <g id="ytick_4">
     <g id="line2d_12">
      <path d="M 49.589063 157.568406 
L 412.289062 157.568406 
" clip-path="url(#pa73af14f84)" style="fill: none; stroke: #cccccc; stroke-width: 0.8; stroke-linecap: round"/>
     </g>
     <g id="text_13">
      <!-- 750 -->
      <g style="fill: #262626" transform="translate(25.90625 161.147312) scale(0.1 -0.1)">
       <defs>
        <path id="ArialMT-37" d="M 303 3981 
L 303 4522 
L 3269 4522 
L 3269 4084 
Q 2831 3619 2401 2847 
Q 1972 2075 1738 1259 
Q 1569 684 1522 0 
L 944 0 
Q 953 541 1156 1306 
Q 1359 2072 1739 2783 
Q 2119 3494 2547 3981 
L 303 3981 
z
" transform="scale(0.015625)"/>
       </defs>
       <use xlink:href="#ArialMT-37"/>
       <use xlink:href="#ArialMT-35" x="55.615234"/>
       <use xlink:href="#ArialMT-30" x="111.230469"/>
      </g>
     </g>
    </g>
    <g id="ytick_5">
     <g id="line2d_13">
      <path d="M 49.589063 128.908083 
L 412.289062 128.908083 
" clip-path="url(#pa73af14f84)" style="fill: none; stroke: #cccccc; stroke-width: 0.8; stroke-linecap: round"/>
     </g>
     <g id="text_14">
      <!-- 1000 -->
      <g style="fill: #262626" transform="translate(20.345313 132.486989) scale(0.1 -0.1)">
       <defs>
        <path id="ArialMT-31" d="M 2384 0 
L 1822 0 
L 1822 3584 
Q 1619 3391 1289 3197 
Q 959 3003 697 2906 
L 697 3450 
Q 1169 3672 1522 3987 
Q 1875 4303 2022 4600 
L 2384 4600 
L 2384 0 
z
" transform="scale(0.015625)"/>
       </defs>
       <use xlink:href="#ArialMT-31"/>
       <use xlink:href="#ArialMT-30" x="55.615234"/>
       <use xlink:href="#ArialMT-30" x="111.230469"/>
       <use xlink:href="#ArialMT-30" x="166.845703"/>
      </g>
     </g>
    </g>
    <g id="ytick_6">
     <g id="line2d_14">
      <path d="M 49.589063 100.24776 
L 412.289062 100.24776 
" clip-path="url(#pa73af14f84)" style="fill: none; stroke: #cccccc; stroke-width: 0.8; stroke-linecap: round"/>
     </g>
     <g id="text_15">
      <!-- 1250 -->
      <g style="fill: #262626" transform="translate(20.345313 103.826666) scale(0.1 -0.1)">
       <use xlink:href="#ArialMT-31"/>
       <use xlink:href="#ArialMT-32" x="55.615234"/>
       <use xlink:href="#ArialMT-35" x="111.230469"/>
       <use xlink:href="#ArialMT-30" x="166.845703"/>
      </g>
     </g>
    </g>
    <g id="ytick_7">
     <g id="line2d_15">
      <path d="M 49.589063 71.587437 
L 412.289062 71.587437 
" clip-path="url(#pa73af14f84)" style="fill: none; stroke: #cccccc; stroke-width: 0.8; stroke-linecap: round"/>
     </g>
     <g id="text_16">
      <!-- 1500 -->
      <g style="fill: #262626" transform="translate(20.345313 75.166343) scale(0.1 -0.1)">
       <use xlink:href="#ArialMT-31"/>
       <use xlink:href="#ArialMT-35" x="55.615234"/>
       <use xlink:href="#ArialMT-30" x="111.230469"/>
       <use xlink:href="#ArialMT-30" x="166.845703"/>
      </g>
     </g>
    </g>
    <g id="ytick_8">
     <g id="line2d_16">
      <path d="M 49.589063 42.927114 
L 412.289062 42.927114 
" clip-path="url(#pa73af14f84)" style="fill: none; stroke: #cccccc; stroke-width: 0.8; stroke-linecap: round"/>
     </g>
     <g id="text_17">
      <!-- 1750 -->
      <g style="fill: #262626" transform="translate(20.345313 46.50602) scale(0.1 -0.1)">
       <use xlink:href="#ArialMT-31"/>
       <use xlink:href="#ArialMT-37" x="55.615234"/>
       <use xlink:href="#ArialMT-35" x="111.230469"/>
       <use xlink:href="#ArialMT-30" x="166.845703"/>
      </g>
     </g>
    </g>
    <g id="text_18">
     <!-- Count -->
     <g style="fill: #262626" transform="translate(14.357813 146.010781) rotate(-90) scale(0.1 -0.1)">
      <defs>
       <path id="ArialMT-43" d="M 3763 1606 
L 4369 1453 
Q 4178 706 3683 314 
Q 3188 -78 2472 -78 
Q 1731 -78 1267 223 
Q 803 525 561 1097 
Q 319 1669 319 2325 
Q 319 3041 592 3573 
Q 866 4106 1370 4382 
Q 1875 4659 2481 4659 
Q 3169 4659 3637 4309 
Q 4106 3959 4291 3325 
L 3694 3184 
Q 3534 3684 3231 3912 
Q 2928 4141 2469 4141 
Q 1941 4141 1586 3887 
Q 1231 3634 1087 3207 
Q 944 2781 944 2328 
Q 944 1744 1114 1308 
Q 1284 872 1643 656 
Q 2003 441 2422 441 
Q 2931 441 3284 734 
Q 3638 1028 3763 1606 
z
" transform="scale(0.015625)"/>
       <path id="ArialMT-6f" d="M 213 1659 
Q 213 2581 725 3025 
Q 1153 3394 1769 3394 
Q 2453 3394 2887 2945 
Q 3322 2497 3322 1706 
Q 3322 1066 3130 698 
Q 2938 331 2570 128 
Q 2203 -75 1769 -75 
Q 1072 -75 642 372 
Q 213 819 213 1659 
z
M 791 1659 
Q 791 1022 1069 705 
Q 1347 388 1769 388 
Q 2188 388 2466 706 
Q 2744 1025 2744 1678 
Q 2744 2294 2464 2611 
Q 2184 2928 1769 2928 
Q 1347 2928 1069 2612 
Q 791 2297 791 1659 
z
" transform="scale(0.015625)"/>
       <path id="ArialMT-6e" d="M 422 0 
L 422 3319 
L 928 3319 
L 928 2847 
Q 1294 3394 1984 3394 
Q 2284 3394 2536 3286 
Q 2788 3178 2913 3003 
Q 3038 2828 3088 2588 
Q 3119 2431 3119 2041 
L 3119 0 
L 2556 0 
L 2556 2019 
Q 2556 2363 2490 2533 
Q 2425 2703 2258 2804 
Q 2091 2906 1866 2906 
Q 1506 2906 1245 2678 
Q 984 2450 984 1813 
L 984 0 
L 422 0 
z
" transform="scale(0.015625)"/>
       <path id="ArialMT-74" d="M 1650 503 
L 1731 6 
Q 1494 -44 1306 -44 
Q 1000 -44 831 53 
Q 663 150 594 308 
Q 525 466 525 972 
L 525 2881 
L 113 2881 
L 113 3319 
L 525 3319 
L 525 4141 
L 1084 4478 
L 1084 3319 
L 1650 3319 
L 1650 2881 
L 1084 2881 
L 1084 941 
Q 1084 700 1114 631 
Q 1144 563 1211 522 
Q 1278 481 1403 481 
Q 1497 481 1650 503 
z
" transform="scale(0.015625)"/>
      </defs>
      <use xlink:href="#ArialMT-43"/>
      <use xlink:href="#ArialMT-6f" x="72.216797"/>
      <use xlink:href="#ArialMT-75" x="127.832031"/>
      <use xlink:href="#ArialMT-6e" x="183.447266"/>
      <use xlink:href="#ArialMT-74" x="239.0625"/>
     </g>
    </g>
   </g>
   <g id="patch_3">
    <path d="M 66.075426 243.549375 
L 74.318608 243.549375 
L 74.318608 243.434734 
L 66.075426 243.434734 
z
" clip-path="url(#pa73af14f84)" style="fill: #1f77b4; fill-opacity: 0.5; stroke: #ffffff; stroke-width: 0.824318; stroke-linejoin: miter"/>
   </g>
   <g id="patch_4">
    <path d="M 74.318608 243.549375 
L 82.56179 243.549375 
L 82.56179 243.549375 
L 74.318608 243.549375 
z
" clip-path="url(#pa73af14f84)" style="fill: #1f77b4; fill-opacity: 0.5; stroke: #ffffff; stroke-width: 0.824318; stroke-linejoin: miter"/>
   </g>
   <g id="patch_5">
    <path d="M 82.56179 243.549375 
L 90.804972 243.549375 
L 90.804972 243.434734 
L 82.56179 243.434734 
z
" clip-path="url(#pa73af14f84)" style="fill: #1f77b4; fill-opacity: 0.5; stroke: #ffffff; stroke-width: 0.824318; stroke-linejoin: miter"/>
   </g>
   <g id="patch_6">
    <path d="M 90.804972 243.549375 
L 99.048153 243.549375 
L 99.048153 243.549375 
L 90.804972 243.549375 
z
" clip-path="url(#pa73af14f84)" style="fill: #1f77b4; fill-opacity: 0.5; stroke: #ffffff; stroke-width: 0.824318; stroke-linejoin: miter"/>
   </g>
   <g id="patch_7">
    <path d="M 99.048153 243.549375 
L 107.291335 243.549375 
L 107.291335 243.549375 
L 99.048153 243.549375 
z
" clip-path="url(#pa73af14f84)" style="fill: #1f77b4; fill-opacity: 0.5; stroke: #ffffff; stroke-width: 0.824318; stroke-linejoin: miter"/>
   </g>
   <g id="patch_8">
    <path d="M 107.291335 243.549375 
L 115.534517 243.549375 
L 115.534517 243.434734 
L 107.291335 243.434734 
z
" clip-path="url(#pa73af14f84)" style="fill: #1f77b4; fill-opacity: 0.5; stroke: #ffffff; stroke-width: 0.824318; stroke-linejoin: miter"/>
   </g>
   <g id="patch_9">
    <path d="M 115.534517 243.549375 
L 123.777699 243.549375 
L 123.777699 243.320092 
L 115.534517 243.320092 
z
" clip-path="url(#pa73af14f84)" style="fill: #1f77b4; fill-opacity: 0.5; stroke: #ffffff; stroke-width: 0.824318; stroke-linejoin: miter"/>
   </g>
   <g id="patch_10">
    <path d="M 123.777699 243.549375 
L 132.020881 243.549375 
L 132.020881 243.549375 
L 123.777699 243.549375 
z
" clip-path="url(#pa73af14f84)" style="fill: #1f77b4; fill-opacity: 0.5; stroke: #ffffff; stroke-width: 0.824318; stroke-linejoin: miter"/>
   </g>
   <g id="patch_11">
    <path d="M 132.020881 243.549375 
L 140.264063 243.549375 
L 140.264063 243.434734 
L 132.020881 243.434734 
z
" clip-path="url(#pa73af14f84)" style="fill: #1f77b4; fill-opacity: 0.5; stroke: #ffffff; stroke-width: 0.824318; stroke-linejoin: miter"/>
   </g>
   <g id="patch_12">
    <path d="M 140.264063 243.549375 
L 148.507244 243.549375 
L 148.507244 242.976169 
L 140.264063 242.976169 
z
" clip-path="url(#pa73af14f84)" style="fill: #1f77b4; fill-opacity: 0.5; stroke: #ffffff; stroke-width: 0.824318; stroke-linejoin: miter"/>
   </g>
   <g id="patch_13">
    <path d="M 148.507244 243.549375 
L 156.750426 243.549375 
L 156.750426 242.861527 
L 148.507244 242.861527 
z
" clip-path="url(#pa73af14f84)" style="fill: #1f77b4; fill-opacity: 0.5; stroke: #ffffff; stroke-width: 0.824318; stroke-linejoin: miter"/>
   </g>
   <g id="patch_14">
    <path d="M 156.750426 243.549375 
L 164.993608 243.549375 
L 164.993608 242.632245 
L 156.750426 242.632245 
z
" clip-path="url(#pa73af14f84)" style="fill: #1f77b4; fill-opacity: 0.5; stroke: #ffffff; stroke-width: 0.824318; stroke-linejoin: miter"/>
   </g>
   <g id="patch_15">
    <path d="M 164.993608 243.549375 
L 173.23679 243.549375 
L 173.23679 241.944397 
L 164.993608 241.944397 
z
" clip-path="url(#pa73af14f84)" style="fill: #1f77b4; fill-opacity: 0.5; stroke: #ffffff; stroke-width: 0.824318; stroke-linejoin: miter"/>
   </g>
   <g id="patch_16">
    <path d="M 173.23679 243.549375 
L 181.479972 243.549375 
L 181.479972 239.53693 
L 173.23679 239.53693 
z
" clip-path="url(#pa73af14f84)" style="fill: #1f77b4; fill-opacity: 0.5; stroke: #ffffff; stroke-width: 0.824318; stroke-linejoin: miter"/>
   </g>
   <g id="patch_17">
    <path d="M 181.479972 243.549375 
L 189.723153 243.549375 
L 189.723153 233.117017 
L 181.479972 233.117017 
z
" clip-path="url(#pa73af14f84)" style="fill: #1f77b4; fill-opacity: 0.5; stroke: #ffffff; stroke-width: 0.824318; stroke-linejoin: miter"/>
   </g>
   <g id="patch_18">
    <path d="M 189.723153 243.549375 
L 197.966335 243.549375 
L 197.966335 212.02302 
L 189.723153 212.02302 
z
" clip-path="url(#pa73af14f84)" style="fill: #1f77b4; fill-opacity: 0.5; stroke: #ffffff; stroke-width: 0.824318; stroke-linejoin: miter"/>
   </g>
   <g id="patch_19">
    <path d="M 197.966335 243.549375 
L 206.209517 243.549375 
L 206.209517 108.845857 
L 197.966335 108.845857 
z
" clip-path="url(#pa73af14f84)" style="fill: #1f77b4; fill-opacity: 0.5; stroke: #ffffff; stroke-width: 0.824318; stroke-linejoin: miter"/>
   </g>
   <g id="patch_20">
    <path d="M 206.209517 243.549375 
L 214.452699 243.549375 
L 214.452699 81.905153 
L 206.209517 81.905153 
z
" clip-path="url(#pa73af14f84)" style="fill: #1f77b4; fill-opacity: 0.5; stroke: #ffffff; stroke-width: 0.824318; stroke-linejoin: miter"/>
   </g>
   <g id="patch_21">
    <path d="M 214.452699 243.549375 
L 222.695881 243.549375 
L 222.695881 213.742639 
L 214.452699 213.742639 
z
" clip-path="url(#pa73af14f84)" style="fill: #1f77b4; fill-opacity: 0.5; stroke: #ffffff; stroke-width: 0.824318; stroke-linejoin: miter"/>
   </g>
   <g id="patch_22">
    <path d="M 222.695881 243.549375 
L 230.939062 243.549375 
L 230.939062 235.295202 
L 222.695881 235.295202 
z
" clip-path="url(#pa73af14f84)" style="fill: #1f77b4; fill-opacity: 0.5; stroke: #ffffff; stroke-width: 0.824318; stroke-linejoin: miter"/>
   </g>
   <g id="patch_23">
    <path d="M 230.939062 243.549375 
L 239.182244 243.549375 
L 239.182244 242.402962 
L 230.939062 242.402962 
z
" clip-path="url(#pa73af14f84)" style="fill: #1f77b4; fill-opacity: 0.5; stroke: #ffffff; stroke-width: 0.824318; stroke-linejoin: miter"/>
   </g>
   <g id="patch_24">
    <path d="M 239.182244 243.549375 
L 247.425426 243.549375 
L 247.425426 242.746886 
L 239.182244 242.746886 
z
" clip-path="url(#pa73af14f84)" style="fill: #1f77b4; fill-opacity: 0.5; stroke: #ffffff; stroke-width: 0.824318; stroke-linejoin: miter"/>
   </g>
   <g id="patch_25">
    <path d="M 247.425426 243.549375 
L 255.668608 243.549375 
L 255.668608 242.746886 
L 247.425426 242.746886 
z
" clip-path="url(#pa73af14f84)" style="fill: #1f77b4; fill-opacity: 0.5; stroke: #ffffff; stroke-width: 0.824318; stroke-linejoin: miter"/>
   </g>
   <g id="patch_26">
    <path d="M 255.668608 243.549375 
L 263.91179 243.549375 
L 263.91179 243.434734 
L 255.668608 243.434734 
z
" clip-path="url(#pa73af14f84)" style="fill: #1f77b4; fill-opacity: 0.5; stroke: #ffffff; stroke-width: 0.824318; stroke-linejoin: miter"/>
   </g>
   <g id="patch_27">
    <path d="M 263.91179 243.549375 
L 272.154972 243.549375 
L 272.154972 243.205451 
L 263.91179 243.205451 
z
" clip-path="url(#pa73af14f84)" style="fill: #1f77b4; fill-opacity: 0.5; stroke: #ffffff; stroke-width: 0.824318; stroke-linejoin: miter"/>
   </g>
   <g id="patch_28">
    <path d="M 272.154972 243.549375 
L 280.398153 243.549375 
L 280.398153 243.434734 
L 272.154972 243.434734 
z
" clip-path="url(#pa73af14f84)" style="fill: #1f77b4; fill-opacity: 0.5; stroke: #ffffff; stroke-width: 0.824318; stroke-linejoin: miter"/>
   </g>
   <g id="patch_29">
    <path d="M 280.398153 243.549375 
L 288.641335 243.549375 
L 288.641335 243.434734 
L 280.398153 243.434734 
z
" clip-path="url(#pa73af14f84)" style="fill: #1f77b4; fill-opacity: 0.5; stroke: #ffffff; stroke-width: 0.824318; stroke-linejoin: miter"/>
   </g>
   <g id="patch_30">
    <path d="M 288.641335 243.549375 
L 296.884517 243.549375 
L 296.884517 243.549375 
L 288.641335 243.549375 
z
" clip-path="url(#pa73af14f84)" style="fill: #1f77b4; fill-opacity: 0.5; stroke: #ffffff; stroke-width: 0.824318; stroke-linejoin: miter"/>
   </g>
   <g id="patch_31">
    <path d="M 296.884517 243.549375 
L 305.127699 243.549375 
L 305.127699 243.549375 
L 296.884517 243.549375 
z
" clip-path="url(#pa73af14f84)" style="fill: #1f77b4; fill-opacity: 0.5; stroke: #ffffff; stroke-width: 0.824318; stroke-linejoin: miter"/>
   </g>
   <g id="patch_32">
    <path d="M 305.127699 243.549375 
L 313.370881 243.549375 
L 313.370881 243.549375 
L 305.127699 243.549375 
z
" clip-path="url(#pa73af14f84)" style="fill: #1f77b4; fill-opacity: 0.5; stroke: #ffffff; stroke-width: 0.824318; stroke-linejoin: miter"/>
   </g>
   <g id="patch_33">
    <path d="M 313.370881 243.549375 
L 321.614062 243.549375 
L 321.614062 243.549375 
L 313.370881 243.549375 
z
" clip-path="url(#pa73af14f84)" style="fill: #1f77b4; fill-opacity: 0.5; stroke: #ffffff; stroke-width: 0.824318; stroke-linejoin: miter"/>
   </g>
   <g id="patch_34">
    <path d="M 321.614062 243.549375 
L 329.857244 243.549375 
L 329.857244 243.434734 
L 321.614062 243.434734 
z
" clip-path="url(#pa73af14f84)" style="fill: #1f77b4; fill-opacity: 0.5; stroke: #ffffff; stroke-width: 0.824318; stroke-linejoin: miter"/>
   </g>
   <g id="patch_35">
    <path d="M 329.857244 243.549375 
L 338.100426 243.549375 
L 338.100426 243.549375 
L 329.857244 243.549375 
z
" clip-path="url(#pa73af14f84)" style="fill: #1f77b4; fill-opacity: 0.5; stroke: #ffffff; stroke-width: 0.824318; stroke-linejoin: miter"/>
   </g>
   <g id="patch_36">
    <path d="M 338.100426 243.549375 
L 346.343608 243.549375 
L 346.343608 243.549375 
L 338.100426 243.549375 
z
" clip-path="url(#pa73af14f84)" style="fill: #1f77b4; fill-opacity: 0.5; stroke: #ffffff; stroke-width: 0.824318; stroke-linejoin: miter"/>
   </g>
   <g id="patch_37">
    <path d="M 346.343608 243.549375 
L 354.58679 243.549375 
L 354.58679 243.549375 
L 346.343608 243.549375 
z
" clip-path="url(#pa73af14f84)" style="fill: #1f77b4; fill-opacity: 0.5; stroke: #ffffff; stroke-width: 0.824318; stroke-linejoin: miter"/>
   </g>
   <g id="patch_38">
    <path d="M 354.58679 243.549375 
L 362.829972 243.549375 
L 362.829972 243.434734 
L 354.58679 243.434734 
z
" clip-path="url(#pa73af14f84)" style="fill: #1f77b4; fill-opacity: 0.5; stroke: #ffffff; stroke-width: 0.824318; stroke-linejoin: miter"/>
   </g>
   <g id="patch_39">
    <path d="M 362.829972 243.549375 
L 371.073153 243.549375 
L 371.073153 243.549375 
L 362.829972 243.549375 
z
" clip-path="url(#pa73af14f84)" style="fill: #1f77b4; fill-opacity: 0.5; stroke: #ffffff; stroke-width: 0.824318; stroke-linejoin: miter"/>
   </g>
   <g id="patch_40">
    <path d="M 371.073153 243.549375 
L 379.316335 243.549375 
L 379.316335 243.549375 
L 371.073153 243.549375 
z
" clip-path="url(#pa73af14f84)" style="fill: #1f77b4; fill-opacity: 0.5; stroke: #ffffff; stroke-width: 0.824318; stroke-linejoin: miter"/>
   </g>
   <g id="patch_41">
    <path d="M 379.316335 243.549375 
L 387.559517 243.549375 
L 387.559517 243.549375 
L 379.316335 243.549375 
z
" clip-path="url(#pa73af14f84)" style="fill: #1f77b4; fill-opacity: 0.5; stroke: #ffffff; stroke-width: 0.824318; stroke-linejoin: miter"/>
   </g>
   <g id="patch_42">
    <path d="M 387.559517 243.549375 
L 395.802699 243.549375 
L 395.802699 243.434734 
L 387.559517 243.434734 
z
" clip-path="url(#pa73af14f84)" style="fill: #1f77b4; fill-opacity: 0.5; stroke: #ffffff; stroke-width: 0.824318; stroke-linejoin: miter"/>
   </g>
   <g id="line2d_17">
    <path d="M 66.075426 243.386351 
L 77.673873 243.549372 
L 85.958478 243.467842 
L 89.27232 243.391598 
L 95.900004 243.548127 
L 109.155371 243.510317 
L 115.783055 243.334218 
L 124.06766 243.433772 
L 129.038423 243.547558 
L 135.666107 243.450245 
L 140.63687 243.063752 
L 143.950712 243.114939 
L 150.578396 242.911132 
L 153.892237 242.938737 
L 157.206079 242.879161 
L 160.519921 242.956061 
L 162.176842 242.675706 
L 165.490684 241.839453 
L 167.147605 241.738113 
L 170.461447 241.807858 
L 172.118368 241.726902 
L 173.775289 241.464545 
L 175.43221 240.783435 
L 177.089131 239.579925 
L 180.402973 236.962028 
L 183.716815 234.313819 
L 185.373736 232.793969 
L 187.030657 230.817779 
L 188.687578 227.753396 
L 190.344499 223.336214 
L 193.658341 212.850701 
L 195.315262 205.880862 
L 196.972183 194.619222 
L 198.629104 176.578123 
L 200.286025 150.28744 
L 201.942946 115.67378 
L 203.599867 76.573139 
L 205.256787 44.070295 
L 206.913708 32.349375 
L 208.570629 47.251647 
L 210.22755 81.153539 
L 211.884471 120.385618 
L 213.541392 155.094034 
L 215.198313 181.690088 
L 216.855234 200.462881 
L 218.512155 213.291269 
L 220.169076 222.037383 
L 221.825997 227.758021 
L 223.482918 231.301522 
L 225.139839 233.548875 
L 228.453681 236.936518 
L 230.110602 238.806246 
L 231.767523 240.439707 
L 233.424444 241.630246 
L 235.081365 242.430024 
L 236.738286 242.84412 
L 240.052128 242.946371 
L 243.36597 242.789189 
L 246.679812 242.399675 
L 248.336733 242.396138 
L 251.650575 242.744799 
L 254.964417 243.209593 
L 258.278258 243.362506 
L 266.562863 243.37337 
L 269.876705 243.060071 
L 276.504389 243.338828 
L 279.818231 243.326225 
L 288.102836 243.54874 
L 317.927413 243.507521 
L 322.898176 243.405535 
L 327.868939 243.544505 
L 352.722754 243.530277 
L 359.350438 243.430527 
L 364.3212 243.547239 
L 392.488857 243.490982 
L 395.802699 243.386351 
L 395.802699 243.386351 
" clip-path="url(#pa73af14f84)" style="fill: none; stroke: #1f77b4; stroke-width: 1.5; stroke-linecap: round"/>
   </g>
   <g id="patch_43">
    <path d="M 49.589063 243.549375 
L 49.589063 21.789375 
" style="fill: none; stroke: #cccccc; stroke-width: 0.8; stroke-linejoin: miter; stroke-linecap: square"/>
   </g>
   <g id="patch_44">
    <path d="M 412.289062 243.549375 
L 412.289062 21.789375 
" style="fill: none; stroke: #cccccc; stroke-width: 0.8; stroke-linejoin: miter; stroke-linecap: square"/>
   </g>
   <g id="patch_45">
    <path d="M 49.589063 243.549375 
L 412.289062 243.549375 
" style="fill: none; stroke: #cccccc; stroke-width: 0.8; stroke-linejoin: miter; stroke-linecap: square"/>
   </g>
   <g id="patch_46">
    <path d="M 49.589063 21.789375 
L 412.289062 21.789375 
" style="fill: none; stroke: #cccccc; stroke-width: 0.8; stroke-linejoin: miter; stroke-linecap: square"/>
   </g>
   <g id="text_19">
    <!-- Residuals distribution -->
    <g style="fill: #262626" transform="translate(173.912813 15.789375) scale(0.12 -0.12)">
     <defs>
      <path id="ArialMT-20" transform="scale(0.015625)"/>
      <path id="ArialMT-72" d="M 416 0 
L 416 3319 
L 922 3319 
L 922 2816 
Q 1116 3169 1280 3281 
Q 1444 3394 1641 3394 
Q 1925 3394 2219 3213 
L 2025 2691 
Q 1819 2813 1613 2813 
Q 1428 2813 1281 2702 
Q 1134 2591 1072 2394 
Q 978 2094 978 1738 
L 978 0 
L 416 0 
z
" transform="scale(0.015625)"/>
      <path id="ArialMT-62" d="M 941 0 
L 419 0 
L 419 4581 
L 981 4581 
L 981 2947 
Q 1338 3394 1891 3394 
Q 2197 3394 2470 3270 
Q 2744 3147 2920 2923 
Q 3097 2700 3197 2384 
Q 3297 2069 3297 1709 
Q 3297 856 2875 390 
Q 2453 -75 1863 -75 
Q 1275 -75 941 416 
L 941 0 
z
M 934 1684 
Q 934 1088 1097 822 
Q 1363 388 1816 388 
Q 2184 388 2453 708 
Q 2722 1028 2722 1663 
Q 2722 2313 2464 2622 
Q 2206 2931 1841 2931 
Q 1472 2931 1203 2611 
Q 934 2291 934 1684 
z
" transform="scale(0.015625)"/>
     </defs>
     <use xlink:href="#ArialMT-52"/>
     <use xlink:href="#ArialMT-65" x="72.216797"/>
     <use xlink:href="#ArialMT-73" x="127.832031"/>
     <use xlink:href="#ArialMT-69" x="177.832031"/>
     <use xlink:href="#ArialMT-64" x="200.048828"/>
     <use xlink:href="#ArialMT-75" x="255.664062"/>
     <use xlink:href="#ArialMT-61" x="311.279297"/>
     <use xlink:href="#ArialMT-6c" x="366.894531"/>
     <use xlink:href="#ArialMT-73" x="389.111328"/>
     <use xlink:href="#ArialMT-20" x="439.111328"/>
     <use xlink:href="#ArialMT-64" x="466.894531"/>
     <use xlink:href="#ArialMT-69" x="522.509766"/>
     <use xlink:href="#ArialMT-73" x="544.726562"/>
     <use xlink:href="#ArialMT-74" x="594.726562"/>
     <use xlink:href="#ArialMT-72" x="622.509766"/>
     <use xlink:href="#ArialMT-69" x="655.810547"/>
     <use xlink:href="#ArialMT-62" x="678.027344"/>
     <use xlink:href="#ArialMT-75" x="733.642578"/>
     <use xlink:href="#ArialMT-74" x="789.257812"/>
     <use xlink:href="#ArialMT-69" x="817.041016"/>
     <use xlink:href="#ArialMT-6f" x="839.257812"/>
     <use xlink:href="#ArialMT-6e" x="894.873047"/>
    </g>
   </g>
  </g>
 </g>
 <defs>
  <clipPath id="pa73af14f84">
   <rect x="49.589063" y="21.789375" width="362.7" height="221.76"/>
  </clipPath>
 </defs>
</svg>
